<svg xmlns="http://www.w3.org/2000/svg" xmlns:xlink="http://www.w3.org/1999/xlink" viewBox="0 0 335.67 460.99"><defs><style>.cls-1{fill:none;}.cls-2{fill:#25283d;}.cls-3{fill:#d4ecff;}.cls-4{fill:url(#Áåçûìÿííûé_ãðàäèåíò_85);}.cls-5{fill:url(#Áåçûìÿííûé_ãðàäèåíò_54);}.cls-11,.cls-6{fill:#0f054c;}.cls-6,.cls-65{opacity:0.5;}.cls-65,.cls-7{fill:#173d7a;}.cls-8{clip-path:url(#clip-path);}.cls-9{fill:url(#Áåçûìÿííûé_ãðàäèåíò_31);}.cls-10{fill:url(#Áåçûìÿííûé_ãðàäèåíò_85-2);}.cls-11{opacity:0.6;}.cls-12{fill:url(#Áåçûìÿííûé_ãðàäèåíò_31-2);}.cls-13{fill:url(#Áåçûìÿííûé_ãðàäèåíò_85-3);}.cls-14,.cls-16{fill:#42e8e0;}.cls-15{fill:#251c72;}.cls-16{opacity:0.7;}.cls-17{fill:url(#Áåçûìÿííûé_ãðàäèåíò_31-3);}.cls-18{fill:url(#Áåçûìÿííûé_ãðàäèåíò_85-4);}.cls-19{fill:url(#Áåçûìÿííûé_ãðàäèåíò_31-4);}.cls-20{fill:url(#Áåçûìÿííûé_ãðàäèåíò_85-5);}.cls-21{fill:url(#Áåçûìÿííûé_ãðàäèåíò_31-5);}.cls-22{fill:url(#Áåçûìÿííûé_ãðàäèåíò_85-6);}.cls-23{fill:url(#Áåçûìÿííûé_ãðàäèåíò_31-6);}.cls-24{fill:url(#Áåçûìÿííûé_ãðàäèåíò_85-7);}.cls-25{fill:url(#Áåçûìÿííûé_ãðàäèåíò_31-7);}.cls-26{fill:url(#Áåçûìÿííûé_ãðàäèåíò_85-8);}.cls-27{fill:url(#Áåçûìÿííûé_ãðàäèåíò_31-8);}.cls-28{fill:url(#Áåçûìÿííûé_ãðàäèåíò_85-9);}.cls-29{fill:url(#Áåçûìÿííûé_ãðàäèåíò_31-9);}.cls-30{fill:url(#Áåçûìÿííûé_ãðàäèåíò_85-10);}.cls-31{fill:url(#Áåçûìÿííûé_ãðàäèåíò_31-10);}.cls-32{fill:url(#Áåçûìÿííûé_ãðàäèåíò_85-11);}.cls-33{fill:url(#Áåçûìÿííûé_ãðàäèåíò_31-11);}.cls-34{fill:url(#Áåçûìÿííûé_ãðàäèåíò_85-12);}.cls-35{fill:url(#Áåçûìÿííûé_ãðàäèåíò_31-12);}.cls-36{fill:url(#Áåçûìÿííûé_ãðàäèåíò_85-13);}.cls-37{fill:url(#Áåçûìÿííûé_ãðàäèåíò_31-13);}.cls-38{fill:url(#Áåçûìÿííûé_ãðàäèåíò_85-14);}.cls-39{fill:url(#Áåçûìÿííûé_ãðàäèåíò_31-14);}.cls-40{fill:url(#Áåçûìÿííûé_ãðàäèåíò_85-15);}.cls-41{fill:url(#Áåçûìÿííûé_ãðàäèåíò_31-15);}.cls-42{fill:url(#Áåçûìÿííûé_ãðàäèåíò_85-16);}.cls-43{fill:url(#Áåçûìÿííûé_ãðàäèåíò_31-16);}.cls-44{fill:url(#Áåçûìÿííûé_ãðàäèåíò_85-17);}.cls-45{fill:url(#Áåçûìÿííûé_ãðàäèåíò_31-17);}.cls-46{fill:url(#Áåçûìÿííûé_ãðàäèåíò_85-18);}.cls-47{fill:url(#Áåçûìÿííûé_ãðàäèåíò_31-18);}.cls-48{fill:url(#Áåçûìÿííûé_ãðàäèåíò_85-19);}.cls-49{fill:url(#Áåçûìÿííûé_ãðàäèåíò_31-19);}.cls-50{fill:url(#Áåçûìÿííûé_ãðàäèåíò_85-20);}.cls-51{fill:url(#Áåçûìÿííûé_ãðàäèåíò_31-20);}.cls-52{fill:url(#Áåçûìÿííûé_ãðàäèåíò_85-21);}.cls-53{fill:url(#Áåçûìÿííûé_ãðàäèåíò_31-21);}.cls-54{fill:url(#Áåçûìÿííûé_ãðàäèåíò_85-22);}.cls-55{fill:url(#Áåçûìÿííûé_ãðàäèåíò_31-22);}.cls-56{fill:url(#Áåçûìÿííûé_ãðàäèåíò_85-23);}.cls-57{fill:url(#Áåçûìÿííûé_ãðàäèåíò_31-23);}.cls-58{fill:url(#Áåçûìÿííûé_ãðàäèåíò_85-24);}.cls-59{fill:url(#Áåçûìÿííûé_ãðàäèåíò_31-24);}.cls-60{fill:url(#Áåçûìÿííûé_ãðàäèåíò_85-25);}.cls-61{fill:#b2d3ea;}.cls-62{fill:#396caa;}.cls-63{fill:#5793ce;}.cls-64{fill:#fafdff;}.cls-66{fill:#501074;}.cls-67{fill:#5b84e6;}.cls-68{fill:#ff2c9c;}.cls-69{fill:#6614cf;}.cls-70{fill:#ebdb15;}.cls-71{fill:#ffc2b0;}.cls-72{fill:#fff;}.cls-73{fill:#ea9c92;}.cls-74{fill:#d8892b;}.cls-75{fill:#e62a7d;}.cls-76{fill:#e8a200;}.cls-77{fill:#fdd762;}.cls-78{fill:#f2b42a;}.cls-79{fill:#eead00;}</style><linearGradient id="Áåçûìÿííûé_ãðàäèåíò_85" x1="-447.73" y1="-381.75" x2="-210.96" y2="-381.75" gradientTransform="matrix(0.87, -0.5, 0, 1.15, 431.74, 369.6)" gradientUnits="userSpaceOnUse"><stop offset="0" stop-color="#706ec4"/><stop offset="0.02" stop-color="#6d6bc2"/><stop offset="0.25" stop-color="#5651ac"/><stop offset="0.49" stop-color="#463f9d"/><stop offset="0.73" stop-color="#3c3494"/><stop offset="1" stop-color="#393091"/></linearGradient><linearGradient id="Áåçûìÿííûé_ãðàäèåíò_54" x1="-1085.28" y1="-694" x2="-500.48" y2="-440.52" gradientTransform="matrix(0.87, -0.5, 0, 1.15, 431.74, 369.6)" gradientUnits="userSpaceOnUse"><stop offset="0" stop-color="#bcbeff"/><stop offset="0.23" stop-color="#aaadf8"/><stop offset="0.68" stop-color="#7c83e5"/><stop offset="1" stop-color="#5761d7"/></linearGradient><clipPath id="clip-path"><path class="cls-1" d="M176.81,29.35c-6.07,0-12.91,2.08-19.95,6.15-16.77,9.67-32.36,29.22-40.72,51l-.83,2.18-2.34.08a16.18,16.18,0,0,0-7.46,2.41c-10.65,6.15-19.64,21.72-19.64,34,0,.1,0,.2,0,.3l.14,3.83-3.39.23a22.46,22.46,0,0,0-9.5,3.23c-14.12,8.15-25.6,28-25.6,44.35,0,7.12,2.22,12.33,6.25,14.66s9.66,1.65,15.83-1.91l144.65-83.52c17.24-10,31.27-34.25,31.27-54.16,0-8.88-2.81-15.39-7.91-18.33s-12.15-2.13-19.84,2.31h0A54.45,54.45,0,0,0,204.2,47.66l-4.14,4.72-1.87-6c-2.42-7.75-7-13.14-13.2-15.57A22.34,22.34,0,0,0,176.81,29.35Z"/></clipPath><linearGradient id="Áåçûìÿííûé_ãðàäèåíò_31" x1="-641.45" y1="1929.24" x2="-592.41" y2="1929.24" gradientTransform="matrix(0.5, 0.87, 0.87, -0.5, -1184, 1583.28)" gradientUnits="userSpaceOnUse"><stop offset="0" stop-color="#bcbeff"/><stop offset="0.17" stop-color="#b6b8fc"/><stop offset="0.4" stop-color="#a4a8f5"/><stop offset="0.66" stop-color="#868dea"/><stop offset="0.96" stop-color="#5e67da"/><stop offset="1" stop-color="#5761d7"/></linearGradient><linearGradient id="Áåçûìÿííûé_ãðàäèåíò_85-2" x1="-641.45" y1="1929.24" x2="-592.41" y2="1929.24" gradientTransform="matrix(0.5, 0.87, 0.87, -0.5, -1184, 1583.28)" xlink:href="#Áåçûìÿííûé_ãðàäèåíò_85"/><linearGradient id="Áåçûìÿííûé_ãðàäèåíò_31-2" x1="-654.5" y1="1931.56" x2="-600.51" y2="1931.56" xlink:href="#Áåçûìÿííûé_ãðàäèåíò_31"/><linearGradient id="Áåçûìÿííûé_ãðàäèåíò_85-3" x1="-661.96" y1="1931.56" x2="-564.55" y2="1931.56" gradientTransform="matrix(0.5, 0.87, 0.87, -0.5, -1184, 1583.28)" xlink:href="#Áåçûìÿííûé_ãðàäèåíò_85"/><linearGradient id="Áåçûìÿííûé_ãðàäèåíò_31-3" x1="-654.48" y1="1936.75" x2="-605.44" y2="1936.75" xlink:href="#Áåçûìÿííûé_ãðàäèåíò_31"/><linearGradient id="Áåçûìÿííûé_ãðàäèåíò_85-4" x1="-654.48" y1="1936.75" x2="-605.44" y2="1936.75" gradientTransform="matrix(0.5, 0.87, 0.87, -0.5, -1184, 1583.28)" xlink:href="#Áåçûìÿííûé_ãðàäèåíò_85"/><linearGradient id="Áåçûìÿííûé_ãðàäèåíò_31-4" x1="-667.53" y1="1939.07" x2="-613.54" y2="1939.07" xlink:href="#Áåçûìÿííûé_ãðàäèåíò_31"/><linearGradient id="Áåçûìÿííûé_ãðàäèåíò_85-5" x1="-674.99" y1="1939.07" x2="-577.58" y2="1939.07" gradientTransform="matrix(0.5, 0.87, 0.87, -0.5, -1184, 1583.28)" xlink:href="#Áåçûìÿííûé_ãðàäèåíò_85"/><linearGradient id="Áåçûìÿííûé_ãðàäèåíò_31-5" x1="-667.51" y1="1944.25" x2="-618.47" y2="1944.25" xlink:href="#Áåçûìÿííûé_ãðàäèåíò_31"/><linearGradient id="Áåçûìÿííûé_ãðàäèåíò_85-6" x1="-667.51" y1="1944.25" x2="-618.47" y2="1944.25" gradientTransform="matrix(0.5, 0.87, 0.87, -0.5, -1184, 1583.28)" xlink:href="#Áåçûìÿííûé_ãðàäèåíò_85"/><linearGradient id="Áåçûìÿííûé_ãðàäèåíò_31-6" x1="-680.56" y1="1946.57" x2="-626.57" y2="1946.57" xlink:href="#Áåçûìÿííûé_ãðàäèåíò_31"/><linearGradient id="Áåçûìÿííûé_ãðàäèåíò_85-7" x1="-688.02" y1="1946.57" x2="-590.61" y2="1946.57" gradientTransform="matrix(0.5, 0.87, 0.87, -0.5, -1184, 1583.28)" xlink:href="#Áåçûìÿííûé_ãðàäèåíò_85"/><linearGradient id="Áåçûìÿííûé_ãðàäèåíò_31-7" x1="-680.54" y1="1951.76" x2="-631.5" y2="1951.76" xlink:href="#Áåçûìÿííûé_ãðàäèåíò_31"/><linearGradient id="Áåçûìÿííûé_ãðàäèåíò_85-8" x1="-680.54" y1="1951.76" x2="-631.5" y2="1951.76" gradientTransform="matrix(0.5, 0.87, 0.87, -0.5, -1184, 1583.28)" xlink:href="#Áåçûìÿííûé_ãðàäèåíò_85"/><linearGradient id="Áåçûìÿííûé_ãðàäèåíò_31-8" x1="-693.59" y1="1954.08" x2="-639.6" y2="1954.08" xlink:href="#Áåçûìÿííûé_ãðàäèåíò_31"/><linearGradient id="Áåçûìÿííûé_ãðàäèåíò_85-9" x1="-701.05" y1="1954.08" x2="-603.64" y2="1954.08" gradientTransform="matrix(0.5, 0.87, 0.87, -0.5, -1184, 1583.28)" xlink:href="#Áåçûìÿííûé_ãðàäèåíò_85"/><linearGradient id="Áåçûìÿííûé_ãðàäèåíò_31-9" x1="-641.55" y1="1857.86" x2="-592.51" y2="1857.86" xlink:href="#Áåçûìÿííûé_ãðàäèåíò_31"/><linearGradient id="Áåçûìÿííûé_ãðàäèåíò_85-10" x1="-641.55" y1="1857.86" x2="-592.51" y2="1857.86" gradientTransform="matrix(0.5, 0.87, 0.87, -0.5, -1184, 1583.28)" xlink:href="#Áåçûìÿííûé_ãðàäèåíò_85"/><linearGradient id="Áåçûìÿííûé_ãðàäèåíò_31-10" x1="-654.59" y1="1860.18" x2="-600.6" y2="1860.18" xlink:href="#Áåçûìÿííûé_ãðàäèåíò_31"/><linearGradient id="Áåçûìÿííûé_ãðàäèåíò_85-11" x1="-662.05" y1="1860.18" x2="-564.64" y2="1860.18" gradientTransform="matrix(0.5, 0.87, 0.87, -0.5, -1184, 1583.28)" xlink:href="#Áåçûìÿííûé_ãðàäèåíò_85"/><linearGradient id="Áåçûìÿííûé_ãðàäèåíò_31-11" x1="-654.58" y1="1865.36" x2="-605.54" y2="1865.36" xlink:href="#Áåçûìÿííûé_ãðàäèåíò_31"/><linearGradient id="Áåçûìÿííûé_ãðàäèåíò_85-12" x1="-654.58" y1="1865.36" x2="-605.54" y2="1865.36" gradientTransform="matrix(0.5, 0.87, 0.87, -0.5, -1184, 1583.28)" xlink:href="#Áåçûìÿííûé_ãðàäèåíò_85"/><linearGradient id="Áåçûìÿííûé_ãðàäèåíò_31-12" x1="-667.62" y1="1867.68" x2="-613.63" y2="1867.68" xlink:href="#Áåçûìÿííûé_ãðàäèåíò_31"/><linearGradient id="Áåçûìÿííûé_ãðàäèåíò_85-13" x1="-675.08" y1="1867.68" x2="-577.67" y2="1867.68" gradientTransform="matrix(0.5, 0.87, 0.87, -0.5, -1184, 1583.28)" xlink:href="#Áåçûìÿííûé_ãðàäèåíò_85"/><linearGradient id="Áåçûìÿííûé_ãðàäèåíò_31-13" x1="-667.61" y1="1872.87" x2="-618.57" y2="1872.87" xlink:href="#Áåçûìÿííûé_ãðàäèåíò_31"/><linearGradient id="Áåçûìÿííûé_ãðàäèåíò_85-14" x1="-667.61" y1="1872.87" x2="-618.57" y2="1872.87" gradientTransform="matrix(0.5, 0.87, 0.87, -0.5, -1184, 1583.28)" xlink:href="#Áåçûìÿííûé_ãðàäèåíò_85"/><linearGradient id="Áåçûìÿííûé_ãðàäèåíò_31-14" x1="-680.65" y1="1875.19" x2="-626.66" y2="1875.19" xlink:href="#Áåçûìÿííûé_ãðàäèåíò_31"/><linearGradient id="Áåçûìÿííûé_ãðàäèåíò_85-15" x1="-688.11" y1="1875.19" x2="-590.7" y2="1875.19" gradientTransform="matrix(0.5, 0.87, 0.87, -0.5, -1184, 1583.28)" xlink:href="#Áåçûìÿííûé_ãðàäèåíò_85"/><linearGradient id="Áåçûìÿííûé_ãðàäèåíò_31-15" x1="-680.64" y1="1880.37" x2="-631.6" y2="1880.37" xlink:href="#Áåçûìÿííûé_ãðàäèåíò_31"/><linearGradient id="Áåçûìÿííûé_ãðàäèåíò_85-16" x1="-680.64" y1="1880.37" x2="-631.6" y2="1880.37" gradientTransform="matrix(0.5, 0.87, 0.87, -0.5, -1184, 1583.28)" xlink:href="#Áåçûìÿííûé_ãðàäèåíò_85"/><linearGradient id="Áåçûìÿííûé_ãðàäèåíò_31-16" x1="-693.68" y1="1882.69" x2="-639.69" y2="1882.69" xlink:href="#Áåçûìÿííûé_ãðàäèåíò_31"/><linearGradient id="Áåçûìÿííûé_ãðàäèåíò_85-17" x1="-701.14" y1="1882.69" x2="-603.73" y2="1882.69" gradientTransform="matrix(0.5, 0.87, 0.87, -0.5, -1184, 1583.28)" xlink:href="#Áåçûìÿííûé_ãðàäèåíò_85"/><linearGradient id="Áåçûìÿííûé_ãðàäèåíò_31-17" x1="-641.64" y1="1786.47" x2="-592.6" y2="1786.47" xlink:href="#Áåçûìÿííûé_ãðàäèåíò_31"/><linearGradient id="Áåçûìÿííûé_ãðàäèåíò_85-18" x1="-641.64" y1="1786.47" x2="-592.6" y2="1786.47" gradientTransform="matrix(0.5, 0.87, 0.87, -0.5, -1184, 1583.28)" xlink:href="#Áåçûìÿííûé_ãðàäèåíò_85"/><linearGradient id="Áåçûìÿííûé_ãðàäèåíò_31-18" x1="-654.69" y1="1788.79" x2="-600.7" y2="1788.79" xlink:href="#Áåçûìÿííûé_ãðàäèåíò_31"/><linearGradient id="Áåçûìÿííûé_ãðàäèåíò_85-19" x1="-662.14" y1="1788.79" x2="-564.74" y2="1788.79" gradientTransform="matrix(0.5, 0.87, 0.87, -0.5, -1184, 1583.28)" xlink:href="#Áåçûìÿííûé_ãðàäèåíò_85"/><linearGradient id="Áåçûìÿííûé_ãðàäèåíò_31-19" x1="-654.67" y1="1793.98" x2="-605.63" y2="1793.98" xlink:href="#Áåçûìÿííûé_ãðàäèåíò_31"/><linearGradient id="Áåçûìÿííûé_ãðàäèåíò_85-20" x1="-654.67" y1="1793.98" x2="-605.63" y2="1793.98" gradientTransform="matrix(0.5, 0.87, 0.87, -0.5, -1184, 1583.28)" xlink:href="#Áåçûìÿííûé_ãðàäèåíò_85"/><linearGradient id="Áåçûìÿííûé_ãðàäèåíò_31-20" x1="-667.72" y1="1796.3" x2="-613.73" y2="1796.3" xlink:href="#Áåçûìÿííûé_ãðàäèåíò_31"/><linearGradient id="Áåçûìÿííûé_ãðàäèåíò_85-21" x1="-675.17" y1="1796.3" x2="-577.77" y2="1796.3" gradientTransform="matrix(0.5, 0.87, 0.87, -0.5, -1184, 1583.28)" xlink:href="#Áåçûìÿííûé_ãðàäèåíò_85"/><linearGradient id="Áåçûìÿííûé_ãðàäèåíò_31-21" x1="-667.7" y1="1801.48" x2="-618.66" y2="1801.48" xlink:href="#Áåçûìÿííûé_ãðàäèåíò_31"/><linearGradient id="Áåçûìÿííûé_ãðàäèåíò_85-22" x1="-667.7" y1="1801.48" x2="-618.66" y2="1801.48" gradientTransform="matrix(0.5, 0.87, 0.87, -0.5, -1184, 1583.28)" xlink:href="#Áåçûìÿííûé_ãðàäèåíò_85"/><linearGradient id="Áåçûìÿííûé_ãðàäèåíò_31-22" x1="-680.75" y1="1803.8" x2="-626.76" y2="1803.8" xlink:href="#Áåçûìÿííûé_ãðàäèåíò_31"/><linearGradient id="Áåçûìÿííûé_ãðàäèåíò_85-23" x1="-688.2" y1="1803.8" x2="-590.8" y2="1803.8" gradientTransform="matrix(0.5, 0.87, 0.87, -0.5, -1184, 1583.28)" xlink:href="#Áåçûìÿííûé_ãðàäèåíò_85"/><linearGradient id="Áåçûìÿííûé_ãðàäèåíò_31-23" x1="-680.73" y1="1808.99" x2="-631.69" y2="1808.99" xlink:href="#Áåçûìÿííûé_ãðàäèåíò_31"/><linearGradient id="Áåçûìÿííûé_ãðàäèåíò_85-24" x1="-680.73" y1="1808.99" x2="-631.69" y2="1808.99" gradientTransform="matrix(0.5, 0.87, 0.87, -0.5, -1184, 1583.28)" xlink:href="#Áåçûìÿííûé_ãðàäèåíò_85"/><linearGradient id="Áåçûìÿííûé_ãðàäèåíò_31-24" x1="-693.78" y1="1811.31" x2="-639.79" y2="1811.31" xlink:href="#Áåçûìÿííûé_ãðàäèåíò_31"/><linearGradient id="Áåçûìÿííûé_ãðàäèåíò_85-25" x1="-701.23" y1="1811.31" x2="-603.83" y2="1811.31" gradientTransform="matrix(0.5, 0.87, 0.87, -0.5, -1184, 1583.28)" xlink:href="#Áåçûìÿííûé_ãðàäèåíò_85"/></defs><title>banco-dados</title><g id="Camada_2" data-name="Camada 2"><g id="Camada_1-2" data-name="Camada 1"><path class="cls-2" d="M241.23,260.79l-32-18.48c-13.34-7.7-24.18-26.49-24.18-41.89V115.88h7.24v84.54c0,12.87,9.42,29.18,20.56,35.61l32,18.49Z"/><path class="cls-2" d="M207.75,280.08l-32-18.48c-13.34-7.7-24.18-26.49-24.18-41.88V135.17h7.24v84.55c0,12.86,9.42,29.17,20.56,35.6l32,18.48Z"/><path class="cls-2" d="M174.28,299.37l-32-18.48c-13.33-7.7-24.18-26.49-24.18-41.88V154.46h7.25V239c0,12.87,9.41,29.17,20.56,35.6l32,18.49Z"/><path class="cls-3" d="M240,31.17,199.81,7.85h0c-6-3.57-14.32-3.12-23.54,2.2a53.09,53.09,0,0,0-8.69,6.37L151.41,7.08h0c-8.88-6.25-21.75-6-36.06,2.29-18.11,10.45-33.89,31-42.24,52.8A19.6,19.6,0,0,0,64,65.07c-11.82,6.82-21.4,23.41-21.4,37.05,0,.3,0,.57,0,.85a25.87,25.87,0,0,0-11,3.69c-15.12,8.72-27.37,29.94-27.37,47.4,0,8.64,3,14.73,7.89,17.63h0l.13.07,0,0,39.62,23,8.65-41.62L176.27,86.34c14.79-8.53,27.31-27,31.52-44.89Z"/><path class="cls-4" d="M216,33.13a58.64,58.64,0,0,0-14.47,12.21C195.48,25.85,177,19.81,155.1,32.45c-18.11,10.45-33.89,31-42.24,52.8a19.6,19.6,0,0,0-9.11,2.89c-11.82,6.82-21.4,23.41-21.4,37.05,0,.3,0,.57,0,.85a25.91,25.91,0,0,0-11,3.69C56.26,138.45,44,159.67,44,177.13s12.25,24.52,27.36,15.79L216,109.41c18.24-10.53,33-36.14,33-57.21S234.26,22.6,216,33.13Z"/><path class="cls-5" d="M216,33.13a58.64,58.64,0,0,0-14.47,12.21C195.48,25.85,177,19.81,155.1,32.45c-18.11,10.45-33.89,31-42.24,52.8a19.6,19.6,0,0,0-9.11,2.89c-11.82,6.82-21.4,23.41-21.4,37.05,0,.3,0,.57,0,.85a25.91,25.91,0,0,0-11,3.69C56.26,138.45,44,159.67,44,177.13s12.25,24.52,27.36,15.79L216,109.41c18.24-10.53,33-36.14,33-57.21S234.26,22.6,216,33.13Z"/><path class="cls-6" d="M216,33.13a58.64,58.64,0,0,0-14.47,12.21C195.48,25.85,177,19.81,155.1,32.45c-18.11,10.45-33.89,31-42.24,52.8a19.6,19.6,0,0,0-9.11,2.89c-11.82,6.82-21.4,23.41-21.4,37.05,0,.3,0,.57,0,.85a25.91,25.91,0,0,0-11,3.69C56.26,138.45,44,159.67,44,177.13s12.25,24.52,27.36,15.79L216,109.41c18.24-10.53,33-36.14,33-57.21S234.26,22.6,216,33.13Z"/><path class="cls-7" d="M216,33.13a58.64,58.64,0,0,0-14.47,12.21C195.48,25.85,177,19.81,155.1,32.45c-18.11,10.45-33.89,31-42.24,52.8a19.6,19.6,0,0,0-9.11,2.89c-11.82,6.82-21.4,23.41-21.4,37.05,0,.3,0,.57,0,.85a25.91,25.91,0,0,0-11,3.69C56.26,138.45,44,159.67,44,177.13s12.25,24.52,27.36,15.79L216,109.41c18.24-10.53,33-36.14,33-57.21S234.26,22.6,216,33.13Z"/><g class="cls-8"><path class="cls-9" d="M179.4,113.78,227.63,86a2.65,2.65,0,0,0,1.58-2.13h0v-8.7l-1.65,1.47-1.42-.82c.15-.18.26-.34.23-.39l-.7-1.22-34-20.08-10.82-6.3-4.22-1.22-49.5,28.45.14,1.14-1.32.76-2.12-1v8.65h0a1.88,1.88,0,0,0,1.11,1.66l48,27.71A7.15,7.15,0,0,0,179.4,113.78ZM199,92.33l-21.84,11.92-1.87-.09L138.8,83.76l-10.1-5.22,47.58-27.41a1.65,1.65,0,0,1,1.48-.06L224.07,77.8Z"/><path class="cls-10" d="M179.4,113.78,227.63,86a2.65,2.65,0,0,0,1.58-2.13h0v-8.7l-1.65,1.47-1.42-.82c.15-.18.26-.34.23-.39l-.7-1.22-34-20.08-10.82-6.3-4.22-1.22-49.5,28.45.14,1.14-1.32.76-2.12-1v8.65h0a1.88,1.88,0,0,0,1.11,1.66l48,27.71A7.15,7.15,0,0,0,179.4,113.78ZM199,92.33l-21.84,11.92-1.87-.09L138.8,83.76l-10.1-5.22,47.58-27.41a1.65,1.65,0,0,1,1.48-.06L224.07,77.8Z"/><path class="cls-11" d="M175.93,114.69v-10.5l1.21.06L199,92.33,224.07,77.8l-.84-.48c.78-.45,5.18-1.67,6-2.14v8.7h0A2.65,2.65,0,0,1,227.63,86L179.4,113.78A7.41,7.41,0,0,1,175.93,114.69Z"/><path class="cls-12" d="M179.41,105l48.22-27.77c1.91-1.11,2.12-2.78.47-3.74l-48-27.71a7.2,7.2,0,0,0-6.47.26L125.39,73.79c-1.91,1.11-2.12,2.78-.47,3.74l48,27.71A7.2,7.2,0,0,0,179.41,105Zm-2.67-1.62a1.68,1.68,0,0,1-1.48.06L128.09,76.19c-.38-.22-.33-.6.11-.85l48.09-27.7a1.66,1.66,0,0,1,1.47-.06l47.17,27.23c.38.22.33.6-.11.85Z"/><path class="cls-13" d="M179.41,105l48.22-27.77c1.91-1.11,2.12-2.78.47-3.74l-48-27.71a7.2,7.2,0,0,0-6.47.26L125.39,73.79c-1.91,1.11-2.12,2.78-.47,3.74l48,27.71A7.2,7.2,0,0,0,179.41,105Zm-2.67-1.62a1.68,1.68,0,0,1-1.48.06L128.09,76.19c-.38-.22-.33-.6.11-.85l48.09-27.7a1.66,1.66,0,0,1,1.47-.06l47.17,27.23c.38.22.33.6-.11.85Z"/><path class="cls-14" d="M224.93,74.33,177.76,47.11a1.63,1.63,0,0,0-1.47.06L128.2,74.87c-.35.2-.45.49-.27.71a.8.8,0,0,1,.27-.24l48.09-27.7a1.66,1.66,0,0,1,1.47-.06l47.17,27.23a.56.56,0,0,1,.16.14A.4.4,0,0,0,224.93,74.33Z"/><path class="cls-14" d="M227.63,76.73l-48.22,27.78a7.2,7.2,0,0,1-6.47.26l-48-27.72a2,2,0,0,1-1.09-1.39,1.84,1.84,0,0,0,1.09,1.87l48,27.71a7.2,7.2,0,0,0,6.47-.26l48.22-27.77c1.16-.67,1.69-1.55,1.56-2.35A2.83,2.83,0,0,1,227.63,76.73Z"/><path class="cls-15" d="M177.76,51.07a1.65,1.65,0,0,0-1.48.06L130.43,77.54l-2.34-1.35c-.38-.22-.33-.6.11-.85l48.09-27.7a1.66,1.66,0,0,1,1.47-.06l47.17,27.23c.38.22.33.6-.11.85L222.59,77Z"/><path class="cls-16" d="M224.82,75.66c.44-.25.49-.63.11-.85L177.76,47.58a1.66,1.66,0,0,0-1.47.06L128.2,75.34c-.44.25-.49.63-.11.85l47.17,27.23a1.68,1.68,0,0,0,1.48-.06Z"/><path class="cls-17" d="M179.4,98.75,227.63,71a2.65,2.65,0,0,0,1.58-2.13h0V60.14l-1.65,1.48-1.42-.82c.15-.19.26-.34.23-.39l-.7-1.23-34-20.08-10.82-6.3-4.22-1.22L127.11,60l.14,1.14-1.32.76L123.81,61v8.65h0a1.88,1.88,0,0,0,1.11,1.66l48,27.72A7.18,7.18,0,0,0,179.4,98.75ZM199,77.29,177.14,89.22l-1.87-.09L138.8,68.72,128.7,63.5l47.58-27.4a1.65,1.65,0,0,1,1.48-.06l46.31,26.72Z"/><path class="cls-18" d="M179.4,98.75,227.63,71a2.65,2.65,0,0,0,1.58-2.13h0V60.14l-1.65,1.48-1.42-.82c.15-.19.26-.34.23-.39l-.7-1.23-34-20.08-10.82-6.3-4.22-1.22L127.11,60l.14,1.14-1.32.76L123.81,61v8.65h0a1.88,1.88,0,0,0,1.11,1.66l48,27.72A7.18,7.18,0,0,0,179.4,98.75ZM199,77.29,177.14,89.22l-1.87-.09L138.8,68.72,128.7,63.5l47.58-27.4a1.65,1.65,0,0,1,1.48-.06l46.31,26.72Z"/><path class="cls-11" d="M175.93,99.65V89.16l1.21.06L199,77.29l25.09-14.53-.84-.48c.78-.45,5.18-1.67,6-2.14v8.71h0A2.65,2.65,0,0,1,227.63,71L179.4,98.75A7.4,7.4,0,0,1,175.93,99.65Z"/><path class="cls-19" d="M179.41,89.94l48.22-27.77c1.91-1.1,2.12-2.77.47-3.73l-48-27.72a7.2,7.2,0,0,0-6.47.26L125.39,58.76c-1.91,1.1-2.12,2.77-.47,3.73l48,27.71A7.17,7.17,0,0,0,179.41,89.94Zm-2.67-1.62a1.65,1.65,0,0,1-1.48.06L128.09,61.16c-.38-.22-.33-.61.11-.86l48.09-27.69a1.63,1.63,0,0,1,1.47-.06l47.17,27.22c.38.22.33.6-.11.85Z"/><path class="cls-20" d="M179.41,89.94l48.22-27.77c1.91-1.1,2.12-2.77.47-3.73l-48-27.72a7.2,7.2,0,0,0-6.47.26L125.39,58.76c-1.91,1.1-2.12,2.77-.47,3.73l48,27.71A7.17,7.17,0,0,0,179.41,89.94Zm-2.67-1.62a1.65,1.65,0,0,1-1.48.06L128.09,61.16c-.38-.22-.33-.61.11-.86l48.09-27.69a1.63,1.63,0,0,1,1.47-.06l47.17,27.22c.38.22.33.6-.11.85Z"/><path class="cls-14" d="M224.93,59.3,177.76,32.07a1.66,1.66,0,0,0-1.47.06L128.2,59.83c-.35.2-.45.49-.27.71a.92.92,0,0,1,.27-.24l48.09-27.69a1.63,1.63,0,0,1,1.47-.06l47.17,27.22a.56.56,0,0,1,.16.14A.39.39,0,0,0,224.93,59.3Z"/><path class="cls-14" d="M227.63,61.7,179.41,89.47a7.2,7.2,0,0,1-6.47.26L124.92,62a2,2,0,0,1-1.09-1.39,1.83,1.83,0,0,0,1.09,1.86l48,27.71a7.17,7.17,0,0,0,6.47-.26l48.22-27.77c1.16-.67,1.69-1.54,1.56-2.34A2.86,2.86,0,0,1,227.63,61.7Z"/><path class="cls-15" d="M177.76,36a1.65,1.65,0,0,0-1.48.06L130.43,62.51l-2.34-1.35c-.38-.22-.33-.61.11-.86l48.09-27.69a1.63,1.63,0,0,1,1.47-.06l47.17,27.22c.38.22.33.6-.11.85l-2.23,1.29Z"/><path class="cls-16" d="M224.82,60.62c.44-.25.49-.63.11-.85L177.76,32.55a1.63,1.63,0,0,0-1.47.06L128.2,60.3c-.44.25-.49.64-.11.86l47.17,27.22a1.65,1.65,0,0,0,1.48-.06Z"/><path class="cls-21" d="M179.4,83.71l48.23-27.77a2.65,2.65,0,0,0,1.58-2.13h0v-8.7l-1.65,1.47-1.42-.82c.15-.18.26-.34.23-.39s-.7-1.22-.7-1.22l-34-20.09-10.82-6.29-4.22-1.22L127.11,45l.14,1.15-1.32.76L123.81,46V54.6h0a1.89,1.89,0,0,0,1.11,1.66l48,27.71A7.18,7.18,0,0,0,179.4,83.71ZM199,62.26,177.14,74.18l-1.87-.09L138.8,53.69l-10.1-5.22,47.58-27.41a1.65,1.65,0,0,1,1.48-.06l46.31,26.73Z"/><path class="cls-22" d="M179.4,83.71l48.23-27.77a2.65,2.65,0,0,0,1.58-2.13h0v-8.7l-1.65,1.47-1.42-.82c.15-.18.26-.34.23-.39s-.7-1.22-.7-1.22l-34-20.09-10.82-6.29-4.22-1.22L127.11,45l.14,1.15-1.32.76L123.81,46V54.6h0a1.89,1.89,0,0,0,1.11,1.66l48,27.71A7.18,7.18,0,0,0,179.4,83.71ZM199,62.26,177.14,74.18l-1.87-.09L138.8,53.69l-10.1-5.22,47.58-27.41a1.65,1.65,0,0,1,1.48-.06l46.31,26.73Z"/><path class="cls-11" d="M175.93,84.62V74.12l1.21.06L199,62.26l25.09-14.53-.84-.48c.78-.45,5.18-1.68,6-2.14v8.7h0a2.65,2.65,0,0,1-1.58,2.13L179.4,83.71A7.41,7.41,0,0,1,175.93,84.62Z"/><path class="cls-23" d="M179.41,74.91l48.22-27.78c1.91-1.1,2.12-2.77.47-3.73l-48-27.71a7.17,7.17,0,0,0-6.47.26L125.39,43.72c-1.91,1.1-2.12,2.77-.47,3.73l48,27.72A7.2,7.2,0,0,0,179.41,74.91Zm-2.67-1.63a1.65,1.65,0,0,1-1.48.06L128.09,46.12c-.38-.22-.33-.6.11-.85l48.09-27.7a1.63,1.63,0,0,1,1.47-.06l47.17,27.22c.38.22.33.61-.11.86Z"/><path class="cls-24" d="M179.41,74.91l48.22-27.78c1.91-1.1,2.12-2.77.47-3.73l-48-27.71a7.17,7.17,0,0,0-6.47.26L125.39,43.72c-1.91,1.1-2.12,2.77-.47,3.73l48,27.72A7.2,7.2,0,0,0,179.41,74.91Zm-2.67-1.63a1.65,1.65,0,0,1-1.48.06L128.09,46.12c-.38-.22-.33-.6.11-.85l48.09-27.7a1.63,1.63,0,0,1,1.47-.06l47.17,27.22c.38.22.33.61-.11.86Z"/><path class="cls-14" d="M224.93,44.26,177.76,17a1.63,1.63,0,0,0-1.47.06L128.2,44.79c-.35.21-.45.5-.27.71a.9.9,0,0,1,.27-.23l48.09-27.7a1.63,1.63,0,0,1,1.47-.06l47.17,27.22a.78.78,0,0,1,.16.15A.4.4,0,0,0,224.93,44.26Z"/><path class="cls-14" d="M227.63,46.66,179.41,74.43a7.2,7.2,0,0,1-6.47.27L124.92,47a2,2,0,0,1-1.09-1.39,1.83,1.83,0,0,0,1.09,1.86l48,27.72a7.2,7.2,0,0,0,6.47-.26l48.22-27.78c1.16-.66,1.69-1.54,1.56-2.34A2.86,2.86,0,0,1,227.63,46.66Z"/><path class="cls-15" d="M177.76,21a1.65,1.65,0,0,0-1.48.06L130.43,47.47l-2.34-1.35c-.38-.22-.33-.6.11-.85l48.09-27.7a1.63,1.63,0,0,1,1.47-.06l47.17,27.22c.38.22.33.61-.11.86l-2.23,1.28Z"/><path class="cls-16" d="M224.82,45.59c.44-.25.49-.64.11-.86L177.76,17.51a1.63,1.63,0,0,0-1.47.06L128.2,45.27c-.44.25-.49.63-.11.85l47.17,27.22a1.65,1.65,0,0,0,1.48-.06Z"/><path class="cls-25" d="M179.4,68.67,227.63,40.9a2.65,2.65,0,0,0,1.58-2.13h0v-8.7l-1.65,1.48-1.42-.83c.15-.18.26-.33.23-.38l-.7-1.23L191.65,9l-10.82-6.3-4.22-1.22L127.11,30l.14,1.14-1.32.76-2.12-.95v8.66h0a1.88,1.88,0,0,0,1.11,1.66l48,27.72A7.18,7.18,0,0,0,179.4,68.67ZM199,47.22,177.14,59.14l-1.87-.09L138.8,38.65l-10.1-5.22L176.28,6A1.68,1.68,0,0,1,177.76,6l46.31,26.73Z"/><path class="cls-26" d="M179.4,68.67,227.63,40.9a2.65,2.65,0,0,0,1.58-2.13h0v-8.7l-1.65,1.48-1.42-.83c.15-.18.26-.33.23-.38l-.7-1.23L191.65,9l-10.82-6.3-4.22-1.22L127.11,30l.14,1.14-1.32.76-2.12-.95v8.66h0a1.88,1.88,0,0,0,1.11,1.66l48,27.72A7.18,7.18,0,0,0,179.4,68.67ZM199,47.22,177.14,59.14l-1.87-.09L138.8,38.65l-10.1-5.22L176.28,6A1.68,1.68,0,0,1,177.76,6l46.31,26.73Z"/><path class="cls-11" d="M175.93,69.58V59.09l1.21,0L199,47.22l25.09-14.53-.84-.48c.78-.45,5.18-1.67,6-2.14v8.7h0a2.65,2.65,0,0,1-1.58,2.13L179.4,68.67A7.41,7.41,0,0,1,175.93,69.58Z"/><path class="cls-27" d="M179.41,59.87,227.63,32.1c1.91-1.11,2.12-2.78.47-3.74L180.08.65a7.2,7.2,0,0,0-6.47.26L125.39,28.68c-1.91,1.11-2.12,2.78-.47,3.74l48,27.71A7.2,7.2,0,0,0,179.41,59.87Zm-2.67-1.62a1.68,1.68,0,0,1-1.48.06L128.09,31.08c-.38-.22-.33-.6.11-.85l48.09-27.7a1.66,1.66,0,0,1,1.47-.06L224.93,29.7c.38.22.33.6-.11.85Z"/><path class="cls-28" d="M179.41,59.87,227.63,32.1c1.91-1.11,2.12-2.78.47-3.74L180.08.65a7.2,7.2,0,0,0-6.47.26L125.39,28.68c-1.91,1.11-2.12,2.78-.47,3.74l48,27.71A7.2,7.2,0,0,0,179.41,59.87Zm-2.67-1.62a1.68,1.68,0,0,1-1.48.06L128.09,31.08c-.38-.22-.33-.6.11-.85l48.09-27.7a1.66,1.66,0,0,1,1.47-.06L224.93,29.7c.38.22.33.6-.11.85Z"/><path class="cls-14" d="M224.93,29.23,177.76,2a1.63,1.63,0,0,0-1.47.06L128.2,29.76c-.35.2-.45.49-.27.71a.8.8,0,0,1,.27-.24l48.09-27.7a1.66,1.66,0,0,1,1.47-.06L224.93,29.7a.56.56,0,0,1,.16.14A.39.39,0,0,0,224.93,29.23Z"/><path class="cls-14" d="M227.63,31.62,179.41,59.4a7.2,7.2,0,0,1-6.47.26l-48-27.72a2,2,0,0,1-1.09-1.39,1.84,1.84,0,0,0,1.09,1.87l48,27.71a7.2,7.2,0,0,0,6.47-.26L227.63,32.1c1.16-.67,1.69-1.55,1.56-2.34A2.84,2.84,0,0,1,227.63,31.62Z"/><path class="cls-15" d="M177.76,6a1.68,1.68,0,0,0-1.48.06L130.43,32.43l-2.34-1.35c-.38-.22-.33-.6.11-.85l48.09-27.7a1.66,1.66,0,0,1,1.47-.06L224.93,29.7c.38.22.33.6-.11.85l-2.23,1.29Z"/><path class="cls-16" d="M224.82,30.55c.44-.25.49-.63.11-.85L177.76,2.47a1.66,1.66,0,0,0-1.47.06L128.2,30.23c-.44.25-.49.63-.11.85l47.17,27.23a1.68,1.68,0,0,0,1.48-.06Z"/><path class="cls-29" d="M117.5,149.33l48.22-27.77a2.64,2.64,0,0,0,1.59-2.13h0v-8.7l-1.65,1.47-1.42-.82c.15-.18.26-.34.23-.39l-.71-1.22-34-20.09-10.82-6.29-4.22-1.22-49.5,28.44.14,1.15-1.32.76-2.12-1v8.65h0A1.89,1.89,0,0,0,63,121.88l48,27.71A7.18,7.18,0,0,0,117.5,149.33Zm19.58-21.45L115.24,139.8l-1.88-.09L76.9,119.31l-10.1-5.22,47.58-27.41a1.65,1.65,0,0,1,1.48-.06l46.3,26.73Z"/><path class="cls-30" d="M117.5,149.33l48.22-27.77a2.64,2.64,0,0,0,1.59-2.13h0v-8.7l-1.65,1.47-1.42-.82c.15-.18.26-.34.23-.39l-.71-1.22-34-20.09-10.82-6.29-4.22-1.22-49.5,28.44.14,1.15-1.32.76-2.12-1v8.65h0A1.89,1.89,0,0,0,63,121.88l48,27.71A7.18,7.18,0,0,0,117.5,149.33Zm19.58-21.45L115.24,139.8l-1.88-.09L76.9,119.31l-10.1-5.22,47.58-27.41a1.65,1.65,0,0,1,1.48-.06l46.3,26.73Z"/><path class="cls-11" d="M114,150.24v-10.5l1.21.06,21.84-11.92,25.08-14.53-.83-.48c.78-.45,5.17-1.68,6-2.14v8.7h0a2.64,2.64,0,0,1-1.59,2.13L117.5,149.33A7.45,7.45,0,0,1,114,150.24Z"/><path class="cls-31" d="M117.51,140.53l48.22-27.78c1.91-1.1,2.12-2.77.47-3.73l-48-27.71a7.17,7.17,0,0,0-6.47.26L63.49,109.34c-1.91,1.1-2.12,2.77-.47,3.73l48,27.72A7.2,7.2,0,0,0,117.51,140.53Zm-2.68-1.63a1.6,1.6,0,0,1-1.47.06L66.19,111.74c-.38-.22-.33-.6.11-.85l48.08-27.7a1.65,1.65,0,0,1,1.48-.06L163,110.36c.38.21.33.6-.11.85Z"/><path class="cls-32" d="M117.51,140.53l48.22-27.78c1.91-1.1,2.12-2.77.47-3.73l-48-27.71a7.17,7.17,0,0,0-6.47.26L63.49,109.34c-1.91,1.1-2.12,2.77-.47,3.73l48,27.72A7.2,7.2,0,0,0,117.51,140.53Zm-2.68-1.63a1.6,1.6,0,0,1-1.47.06L66.19,111.74c-.38-.22-.33-.6.11-.85l48.08-27.7a1.65,1.65,0,0,1,1.48-.06L163,110.36c.38.21.33.6-.11.85Z"/><path class="cls-14" d="M163,109.88,115.86,82.66a1.65,1.65,0,0,0-1.48.06L66.3,110.41c-.36.21-.45.5-.27.71a.79.79,0,0,1,.27-.23l48.08-27.7a1.65,1.65,0,0,1,1.48-.06L163,110.36a.56.56,0,0,1,.16.14A.4.4,0,0,0,163,109.88Z"/><path class="cls-14" d="M165.73,112.28l-48.22,27.78a7.2,7.2,0,0,1-6.47.26L63,112.6a2,2,0,0,1-1.09-1.39A1.83,1.83,0,0,0,63,113.07l48,27.72a7.2,7.2,0,0,0,6.47-.26l48.22-27.78c1.16-.66,1.69-1.54,1.56-2.34A2.86,2.86,0,0,1,165.73,112.28Z"/><path class="cls-15" d="M115.86,86.62a1.65,1.65,0,0,0-1.48.06L68.53,113.09l-2.34-1.35c-.38-.22-.33-.6.11-.85l48.08-27.7a1.65,1.65,0,0,1,1.48-.06L163,110.36c.38.21.33.6-.11.85l-2.23,1.28Z"/><path class="cls-16" d="M162.92,111.21c.44-.25.49-.64.11-.85L115.86,83.13a1.65,1.65,0,0,0-1.48.06L66.3,110.89c-.44.25-.49.63-.11.85L113.36,139a1.6,1.6,0,0,0,1.47-.06Z"/><path class="cls-33" d="M117.5,134.3l48.22-27.78a2.64,2.64,0,0,0,1.59-2.13h0v-8.7l-1.65,1.48-1.42-.83c.15-.18.26-.33.23-.38s-.71-1.23-.71-1.23l-34-20.08-10.82-6.3-4.22-1.22L65.21,95.58l.14,1.14L64,97.48l-2.12-.94v8.65h0A1.88,1.88,0,0,0,63,106.84l48,27.72A7.21,7.21,0,0,0,117.5,134.3Zm19.58-21.46-21.84,11.93-1.88-.1L76.9,104.27,66.8,99.05l47.58-27.41a1.65,1.65,0,0,1,1.48,0l46.3,26.72Z"/><path class="cls-34" d="M117.5,134.3l48.22-27.78a2.64,2.64,0,0,0,1.59-2.13h0v-8.7l-1.65,1.48-1.42-.83c.15-.18.26-.33.23-.38s-.71-1.23-.71-1.23l-34-20.08-10.82-6.3-4.22-1.22L65.21,95.58l.14,1.14L64,97.48l-2.12-.94v8.65h0A1.88,1.88,0,0,0,63,106.84l48,27.72A7.21,7.21,0,0,0,117.5,134.3Zm19.58-21.46-21.84,11.93-1.88-.1L76.9,104.27,66.8,99.05l47.58-27.41a1.65,1.65,0,0,1,1.48,0l46.3,26.72Z"/><path class="cls-11" d="M114,135.2V124.71l1.21.06,21.84-11.93,25.08-14.53-.83-.48c.78-.45,5.17-1.67,6-2.14v8.7h0a2.64,2.64,0,0,1-1.59,2.13L117.5,134.3A7.56,7.56,0,0,1,114,135.2Z"/><path class="cls-35" d="M117.51,125.49l48.22-27.77c1.91-1.1,2.12-2.78.47-3.73l-48-27.72a7.2,7.2,0,0,0-6.47.26L63.49,94.3C61.58,95.41,61.37,97.08,63,98l48,27.71A7.2,7.2,0,0,0,117.51,125.49Zm-2.68-1.62a1.63,1.63,0,0,1-1.47.06L66.19,96.7c-.38-.22-.33-.6.11-.85l48.08-27.69a1.62,1.62,0,0,1,1.48-.06L163,95.32c.38.22.33.6-.11.85Z"/><path class="cls-36" d="M117.51,125.49l48.22-27.77c1.91-1.1,2.12-2.78.47-3.73l-48-27.72a7.2,7.2,0,0,0-6.47.26L63.49,94.3C61.58,95.41,61.37,97.08,63,98l48,27.71A7.2,7.2,0,0,0,117.51,125.49Zm-2.68-1.62a1.63,1.63,0,0,1-1.47.06L66.19,96.7c-.38-.22-.33-.6.11-.85l48.08-27.69a1.62,1.62,0,0,1,1.48-.06L163,95.32c.38.22.33.6-.11.85Z"/><path class="cls-14" d="M163,94.85,115.86,67.62a1.65,1.65,0,0,0-1.48.06L66.3,95.38c-.36.2-.45.49-.27.71a.71.71,0,0,1,.27-.24l48.08-27.69a1.62,1.62,0,0,1,1.48-.06L163,95.32a.56.56,0,0,1,.16.14A.39.39,0,0,0,163,94.85Z"/><path class="cls-14" d="M165.73,97.25,117.51,125a7.2,7.2,0,0,1-6.47.26L63,97.56a2,2,0,0,1-1.09-1.39A1.83,1.83,0,0,0,63,98l48,27.71a7.2,7.2,0,0,0,6.47-.26l48.22-27.77c1.16-.67,1.69-1.54,1.56-2.34A2.86,2.86,0,0,1,165.73,97.25Z"/><path class="cls-15" d="M115.86,71.59a1.65,1.65,0,0,0-1.48,0L68.53,98.05,66.19,96.7c-.38-.22-.33-.6.11-.85l48.08-27.69a1.62,1.62,0,0,1,1.48-.06L163,95.32c.38.22.33.6-.11.85l-2.23,1.29Z"/><path class="cls-16" d="M162.92,96.17c.44-.25.49-.63.11-.85L115.86,68.1a1.62,1.62,0,0,0-1.48.06L66.3,95.85c-.44.25-.49.63-.11.85l47.17,27.23a1.63,1.63,0,0,0,1.47-.06Z"/><path class="cls-37" d="M117.5,119.26l48.22-27.77a2.66,2.66,0,0,0,1.59-2.14h0v-8.7l-1.65,1.47-1.42-.82c.15-.18.26-.34.23-.39s-.71-1.22-.71-1.22l-34-20.09-10.82-6.29-4.22-1.22L65.21,80.54l.14,1.15L64,82.45l-2.12-1v8.65h0A1.87,1.87,0,0,0,63,91.8l48,27.72A7.18,7.18,0,0,0,117.5,119.26Zm19.58-21.45-21.84,11.92-1.88-.09L76.9,89.23,66.8,84l47.58-27.41a1.65,1.65,0,0,1,1.48-.06l46.3,26.72Z"/><path class="cls-38" d="M117.5,119.26l48.22-27.77a2.66,2.66,0,0,0,1.59-2.14h0v-8.7l-1.65,1.47-1.42-.82c.15-.18.26-.34.23-.39s-.71-1.22-.71-1.22l-34-20.09-10.82-6.29-4.22-1.22L65.21,80.54l.14,1.15L64,82.45l-2.12-1v8.65h0A1.87,1.87,0,0,0,63,91.8l48,27.72A7.18,7.18,0,0,0,117.5,119.26Zm19.58-21.45-21.84,11.92-1.88-.09L76.9,89.23,66.8,84l47.58-27.41a1.65,1.65,0,0,1,1.48-.06l46.3,26.72Z"/><path class="cls-11" d="M114,120.16V109.67l1.21.06,21.84-11.92,25.08-14.54-.83-.48c.78-.44,5.17-1.67,6-2.13v8.7h0a2.66,2.66,0,0,1-1.59,2.14L117.5,119.26A7.44,7.44,0,0,1,114,120.16Z"/><path class="cls-39" d="M117.51,110.46l48.22-27.78c1.91-1.1,2.12-2.77.47-3.73l-48-27.72a7.2,7.2,0,0,0-6.47.26L63.49,79.27C61.58,80.37,61.37,82,63,83l48,27.72A7.2,7.2,0,0,0,117.51,110.46Zm-2.68-1.63a1.63,1.63,0,0,1-1.47.06L66.19,81.67c-.38-.22-.33-.6.11-.86l48.08-27.69a1.65,1.65,0,0,1,1.48-.06L163,80.28c.38.22.33.6-.11.86Z"/><path class="cls-40" d="M117.51,110.46l48.22-27.78c1.91-1.1,2.12-2.77.47-3.73l-48-27.72a7.2,7.2,0,0,0-6.47.26L63.49,79.27C61.58,80.37,61.37,82,63,83l48,27.72A7.2,7.2,0,0,0,117.51,110.46Zm-2.68-1.63a1.63,1.63,0,0,1-1.47.06L66.19,81.67c-.38-.22-.33-.6.11-.86l48.08-27.69a1.65,1.65,0,0,1,1.48-.06L163,80.28c.38.22.33.6-.11.86Z"/><path class="cls-14" d="M163,79.81,115.86,52.59a1.62,1.62,0,0,0-1.48.06L66.3,80.34c-.36.21-.45.49-.27.71a.93.93,0,0,1,.27-.24l48.08-27.69a1.65,1.65,0,0,1,1.48-.06L163,80.28a.46.46,0,0,1,.16.15A.4.4,0,0,0,163,79.81Z"/><path class="cls-14" d="M165.73,82.21,117.51,110a7.17,7.17,0,0,1-6.47.26L63,82.53a2,2,0,0,1-1.09-1.39A1.83,1.83,0,0,0,63,83l48,27.72a7.2,7.2,0,0,0,6.47-.26l48.22-27.78c1.16-.67,1.69-1.54,1.56-2.34A2.86,2.86,0,0,1,165.73,82.21Z"/><path class="cls-15" d="M115.86,56.55a1.65,1.65,0,0,0-1.48.06L68.53,83l-2.34-1.35c-.38-.22-.33-.6.11-.86l48.08-27.69a1.65,1.65,0,0,1,1.48-.06L163,80.28c.38.22.33.6-.11.86l-2.23,1.28Z"/><path class="cls-16" d="M162.92,81.14c.44-.26.49-.64.11-.86L115.86,53.06a1.65,1.65,0,0,0-1.48.06L66.3,80.81c-.44.26-.49.64-.11.86l47.17,27.22a1.63,1.63,0,0,0,1.47-.06Z"/><path class="cls-41" d="M117.5,104.22l48.22-27.77a2.64,2.64,0,0,0,1.59-2.13h0v-8.7l-1.65,1.47-1.42-.82c.15-.18.26-.34.23-.39l-.71-1.22-34-20.08-10.82-6.3-4.22-1.22L65.21,65.5l.14,1.15L64,67.41l-2.12-1v8.65h0A1.89,1.89,0,0,0,63,76.77l48,27.71A7.15,7.15,0,0,0,117.5,104.22Zm19.58-21.45L115.24,94.69l-1.88-.09L76.9,74.2,66.8,69l47.58-27.41a1.65,1.65,0,0,1,1.48-.06l46.3,26.73Z"/><path class="cls-42" d="M117.5,104.22l48.22-27.77a2.64,2.64,0,0,0,1.59-2.13h0v-8.7l-1.65,1.47-1.42-.82c.15-.18.26-.34.23-.39l-.71-1.22-34-20.08-10.82-6.3-4.22-1.22L65.21,65.5l.14,1.15L64,67.41l-2.12-1v8.65h0A1.89,1.89,0,0,0,63,76.77l48,27.71A7.15,7.15,0,0,0,117.5,104.22Zm19.58-21.45L115.24,94.69l-1.88-.09L76.9,74.2,66.8,69l47.58-27.41a1.65,1.65,0,0,1,1.48-.06l46.3,26.73Z"/><path class="cls-11" d="M114,105.13V94.63l1.21.06,21.84-11.92,25.08-14.53-.83-.48c.78-.45,5.17-1.68,6-2.14v8.7h0a2.64,2.64,0,0,1-1.59,2.13L117.5,104.22A7.45,7.45,0,0,1,114,105.13Z"/><path class="cls-43" d="M117.51,95.42l48.22-27.77c1.91-1.11,2.12-2.78.47-3.74l-48-27.71a7.2,7.2,0,0,0-6.47.26L63.49,64.23C61.58,65.33,61.37,67,63,68l48,27.72A7.2,7.2,0,0,0,117.51,95.42Zm-2.68-1.63a1.6,1.6,0,0,1-1.47.06L66.19,66.63c-.38-.22-.33-.6.11-.85l48.08-27.7a1.65,1.65,0,0,1,1.48-.06L163,65.25c.38.22.33.6-.11.85Z"/><path class="cls-44" d="M117.51,95.42l48.22-27.77c1.91-1.11,2.12-2.78.47-3.74l-48-27.71a7.2,7.2,0,0,0-6.47.26L63.49,64.23C61.58,65.33,61.37,67,63,68l48,27.72A7.2,7.2,0,0,0,117.51,95.42Zm-2.68-1.63a1.6,1.6,0,0,1-1.47.06L66.19,66.63c-.38-.22-.33-.6.11-.85l48.08-27.7a1.65,1.65,0,0,1,1.48-.06L163,65.25c.38.22.33.6-.11.85Z"/><path class="cls-14" d="M163,64.77,115.86,37.55a1.65,1.65,0,0,0-1.48.06L66.3,65.31c-.36.2-.45.49-.27.71a.71.71,0,0,1,.27-.24l48.08-27.7a1.65,1.65,0,0,1,1.48-.06L163,65.25a.56.56,0,0,1,.16.14A.4.4,0,0,0,163,64.77Z"/><path class="cls-14" d="M165.73,67.17,117.51,95a7.2,7.2,0,0,1-6.47.26L63,67.49a2,2,0,0,1-1.09-1.39A1.83,1.83,0,0,0,63,68l48,27.72a7.2,7.2,0,0,0,6.47-.26l48.22-27.77c1.16-.67,1.69-1.55,1.56-2.35A2.86,2.86,0,0,1,165.73,67.17Z"/><path class="cls-15" d="M115.86,41.51a1.65,1.65,0,0,0-1.48.06L68.53,68l-2.34-1.35c-.38-.22-.33-.6.11-.85l48.08-27.7a1.65,1.65,0,0,1,1.48-.06L163,65.25c.38.22.33.6-.11.85l-2.23,1.28Z"/><path class="cls-16" d="M162.92,66.1c.44-.25.49-.63.11-.85L115.86,38a1.65,1.65,0,0,0-1.48.06L66.3,65.78c-.44.25-.49.63-.11.85l47.17,27.22a1.6,1.6,0,0,0,1.47-.06Z"/><path class="cls-45" d="M55.6,184.88l48.22-27.77a2.66,2.66,0,0,0,1.59-2.13h0v-8.7l-1.65,1.47-1.42-.82c.15-.18.26-.34.23-.39l-.71-1.22-34-20.09L57,118.94l-4.22-1.22L3.3,146.16l.15,1.15-1.32.76L0,147.12v8.65H0a1.87,1.87,0,0,0,1.11,1.65l48,27.72A7.18,7.18,0,0,0,55.6,184.88Zm19.58-21.45L53.34,175.35l-1.88-.09L15,154.85,4.89,149.64l47.59-27.41a1.65,1.65,0,0,1,1.48-.06l46.3,26.73Z"/><path class="cls-46" d="M55.6,184.88l48.22-27.77a2.66,2.66,0,0,0,1.59-2.13h0v-8.7l-1.65,1.47-1.42-.82c.15-.18.26-.34.23-.39l-.71-1.22-34-20.09L57,118.94l-4.22-1.22L3.3,146.16l.15,1.15-1.32.76L0,147.12v8.65H0a1.87,1.87,0,0,0,1.11,1.65l48,27.72A7.18,7.18,0,0,0,55.6,184.88Zm19.58-21.45L53.34,175.35l-1.88-.09L15,154.85,4.89,149.64l47.59-27.41a1.65,1.65,0,0,1,1.48-.06l46.3,26.73Z"/><path class="cls-11" d="M52.12,185.79v-10.5l1.21.06,21.84-11.92,25.08-14.53-.83-.49c.78-.44,5.17-1.67,6-2.13V155h0a2.66,2.66,0,0,1-1.59,2.13L55.6,184.88A7.57,7.57,0,0,1,52.12,185.79Z"/><path class="cls-47" d="M55.61,176.08l48.22-27.78c1.91-1.1,2.12-2.77.47-3.73l-48-27.72a7.2,7.2,0,0,0-6.47.27L1.59,144.89c-1.92,1.1-2.13,2.77-.47,3.73l48,27.72A7.2,7.2,0,0,0,55.61,176.08Zm-2.68-1.63a1.63,1.63,0,0,1-1.47.06L4.29,147.29c-.38-.22-.33-.6.11-.85l48.08-27.7a1.65,1.65,0,0,1,1.48-.06l47.17,27.22c.37.22.33.6-.11.86Z"/><path class="cls-48" d="M55.61,176.08l48.22-27.78c1.91-1.1,2.12-2.77.47-3.73l-48-27.72a7.2,7.2,0,0,0-6.47.27L1.59,144.89c-1.92,1.1-2.13,2.77-.47,3.73l48,27.72A7.2,7.2,0,0,0,55.61,176.08Zm-2.68-1.63a1.63,1.63,0,0,1-1.47.06L4.29,147.29c-.38-.22-.33-.6.11-.85l48.08-27.7a1.65,1.65,0,0,1,1.48-.06l47.17,27.22c.37.22.33.6-.11.86Z"/><path class="cls-14" d="M101.13,145.43,54,118.21a1.62,1.62,0,0,0-1.48.06L4.4,146c-.36.21-.45.49-.28.71a.84.84,0,0,1,.28-.23l48.08-27.7a1.65,1.65,0,0,1,1.48-.06l47.17,27.22a.58.58,0,0,1,.16.15A.4.4,0,0,0,101.13,145.43Z"/><path class="cls-14" d="M103.83,147.83,55.61,175.6a7.17,7.17,0,0,1-6.47.26l-48-27.71A2,2,0,0,1,0,146.76a1.83,1.83,0,0,0,1.09,1.86l48,27.72a7.2,7.2,0,0,0,6.47-.26l48.22-27.78c1.16-.66,1.69-1.54,1.56-2.34A2.86,2.86,0,0,1,103.83,147.83Z"/><path class="cls-15" d="M54,122.17a1.65,1.65,0,0,0-1.48.06L6.62,148.64l-2.33-1.35c-.38-.22-.33-.6.11-.85l48.08-27.7a1.65,1.65,0,0,1,1.48-.06l47.17,27.22c.37.22.33.6-.11.86L98.79,148Z"/><path class="cls-16" d="M101,146.76c.44-.26.48-.64.11-.86L54,118.68a1.65,1.65,0,0,0-1.48.06L4.4,146.44c-.44.25-.49.63-.11.85l47.17,27.22a1.63,1.63,0,0,0,1.47-.06Z"/><path class="cls-49" d="M55.6,169.84l48.22-27.77a2.66,2.66,0,0,0,1.59-2.13h0v-8.7l-1.65,1.47-1.42-.82c.15-.18.26-.34.23-.39s-.71-1.22-.71-1.22l-34-20.08L57,103.9l-4.22-1.22L3.3,131.13l.15,1.14L2.13,133,0,132.08v8.65H0a1.88,1.88,0,0,0,1.11,1.66l48,27.71A7.15,7.15,0,0,0,55.6,169.84Zm19.58-21.45L53.34,160.31l-1.88-.09L15,139.82,4.89,134.6l47.59-27.41a1.65,1.65,0,0,1,1.48-.06l46.3,26.73Z"/><path class="cls-50" d="M55.6,169.84l48.22-27.77a2.66,2.66,0,0,0,1.59-2.13h0v-8.7l-1.65,1.47-1.42-.82c.15-.18.26-.34.23-.39s-.71-1.22-.71-1.22l-34-20.08L57,103.9l-4.22-1.22L3.3,131.13l.15,1.14L2.13,133,0,132.08v8.65H0a1.88,1.88,0,0,0,1.11,1.66l48,27.71A7.15,7.15,0,0,0,55.6,169.84Zm19.58-21.45L53.34,160.31l-1.88-.09L15,139.82,4.89,134.6l47.59-27.41a1.65,1.65,0,0,1,1.48-.06l46.3,26.73Z"/><path class="cls-11" d="M52.12,170.75v-10.5l1.21.06,21.84-11.92,25.08-14.53-.83-.48c.78-.45,5.17-1.67,6-2.14v8.7h0a2.66,2.66,0,0,1-1.59,2.13L55.6,169.84A7.45,7.45,0,0,1,52.12,170.75Z"/><path class="cls-51" d="M55.61,161l48.22-27.77c1.91-1.11,2.12-2.78.47-3.74l-48-27.71a7.2,7.2,0,0,0-6.47.26L1.59,129.85c-1.92,1.11-2.13,2.78-.47,3.73l48,27.72A7.2,7.2,0,0,0,55.61,161Zm-2.68-1.62a1.63,1.63,0,0,1-1.47.05L4.29,132.25c-.38-.22-.33-.6.11-.85l48.08-27.7a1.65,1.65,0,0,1,1.48-.06l47.17,27.23c.37.22.33.6-.11.85Z"/><path class="cls-52" d="M55.61,161l48.22-27.77c1.91-1.11,2.12-2.78.47-3.74l-48-27.71a7.2,7.2,0,0,0-6.47.26L1.59,129.85c-1.92,1.11-2.13,2.78-.47,3.73l48,27.72A7.2,7.2,0,0,0,55.61,161Zm-2.68-1.62a1.63,1.63,0,0,1-1.47.05L4.29,132.25c-.38-.22-.33-.6.11-.85l48.08-27.7a1.65,1.65,0,0,1,1.48-.06l47.17,27.23c.37.22.33.6-.11.85Z"/><path class="cls-14" d="M101.13,130.39,54,103.17a1.65,1.65,0,0,0-1.48.06L4.4,130.93c-.36.2-.45.49-.28.71a.75.75,0,0,1,.28-.24l48.08-27.7a1.65,1.65,0,0,1,1.48-.06l47.17,27.23a.56.56,0,0,1,.16.14A.4.4,0,0,0,101.13,130.39Z"/><path class="cls-14" d="M103.83,132.79,55.61,160.57a7.2,7.2,0,0,1-6.47.26l-48-27.72A2,2,0,0,1,0,131.72a1.83,1.83,0,0,0,1.09,1.86l48,27.72a7.2,7.2,0,0,0,6.47-.26l48.22-27.77c1.16-.67,1.69-1.55,1.56-2.35A2.83,2.83,0,0,1,103.83,132.79Z"/><path class="cls-15" d="M54,107.13a1.65,1.65,0,0,0-1.48.06L6.62,133.6l-2.33-1.35c-.38-.22-.33-.6.11-.85l48.08-27.7a1.65,1.65,0,0,1,1.48-.06l47.17,27.23c.37.22.33.6-.11.85L98.79,133Z"/><path class="cls-16" d="M101,131.72c.44-.25.48-.63.11-.85L54,103.64a1.65,1.65,0,0,0-1.48.06L4.4,131.4c-.44.25-.49.63-.11.85l47.17,27.22a1.63,1.63,0,0,0,1.47-.05Z"/><path class="cls-53" d="M55.6,154.81,103.82,127a2.66,2.66,0,0,0,1.59-2.13h0V116.2l-1.65,1.48-1.42-.82c.15-.19.26-.34.23-.39l-.71-1.23-34-20.08L57,88.86l-4.22-1.22L3.3,116.09l.15,1.14L2.13,118,0,117.05v8.65H0a1.88,1.88,0,0,0,1.11,1.66l48,27.72A7.18,7.18,0,0,0,55.6,154.81Zm19.58-21.46L53.34,145.28l-1.88-.09L15,124.78,4.89,119.56l47.59-27.4A1.62,1.62,0,0,1,54,92.1l46.3,26.72Z"/><path class="cls-54" d="M55.6,154.81,103.82,127a2.66,2.66,0,0,0,1.59-2.13h0V116.2l-1.65,1.48-1.42-.82c.15-.19.26-.34.23-.39l-.71-1.23-34-20.08L57,88.86l-4.22-1.22L3.3,116.09l.15,1.14L2.13,118,0,117.05v8.65H0a1.88,1.88,0,0,0,1.11,1.66l48,27.72A7.18,7.18,0,0,0,55.6,154.81Zm19.58-21.46L53.34,145.28l-1.88-.09L15,124.78,4.89,119.56l47.59-27.4A1.62,1.62,0,0,1,54,92.1l46.3,26.72Z"/><path class="cls-11" d="M52.12,155.71V145.22l1.21.06,21.84-11.93,25.08-14.53-.83-.48c.78-.45,5.17-1.67,6-2.14v8.71h0a2.66,2.66,0,0,1-1.59,2.13L55.6,154.81A7.44,7.44,0,0,1,52.12,155.71Z"/><path class="cls-55" d="M55.61,146l48.22-27.77c1.91-1.1,2.12-2.77.47-3.73l-48-27.72a7.2,7.2,0,0,0-6.47.26L1.59,114.82c-1.92,1.1-2.13,2.77-.47,3.73l48,27.71A7.17,7.17,0,0,0,55.61,146Zm-2.68-1.62a1.63,1.63,0,0,1-1.47.06L4.29,117.21c-.38-.21-.33-.6.11-.85L52.48,88.67A1.65,1.65,0,0,1,54,88.61l47.17,27.22c.37.22.33.6-.11.85Z"/><path class="cls-56" d="M55.61,146l48.22-27.77c1.91-1.1,2.12-2.77.47-3.73l-48-27.72a7.2,7.2,0,0,0-6.47.26L1.59,114.82c-1.92,1.1-2.13,2.77-.47,3.73l48,27.71A7.17,7.17,0,0,0,55.61,146Zm-2.68-1.62a1.63,1.63,0,0,1-1.47.06L4.29,117.21c-.38-.21-.33-.6.11-.85L52.48,88.67A1.65,1.65,0,0,1,54,88.61l47.17,27.22c.37.22.33.6-.11.85Z"/><path class="cls-14" d="M101.13,115.36,54,88.13a1.68,1.68,0,0,0-1.48.06L4.4,115.89c-.36.2-.45.49-.28.71a.75.75,0,0,1,.28-.24L52.48,88.67A1.65,1.65,0,0,1,54,88.61l47.17,27.22a.56.56,0,0,1,.16.14A.39.39,0,0,0,101.13,115.36Z"/><path class="cls-14" d="M103.83,117.76,55.61,145.53a7.2,7.2,0,0,1-6.47.26l-48-27.71A2,2,0,0,1,0,116.69a1.83,1.83,0,0,0,1.09,1.86l48,27.71a7.17,7.17,0,0,0,6.47-.26l48.22-27.77c1.16-.67,1.69-1.54,1.56-2.34A2.86,2.86,0,0,1,103.83,117.76Z"/><path class="cls-15" d="M54,92.1a1.62,1.62,0,0,0-1.48.06L6.62,118.57l-2.33-1.36c-.38-.21-.33-.6.11-.85L52.48,88.67A1.65,1.65,0,0,1,54,88.61l47.17,27.22c.37.22.33.6-.11.85L98.79,118Z"/><path class="cls-16" d="M101,116.68c.44-.25.48-.63.11-.85L54,88.61a1.65,1.65,0,0,0-1.48.06L4.4,116.36c-.44.25-.49.64-.11.85l47.17,27.23a1.63,1.63,0,0,0,1.47-.06Z"/><path class="cls-57" d="M55.6,139.77,103.82,112a2.66,2.66,0,0,0,1.59-2.13h0v-8.7l-1.65,1.47-1.42-.82c.15-.18.26-.34.23-.39l-.71-1.22-34-20.09L57,73.83l-4.22-1.22L3.3,101.05l.15,1.15L2.13,103,0,102v8.65H0a1.89,1.89,0,0,0,1.11,1.66l48,27.71A7.18,7.18,0,0,0,55.6,139.77Zm19.58-21.45L53.34,130.24l-1.88-.09L15,109.75,4.89,104.53,52.48,77.12A1.65,1.65,0,0,1,54,77.06l46.3,26.73Z"/><path class="cls-58" d="M55.6,139.77,103.82,112a2.66,2.66,0,0,0,1.59-2.13h0v-8.7l-1.65,1.47-1.42-.82c.15-.18.26-.34.23-.39l-.71-1.22-34-20.09L57,73.83l-4.22-1.22L3.3,101.05l.15,1.15L2.13,103,0,102v8.65H0a1.89,1.89,0,0,0,1.11,1.66l48,27.71A7.18,7.18,0,0,0,55.6,139.77Zm19.58-21.45L53.34,130.24l-1.88-.09L15,109.75,4.89,104.53,52.48,77.12A1.65,1.65,0,0,1,54,77.06l46.3,26.73Z"/><path class="cls-11" d="M52.12,140.68v-10.5l1.21.06,21.84-11.92,25.08-14.53-.83-.49c.78-.44,5.17-1.67,6-2.13v8.7h0a2.66,2.66,0,0,1-1.59,2.13L55.6,139.77A7.45,7.45,0,0,1,52.12,140.68Z"/><path class="cls-59" d="M55.61,131l48.22-27.78c1.91-1.1,2.12-2.77.47-3.73l-48-27.72a7.2,7.2,0,0,0-6.47.27L1.59,99.78c-1.92,1.1-2.13,2.77-.47,3.73l48,27.72A7.2,7.2,0,0,0,55.61,131Zm-2.68-1.63a1.63,1.63,0,0,1-1.47.06L4.29,102.18c-.38-.22-.33-.6.11-.85l48.08-27.7A1.65,1.65,0,0,1,54,73.57l47.17,27.22c.37.22.33.6-.11.86Z"/><path class="cls-60" d="M55.61,131l48.22-27.78c1.91-1.1,2.12-2.77.47-3.73l-48-27.72a7.2,7.2,0,0,0-6.47.27L1.59,99.78c-1.92,1.1-2.13,2.77-.47,3.73l48,27.72A7.2,7.2,0,0,0,55.61,131Zm-2.68-1.63a1.63,1.63,0,0,1-1.47.06L4.29,102.18c-.38-.22-.33-.6.11-.85l48.08-27.7A1.65,1.65,0,0,1,54,73.57l47.17,27.22c.37.22.33.6-.11.86Z"/><path class="cls-14" d="M101.13,100.32,54,73.1a1.65,1.65,0,0,0-1.48.06L4.4,100.85c-.36.21-.45.49-.28.71a.84.84,0,0,1,.28-.23l48.08-27.7A1.65,1.65,0,0,1,54,73.57l47.17,27.22a.58.58,0,0,1,.16.15A.4.4,0,0,0,101.13,100.32Z"/><path class="cls-14" d="M103.83,102.72,55.61,130.49a7.2,7.2,0,0,1-6.47.27L1.12,103A2,2,0,0,1,0,101.65a1.83,1.83,0,0,0,1.09,1.86l48,27.72a7.2,7.2,0,0,0,6.47-.26l48.22-27.78c1.16-.66,1.69-1.54,1.56-2.34A2.86,2.86,0,0,1,103.83,102.72Z"/><path class="cls-15" d="M54,77.06a1.65,1.65,0,0,0-1.48.06L6.62,103.53l-2.33-1.35c-.38-.22-.33-.6.11-.85l48.08-27.7A1.65,1.65,0,0,1,54,73.57l47.17,27.22c.37.22.33.6-.11.86l-2.23,1.28Z"/><path class="cls-16" d="M101,101.65c.44-.26.48-.64.11-.86L54,73.57a1.65,1.65,0,0,0-1.48.06L4.4,101.33c-.44.25-.49.63-.11.85L51.46,129.4a1.63,1.63,0,0,0,1.47-.06Z"/></g><path class="cls-14" d="M156.33,77.48a2.1,2.1,0,0,1-.94,1.64c-.53.3-.95,0-.95-.55a2.08,2.08,0,0,1,.95-1.64C155.91,76.63,156.33,76.87,156.33,77.48Z"/><path class="cls-14" d="M159.63,75.57a2.07,2.07,0,0,1-.95,1.64c-.52.3-.94.06-.94-.54a2.08,2.08,0,0,1,.94-1.64C159.21,74.73,159.63,75,159.63,75.57Z"/><path class="cls-14" d="M162.93,73.67a2.08,2.08,0,0,1-1,1.64c-.52.3-.94,0-.94-.55a2.1,2.1,0,0,1,.94-1.64C162.51,72.82,162.93,73.06,162.93,73.67Z"/><path class="cls-14" d="M156.33,107.7a2.1,2.1,0,0,1-.94,1.64c-.53.3-.95,0-.95-.55a2.08,2.08,0,0,1,.95-1.64C155.91,106.85,156.33,107.09,156.33,107.7Z"/><path class="cls-14" d="M159.63,105.79a2.07,2.07,0,0,1-.95,1.64c-.52.3-.94.06-.94-.54a2.08,2.08,0,0,1,.94-1.64C159.21,105,159.63,105.19,159.63,105.79Z"/><path class="cls-14" d="M162.93,103.89a2.08,2.08,0,0,1-1,1.64c-.52.3-.94.06-.94-.55a2.1,2.1,0,0,1,.94-1.64C162.51,103,162.93,103.29,162.93,103.89Z"/><path class="cls-14" d="M217.76,57.4a2.1,2.1,0,0,1-.95,1.64c-.52.3-.94.05-.94-.55a2.1,2.1,0,0,1,.94-1.64C217.34,56.55,217.76,56.79,217.76,57.4Z"/><path class="cls-14" d="M221.06,55.49a2.07,2.07,0,0,1-.95,1.64c-.52.3-.94.06-.94-.55a2.08,2.08,0,0,1,.94-1.63C220.64,54.64,221.06,54.89,221.06,55.49Z"/><path class="cls-14" d="M224.36,53.59a2.12,2.12,0,0,1-1,1.64c-.52.3-.94.05-.94-.55a2.1,2.1,0,0,1,.94-1.64C223.93,52.74,224.36,53,224.36,53.59Z"/><path class="cls-14" d="M94.25,158.29a2.07,2.07,0,0,1-1,1.64c-.52.3-.94.06-.94-.54a2.08,2.08,0,0,1,.94-1.64C93.83,157.44,94.25,157.69,94.25,158.29Z"/><path class="cls-14" d="M97.55,156.39a2.11,2.11,0,0,1-1,1.64c-.52.3-.95.05-.95-.55a2.11,2.11,0,0,1,.95-1.64C97.12,155.54,97.55,155.78,97.55,156.39Z"/><path class="cls-14" d="M100.85,154.48a2.09,2.09,0,0,1-.95,1.64c-.52.3-1,.06-1-.54a2.09,2.09,0,0,1,1-1.64C100.42,153.63,100.85,153.88,100.85,154.48Z"/><ellipse class="cls-61" cx="304.87" cy="445.82" rx="22.93" ry="13.24"/><path class="cls-61" d="M244.06,445.48l-74.37-42.41c-2.72-1.57-2.38-4.31.76-6.12l42.79-24.71c3.14-1.81,7.89-2,10.61-.44l74.38,42.41c2.72,1.57,2.38,4.31-.76,6.13L254.67,445C251.53,446.86,246.78,447.05,244.06,445.48Z"/><path class="cls-62" d="M304.86,399.93h0V226.3l-69-18.07-12.71-7.34c-2.92-1.68-8-1.47-11.38.47l-11.87,6.85-36.81,0L174,375.81a3.29,3.29,0,0,0,1.95,3.05l68.89,52c2.92,1.68,8,1.47,11.38-.47l45.91-26.51C304,402.74,305,401.29,304.86,399.93Z"/><path class="cls-3" d="M217.84,199.76a13.09,13.09,0,0,0-6.1,1.6l-11.87,6.85-36.81,0v174.1a3.29,3.29,0,0,0,1.95,3l79.79,45.5a10.38,10.38,0,0,0,5.28,1.13l.82-175.19Z"/><path class="cls-63" d="M245.53,431.2a13,13,0,0,0,9.1-.11V254.71h-9.1Z"/><path class="cls-3" d="M244.8,256.8,165,211.3c-2.92-1.68-2.55-4.63.82-6.57l45.91-26.51c3.36-1.94,8.46-2.15,11.38-.47l79.79,45.5c2.91,1.68,2.55,4.63-.82,6.57l-45.91,26.51C252.81,258.27,247.72,258.48,244.8,256.8Z"/><path class="cls-64" d="M302.09,226.59,256.18,253.1c-3.37,1.94-8.46,2.15-11.38.47L165,208.07a4.34,4.34,0,0,1-1.46-1.29c-1,1.62-.54,3.37,1.46,4.52l79.79,45.5c2.92,1.68,8,1.47,11.38-.47l45.91-26.51c2.62-1.51,3.41-3.62,2.27-5.28A6.22,6.22,0,0,1,302.09,226.59Z"/><path class="cls-7" d="M247.05,238.36l-53.12-30.79c-1.36-.79-1.19-2.17.39-3.08l21.48-12.4a5.92,5.92,0,0,1,5.33-.22l53.12,30.79c1.36.79,1.19,2.17-.39,3.08l-21.48,12.4A5.92,5.92,0,0,1,247.05,238.36Z"/><path class="cls-3" d="M218.38,209l-3.08-1.78c-.19-.11-.17-.3,0-.42l3-1.72a.81.81,0,0,1,.74,0l3.08,1.78c.19.11.16.3,0,.42l-3,1.72A.79.79,0,0,1,218.38,209Z"/><path class="cls-3" d="M228.66,214.86l-3.08-1.77c-.19-.11-.16-.3,0-.43l3-1.72a.82.82,0,0,1,.73,0l3.08,1.78c.19.11.17.3,0,.43l-3,1.71A.81.81,0,0,1,228.66,214.86Z"/><path class="cls-3" d="M238.94,220.78,235.87,219c-.19-.11-.17-.3,0-.43l3-1.71a.81.81,0,0,1,.74,0l3.08,1.77c.18.11.16.3-.06.43l-3,1.72A.88.88,0,0,1,238.94,220.78Z"/><path class="cls-3" d="M249.23,226.69l-3.08-1.78c-.19-.11-.17-.3,0-.42l3-1.72a.81.81,0,0,1,.74,0l3.08,1.78c.19.11.16.3-.05.42l-3,1.72A.82.82,0,0,1,249.23,226.69Z"/><path class="cls-63" d="M193.93,207.57l.07,0c.1-.07.2-.15.32-.22L215.8,195a5.92,5.92,0,0,1,5.33-.22l53.05,30.76c1.26-.91,1.33-2.13.07-2.86l-53.12-30.79a5.92,5.92,0,0,0-5.33.22l-21.48,12.4C192.74,205.4,192.57,206.78,193.93,207.57Z"/><path class="cls-63" d="M236,291.2l-58.95-34a7.36,7.36,0,0,1-3.08-5.88v-10.8c0-2.27,1.38-3.31,3.08-2.33l58.95,34a7.38,7.38,0,0,1,3.08,5.88v10.8C239.06,291.14,237.68,292.18,236,291.2Z"/><path class="cls-7" d="M231.52,281.65l-2.77-1.6a1.6,1.6,0,0,1-.67-1.28v-3c0-.49.3-.72.67-.51l2.77,1.6a1.62,1.62,0,0,1,.67,1.28v3C232.19,281.64,231.89,281.86,231.52,281.65Z"/><path class="cls-7" d="M222.26,276.3l-2.77-1.6a1.6,1.6,0,0,1-.67-1.28v-3c0-.49.3-.72.67-.51l2.77,1.6a1.62,1.62,0,0,1,.67,1.29v3C222.93,276.29,222.63,276.52,222.26,276.3Z"/><path class="cls-63" d="M236,330.22l-58.95-34A7.36,7.36,0,0,1,174,290.3V279.5c0-2.26,1.38-3.3,3.08-2.32l58.95,34a7.36,7.36,0,0,1,3.08,5.88v10.8C239.06,330.16,237.68,331.2,236,330.22Z"/><path class="cls-7" d="M231.52,320.67l-2.77-1.59a1.62,1.62,0,0,1-.67-1.29v-3c0-.49.3-.72.67-.5l2.77,1.6a1.59,1.59,0,0,1,.67,1.28v3C232.19,320.66,231.89,320.89,231.52,320.67Z"/><path class="cls-3" d="M222.26,315.33l-2.77-1.6a1.62,1.62,0,0,1-.67-1.28v-3c0-.5.3-.73.67-.51l2.77,1.6a1.6,1.6,0,0,1,.67,1.28v3C222.93,315.31,222.63,315.54,222.26,315.33Z"/><path class="cls-63" d="M236,369.25l-58.95-34a7.36,7.36,0,0,1-3.08-5.88v-10.8c0-2.27,1.38-3.31,3.08-2.33l58.95,34a7.36,7.36,0,0,1,3.08,5.88v10.8C239.06,369.19,237.68,370.23,236,369.25Z"/><path class="cls-3" d="M231.52,359.7l-2.77-1.6a1.6,1.6,0,0,1-.67-1.28v-3c0-.5.3-.72.67-.51l2.77,1.6a1.6,1.6,0,0,1,.67,1.28v3C232.19,359.69,231.89,359.91,231.52,359.7Z"/><path class="cls-7" d="M222.26,354.35l-2.77-1.6a1.6,1.6,0,0,1-.67-1.28v-3c0-.49.3-.72.67-.51l2.77,1.6a1.62,1.62,0,0,1,.67,1.28v3C222.93,354.34,222.63,354.56,222.26,354.35Z"/><path class="cls-63" d="M236,408.27l-58.95-34a7.36,7.36,0,0,1-3.08-5.88v-10.8c0-2.26,1.38-3.31,3.08-2.32l58.95,34a7.39,7.39,0,0,1,3.08,5.88v10.8C239.06,408.21,237.68,409.25,236,408.27Z"/><path class="cls-3" d="M231.52,398.72l-2.77-1.6a1.59,1.59,0,0,1-.67-1.28v-3c0-.49.3-.72.67-.5l2.77,1.6a1.59,1.59,0,0,1,.67,1.28v3C232.19,398.71,231.89,398.94,231.52,398.72Z"/><path class="cls-3" d="M222.26,393.37l-2.77-1.6a1.59,1.59,0,0,1-.67-1.28v-3c0-.49.3-.72.67-.5l2.77,1.6a1.59,1.59,0,0,1,.67,1.28v3C222.93,393.36,222.63,393.59,222.26,393.37Z"/><path class="cls-7" d="M265.15,291.2l30.2-17.29a7.39,7.39,0,0,0,3.08-5.88v-10.8c0-2.27-1.38-3.31-3.08-2.33l-30.2,17.29a7.38,7.38,0,0,0-3.08,5.88v10.8C262.07,291.14,263.45,292.18,265.15,291.2Z"/><path class="cls-7" d="M265.15,330.22l30.2-17.29a7.36,7.36,0,0,0,3.08-5.88v-10.8c0-2.27-1.38-3.31-3.08-2.33l-30.2,17.3a7.36,7.36,0,0,0-3.08,5.88v10.8C262.07,330.16,263.45,331.2,265.15,330.22Z"/><path class="cls-7" d="M265.15,369.25l30.2-17.3a7.36,7.36,0,0,0,3.08-5.88v-10.8c0-2.26-1.38-3.3-3.08-2.32l-30.2,17.29a7.36,7.36,0,0,0-3.08,5.88v10.8C262.07,369.19,263.45,370.23,265.15,369.25Z"/><path class="cls-7" d="M265.15,408.27,295.35,391a7.38,7.38,0,0,0,3.08-5.88V374.3c0-2.27-1.38-3.31-3.08-2.33l-30.2,17.29a7.39,7.39,0,0,0-3.08,5.88v10.8C262.07,408.21,263.45,409.25,265.15,408.27Z"/><path class="cls-65" d="M225.45,268.55l-30-21.07a301.24,301.24,0,0,0-32.34-19.82V382.29a3.29,3.29,0,0,0,1.95,3l23.75,13.55c38-7.07,36.69-49.38,36.69-49.38Z"/><path class="cls-66" d="M207,356.87v-81l-30.05-21.07a284.88,284.88,0,0,0-45.63-26.34l-30-13.63L89.11,222l13.43,9.73v63.37s-1.65,51.66,52.86,111.27A64,64,0,0,0,173.77,405l-.91,2.94,10.68-6.29c.92-.49,1.8-1,2.65-1.56l.15-.09h0C207.86,386.11,207,356.87,207,356.87Z"/><path class="cls-66" d="M154.05,240.23q-11.4-6.58-22.76-11.73l-30-13.63L89.11,222l13.43,9.73V270Z"/><path class="cls-66" d="M143.58,234.49l-25.32,14.62,20.86,12.05,25.33-14.63Q154,239.93,143.58,234.49Z"/><path class="cls-67" d="M194.84,364V283L164.79,262a284.64,284.64,0,0,0-45.63-26.35L89.11,222v81S87.46,354.59,142,414.2C196.49,417.53,194.84,364,194.84,364Z"/><path class="cls-66" d="M173.9,395.87c-6.56,6.37-15.89,9.54-27.76,9.42-48.47-54.61-48-101.63-48-102.07V236l17.25,7.82a277,277,0,0,1,44.17,25.51l26.19,18.37v76.52C185.79,364.44,186,384.09,173.9,395.87Z"/><path class="cls-68" d="M149.54,326.93a8.19,8.19,0,0,0,3.7,6.4c2,1.17,3.69.22,3.69-2.14a8.14,8.14,0,0,0-3.69-6.39C151.2,323.62,149.54,324.57,149.54,326.93Z"/><path class="cls-68" d="M137.66,320.07a8.14,8.14,0,0,0,3.69,6.39c2,1.18,3.7.23,3.7-2.13a8.19,8.19,0,0,0-3.7-6.4C139.31,316.76,137.66,317.71,137.66,320.07Z"/><path class="cls-68" d="M125.77,313.21a8.15,8.15,0,0,0,3.7,6.39c2,1.18,3.69.23,3.69-2.13a8.18,8.18,0,0,0-3.69-6.4C127.43,309.9,125.77,310.85,125.77,313.21Z"/><path class="cls-69" d="M315.27,314.18s-.48,10-1.25,16.78-17-5.18-17-5.18V318.1Z"/><path class="cls-7" d="M306.62,439.06c-.24.61-4.45,5.73-8.66,7a9.77,9.77,0,0,1-3.87.54,1.27,1.27,0,0,1-1-1.7,16,16,0,0,1,8.07-8.9C308.27,432.47,306.62,439.06,306.62,439.06Z"/><path class="cls-7" d="M308,441a35.09,35.09,0,0,0-2.07,6.83c-.3,1.9.74,4.36,1.6,6a1.75,1.75,0,0,0,2.73.48,10.12,10.12,0,0,0,3.42-6.53c.49-5.25,0-6.16,0-6.16Z"/><path class="cls-70" d="M318.16,377.62a99.48,99.48,0,0,1,0,13.93c-.55,7.32-2.51,41.56-2.88,49.79,0,0,.19,2.5-4.64,2S306.2,440,306.2,440s-6.78-.09-7-4.09-6.94-47.71-6.94-63.43Z"/><polygon class="cls-71" points="294.6 343.46 290.69 367.37 287.13 367.31 287.46 345.4 294.6 343.46"/><path class="cls-2" d="M296.24,322.29s-5.28-.14-7.11,7.48-3.28,17.18-1.68,18c4.8,2.38,7.83-.41,7.83-.41Z"/><path class="cls-2" d="M294.66,322.61a4.29,4.29,0,0,1,2.85-.16c4.49,1.29,21.39,6.25,24.18,8.63,3.22,2.75-4.83,18.21-4.71,23.28s.68,11,1.13,16.55,1.06,8.53-3.45,10.87-12.2,2.45-18-1.94-4.71-7.39-4.47-10.57,2.2-17,2-20.88a14.66,14.66,0,0,1-3.53-4.06c-1.51-2.56,1.15-7.27,2.25-10.34s-.62-6.56-.28-9.06A2.83,2.83,0,0,1,294.66,322.61Z"/><path class="cls-72" d="M300.06,327.88c-.35,2.78,2.2,5.4,5.71,5.85s6.63-1.44,7-4.22-2.2-5.41-5.7-5.86S300.42,325.09,300.06,327.88Z"/><path class="cls-71" d="M301.87,328.11c-.25,2,1.57,3.86,4.08,4.18s4.74-1,5-3-1.57-3.86-4.08-4.18S302.13,326.12,301.87,328.11Z"/><path class="cls-71" d="M304.36,321.58s3.05-2.51,3.65-1.24,1.1,6.72,1.1,6.72l-6.06,1.63.92-5.52S302.76,322.14,304.36,321.58Z"/><path class="cls-71" d="M294.9,315.6a9,9,0,1,0,8.49-9.56A9,9,0,0,0,294.9,315.6Z"/><path class="cls-73" d="M308.44,321.92q.07.43.15.9c-.61,3.15-5.32,4.53-5.32,4.53l.7-4.18s-.57-.49-.41-1C305.42,321.61,307.77,321.09,308.44,321.92Z"/><path class="cls-71" d="M294.9,315.6a9,9,0,1,0,8.49-9.56A9,9,0,0,0,294.9,315.6Z"/><polygon class="cls-71" points="326.21 353.36 325.2 377.57 321.66 377.93 319.36 356.14 326.21 353.36"/><path class="cls-2" d="M314.58,351.34c1.17-5.17,3.49-16.59,3.49-16.59l1,11.36c-1.14,3.36-2.12,6.46-2.08,8.25.07,3,.29,6.26.56,9.58h0S313.41,356.51,314.58,351.34Z"/><path class="cls-2" d="M321,330.59s2.83,1.08,4.43,9.77,2.8,17.4-.05,18.52-5.24,2-6.08-.36S318,345,317.84,341,317.58,331.38,321,330.59Z"/><path class="cls-74" d="M306.2,440a13.42,13.42,0,0,1-1.93-.2h0l-1.33-53.21Z"/><path class="cls-75" d="M311.32,411.23l1.89-2.46L333,397.3a2.76,2.76,0,0,0,1.15-2.2l0-16.21,1.14-1.48-1.07-.62h0a.74.74,0,0,0-.78,0l-22.44,13a2.76,2.76,0,0,0-1.15,2.2l0,17.66a1,1,0,0,0,.42.94h0Z"/><path class="cls-75" d="M325,401.93l1.41-.81,7.72-13.42v-8.81l1.14-1.48-1.07-.62h0a.74.74,0,0,0-.78,0l-22.44,13a2.39,2.39,0,0,0-.85,1Z"/><path class="cls-75" d="M334.77,378.06l.51-.65-1.07-.62h0a.74.74,0,0,0-.78,0l-.39.23Z"/><path class="cls-75" d="M310.79,390a2.87,2.87,0,0,0-.94,1.89l2.19,1.27,1-1.83Z"/><path class="cls-75" d="M312.06,390.44l22.44-13c.63-.37,1.15,0,1.15.87l0,17.66a2.73,2.73,0,0,1-1.15,2.19l-22.44,13c-.63.37-1.15,0-1.15-.87l0-17.66A2.76,2.76,0,0,1,312.06,390.44Z"/><path class="cls-71" d="M325.17,377.36a54.75,54.75,0,0,1,.8,7.46c-.14,1.81-1.11,4.8-1.85,4.74s0-7.28-1.31-6.56-1.43,1.95-2,1.51,1-6.6.59-9.27S325.17,377.36,325.17,377.36Z"/><path class="cls-71" d="M287.13,367.31a55.13,55.13,0,0,0-.79,7.46c.14,1.81,1.11,4.79,1.84,4.73s0-7.28,1.32-6.56,1.43,1.95,2,1.51-1-6.6-.59-9.27S287.13,367.31,287.13,367.31Z"/><path class="cls-73" d="M300.45,315.86c-4.54,1.61-5.42.63-5.46.57a7.52,7.52,0,0,1-.09-.83,9,9,0,0,1,.3-2.89L307,311.12A12.86,12.86,0,0,1,300.45,315.86Z"/><path class="cls-69" d="M294.57,306.59c1.07-.92,4.93-5.45,11.84-4.38,4.32.67,8,3.62,8.77,10.34A15.44,15.44,0,0,1,311,324.84a3.75,3.75,0,0,1-.49-.25c-1.73-1.14-1.92-1.76-1.92-1.77l-.38-3.43a1,1,0,0,1,.86-.95,1.74,1.74,0,0,0,1.27-.77c1-1.3.53-3.33-1.45-3.4a1.53,1.53,0,0,1-1.59-1.13.81.81,0,0,0-1.06-.55c-2.26.82-7.83,2.58-11.41,1.56C290.25,312.85,293.5,307.51,294.57,306.59Z"/><path class="cls-72" d="M299.72,319.94l-2.76-.76a6.67,6.67,0,0,0,3.25,2.61c1.93.53,2.23-1.1,2.23-1.1Z"/><polygon class="cls-75" points="320.47 384.34 322.83 382.99 321.94 384.43 320.75 384.87 320.47 384.34"/><path class="cls-76" d="M122.29,422v-6.72l-2,1.12a17.3,17.3,0,0,0-5.3-4.54c-9.71-5.6-25.45-5.6-35.15,0A16.25,16.25,0,0,0,74,417.19l-1.44-1.9V422c0,3.67,2.42,7.35,7.28,10.16,9.7,5.6,25.44,5.6,35.15,0C119.86,429.36,122.29,425.69,122.29,422Zm-25.55-4.38a10,10,0,0,1-9,0c-2.49-1.44-2.49-3.78,0-5.22a10,10,0,0,1,9,0C99.24,413.85,99.24,416.19,96.74,417.63Z"/><path class="cls-77" d="M95.35,427.31,84.63,422l-9.54-6.3A13,13,0,0,0,74,417.19l-1.44-1.9V422c0,3.67,2.42,7.35,7.28,10.16a35,35,0,0,0,15.49,4.15Z"/><path class="cls-77" d="M115,405.14c-9.71-5.6-25.45-5.6-35.15,0s-9.71,14.69,0,20.3,25.44,5.6,35.15,0S124.71,410.75,115,405.14ZM96.83,415.48a10,10,0,0,1-9,0c-2.5-1.44-2.5-3.78,0-5.22a10,10,0,0,1,9,0C99.32,411.7,99.32,414,96.83,415.48Z"/><path class="cls-76" d="M101.7,408.69H88.22a33.19,33.19,0,0,0-3.59,1v11.43H101.7Zm-5,8.94a10,10,0,0,1-9,0c-2.49-1.44-2.49-3.78,0-5.22a10,10,0,0,1,9,0C99.24,413.85,99.24,416.19,96.74,417.63Z"/><path class="cls-78" d="M112.92,406.35c-8.55-4.94-22.42-4.94-31,0s-8.55,12.94,0,17.88,22.43,4.94,31,0S121.48,411.29,112.92,406.35Zm-16.09,9.13a10,10,0,0,1-9,0c-2.5-1.44-2.5-3.78,0-5.22a10,10,0,0,1,9,0C99.32,411.7,99.32,414,96.83,415.48Z"/><path class="cls-76" d="M81.94,408.2c8.56-4.94,22.43-4.94,31,0,3.87,2.24,6,5.1,6.35,8,.45-3.54-1.66-7.17-6.35-9.87-8.55-4.94-22.42-4.94-31,0-4.69,2.7-6.8,6.33-6.35,9.87C76,413.3,78.07,410.43,81.94,408.2Z"/><path class="cls-78" d="M120.25,427.62a24,24,0,0,1-4.81,3.61,34.72,34.72,0,0,1-6.25,2.77l4.75,2.75,7.16.36,3.54,2.05-1.45.83,2.69,1.55,2.89-1.67,4.68,2.71-4.7,2.72,3.45,2,3.36,1.94,4.18-2.41,6.2,3.57-2.37,1.37,4,2.3,2.37-1.37,1.87,1.08-1.88,3.74,6,3.48h22.12Z"/><path class="cls-77" d="M120.25,422.76a23.68,23.68,0,0,1-4.81,3.61,34.75,34.75,0,0,1-6.25,2.78l4.75,2.74,7.16.37,3.54,2-1.45.84,2.69,1.55,2.89-1.67,4.68,2.7-4.7,2.72,3.45,2,3.36,1.93,4.18-2.41,6.2,3.58-2.37,1.36,4,2.3,2.37-1.37,1.87,1.08-1.88,3.75,6,3.47h22.12Z"/><rect class="cls-76" x="155.93" y="456.13" width="22.13" height="4.86"/><polygon class="cls-76" points="147.55 454.06 147.55 449.2 149.92 447.83 149.92 452.69 147.55 454.06"/><polygon class="cls-79" points="143.57 446.9 143.57 451.76 147.55 454.06 147.55 449.2 143.57 446.9"/><polygon class="cls-76" points="139.74 441.96 139.74 446.82 135.56 449.23 135.56 444.37 139.74 441.96"/><polygon class="cls-79" points="128.75 440.44 128.75 445.3 135.56 449.23 135.56 444.37 128.75 440.44"/><polygon class="cls-79" points="149.92 452.69 149.91 457.51 155.93 460.99 155.93 456.13 149.92 452.69"/><polygon class="cls-79" points="125.88 436.69 125.88 441.54 123.19 439.99 123.19 435.14 125.88 436.69"/><polygon class="cls-76" points="113.94 431.89 113.94 436.75 121.1 437.11 121.1 432.26 113.94 431.89"/><polygon class="cls-76" points="162.95 452.69 120.63 428.24 122.98 426.88 167.63 452.68 162.95 452.69"/><polygon class="cls-78" points="122.98 428.05 165.61 452.68 167.63 452.68 122.98 426.88 120.63 428.24 121.65 428.82 122.98 428.05"/><polygon class="cls-76" points="113.94 436.75 113.94 431.89 109.19 429.15 109.19 434 113.94 436.75"/><polygon class="cls-76" points="128.77 435.02 128.77 439.87 125.88 441.54 125.88 436.69 128.77 435.02"/><path class="cls-77" d="M112.92,406.35c-4.81-2.78-11.29-4-17.57-3.65v1.85c6.28-.34,12.76.88,17.57,3.65,3.87,2.24,6,5.1,6.35,8C119.72,412.68,117.61,409.05,112.92,406.35Z"/></g></g></svg>