<svg xmlns="http://www.w3.org/2000/svg" viewBox="0 0 367.88 472.56"><defs><style>.cls-1{fill:#abd5fd;}.cls-2{fill:#e62a7d;}.cls-3{fill:#fff;}.cls-4{fill:#5b84e6;}.cls-5{fill:#25283d;}.cls-6{fill:#d9eeff;}.cls-7{fill:#3c6;}.cls-8{fill:#501074;}.cls-9{fill:#ffa8a7;}.cls-10{fill:#002176;}.cls-11{fill:#af2869;}.cls-12{fill:#f28f8f;}.cls-13{fill:#ebdb15;}.cls-14{fill:#ffc000;}</style></defs><title>computador-web</title><g id="Camada_2" data-name="Camada 2"><g id="Camada_1-2" data-name="Camada 1"><ellipse class="cls-1" cx="135.71" cy="456.03" rx="34.68" ry="16.53"/><path class="cls-2" d="M364.37,140,322,164.44a7.75,7.75,0,0,0-3.51,6.08v34.21L307.7,215.89c-1.56,1.61-1,2.71,1.21,2.44l9.55-1.12v14.94c0,2.24,1.57,3.15,3.51,2l42.4-24.48a7.75,7.75,0,0,0,3.51-6.08V142C367.88,139.75,366.31,138.84,364.37,140Z"/><path class="cls-3" d="M332.59,177.36l-1.79-.14c-2.35-.19-5.15-1.12-5.15-4.48a7.9,7.9,0,0,1,3.57-6.19c1.54-.89,2.85-.52,3.35.76a8,8,0,0,1,3.35-4.63c2-1.14,3.58-.22,3.58,2.06,0,3.3-2.79,7.48-5.13,10.4Z"/><path class="cls-3" d="M349.43,158.05l9.45-5.45c1.93-1.12,3.51-.61,3.51,1.14s-1.58,4.08-3.51,5.2l-9.45,5.45c-1.94,1.12-3.52.61-3.52-1.14S347.49,159.17,349.43,158.05Z"/><path class="cls-3" d="M329.16,188.36l9.45-5.45c1.94-1.12,3.51-.61,3.51,1.14s-1.57,4.08-3.51,5.2l-9.45,5.45c-1.94,1.12-3.51.61-3.51-1.14S327.22,189.48,329.16,188.36Z"/><path class="cls-3" d="M329.16,201.58l29.72-17.15c1.93-1.12,3.51-.61,3.51,1.14s-1.58,4.08-3.51,5.2l-29.72,17.15c-1.94,1.12-3.51.61-3.51-1.14S327.22,202.7,329.16,201.58Z"/><path class="cls-3" d="M329.16,213.92l29.72-17.15c1.93-1.12,3.51-.61,3.51,1.14s-1.58,4.08-3.51,5.2l-29.72,17.16c-1.94,1.11-3.51.6-3.51-1.15S327.22,215,329.16,213.92Z"/><path class="cls-4" d="M0,176.86v245.5c0,2.23,1.57,3.14,3.51,2l295-170.29A7.77,7.77,0,0,0,302,248V2.51c0-2.24-1.57-3.15-3.51-2l-295,170.3A7.75,7.75,0,0,0,0,176.86Z"/><path class="cls-5" d="M298.48.48l-295,170.3A7.75,7.75,0,0,0,0,176.86v15.35L302,17.48v-15C302,.27,300.42-.64,298.48.48Z"/><path class="cls-6" d="M260.81,27.74a7.67,7.67,0,0,0-3.46,6c0,2.21,1.55,3.11,3.46,2a7.63,7.63,0,0,0,3.46-6C264.27,27.53,262.72,26.64,260.81,27.74Z"/><path class="cls-6" d="M274.54,19.82a7.61,7.61,0,0,0-3.46,6c0,2.21,1.54,3.1,3.46,2a7.66,7.66,0,0,0,3.45-6C278,19.61,276.45,18.72,274.54,19.82Z"/><path class="cls-6" d="M288.26,11.89a7.67,7.67,0,0,0-3.46,6c0,2.21,1.55,3.11,3.46,2a7.63,7.63,0,0,0,3.46-6C291.72,11.68,290.17,10.79,288.26,11.89Z"/><path class="cls-3" d="M94.74,170.4v73L31.55,279.84v-73L94.74,170.4m1.35-2.35-65.89,38v76.09l65.89-38V168.05Z"/><path class="cls-3" d="M117.37,232.63V155l67.25-38.82v77.65Zm1.36-76.87v74.53L183.26,193V118.5Z"/><path class="cls-7" d="M159.5,154.49l3.54-7.66c-3.37-.67-7.3.16-11.3,2.3v6.93A12.39,12.39,0,0,1,159.5,154.49Z"/><path class="cls-7" d="M165.51,159.66l5.72-5.45a11.23,11.23,0,0,0-7-7l-3.52,7.64A8.11,8.11,0,0,1,165.51,159.66Z"/><path class="cls-7" d="M142.49,194.3,139,202c3.24.66,7.12,0,11.29-2.28v-6.95A12.24,12.24,0,0,1,142.49,194.3Z"/><path class="cls-3" d="M150.25,156.93V150A41.38,41.38,0,0,0,139,160.74l3.53,3.57A29.69,29.69,0,0,1,150.25,156.93Z"/><path class="cls-7" d="M171.69,155.59,166,161a16.33,16.33,0,0,1,.56,4.38,24.62,24.62,0,0,1-.56,5l5.72-1.16a34.81,34.81,0,0,0,.84-7.34A22.91,22.91,0,0,0,171.69,155.59Z"/><path class="cls-7" d="M160.72,182.76l3.52,3.57a50.81,50.81,0,0,0,7-15.12l-5.72,1.16A37,37,0,0,1,160.72,182.76Z"/><path class="cls-3" d="M141.27,166l-3.52-3.57a50.81,50.81,0,0,0-7,15.12l5.72-1.16A37,37,0,0,1,141.27,166Z"/><path class="cls-3" d="M135.46,183.36a24.53,24.53,0,0,1,.56-5l-5.72,1.16a34.81,34.81,0,0,0-.84,7.34,23,23,0,0,0,.84,6.37l5.72-5.45A16.35,16.35,0,0,1,135.46,183.36Z"/><path class="cls-3" d="M136.48,189.13l-5.72,5.45a11.28,11.28,0,0,0,7,7l3.52-7.64A8.14,8.14,0,0,1,136.48,189.13Z"/><path class="cls-7" d="M151.74,191.86v6.94A41.38,41.38,0,0,0,163,188.05l-3.53-3.57A30,30,0,0,1,151.74,191.86Z"/><path class="cls-7" d="M138.14,181.81c0-8.19,5.76-18.16,12.86-22.26s12.85-.78,12.85,7.42-5.76,18.17-12.85,22.27S138.14,190,138.14,181.81Z"/><path class="cls-3" d="M149.72,170.17a10.42,10.42,0,0,1,0,1.58,5.61,5.61,0,0,1-.21,1.28,5.28,5.28,0,0,1-.52,1.24,5.61,5.61,0,0,1-.88,1.14,5.74,5.74,0,0,1-1.22.94,3.59,3.59,0,0,1-1.23.48,1.29,1.29,0,0,1-.87-.13,1.36,1.36,0,0,1-.53-.64,3,3,0,0,1-.21-1,6.8,6.8,0,0,1,0-.76c0-.25,0-.52,0-.83a5.61,5.61,0,0,1,.21-1.28,6.09,6.09,0,0,1,.53-1.24,5.47,5.47,0,0,1,.87-1.14,5.88,5.88,0,0,1,1.23-.94,3.48,3.48,0,0,1,1.22-.48,1.28,1.28,0,0,1,.87.14,1.31,1.31,0,0,1,.52.63A3.08,3.08,0,0,1,149.72,170.17Zm4.52-5.07a2.32,2.32,0,0,1,.26-.45,1.16,1.16,0,0,1,.39-.32l1.48-.86a.38.38,0,0,1,.32-.07q.12,0,.12.24a.89.89,0,0,1,0,.11,1.66,1.66,0,0,1-.06.16l-8.92,18.71a3.56,3.56,0,0,1-.27.45,1.39,1.39,0,0,1-.38.33l-1.49.85a.36.36,0,0,1-.31.07q-.12,0-.12-.24a.89.89,0,0,1,0-.11,1.42,1.42,0,0,1,.05-.16Zm-8.1,8.61a1.38,1.38,0,0,0,.19.71c.11.12.29.1.56,0a1.3,1.3,0,0,0,.55-.59,3.09,3.09,0,0,0,.19-.92,10.59,10.59,0,0,0,0-1.38,1.34,1.34,0,0,0-.19-.7c-.11-.12-.29-.11-.55,0a1.32,1.32,0,0,0-.56.59,3.1,3.1,0,0,0-.19.93A10.43,10.43,0,0,0,146.14,173.71Zm12-1.08a13.88,13.88,0,0,1,0,1.58,6.84,6.84,0,0,1-.21,1.28,5.15,5.15,0,0,1-.53,1.24,5.53,5.53,0,0,1-.87,1.15,6.24,6.24,0,0,1-1.23.94,3.59,3.59,0,0,1-1.23.48,1.34,1.34,0,0,1-.87-.14,1.29,1.29,0,0,1-.52-.64,3.28,3.28,0,0,1-.22-1c0-.26,0-.52,0-.76s0-.52,0-.83a6.36,6.36,0,0,1,.22-1.28,5.54,5.54,0,0,1,.52-1.24,5.75,5.75,0,0,1,.87-1.14,6.24,6.24,0,0,1,1.23-.94,3.59,3.59,0,0,1,1.23-.48,1.21,1.21,0,0,1,1.39.78A3.28,3.28,0,0,1,158.11,172.63Zm-3.58,3.55a1.28,1.28,0,0,0,.19.7c.1.12.28.11.55,0a1.25,1.25,0,0,0,.55-.59,2.75,2.75,0,0,0,.19-.92,8,8,0,0,0,0-1.38,1.28,1.28,0,0,0-.19-.7c-.1-.12-.29-.11-.55,0a1.2,1.2,0,0,0-.55.59,2.75,2.75,0,0,0-.19.92A8,8,0,0,0,154.53,176.18Z"/><path class="cls-3" d="M205.23,181.91V104.26l67.24-38.82v77.64ZM206.58,105v74.52l64.53-37.26V67.78Z"/><path class="cls-8" d="M247.35,103.77l3.54-7.66c-3.37-.68-7.3.16-11.3,2.3v6.93A12.41,12.41,0,0,1,247.35,103.77Z"/><path class="cls-8" d="M253.36,108.94l5.72-5.45a11.23,11.23,0,0,0-7-7l-3.52,7.63A8.15,8.15,0,0,1,253.36,108.94Z"/><path class="cls-8" d="M230.34,143.58l-3.53,7.65c3.24.66,7.12,0,11.29-2.28V142A12.24,12.24,0,0,1,230.34,143.58Z"/><path class="cls-3" d="M238.1,106.21V99.26A41.57,41.57,0,0,0,226.81,110l3.53,3.57A29.69,29.69,0,0,1,238.1,106.21Z"/><path class="cls-8" d="M259.54,104.87l-5.72,5.45a16.28,16.28,0,0,1,.56,4.38,24.62,24.62,0,0,1-.56,5l5.72-1.16a34.81,34.81,0,0,0,.84-7.34A22.91,22.91,0,0,0,259.54,104.87Z"/><path class="cls-8" d="M248.57,132l3.52,3.57a50.81,50.81,0,0,0,7-15.12l-5.72,1.16A37,37,0,0,1,248.57,132Z"/><path class="cls-3" d="M229.13,115.31l-3.53-3.57a50.87,50.87,0,0,0-7,15.11l5.72-1.15A36.63,36.63,0,0,1,229.13,115.31Z"/><path class="cls-8" d="M223.31,132.64a24.53,24.53,0,0,1,.56-5l-5.72,1.16a34.79,34.79,0,0,0-.84,7.33,22.86,22.86,0,0,0,.84,6.37l5.72-5.44A16.35,16.35,0,0,1,223.31,132.64Z"/><path class="cls-8" d="M224.33,138.41l-5.72,5.45a11.28,11.28,0,0,0,7,7l3.53-7.64A8.13,8.13,0,0,1,224.33,138.41Z"/><path class="cls-8" d="M239.59,141.14v6.94a41.24,41.24,0,0,0,11.29-10.75l-3.53-3.57A29.87,29.87,0,0,1,239.59,141.14Z"/><path class="cls-8" d="M226,131.09c0-8.19,5.76-18.16,12.86-22.26s12.85-.78,12.85,7.42-5.75,18.17-12.85,22.27S226,139.29,226,131.09Z"/><path class="cls-3" d="M237.57,119.45a10.42,10.42,0,0,1,0,1.58,6.2,6.2,0,0,1-.2,1.28,5.79,5.79,0,0,1-.53,1.24,5.61,5.61,0,0,1-2.1,2.08,3.59,3.59,0,0,1-1.23.48,1.35,1.35,0,0,1-.87-.13,1.29,1.29,0,0,1-.52-.64,3.07,3.07,0,0,1-.22-1,6.8,6.8,0,0,1,0-.76c0-.25,0-.52,0-.83a5.63,5.63,0,0,1,.22-1.28,5.35,5.35,0,0,1,.52-1.24,5.23,5.23,0,0,1,.87-1.14,5.88,5.88,0,0,1,1.23-.94,3.59,3.59,0,0,1,1.23-.48,1.2,1.2,0,0,1,1.38.77A2.86,2.86,0,0,1,237.57,119.45Zm4.52-5.07a3,3,0,0,1,.26-.45,1.31,1.31,0,0,1,.39-.33l1.48-.85a.38.38,0,0,1,.32-.07q.12,0,.12.24a.89.89,0,0,1,0,.11.64.64,0,0,1-.06.16l-8.92,18.71a3.59,3.59,0,0,1-.26.45,1.16,1.16,0,0,1-.39.32l-1.49.86a.36.36,0,0,1-.31.07q-.12,0-.12-.24a.65.65,0,0,1,0-.11.64.64,0,0,1,.06-.16ZM234,123a1.38,1.38,0,0,0,.19.71c.11.12.29.1.56,0a1.3,1.3,0,0,0,.55-.59,3.09,3.09,0,0,0,.19-.92,10.59,10.59,0,0,0,0-1.38,1.34,1.34,0,0,0-.19-.7c-.11-.12-.29-.11-.55,0a1.32,1.32,0,0,0-.56.59,3.1,3.1,0,0,0-.19.93A10.43,10.43,0,0,0,234,123Zm12-1.08a13.88,13.88,0,0,1,0,1.58,6.84,6.84,0,0,1-.21,1.28,5.15,5.15,0,0,1-.53,1.24,5.53,5.53,0,0,1-.87,1.15,5.84,5.84,0,0,1-1.23.93,3.22,3.22,0,0,1-1.23.48,1.18,1.18,0,0,1-1.39-.77,3.28,3.28,0,0,1-.22-1c0-.26,0-.52,0-.76s0-.52,0-.83a6.24,6.24,0,0,1,.22-1.28,5.54,5.54,0,0,1,.52-1.24,5.75,5.75,0,0,1,.87-1.14,5.88,5.88,0,0,1,1.23-.94,3.59,3.59,0,0,1,1.23-.48,1.2,1.2,0,0,1,1.39.78A3.21,3.21,0,0,1,246,121.91Zm-3.58,3.55a1.28,1.28,0,0,0,.19.7c.1.12.28.1.55,0a1.25,1.25,0,0,0,.55-.59,2.75,2.75,0,0,0,.19-.92,8,8,0,0,0,0-1.38,1.25,1.25,0,0,0-.19-.7c-.1-.12-.29-.11-.55,0a1.29,1.29,0,0,0-.55.59,2.87,2.87,0,0,0-.19.93A8,8,0,0,0,242.38,125.46Z"/><polygon class="cls-6" points="30.2 301.23 30.2 377.31 96.09 339.27 96.09 263.19 30.2 301.23"/><path class="cls-1" d="M30.2,321.35c2.23.86,5.1.5,8.23-1.31,7.1-4.1,12.86-14.06,12.86-22.26,0-3.27-.93-5.74-2.47-7.3L30.2,301.23Z"/><path class="cls-1" d="M59.22,323.22c.65-2.14,1.93-2.23,2.87-.19l9.29,20.28,13.86-52.46c.58-2.17,1.53-2.17,2.14,0l8.71,31v17.47L45.44,368.51Z"/><path class="cls-6" d="M94.74,265.53v73L31.55,375V302l63.19-36.48m1.35-2.34-65.89,38v76.08l65.89-38V263.19Z"/><polygon class="cls-6" points="118.05 250.51 118.05 326.59 183.94 288.55 183.94 212.47 118.05 250.51"/><path class="cls-1" d="M118.05,270.63c2.23.86,5.1.5,8.24-1.31,7.1-4.1,12.85-14.06,12.85-22.26,0-3.27-.92-5.74-2.47-7.3l-18.62,10.75Z"/><path class="cls-1" d="M147.07,272.5c.65-2.14,1.94-2.23,2.87-.19l9.29,20.28,13.86-52.46c.58-2.17,1.53-2.17,2.14,0l8.71,31v17.47l-50.65,29.24Z"/><path class="cls-6" d="M182.59,214.81v73L119.4,324.25v-73l63.19-36.48m1.35-2.34-65.89,38v76.08l65.89-38V212.47Z"/><polygon class="cls-6" points="205.9 199.79 205.9 275.87 271.79 237.83 271.79 161.75 205.9 199.79"/><path class="cls-1" d="M205.9,219.91c2.23.86,5.1.5,8.23-1.31,7.1-4.1,12.86-14.07,12.86-22.26,0-3.27-.93-5.74-2.47-7.3L205.9,199.79Z"/><path class="cls-1" d="M234.92,221.78c.65-2.14,1.93-2.23,2.87-.19l9.29,20.28,13.86-52.46c.58-2.17,1.53-2.18,2.14,0l8.71,31v17.47l-50.65,29.24Z"/><path class="cls-6" d="M270.44,164.09v73l-63.19,36.48v-73l63.19-36.48m1.35-2.34-65.89,38v76.08l65.89-38V161.75Z"/><polygon class="cls-8" points="272.68 237.54 329.57 252.7 310.4 263.5 345.17 289 340.65 295.96 304.86 270.34 300.07 291.24 272.68 237.54"/><path class="cls-9" d="M122.44,445.27l-.25-8.18,6.78-1.17.39,7c.32,1.62,1.48,2.15,1.76,3.07s-4.61,10.28-7.37,12.35-7.24-.59-7.68-1.58,3.69-.26,4.36-1.68C121.34,453.13,122.44,445.27,122.44,445.27Z"/><path class="cls-10" d="M130,444.26c-.89.74-1.57,2.61-2.79,5.18s-3,6.73-4.89,7.32c-2.21.69-6.57-.57-3.79-.78.61-.05,1.67-.28,2-.92a4.41,4.41,0,0,0,.27-.71,8.44,8.44,0,0,1-3,.27,4,4,0,0,0-3.86,1.66c-.45.69.29,1.85.29,1.85.84,1.05,2.43,2.08,6.08,2.36s5.81-.26,7.12-2.74c1.59-3,4.41-6.2,5.54-7.89C134.28,447.81,132.07,444.8,130,444.26Z"/><path class="cls-9" d="M120.65,454.5c-.22.56-1.82.73-2.63.83s-1.18.85.12,1.27C120.38,456.84,121.49,454.45,120.65,454.5Z"/><path class="cls-9" d="M186.52,418.82l-5.62-5.95,4.3-5.37,4.92,5c1.32,1,2.54.63,3.36,1.13s3.37,10.75,2.67,14.13-5.81,4.36-6.79,3.91,2.59-2.64,2.15-4.15C190.91,425.44,186.52,418.82,186.52,418.82Z"/><path class="cls-10" d="M191.47,413.08c-.18,1.15.55,3,1.34,5.73s2.24,7,1.21,8.72c-1.2,2-5.3,3.93-3.36,1.93.42-.44,1.06-1.31.85-2a3.69,3.69,0,0,0-.28-.71,8.33,8.33,0,0,1-2,2.17,3.93,3.93,0,0,0-1.78,3.8c.12.82,1.44,1.2,1.44,1.2,1.32.22,3.2-.07,6.11-2.27s4.18-4.06,3.52-6.78c-.81-3.31-.82-7.56-1.1-9.58C197.06,412.87,193.41,412.08,191.47,413.08Z"/><path class="cls-9" d="M191.3,426.91c.21.57-.88,1.76-1.41,2.37s-.32,1.42.93.87C192.65,428.85,191.9,426.33,191.3,426.91Z"/><path class="cls-9" d="M141,293.59c1.79-6.24.66-10-.72-15.45-2.54-9.9-4.94-19.83-4.94-19.83s-1.8-37.69-1.88-41.12c-.1-4.08-.88-6.32-1.22-9.76-.19-2-1.58-2.14-1.45-2.08V213a42.41,42.41,0,0,1-3.52-3.56c-1.27-1.53-2.56-1.36-3-.58s1.7,2.27,2.69,4.26a53.12,53.12,0,0,0,3.8,5.71v20.6l-5.43,3.14-1.06,19.68,8.41,30.61Z"/><polygon class="cls-9" points="116.43 280.65 117.59 290.9 127.7 292.07 126.24 278.47 116.43 280.65"/><polygon class="cls-2" points="64.87 201.37 64.87 277.45 130.76 239.41 130.76 163.33 64.87 201.37"/><path class="cls-2" d="M129.41,165.67v73L66.22,275.11v-73l63.19-36.48m1.35-2.34-65.89,38v76.08l65.89-38V163.33Z"/><polygon class="cls-11" points="64.87 277.45 59.38 274.28 59.38 198.2 64.87 201.37 64.87 277.45"/><polygon class="cls-11" points="59.38 198.2 125.27 160.16 130.76 163.33 64.87 201.37 59.38 198.2"/><path class="cls-9" d="M141,293.59c-.18.88-.58,2.61-1.39,5.53-1.49,5.37-3.74,13.07-4.7,15.63,0,.11-.08.2-.12.28l4,6.49s-2.68,3.31-10.62,5.62-17.62-2.38-17.62-2.38-2-10.7-2.42-13.7c0-.18-.06-.45-.1-.76-.09-.63-.17-1.2-.29-1.73a1,1,0,0,0,0-.15c-.14-.65-.25-1.51-.44-2.47-.52-2.57-1.57-5.88-5.29-7.89-1.12-.61-24.41-9.83-28.09-12.08a7.22,7.22,0,0,1-3.73-4.85c-.51-1.42-7.59-24.8-8.43-27.13s-1.61-3-3.46-5-2.49-2.42-3.06-4.19.15-2.21.44-3.08c.39-1.22-.06-2.07.21-3,.34-1.15,1-1.45,1.22-2,.27-.81,0-1.26.47-2.73a3.91,3.91,0,0,1,1.87-2v2.66c1,4.15,5.57,6.19,6.15,5.89s1.43-2.66,2.7-3.7,3-.9,2.38.35c-.36.73-1.2,3.45-1.63,4.65s-1.72,3.73-1.44,5.67c.37,2.58,12.37,29.19,12.37,29.19s13,4.27,23.4,7.49c6.42,2,11.7,3.23,11.7,3.23l3.21-.57c.38-.08.78-.14,1.2-.21,5.34-1,13.41-2.48,15.6-2.87l.57-.11a6.15,6.15,0,0,1,1.54.06,5.33,5.33,0,0,1,3.3,2.81C141.31,288.57,141.6,290.28,141,293.59Z"/><path class="cls-5" d="M118.37,330.21s19.62,47.93,21.4,52.31a14.53,14.53,0,0,0,6.26,7.64l36.81,25.35c5.23-2.17,5.34-5.58,5.34-5.58s-17.65-22.5-21.33-25.74-10.63-4.9-10.63-4.9l-8.7-36.45c-1.15-5.6-.44-11.79-8.77-21.33h0Z"/><path class="cls-5" d="M124.51,327.53c4,5.62,7.77,10.57,8.82,17.05,2.22,13.69-3.15,30.4-3.79,40.62A23.05,23.05,0,0,1,133,395.41c.19,4.21-3.52,42.9-3.52,42.9a11.83,11.83,0,0,1-7.51,1.32s-8.25-55.92-9.83-74.1-1.63-40.76-1.63-40.76Z"/><path class="cls-10" d="M109.92,265.42a9.1,9.1,0,0,1,1.4-8.68c3.86-5.2,11.18-7.42,19-4.73,3.85,1.33,8.56,5.73,8.43,15.23-.08,5.84-16.55,9-16.46,13Z"/><path class="cls-12" d="M109.42,267.6s-2.45,3.37-2.17,3.75a5.44,5.44,0,0,0,1.73.83Z"/><path class="cls-9" d="M116.92,256.91c-2.28,1-6.23,3-7.59,11.19-1.39,8.4,0,11.17,1.06,12.32.75.78,4.93,1,7,.42,2.65-.7,8.65-2.74,11.5-7,3.35-5,4.3-11.79.81-14.63C124.84,255.24,118.85,256,116.92,256.91Z"/><path class="cls-5" d="M110.51,324.77l28.24-3.26c2,3.26,6.76,8.83,5.75,14.18-1.23,6.49-4.72,11-15.39,14.22"/><path class="cls-13" d="M138.41,303.27c-1.44,5.32-2.61,9.05-3.53,11.48,0,.11-.08.2-.12.28l4,6.49s-2.68,3.31-10.62,5.62-17.62-2.38-17.62-2.38-2-10.7-2.42-13.7c0-.18-.06-.45-.1-.76-.09-.5-.18-1.11-.29-1.73a1,1,0,0,0,0-.15c-.17-1.07-.36-2.11-.44-2.47,10.18-4.54,7.78-18.44,7.78-18.44l3.21-.57,1.2-.21c4.66-.83,8-1.46,12.21-2.28C131.83,284.41,140.74,294.62,138.41,303.27Z"/><path class="cls-14" d="M135.71,312.29c-.1.23-7.86,4.66-10.21,5.31a19.56,19.56,0,0,0,9.27-2.57Z"/><path class="cls-10" d="M116.24,257.23s-2.28,7.62-.16,12.59c0,0,1.49-2.95,4-2s2.17,4.44,0,6.12a3.88,3.88,0,0,1-4.07.68,11.52,11.52,0,0,0,2.57,6.72,15,15,0,0,0,15.54-3.68c6.54-6.4,6.27-18.39-2.8-21.86S116.24,257.23,116.24,257.23Z"/><path class="cls-5" d="M132.67,365.15l2.3-18.59s6.73-2.57,9.67-6.54a17.49,17.49,0,0,1-6.75,8.41c-.46.58-4,19.64-4,19.64Z"/><path class="cls-10" d="M142.91,264.86c-3.13,1.34-5.5-1.13-7.21-5.1s-2.1-8,1-9.3,6.89,1.19,8.59,5.17S146,263.52,142.91,264.86Z"/><path class="cls-9" d="M130.76,213a7.21,7.21,0,0,1-2.32-2.16c-1-1.43-2.3-2-3.11-1.55-.6.33.11,1.32.55,2.21s1.46,3.38,2.72,4.55,2.16,1.45,2.16,2.78a4,4,0,0,0,1-2.84A5.13,5.13,0,0,0,130.76,213Z"/></g></g></svg>