<svg xmlns="http://www.w3.org/2000/svg" viewBox="0 0 430.82 358.86"><defs><style>.cls-1,.cls-2{fill:#0f054c;}.cls-1{opacity:0.1;}.cls-2{opacity:0.5;}.cls-3{fill:#dd821f;}.cls-4{fill:#ffd85a;}.cls-5{fill:#f9bf30;}.cls-6{fill:#f2b42a;}.cls-7{fill:#caf9d9;}.cls-8,.cls-9{fill:#453c9e;}.cls-8{opacity:0.8;}</style></defs><title>conta-luz</title><g id="Camada_2" data-name="Camada 2"><g id="Camada_1-2" data-name="Camada 1"><polygon class="cls-1" points="179.44 358.86 430.82 200.83 328.42 136.56 169.03 247.6 4.38 257 179.44 358.86"/><ellipse class="cls-2" cx="262.12" cy="104.25" rx="15.12" ry="49.3" transform="translate(77.14 317.22) rotate(-70.71)"/><polygon class="cls-3" points="280.66 59.28 280.34 51.17 278.45 46.42 277.25 50.35 280.66 59.28"/><path class="cls-4" d="M195.54,60.83l-.32-8S202,59.58,202,59.75,195.54,60.83,195.54,60.83Z"/><path class="cls-4" d="M238.68,84.43c23.5-.56,42.15-12.51,41.66-33.26s-19.95-37.11-43.46-36.55-42.15,17.84-41.65,38.59S215.18,85,238.68,84.43Z"/><ellipse class="cls-4" cx="238.11" cy="60.3" rx="42.56" ry="37.58" transform="translate(-1.37 5.72) rotate(-1.37)"/><path class="cls-3" d="M267.8,33.23c7.72,6.6,12.61,15.79,12.86,26.05.49,20.75-18.15,38-41.66,38.58a45.43,45.43,0,0,1-30.09-10.07Z"/><ellipse class="cls-5" cx="238.11" cy="60.3" rx="40.67" ry="35.9" transform="translate(-1.38 5.72) rotate(-1.37)"/><ellipse class="cls-6" cx="238.11" cy="60.3" rx="32.65" ry="28.82" transform="translate(-1.37 5.72) rotate(-1.37)"/><path class="cls-4" d="M205.47,61.08c0-.66,0-1.31,0-2,1.5,15,15.91,26.48,33.19,26.07s31.13-12.61,31.91-27.63c.07.65.12,1.3.13,2,.38,15.91-13.92,29.16-31.94,29.59S205.85,77,205.47,61.08Z"/><path class="cls-4" d="M231.84,62.73l6.7-6.2C245,58,257,60.73,266.6,63c-2.39,7.18-8.21,13.1-15.81,16.25Z"/><path class="cls-4" d="M242.38,81.42a31.67,31.67,0,0,1-3.24.24,31.27,31.27,0,0,1-20.46-6.74L229.6,64.8Z"/><path class="cls-4" d="M245.72,49.88l12.61-11.69c4.24,3.71,8,7.79,9.05,13.25Z"/><path class="cls-3" d="M239.12,34.93c-18,.43-32.32,13.68-31.94,29.6a25.7,25.7,0,0,0,1.93,9.17,26,26,0,0,1-3.64-12.62c-.38-15.91,13.92-29.16,31.95-29.59,14.37-.35,26.76,7.57,31.39,18.85C263.26,40.93,252,34.62,239.12,34.93Z"/><path class="cls-3" d="M280.34,51.17c.07,3.09.36,5.32-.37,8.21-.94-3-3-12.15-3-12.15L273.76,40l-2.7-2.23-4.57-3.33L266.12,24C274.62,30.67,280.08,40.32,280.34,51.17Z"/><path class="cls-3" d="M198,50.11,197.8,48a.54.54,0,0,0-.53-.54h-.16a.54.54,0,0,0-.51.57l.18,2.14a.54.54,0,0,0,.53.54h.16A.53.53,0,0,0,198,50.11Z"/><path class="cls-3" d="M201.72,41.91l-.22-3.84a.61.61,0,0,0-.61-.62h-.37a.62.62,0,0,0-.58.65l.22,3.84a.61.61,0,0,0,.61.62h.37A.62.62,0,0,0,201.72,41.91Z"/><path class="cls-3" d="M206.9,34.77,206.68,31a.69.69,0,0,0-.68-.7l-.65,0a.7.7,0,0,0-.66.73l.22,3.73a.69.69,0,0,0,.69.69h.65A.69.69,0,0,0,206.9,34.77Z"/><path class="cls-3" d="M214.66,29l-.24-4.52a.69.69,0,0,0-.68-.7l-.65,0a.7.7,0,0,0-.66.73l.24,4.52a.69.69,0,0,0,.69.69H214A.69.69,0,0,0,214.66,29Z"/><path class="cls-3" d="M222.47,25.21l-.25-5.2a.69.69,0,0,0-.69-.7h-.65a.7.7,0,0,0-.66.73l.25,5.21a.71.71,0,0,0,.69.7l.65,0A.7.7,0,0,0,222.47,25.21Z"/><path class="cls-3" d="M230.31,22.9l-.25-5a.69.69,0,0,0-.69-.7l-.65,0a.68.68,0,0,0-.65.73l.25,5a.68.68,0,0,0,.68.69h.66A.69.69,0,0,0,230.31,22.9Z"/><path class="cls-3" d="M238.19,22.11,237.94,17a.71.71,0,0,0-.69-.7l-.65,0a.69.69,0,0,0-.65.73l.25,5.08a.69.69,0,0,0,.68.7l.65,0A.7.7,0,0,0,238.19,22.11Z"/><path class="cls-3" d="M246.09,22.28l-.24-4.76a.7.7,0,0,0-.69-.7l-.65,0a.69.69,0,0,0-.65.73l.24,4.76a.68.68,0,0,0,.68.69h.66A.69.69,0,0,0,246.09,22.28Z"/><path class="cls-3" d="M254,24l-.24-4.61a.7.7,0,0,0-.69-.7l-.65,0a.69.69,0,0,0-.65.73l.24,4.6a.69.69,0,0,0,.68.7h.65A.7.7,0,0,0,254,24Z"/><path class="cls-3" d="M262,27.89l-.25-5a.69.69,0,0,0-.69-.7l-.65,0a.68.68,0,0,0-.65.73l.25,5a.69.69,0,0,0,.68.7h.65A.7.7,0,0,0,262,27.89Z"/><path class="cls-7" d="M428.52,82.33,285,0h0c.07,25.71-17.9,57-40.13,69.93L47.17,184.8C21,200-.08,236.78,0,267H0l143.49,82.33h0c-.08-30.22,21-67,47.16-82.2L388.39,152.26c22.23-12.91,40.2-44.22,40.13-69.93Z"/><path class="cls-8" d="M0,267l143.49,82.33c0-1.32,0-2.67.12-4h0L.12,263C.05,264.34,0,265.68,0,267Z"/><polygon class="cls-9" points="207.78 205.26 240.28 223.91 237.15 225.72 204.65 207.08 207.78 205.26"/><polygon class="cls-9" points="191.11 195.7 202.81 202.41 199.69 204.23 187.99 197.51 191.11 195.7"/><polygon class="cls-9" points="178.19 188.28 186.15 192.85 183.02 194.66 175.07 190.1 178.19 188.28"/><polygon class="cls-9" points="229.71 209.6 247.42 219.76 244.29 221.58 226.59 211.41 229.71 209.6"/><polygon class="cls-9" points="203.05 194.3 224.75 206.75 221.62 208.56 199.92 196.11 203.05 194.3"/><polygon class="cls-9" points="190.13 186.88 198.08 191.45 194.95 193.26 187 188.7 190.13 186.88"/><polygon class="cls-9" points="177.84 179.83 185.79 184.4 182.66 186.21 174.71 181.65 177.84 179.83"/><polygon class="cls-9" points="241.75 208.26 254.56 215.61 251.44 217.43 238.62 210.07 241.75 208.26"/><polygon class="cls-9" points="232.41 202.9 236.78 205.41 233.66 207.23 229.28 204.71 232.41 202.9"/><polygon class="cls-9" points="219.49 195.49 227.44 200.05 224.31 201.86 216.36 197.3 219.49 195.49"/><polygon class="cls-9" points="214.41 184.32 261.71 211.46 258.58 213.28 211.29 186.14 214.41 184.32"/><polygon class="cls-9" points="197.75 174.76 209.45 181.48 206.32 183.29 194.62 176.58 197.75 174.76"/><polygon class="cls-9" points="256.04 199.96 268.85 207.31 265.72 209.13 252.91 201.78 256.04 199.96"/><polygon class="cls-9" points="225.97 182.71 251.07 197.11 247.94 198.93 222.84 184.52 225.97 182.71"/><polygon class="cls-9" points="213.05 175.29 221 179.86 217.87 181.67 209.92 177.11 213.05 175.29"/><polygon class="cls-9" points="249.78 188.12 275.99 203.16 272.86 204.98 246.65 189.94 249.78 188.12"/><polygon class="cls-9" points="225.85 174.39 244.81 185.27 241.68 187.09 222.72 176.21 225.85 174.39"/><polygon class="cls-9" points="208.07 164.19 220.89 171.54 217.76 173.36 204.95 166.01 208.07 164.19"/><polygon class="cls-9" points="274.28 193.93 283.13 199.01 280.01 200.83 271.15 195.75 274.28 193.93"/><polygon class="cls-9" points="257.61 184.37 269.31 191.09 266.19 192.9 254.49 186.19 257.61 184.37"/><polygon class="cls-9" points="233.79 170.7 252.65 181.52 249.52 183.34 230.66 172.52 233.79 170.7"/><polygon class="cls-9" points="263.15 179.3 290.27 194.87 287.15 196.68 260.03 181.12 263.15 179.3"/><polygon class="cls-9" points="232.78 161.87 258.19 176.45 255.06 178.27 229.65 163.69 232.78 161.87"/><polygon class="cls-9" points="219.86 154.46 227.81 159.02 224.68 160.84 216.73 156.28 219.86 154.46"/><polygon class="cls-9" points="207.46 147.35 215.41 151.91 212.29 153.73 204.34 149.16 207.46 147.35"/><polygon class="cls-9" points="281.17 181.39 297.42 190.72 294.29 192.53 278.04 183.21 281.17 181.39"/><polygon class="cls-9" points="141.86 167.43 119.32 154.5 116.19 156.32 138.73 169.25 141.86 167.43"/><polygon class="cls-9" points="144.17 160.51 126.46 150.35 123.34 152.17 141.05 162.33 144.17 160.51"/><polygon class="cls-9" points="146.42 153.56 133.61 146.21 130.48 148.02 143.29 155.37 146.42 153.56"/><polygon class="cls-9" points="159.39 152.75 140.75 142.06 137.62 143.87 156.26 154.57 159.39 152.75"/><polygon class="cls-9" points="160.7 145.26 147.89 137.91 144.76 139.72 157.58 147.07 160.7 145.26"/><polygon class="cls-9" points="171.28 143.08 155.03 133.76 151.91 135.57 168.16 144.9 171.28 143.08"/><polygon class="cls-9" points="171.03 134.69 162.18 129.61 159.05 131.43 167.9 136.51 171.03 134.69"/><polygon class="cls-9" points="186.47 135.31 169.32 125.46 166.19 127.28 183.35 137.12 186.47 135.31"/><polygon class="cls-9" points="192.71 130.63 176.46 121.31 173.33 123.13 189.58 132.45 192.71 130.63"/><polygon class="cls-9" points="269.29 174.58 276.2 178.54 273.07 180.36 266.17 176.39 269.29 174.58"/><polygon class="cls-9" points="248.77 162.8 264.33 171.73 261.2 173.54 245.65 164.62 248.77 162.8"/><polygon class="cls-9" points="268.2 130.97 294.45 146.03 291.32 147.85 265.07 132.78 268.2 130.97"/><polygon class="cls-9" points="250.22 120.65 260.56 126.59 257.43 128.4 247.09 122.47 250.22 120.65"/><ellipse class="cls-1" cx="176.38" cy="197.49" rx="19.47" ry="63.48" transform="translate(-68.28 298.74) rotate(-70.71)"/><polygon class="cls-3" points="200.25 139.59 199.84 129.15 197.41 123.04 195.87 128.1 200.25 139.59"/><path class="cls-4" d="M90.67,141.58l-.41-10.24s8.66,8.64,8.67,8.85S90.67,141.58,90.67,141.58Z"/><path class="cls-4" d="M146.21,172c30.26-.73,54.26-16.11,53.63-42.82s-25.69-47.78-56-47.05-54.26,23-53.62,49.67S116,172.69,146.21,172Z"/><ellipse class="cls-4" cx="145.47" cy="140.9" rx="54.8" ry="48.38" transform="translate(-3.33 3.52) rotate(-1.37)"/><path class="cls-3" d="M183.7,106.06c9.94,8.49,16.23,20.32,16.55,33.53.64,26.71-23.37,48.95-53.63,49.68a58.57,58.57,0,0,1-38.74-13Z"/><ellipse class="cls-5" cx="145.47" cy="140.9" rx="52.35" ry="46.22" transform="matrix(1, -0.02, 0.02, 1, -3.33, 3.52)"/><ellipse class="cls-6" cx="145.47" cy="140.9" rx="42.03" ry="37.1" transform="translate(-3.33 3.52) rotate(-1.37)"/><path class="cls-4" d="M103.45,141.91c0-.85,0-1.69,0-2.53,1.93,19.28,20.49,34.1,42.73,33.57s40.08-16.23,41.08-35.57c.09.83.15,1.67.17,2.52.49,20.48-17.92,37.54-41.13,38.1S103.94,162.39,103.45,141.91Z"/><path class="cls-4" d="M137.41,144l8.61-8c8.3,1.88,23.77,5.4,36.13,8.3-3.08,9.25-10.57,16.87-20.36,20.92Z"/><path class="cls-4" d="M151,168.1a40.89,40.89,0,0,1-4.18.31,40.29,40.29,0,0,1-26.34-8.68l14.07-13Z"/><path class="cls-4" d="M155.27,127.48l16.23-15c5.46,4.78,10.34,10,11.66,17.06Z"/><path class="cls-3" d="M146.78,108.25c-23.21.55-41.62,17.61-41.13,38.09a33.26,33.26,0,0,0,2.49,11.82,33.42,33.42,0,0,1-4.69-16.25c-.49-20.49,17.92-37.54,41.13-38.1,18.5-.44,34.45,9.74,40.41,24.27C177.85,116,163.33,107.85,146.78,108.25Z"/><path class="cls-3" d="M199.84,129.15c.09,4,.46,6.85-.47,10.57-1.21-3.92-3.83-15.64-3.83-15.64l-4.17-9.31-3.47-2.87L182,107.62l-.49-13.44C192.48,102.75,199.5,115.18,199.84,129.15Z"/><path class="cls-3" d="M93.81,127.78,93.58,125a.69.69,0,0,0-.69-.7h-.21a.69.69,0,0,0-.65.73l.23,2.76a.7.7,0,0,0,.69.7h.2A.7.7,0,0,0,93.81,127.78Z"/><path class="cls-3" d="M98.62,117.23l-.28-5a.78.78,0,0,0-.78-.79h-.49a.79.79,0,0,0-.74.83l.28,5a.79.79,0,0,0,.79.8l.48,0A.79.79,0,0,0,98.62,117.23Z"/><path class="cls-3" d="M105.29,108l-.28-4.79a.89.89,0,0,0-.88-.9l-.84,0a.89.89,0,0,0-.84.94l.28,4.79a.89.89,0,0,0,.88.9l.84,0A.88.88,0,0,0,105.29,108Z"/><path class="cls-3" d="M115.28,100.61l-.3-5.82a.89.89,0,0,0-.89-.9l-.83,0a.9.9,0,0,0-.85.94l.31,5.82a.89.89,0,0,0,.88.9l.84,0A.9.9,0,0,0,115.28,100.61Z"/><path class="cls-3" d="M125.33,95.73,125,89a.89.89,0,0,0-.89-.9l-.84,0a.9.9,0,0,0-.84.94l.33,6.7a.89.89,0,0,0,.88.9l.84,0A.88.88,0,0,0,125.33,95.73Z"/><path class="cls-3" d="M135.43,92.75l-.32-6.44a.88.88,0,0,0-.88-.89l-.84,0a.88.88,0,0,0-.84.94l.31,6.43a.9.9,0,0,0,.89.9l.84,0A.9.9,0,0,0,135.43,92.75Z"/><path class="cls-3" d="M145.57,91.74l-.32-6.54a.89.89,0,0,0-.88-.9l-.84,0a.88.88,0,0,0-.84.94L143,91.8a.89.89,0,0,0,.88.9l.84,0A.9.9,0,0,0,145.57,91.74Z"/><path class="cls-3" d="M155.74,92l-.31-6.12a.89.89,0,0,0-.88-.9l-.84,0a.89.89,0,0,0-.84.94l.31,6.12a.89.89,0,0,0,.88.9l.84,0A.88.88,0,0,0,155.74,92Z"/><path class="cls-3" d="M166,94.18l-.31-5.93a.89.89,0,0,0-.89-.9l-.83,0a.9.9,0,0,0-.85.94l.31,5.93a.89.89,0,0,0,.89.9l.83,0A.9.9,0,0,0,166,94.18Z"/><path class="cls-3" d="M176.25,99.17l-.32-6.42a.89.89,0,0,0-.88-.9l-.84,0a.9.9,0,0,0-.84.94l.32,6.42a.89.89,0,0,0,.88.9l.84,0A.89.89,0,0,0,176.25,99.17Z"/><ellipse class="cls-1" cx="365.04" cy="329.58" rx="17.09" ry="55.73" transform="translate(-66.61 565.26) rotate(-70.71)"/><polygon class="cls-3" points="385.99 278.75 385.63 269.58 383.5 264.21 382.15 268.65 385.99 278.75"/><path class="cls-4" d="M289.79,280.5l-.36-9s7.61,7.59,7.61,7.77S289.79,280.5,289.79,280.5Z"/><path class="cls-4" d="M338.55,307.17c26.56-.63,47.64-14.14,47.08-37.59s-22.55-41.94-49.11-41.31-47.64,20.16-47.08,43.61S312,307.81,338.55,307.17Z"/><ellipse class="cls-4" cx="337.9" cy="279.9" rx="48.11" ry="42.47" transform="translate(-6.6 8.17) rotate(-1.37)"/><path class="cls-3" d="M371.47,249.3c8.72,7.46,14.25,17.85,14.52,29.45.57,23.45-20.51,43-47.07,43.61a51.43,51.43,0,0,1-34-11.39Z"/><ellipse class="cls-5" cx="337.9" cy="279.9" rx="45.96" ry="40.58" transform="translate(-6.61 8.17) rotate(-1.37)"/><ellipse class="cls-6" cx="337.9" cy="279.9" rx="36.9" ry="32.57" transform="translate(-6.6 8.17) rotate(-1.37)"/><path class="cls-4" d="M301,280.78c0-.74,0-1.48,0-2.22,1.7,16.92,18,29.94,37.52,29.47s35.18-14.25,36.07-31.23c.07.73.13,1.47.15,2.21.43,18-15.74,33-36.11,33.45S301.44,298.77,301,280.78Z"/><path class="cls-4" d="M330.82,282.64l7.57-7c7.28,1.66,20.86,4.75,31.71,7.3-2.7,8.11-9.27,14.81-17.87,18.36Z"/><path class="cls-4" d="M342.73,303.78c-1.2.14-2.43.24-3.67.27a35.4,35.4,0,0,1-23.12-7.62L328.29,285Z"/><path class="cls-4" d="M346.5,268.12l14.26-13.21c4.79,4.19,9.07,8.81,10.23,15Z"/><path class="cls-3" d="M339.05,251.23c-20.37.48-36.54,15.46-36.11,33.44a29.19,29.19,0,0,0,2.19,10.38A29.35,29.35,0,0,1,301,280.78c-.43-18,15.74-33,36.11-33.45,16.24-.39,30.25,8.56,35.48,21.31C366.33,258,353.58,250.88,339.05,251.23Z"/><path class="cls-3" d="M385.63,269.58c.08,3.49.41,6-.41,9.28-1.06-3.44-3.36-13.73-3.36-13.73L378.2,257l-3.05-2.51L370,250.68l-.43-11.8C379.17,246.41,385.34,257.31,385.63,269.58Z"/><path class="cls-3" d="M292.54,268.38l-.2-2.42a.6.6,0,0,0-.6-.61h-.18a.62.62,0,0,0-.58.64l.21,2.42a.59.59,0,0,0,.6.61H292A.61.61,0,0,0,292.54,268.38Z"/><path class="cls-3" d="M296.77,259.12l-.25-4.35a.7.7,0,0,0-.68-.7h-.43a.69.69,0,0,0-.65.73l.25,4.35a.7.7,0,0,0,.69.7h.42A.69.69,0,0,0,296.77,259.12Z"/><path class="cls-3" d="M302.63,251l-.25-4.21a.77.77,0,0,0-.77-.79l-.74,0a.78.78,0,0,0-.74.82l.25,4.21a.78.78,0,0,0,.77.79h.74A.79.79,0,0,0,302.63,251Z"/><path class="cls-3" d="M311.4,244.52l-.27-5.1a.78.78,0,0,0-.77-.79h-.74a.79.79,0,0,0-.74.83l.27,5.1a.78.78,0,0,0,.77.79h.74A.79.79,0,0,0,311.4,244.52Z"/><path class="cls-3" d="M320.22,240.24l-.28-5.88a.78.78,0,0,0-.78-.79h-.74a.79.79,0,0,0-.73.83l.28,5.88a.78.78,0,0,0,.78.79l.73,0A.78.78,0,0,0,320.22,240.24Z"/><path class="cls-3" d="M329.09,237.62l-.28-5.65a.79.79,0,0,0-.78-.79l-.74,0a.78.78,0,0,0-.73.83l.27,5.65a.8.8,0,0,0,.78.79l.74,0A.79.79,0,0,0,329.09,237.62Z"/><path class="cls-3" d="M338,236.73l-.28-5.73a.78.78,0,0,0-.78-.79h-.73a.79.79,0,0,0-.74.83l.28,5.74a.79.79,0,0,0,.78.79l.73,0A.79.79,0,0,0,338,236.73Z"/><path class="cls-3" d="M346.92,236.92l-.27-5.37a.78.78,0,0,0-.78-.79h-.73a.79.79,0,0,0-.74.83l.27,5.38a.79.79,0,0,0,.78.79l.73,0A.79.79,0,0,0,346.92,236.92Z"/><path class="cls-3" d="M355.89,238.88l-.26-5.21a.78.78,0,0,0-.78-.79l-.74,0a.78.78,0,0,0-.74.82l.27,5.21a.78.78,0,0,0,.78.79l.74,0A.77.77,0,0,0,355.89,238.88Z"/><path class="cls-3" d="M364.93,243.26l-.28-5.63a.78.78,0,0,0-.78-.79h-.74a.78.78,0,0,0-.73.83l.27,5.63a.78.78,0,0,0,.78.79h.74A.79.79,0,0,0,364.93,243.26Z"/></g></g></svg>