<svg id="Camada_1" data-name="Camada 1" xmlns="http://www.w3.org/2000/svg" viewBox="0 0 2000 1851.47"><defs><style>.cls-1{fill:#bbdefb;}.cls-2{fill:#9dcced;}.cls-3{fill:#88bfe2;}.cls-19,.cls-4{fill:none;stroke-miterlimit:10;}.cls-4{stroke:#9dcced;stroke-width:2px;}.cls-5{fill:#4b9fa3;}.cls-6{fill:#327f87;}.cls-7{fill:#d86;}.cls-8{fill:#f3a17a;}.cls-9{fill:#11393d;}.cls-10{fill:#5b84e6;}.cls-11{fill:#c9b523;}.cls-12{fill:#ebdb15;}.cls-13{fill:#7f634e;}.cls-14{fill:#3c6;}.cls-15{fill:#2bb254;}.cls-16{fill:#19191b;}.cls-17{fill:#dd774e;}.cls-18{fill:#ed7d66;}.cls-19{stroke:#1a4850;stroke-linecap:round;stroke-width:0.59px;}.cls-20{fill:#eeeeef;}.cls-21{fill:#f7f8f9;}.cls-22,.cls-33{fill:#25283d;}.cls-23{fill:#e62a7d;}.cls-24{fill:#d14e4e;}.cls-25{fill:#2b0942;}.cls-26{fill:#501074;}.cls-27{fill:#cdcfd0;}.cls-28{fill:#b72169;}.cls-29{fill:#78909c;}.cls-30{fill:#fff;}.cls-31{fill:#607e89;}.cls-32{fill:#cfd8dc;}.cls-33{opacity:0.7;}</style></defs><title>erro</title><path class="cls-1" d="M865.28,146C794.75,180.08,722,228.54,688.75,290.14c-51.61,95.72-13.51,145.14,21.56,239,34.2,91.53,33,188.81-26.68,270-73.29,99.61-203,134.72-297.46,210.72-50.78,40.86-86.74,91.87-98.48,156.81-12.71,70.3,5,144.55-13.64,213.88-34.34,127.63-144.08,199.07-76.74,341.78,82.83,175.49,252.63,207.48,428.78,217.38,194.09,10.9,390-8.34,582.31-33.61,277.6-36.48,554.27-89.25,826.15-156.3a22.67,22.67,0,0,0,2.7-.67c0-.06-40.25-1603.05-40.25-1603.05S1724.76,0,1441.05,0C1159.65,0,953.79,103.29,865.28,146Z"/><rect class="cls-2" x="1779.5" y="661.6" width="317.91" height="818.24"/><rect class="cls-3" x="1798.64" y="679.4" width="279.62" height="778.45"/><line class="cls-4" x1="1867.64" y1="729.99" x2="2009.26" y2="729.99"/><line class="cls-4" x1="1867.64" y1="758.26" x2="2009.26" y2="758.26"/><line class="cls-4" x1="1867.64" y1="786.52" x2="2009.26" y2="786.52"/><line class="cls-4" x1="1867.64" y1="814.78" x2="2009.26" y2="814.78"/><line class="cls-4" x1="1867.64" y1="843.04" x2="2009.26" y2="843.04"/><line class="cls-4" x1="1867.64" y1="871.31" x2="2009.26" y2="871.31"/><line class="cls-4" x1="1867.64" y1="899.57" x2="2009.26" y2="899.57"/><line class="cls-4" x1="1867.64" y1="1214.31" x2="2009.26" y2="1214.31"/><line class="cls-4" x1="1867.64" y1="1242.58" x2="2009.26" y2="1242.58"/><line class="cls-4" x1="1867.64" y1="1270.84" x2="2009.26" y2="1270.84"/><line class="cls-4" x1="1867.64" y1="1299.1" x2="2009.26" y2="1299.1"/><line class="cls-4" x1="1867.64" y1="1327.36" x2="2009.26" y2="1327.36"/><line class="cls-4" x1="1867.64" y1="1355.63" x2="2009.26" y2="1355.63"/><line class="cls-4" x1="1867.64" y1="1383.89" x2="2009.26" y2="1383.89"/><rect class="cls-2" x="1446.92" y="661.6" width="317.91" height="818.24"/><rect class="cls-3" x="1466.07" y="679.4" width="279.62" height="778.45"/><line class="cls-4" x1="1535.07" y1="729.99" x2="1676.69" y2="729.99"/><line class="cls-4" x1="1535.07" y1="758.26" x2="1676.69" y2="758.26"/><line class="cls-4" x1="1535.07" y1="786.52" x2="1676.69" y2="786.52"/><line class="cls-4" x1="1535.07" y1="814.78" x2="1676.69" y2="814.78"/><line class="cls-4" x1="1535.07" y1="843.04" x2="1676.69" y2="843.04"/><line class="cls-4" x1="1535.07" y1="871.31" x2="1676.69" y2="871.31"/><line class="cls-4" x1="1535.07" y1="899.57" x2="1676.69" y2="899.57"/><line class="cls-4" x1="1535.07" y1="1214.31" x2="1676.69" y2="1214.31"/><line class="cls-4" x1="1535.07" y1="1242.58" x2="1676.69" y2="1242.58"/><line class="cls-4" x1="1535.07" y1="1270.84" x2="1676.69" y2="1270.84"/><line class="cls-4" x1="1535.07" y1="1299.1" x2="1676.69" y2="1299.1"/><line class="cls-4" x1="1535.07" y1="1327.36" x2="1676.69" y2="1327.36"/><line class="cls-4" x1="1535.07" y1="1355.63" x2="1676.69" y2="1355.63"/><line class="cls-4" x1="1535.07" y1="1383.89" x2="1676.69" y2="1383.89"/><circle class="cls-2" cx="1700.99" cy="1035.98" r="17.05"/><rect class="cls-2" x="1114.35" y="661.6" width="317.91" height="818.24"/><rect class="cls-3" x="1133.5" y="679.4" width="279.62" height="778.45"/><line class="cls-4" x1="1202.5" y1="729.99" x2="1344.11" y2="729.99"/><line class="cls-4" x1="1202.5" y1="758.26" x2="1344.11" y2="758.26"/><line class="cls-4" x1="1202.5" y1="786.52" x2="1344.11" y2="786.52"/><line class="cls-4" x1="1202.5" y1="814.78" x2="1344.11" y2="814.78"/><line class="cls-4" x1="1202.5" y1="843.04" x2="1344.11" y2="843.04"/><line class="cls-4" x1="1202.5" y1="871.31" x2="1344.11" y2="871.31"/><line class="cls-4" x1="1202.5" y1="899.57" x2="1344.11" y2="899.57"/><line class="cls-4" x1="1202.5" y1="1214.31" x2="1344.11" y2="1214.31"/><line class="cls-4" x1="1202.5" y1="1242.58" x2="1344.11" y2="1242.58"/><line class="cls-4" x1="1202.5" y1="1270.84" x2="1344.11" y2="1270.84"/><line class="cls-4" x1="1202.5" y1="1299.1" x2="1344.11" y2="1299.1"/><line class="cls-4" x1="1202.5" y1="1327.36" x2="1344.11" y2="1327.36"/><line class="cls-4" x1="1202.5" y1="1355.63" x2="1344.11" y2="1355.63"/><line class="cls-4" x1="1202.5" y1="1383.89" x2="1344.11" y2="1383.89"/><circle class="cls-2" cx="1368.41" cy="1035.98" r="17.05"/><path class="cls-5" d="M993.39,1472.14c-235.32,0-289.74,8.8-412.12,91.27-83.85,56.5-89.91,93.54-300.41,81.51C83.5,1633.64,0,1851.47,0,1851.47H2000l37.85-379.33Z"/><path class="cls-6" d="M2050,1630.33h-409a14.43,14.43,0,0,1-14.43-14.43h0a14.43,14.43,0,0,1,14.43-14.43h409a14.43,14.43,0,0,1,14.43,14.43h0A14.43,14.43,0,0,1,2050,1630.33Z"/><rect class="cls-6" x="307.26" y="1685.36" width="1274.37" height="28.86" rx="3.28"/><path class="cls-6" d="M1530.42,1630.33h-409A14.44,14.44,0,0,1,1107,1615.9h0a14.44,14.44,0,0,1,14.43-14.43h409a14.43,14.43,0,0,1,14.43,14.43h0A14.43,14.43,0,0,1,1530.42,1630.33Z"/><path class="cls-7" d="M1052.76,1087.44s5.39,8.21,6.69,12.15c1.56,4.74.66,16.36.66,16.36s-.44,1.09-2.07,0c-2.52-1.64-.26-7.88-4.17-9.76S1052.76,1087.44,1052.76,1087.44Z"/><path class="cls-8" d="M1024.85,1073.63s20.93-2.52,25.6,3.3c0,0,3.57,17.14,5.48,22.64,2.1,6,1,27.12-2.26,30.79-8.54,9.73-9,9.16-11.05,7s5.15-7.55,5.69-10.61c.27-1.51-1.82-8.63-1.82-8.63.06,3.12-1.45,8.07-4.75,10-4.09,2.43-7.52,5-9.63,3.68-3.82-2.36,5.83-7.86,5.11-10.53-.25-1-1.1-7.14-1.1-7.14-1,1.78-1.11,4.91-2.39,6.37-1.63,1.87-9.16,7.06-10.54,5.22-2.15-2.87,4.82-7.32,4.87-10.13a60.28,60.28,0,0,0-1-6s-1.87,3.9-3.15,5c-1.47,1.23-8.21,4.43-8.63,2.89-1.08-4,5.61-5.68,6.29-11.44.57-4.78-1.65-15.85,1.21-20.64S1024.85,1073.63,1024.85,1073.63Z"/><path class="cls-9" d="M1124.86,1609.09V1598.8c0-11.86,11.07-33.37,11.07-41.27s30.58,6.42,30.58,6.42.25,11.93,10.52,23a29.3,29.3,0,0,1,7.43,22.15Z"/><path class="cls-9" d="M1333.64,1609.09l-5.3-2.47-2.47,2.47h-20.19c-2-5.81-8.84-27.89-2.67-43.2,7.15-17.76,29.29-13,29.29-13s15,21,23.71,24.7,41.89,17.19,45.85,25.89c1.18,2.6-.84,4.35-.26,5.63Z"/><path class="cls-10" d="M1265.84,947.22c11.46,166.19,42.76,384,76.71,613.1,0,0-6.65,10.83-44.42,5.17L1181.81,1079a3.34,3.34,0,0,0-6.46,1.06c-1.34,36.66-13.1,148.82-6.78,487,0,0-19.86,10.9-41,0,0,0-75-500.14-57.71-595.9Z"/><path class="cls-11" d="M1244.74,662.15s28.15,8.76,71.58,53.91c35.75,37.17,44.9,24.31,44.9,24.31s9.1-54-5.75-124.84c0,0,18.49,1.23,23.23-10.48,0,0,43.93,144.58,22.6,180.47s-135.2-24.32-135.2-24.32Z"/><path class="cls-12" d="M1067.24,1004.11s31.79,33.41,124.88,18.67c52.88-8.37,76.89-34.19,76.89-34.19s17-288.37-1.71-312.68c-13.6-17.66-112.94-45.12-154.07-37.14-39.76,7.71-63.43,27.92-63.43,27.92C1028.31,717.81,1067.24,1004.11,1067.24,1004.11Z"/><path class="cls-8" d="M1340.62,573.59s3,14.69,3,22.07,4.34,26.48,21.27,23.88S1394,581.28,1394,581.28c2.17-14-7.38-21.08-7.38-21.08,1.31-6.37-7.38-13-7.38-13l-1.73-11.1c-12.3,2.25-4.49,11.1-8.47,27.15-1,3.87-6.67,10.44-9,14.2h0a84.93,84.93,0,0,1-6.41,9,0,0,0,0,0,0,0c-.36-.65-5.33-9.12-8.66-12.82C1341.48,569.77,1340.62,573.59,1340.62,573.59Z"/><path class="cls-7" d="M1390.69,574.82s-4.35-7.36-6.66-6c0,0-2,3.1-1.16,6s4.34,6.08,2,13.61-17.42-18.53-17.42-18.53c6.13,3.7,10.47-8.1,8.45-13s-1.45-7.78-.29-9.68,3.61,0,3.61,0a4.76,4.76,0,0,0-2.17,2.48c-.58,1.7-1.15,9.51.29,11.83s-.92-2.6,1.71-3.18a6,6,0,0,1,4.66,1s-3.18-.14-3.18,2.47,2,6.27,2,6.27S1387.79,562.38,1390.69,574.82Z"/><path class="cls-7" d="M1353.64,586.44s8.68-.33,9,8.06,6.35,8.72,6.35,8.72,1.55-19.38-8.9-25.77h0A84.93,84.93,0,0,1,1353.64,586.44Z"/><path class="cls-13" d="M1257.44,736.51s-24.2-2.63-26.76-27.11-13.2-40.33-14.6-31.85,12.62,10.07,4,21.23-25-7.85-26.72-18.49-15.31-7.52-8.42.2,16.31,16.4,15.87,24.56-28.39,9.54-44.58,2.85-14.16,9.63-3.67,8.39,28.71-3.67,29.9,4.25-16.18,7.33-11.46,11.67,7.66-3.1,12.67-.72,1.39,12.62,9.82,15.3,10.75-6,21.75-1.27,22.46,18.78,31.26,9.49S1257.44,736.51,1257.44,736.51Z"/><path class="cls-14" d="M1289.85,770.36v.26c-.13,9.11-14.52,23.55-25.74,26.27,0,.05-.13.05-.18.05a22.88,22.88,0,0,1-2.46.39h-.22a9.06,9.06,0,0,1-4.14-.52c-11.09-4.27-37.84-39.12-37.84-39.12s7.7-32,40.13-31.33C1259.4,726.36,1289.72,759.18,1289.85,770.36Z"/><path class="cls-15" d="M1289.85,770.62c-.13,9.11-14.52,23.55-25.74,26.27,0,.05-.13.05-.18.05a22.88,22.88,0,0,1-2.46.39h-.22c-4.84,0,13.55-23.18,26.93-26.44C1288.84,770.76,1289.37,770.67,1289.85,770.62Z"/><path class="cls-15" d="M1225.12,752.2s-14.3,5.5-13.56,11.37,22,30.35,25.66,31.13,17.34-6.56,17.34-6.56-.84-5.14-3.4-5.87-11.37,4.4-13.2,4.77-20.9-23.47-20.9-23.47l9.16-4S1231,754.4,1225.12,752.2Z"/><path class="cls-8" d="M1238.85,790.56s.05,0,0,0,0,0,0,0c-1.28,3-4.89,6-6.21,8a3.39,3.39,0,0,1-2,1.54h0a3.8,3.8,0,0,1-3-.74c-2.51,2.72-17.91,6.64-17.91,6.64h-19.19l-11.7-21.91,12.5-4.67s19.36-16.15,26.62-15.88,9.68,2.82,9.68,2.82c6.33,2.42,6.38,7.47,6.38,7.47,2.2,2.51-1.37,5.59-1.37,5.59s.71,2.2,5.28,6.25A3.85,3.85,0,0,1,1238.85,790.56Z"/><path class="cls-7" d="M1234,773.94l-9.13-5.6A11.52,11.52,0,0,1,1234,773.94Z"/><path class="cls-7" d="M1232.62,779.49s-5.57-1.8-7.77-1S1227.29,772,1232.62,779.49Z"/><path class="cls-7" d="M1236,784s-5.3.79-7.53,0S1234,780.92,1236,784Z"/><path class="cls-7" d="M1238.81,790.65c-1.28,3-4.89,6-6.21,8a3.39,3.39,0,0,1-2,1.54h0a10.34,10.34,0,0,1-3-.74s4.31-3.88,5.45-6.08l-2.72-1.67S1238.24,791.31,1238.81,790.65Z"/><path class="cls-11" d="M1184.72,779.49s17.65,21.19,11.61,31.23c0,0-63.24,42.46-136,45.13-29.64,1.09-56-175.88,0-195.47,0,0,24.58-.88,30.92,21.33,14.2,49.78-3.12,104.64-3.12,104.64C1103.69,804.91,1171.82,775.62,1184.72,779.49Z"/><path class="cls-11" d="M1170.12,637.35s25.46,24,28.68,51.09c0,0-8.16-13.93-14.84-14s-18.36,15.83-18.36,15.83l-21.23-12.1S1143.72,636.17,1170.12,637.35Z"/><path class="cls-8" d="M1153.49,593c-10.41,56.77,49.09,74.7,66.89,56.14,5.7-5.94,12-17.48,16.91-30.44q1.68-4.39,3.07-8.95c6.27-20.51,7.89-42.1-2.85-49.75C1200.14,533.32,1163.91,536.18,1153.49,593Z"/><path class="cls-16" d="M1245.66,574.5s-18.83-24.45-58.44-23.24c0,0-15.92,29.66-21.64,43.37,0,0-15.09,1.4-8.86,33.08,0,0-17.61-6-9.7-55.18,6.86-42.62,32.87-34.14,32.87-34.14s13.3-23.17,40.64-11.8,37.21,24.68,45.74,12.94S1282.47,578.08,1245.66,574.5Z"/><path class="cls-16" d="M1201,590.63c-.83,3.1-.12,6,1.6,6.45s3.8-1.67,4.63-4.76.13-6-1.59-6.45S1201.86,587.53,1201,590.63Z"/><path class="cls-16" d="M1228.72,600.65c-.84,3.09-.12,6,1.6,6.45s3.79-1.67,4.63-4.77.12-6-1.6-6.45S1229.56,597.55,1228.72,600.65Z"/><path class="cls-17" d="M1222.24,604.1s3.29,13.62,9.3,13.27-1.67,11.65-15.76,3.07C1215.78,620.44,1213.79,612.11,1222.24,604.1Z"/><path class="cls-18" d="M1186.39,597.05c-1.42,2.22-.32,5.46,2.45,7.24s6.18,1.42,7.6-.8.33-5.46-2.45-7.24S1187.81,594.83,1186.39,597.05Z"/><path class="cls-18" d="M1231.61,614c0,2.55,2.52,4.59,5.68,4.68q1.68-4.39,3.07-8.95a7.36,7.36,0,0,0-2.83-.56C1234.23,609.18,1231.58,611.35,1231.61,614Z"/><path class="cls-19" d="M1213.88,572.8s-6.28-2.87-11.61-.54"/><path class="cls-19" d="M1236.58,582.74s6.63,1.94,5.86,5.66"/><path class="cls-8" d="M1165.58,594.63s-6.2-13-16.33-8.8-1.29,27.54,8,29.25S1165.58,594.63,1165.58,594.63Z"/><path class="cls-16" d="M1216.58,637.75s-28.68-10.21-31-5.52,6.18,14.94,17.92,14.64S1216.58,637.75,1216.58,637.75Z"/><path class="cls-7" d="M1148.2,616.85s-2.28,10.86-24.83,27.49c0,0,13.14,31,42.23,37.09,0,0,12.3-20.32,24.7-26.57,0,0-24.7-4.78-34.88-36.11C1155.42,618.75,1150.6,619.78,1148.2,616.85Z"/><path class="cls-11" d="M1139.39,630.3s-6.51,15.91,0,29.46a46.11,46.11,0,0,0,17.45,19.47s-12,8.25-15.32,15.4c0,0-24.2-22.55-25.3-41.8S1139.39,630.3,1139.39,630.3Z"/><path class="cls-12" d="M1453.76,343.5s30.94-6.68,52.24,1.25l-37.3,91.85s-27.27-1.66-46.58,4.27C1422.12,440.87,1430.26,375.89,1453.76,343.5Z"/><path class="cls-20" d="M1478.88,375.78s31.44-3.61,51.87,6.38L1484.6,469.9s-27-4.33-46.77-.33C1437.83,469.57,1452.31,405.7,1478.88,375.78Z"/><path class="cls-21" d="M1518.57,382.07s31.36,4.26,48.69,19l-66.37,73.65s-25.07-10.86-45.24-11.86C1455.65,462.83,1485.44,404.51,1518.57,382.07Z"/><path class="cls-20" d="M1494.87,512.09s-37.06-7-50.82-15.1c0,0,40.87-19,66.14-77.47,0,0,29.71,12.27,42.37,9.71C1552.56,429.23,1526.93,489.48,1494.87,512.09Z"/><path class="cls-7" d="M1378.35,1353.35c-20.48,26.26-40.14,50.69-54.72,67.26-8.8,10-36.42,25.31-45.54,27.67a.76.76,0,0,1-.2,0,26.75,26.75,0,0,0-11,.66,20.77,20.77,0,0,0-4.77,2.08l36.43,16.56a54.69,54.69,0,0,0,11.27-6c9.91-6.58,20,.52,20,.52,2.06,4.54-3.58,18.39-5,21.63l4.29,2c3.23-3.15,16.42-18.33,17.83-25.61,1.09-5.88,2.7-19.89,3.65-26.52a21.65,21.65,0,0,1,1.21-5.16c8.55-11,29.9-38.35,57.56-67.56C1399.18,1357.42,1388.86,1354.58,1378.35,1353.35Z"/><path class="cls-8" d="M1709.79,1422.84c-6.17-1-12.31-2.19-18.47-3.3-1.81,32.37-3.18,65.74-3.18,97.21,0,23.15-14.75,84.72-14.75,84.72h37.45v-55.64s11.5-68.8,21.73-119.44C1725,1425.27,1717.37,1424.13,1709.79,1422.84Z"/><path class="cls-22" d="M1669.81,1091.15s28.5,126.67,30.07,161.31c1.86,41.26-9.41,143.79-11.42,237.25a268.33,268.33,0,0,1,32.23-.45c7.3-40.61,16.93-91.21,22.63-109.08,15.15-47.48.13-90.2,5.41-119.68,5.79-32.32,18.49-86.39,23.68-115.38,21.78-121.7-47.5-220.42-47.5-220.42-55.69-25.48-109.73-5.11-109.73-5.11s-.09,17-10.16,61.21c-7.4,12.55-29.36,62.24-60,123.11-28,55.54-56.85,101.46-65.29,114-10.89,16.2-82,112.52-131.64,173.56a113.36,113.36,0,0,0,21.77,14.34c21.87-26.64,57.69-67.31,96.77-98,42.49-33.36,57.67-47.39,80-84.49S1625,1135.57,1649,1104.61C1652.81,1099.72,1661.84,1083.46,1669.81,1091.15Z"/><path class="cls-22" d="M1297,1471c3.67,1.67,14.24-2.76,21-4.36,6.3-1.5,8.91-.12,8.91-.12,2.06,4.54-.59,13.93-2,17.17l4.29,2c3.23-3.15,16.42-18.33,17.83-25.61,1.09-5.88,1.37-14.54,5-25-9.94-13.73-33.2,6.86-57.07,13.55-12,3.36-16.82-.35-16.82-.35h-.2c-.92.08-6.28-1.89-12.2-1.53-9.15,1-10.49,3.68-12.07,4.58Z"/><path class="cls-22" d="M1717,1609.09c1-7.94-1.1-21.78-1.1-28.48,0-8.22-5.06-29.27-5.06-29.27-1.58,14.83-5.69,24.21-7.59,31.8s-16.44,5.69-19.35,0,0-31.8,0-31.8c-6.7,10.57-4.68,25.47-10.51,30.62-4.12,3.62-4.56,20-4.46,27.13Z"/><path class="cls-10" d="M1669.81,686.31c-10.23-8.91-127.24,44-127.24,44s12.22-84.24,0-90.83-14.81-5.95-18.79-3.31c-15.34,10.17-53.59,116.55-29.08,145.75s148.17-13.45,148.17-13.45Z"/><path class="cls-10" d="M1669.81,686.31s23.75,21.27,57.71,29.14,48.1-12.81,65.46,9.09c26.07,32.86-16.34,93.45-38.65,124.84-8.32,11.71-25.87,44.17-29.42,75.32,0,0-58.92,17.11-109.73-5.11l-3.8-72.28S1579.35,749.89,1669.81,686.31Z"/><path class="cls-23" d="M1665.89,575.57s-11.14,1.43-11.14,15.79,14.46,48.17,34.34,52.25S1713.05,577.72,1665.89,575.57Z"/><path class="cls-23" d="M1757.61,555.42s-.53-23.88,19.23-27.82,28.67-12.79,16.42-26.19,5.6-19.52,5.6-19.52-14.51-12.81-8.94-19.49,29,13.92,27.29,21.72,7.24,13.93,13.92,27.29-37.54,25.63-22.83,37.88-19.53,30.29-33.72,26.28S1757.61,555.42,1757.61,555.42Z"/><path class="cls-8" d="M1748.21,572.06s-66.22-17.85-76.55,28.64,5.74,93.44,40.61,90.19C1755.27,686.88,1800.17,594.74,1748.21,572.06Z"/><path class="cls-16" d="M1708.22,626.87c0,3-1.53,5.32-3.4,5.31s-3.36-2.4-3.35-5.34,1.54-5.32,3.41-5.31S1708.24,623.93,1708.22,626.87Z"/><path class="cls-18" d="M1719.36,638.21c.46,2.72-1.93,5.38-5.34,5.95s-6.52-1.18-7-3.9,1.94-5.38,5.34-6S1718.91,635.49,1719.36,638.21Z"/><path class="cls-16" d="M1709.94,626s-2-6.66-4.35-6.67-6.14,4.71-6.14,4.71l-4.58-2.93,4.33,1.41s3.34-5.36,6.73-4.51S1709.94,626,1709.94,626Z"/><path class="cls-16" d="M1680.83,624.29c0,3-1.54,5.33-3.4,5.32s-3.37-2.41-3.35-5.35,1.54-5.32,3.4-5.31S1680.85,621.35,1680.83,624.29Z"/><path class="cls-16" d="M1682.55,623.43s-2-6.66-4.36-6.67-6.13,4.72-6.13,4.72l-4.58-2.94,4.33,1.41s3.34-5.36,6.73-4.51S1682.55,623.43,1682.55,623.43Z"/><path class="cls-24" d="M1712.64,610.49a1.36,1.36,0,0,1-1.09-.56c-3-4.06-8.16-3.25-8.21-3.24a1.35,1.35,0,0,1-.44-2.67c.27,0,6.91-1.08,10.83,4.32a1.35,1.35,0,0,1-.29,1.89A1.39,1.39,0,0,1,1712.64,610.49Z"/><path class="cls-24" d="M1682.31,605.35a1.41,1.41,0,0,1-.8-.26c-4-3-8.61-.68-8.81-.59a1.35,1.35,0,0,1-1.23-2.4c.26-.13,6.26-3.14,11.64.81a1.35,1.35,0,0,1-.8,2.44Z"/><path class="cls-17" d="M1682.94,632.57s-11.58.8-10.21,4.81,8.39,8.91,8.39,8.91S1685.84,637.49,1682.94,632.57Z"/><path class="cls-23" d="M1723.77,597.1s16,18,16.7,42.66c0,0,10.09-14,16.48-2.75s-15.41,29.57-15.41,29.57-4.66,5.49,5.48,5.29,39.94-34.35,32.85-53.19S1753.41,581.83,1723.77,597.1Z"/><path class="cls-7" d="M1740.12,656.37c-4.17,13.71-21.88,38.09-42.49,32.67,0,0,3.58,13.13-4.39,20.92,0,0-5.33,6,3.62,11.37,28.12,16.75,46.07,2.61,48.53-2.25l2.1-60.67C1742.24,662.35,1740.12,656.37,1740.12,656.37Z"/><path class="cls-23" d="M1670.74,558.76c-6.53.92-12.62,13.37-3.26,25.06s110.57,34.19,102,69c0,0,24.2-15.1,11.44-42.32,0,0,15.16-32.74-9.38-50.62-52-37.87-87.68,3.35-87.68,3.35S1682.55,557.09,1670.74,558.76Z"/><path class="cls-16" d="M1683.19,655.92c1.69-3.26,5.36-2,7.62-.14,3.3,2.76,4.24,7.44,4.93,11.46.92,5.36-2.28,14.49-8.88,8.33C1684,672.91,1680.63,660.85,1683.19,655.92Z"/><path class="cls-10" d="M1788.28,719.54c-18.25-7.08-45.21,20.92-30.67,62.33s57.93,111,98,107.45,56.2-162.27,51.5-165.21-16.26-5.38-21.91-5.6c-4.49-.17-25.13,22.46-39.61,77C1845.62,795.52,1802.2,725,1788.28,719.54Z"/><path class="cls-10" d="M1698.26,692.83s4.15,21.61,48,.38c0,0,5.25-3.48,7.17,5.39a54.67,54.67,0,0,0,6.93,16.44s-24.23,34-58.62,24.62-22.25-44.67-17.88-43C1694.87,700.8,1695.33,688.56,1698.26,692.83Z"/><path class="cls-7" d="M1522.28,597.28s1.57-7.63,3.81-7.4,0,7.38,0,7.38l2.47,3.84s-.9-4.05,0-5.62,4-5.9,4-5.9a1.84,1.84,0,0,1,2.65,1.79c.27,2.77-2,5.89-2,5.89l1.12,3.84.85-3.84s2-4.69,3.19-4.47c2.27.42-.23,5.84-.23,5.84s.59,2.24.79,3.59c.22,1.57,1.8,3.37,6.28,6.51l6.73,4.71s-7.29,6.45-8.86,6.7-19.52-5.91-19.52-5.91l-.9-4.88S1523.63,606.28,1522.28,597.28Z"/><path class="cls-7" d="M1557.24,618.82c0-3.36.16-9.2-1.75-12.23s-2.92-.22-2.13,2.25-2.92,1-5.27,3.21S1557.24,618.82,1557.24,618.82Z"/><path class="cls-8" d="M1525,639.69s7.63-13.68,1.69-19.54c-3.89-3.83-9.88-11.93-9.21-18.27s2.23-12.55,4.09-9.94c.91,1.28.07,8.48.07,8.48s5.16,8.66,11.89,8.93a13.36,13.36,0,0,1,10.1,5.29s8.14-5,11.78-.41c6.4,8-4.28,12.31-6.67,15.11-3.25,3.83-4.44,17.83-4.44,17.83S1526.61,645.14,1525,639.69Z"/><path class="cls-7" d="M1933.22,695.89s3.44-7,1.53-8.19-4.53,5.83-4.53,5.83l-4.3,1.51s3.19-2.64,3.44-4.43.44-7.14.44-7.14a1.84,1.84,0,0,0-3.19-.22c-1.91,2-2.06,5.87-2.06,5.87l-3.24,2.34,1.68-3.56s1.3-4.92.23-5.48c-2-1.06-3.4,4.75-3.4,4.75s-1.85,1.4-2.83,2.35c-1.14,1.1-3.49,1.55-9,1.28l-8.21-.42s1.79,9.57,2.88,10.74,19,7.32,19,7.32l3.7-3.3S1926.63,702.16,1933.22,695.89Z"/><path class="cls-7" d="M1892.39,691.42c2.07-2.65,5.53-7.35,8.9-8.57s2.44,1.61.3,3.08,1.67,2.61,2.19,5.77S1892.39,691.42,1892.39,691.42Z"/><path class="cls-8" d="M1905.05,727.71s2.39-15.49,10.67-16.46c5.42-.63,15.12-3.35,18.48-8.77s6-11.28,2.88-10.35c-1.5.45-5.26,6.65-5.26,6.65s-9.39,3.66-14.87-.26a13.36,13.36,0,0,0-11.21-2s-3.39-8.91-9.06-7.55c-10,2.38-4.17,12.33-4,16,.22,5-7.44,16.79-7.44,16.79S1888.44,728.35,1905.05,727.71Z"/><path class="cls-21" d="M1511.22,519.75s-27.73-25.56-35.1-39.73l97.13-30.67s18.7,26.14,30.8,30.67C1604.05,480,1550.4,517.55,1511.22,519.75Z"/><path class="cls-20" d="M1600.24,474.65l40.33,23.46-74.8,48.41-45.43-22S1579.71,502.51,1600.24,474.65Z"/><path class="cls-21" d="M1555.44,572.55s-27.73-25.56-35.1-39.73l97.13-30.67s18.7,26.14,30.8,30.67C1648.27,532.82,1594.62,570.35,1555.44,572.55Z"/><path class="cls-12" d="M1560.33,590.35s-26.17-17.8-35.11-38.7l92.25-36.3s17.6,20.9,35.2,30.8C1652.67,546.15,1600,585.05,1560.33,590.35Z"/><path class="cls-12" d="M1976,493.24s-30.93-6.68-52.24,1.25l37.3,91.85s27.28-1.66,46.58,4.27C2007.67,590.61,1999.53,525.62,1976,493.24Z"/><path class="cls-20" d="M1950.91,525.52s-31.44-3.61-51.87,6.37l46.15,87.75s27-4.33,46.77-.33C1992,619.31,1977.48,555.44,1950.91,525.52Z"/><path class="cls-21" d="M1911.22,531.81s-31.36,4.26-48.69,19l66.37,73.65s25.08-10.86,45.24-11.86C1974.14,612.57,1944.35,554.24,1911.22,531.81Z"/><path class="cls-21" d="M1436.93,588.55s-31.36,4.26-48.69,19l66.37,73.64s25.08-10.85,45.25-11.86C1499.86,669.31,1470.06,611,1436.93,588.55Z"/><path class="cls-20" d="M1934.93,661.83s37.06-7,50.81-15.11c0,0-40.87-19-66.14-77.46,0,0-29.71,12.27-42.37,9.71C1877.23,579,1902.86,639.22,1934.93,661.83Z"/><path class="cls-20" d="M1895.83,437.15s37.07-7,50.82-15.1c0,0-40.87-19-66.14-77.47,0,0-29.71,12.28-42.37,9.71C1838.14,354.29,1863.77,414.54,1895.83,437.15Z"/><path class="cls-21" d="M1867,633.54s27.73-25.56,35.1-39.73L1805,563.13s-18.7,26.15-30.8,30.68C1774.17,593.81,1827.82,631.34,1867,633.54Z"/><path class="cls-21" d="M1770,445.55s27.74-25.56,35.11-39.73L1708,375.15s-18.7,26.14-30.8,30.67C1677.2,405.82,1730.86,443.35,1770,445.55Z"/><path class="cls-20" d="M1829.55,624.39l-40.33,23.46,74.8,48.4,45.43-22S1850.09,652.25,1829.55,624.39Z"/><path class="cls-21" d="M1472.11,780.56,1431.78,804l74.8,48.4,45.43-22S1492.65,808.42,1472.11,780.56Z"/><path class="cls-21" d="M1874.35,722.29s27.73-25.56,35.1-39.73l-97.13-30.67s-18.7,26.14-30.8,30.67C1781.52,682.56,1835.17,720.09,1874.35,722.29Z"/><path class="cls-12" d="M1869.46,740.09s26.17-17.8,35.12-38.7l-92.26-36.3s-17.6,20.9-35.2,30.8C1777.12,695.89,1829.8,734.79,1869.46,740.09Z"/><path class="cls-25" d="M1122.16,1100.64s-6.82,176.17-31.65,265.9l-86.19-13.19,68.19-252.71Z"/><path class="cls-25" d="M1022.67,1016.28c13.16-22.81,36-38.72,66.07-37.69,30.94,1.06,75.74,2.3,91,35.07,10.13,21.81,8.4,48.22-2.92,69.23-13,24.09-35.54,34.39-61.6,38.45-29,4.54-76.43,6.69-96-19.84-8.15-11.08-10.63-25.53-9.6-39.25C1010.78,1046.76,1014.89,1029.78,1022.67,1016.28Z"/><path class="cls-26" d="M1004.4,1016.28c13.16-22.81,36-38.72,66.06-37.69,30.94,1.06,75.75,2.3,91,35.07,10.12,21.81,8.39,48.22-2.92,69.23-13,24.09-35.55,34.39-61.6,38.45-29.05,4.54-76.44,6.69-96-19.84-8.15-11.08-10.63-25.53-9.61-39.25C992.51,1046.76,996.61,1029.78,1004.4,1016.28Z"/><rect class="cls-25" x="969.38" y="1366.54" width="52.54" height="244.97"/><path class="cls-25" d="M987.94,1381.21c-94.35,2.63-144.21.53-153.3.08a11.08,11.08,0,0,0-3.2.29c-1.32.32-3.33.83-5.68,1.53a11.52,11.52,0,0,0-8.2,11h0c0,5.85,5.2,18.48,11,19.26,126,17,283.69,3.68,308-5.8C1165.86,1396.13,1092.87,1378.27,987.94,1381.21Z"/><path class="cls-26" d="M825.07,1391.47s-15.67-51.33,62.21-55.73,232.85-4.38,249.23,17.61,0,38.12,0,38.12S833.47,1410.14,825.07,1391.47Z"/><path class="cls-25" d="M833.32,1667.31A29.17,29.17,0,0,1,851,1640.12c31.23-13.33,88.44-38.65,144.61-38.65,59,0,124.15,25,154.74,38.44a29.14,29.14,0,0,1,17.45,27.15l-.2,14.9s-59.49-33.85-172-33.85-162.17,33.38-162.17,33.38Z"/><path class="cls-25" d="M1186.4,1681.49a18.3,18.3,0,1,1-18.3-18.3A18.3,18.3,0,0,1,1186.4,1681.49Z"/><circle class="cls-25" cx="833.48" cy="1681.49" r="18.3"/><polygon class="cls-27" points="476.13 1213.94 486.99 1699.63 501.68 1699.63 531.47 1222.99 476.13 1213.94"/><path class="cls-16" d="M850.7,1696.05l4.16-12.7c3.86-11.76,1.12-40.44,3.69-48.28s-32.42-3.59-32.42-3.59S820.77,1647,807,1654.62c-8.83,4.89-13.39,15.2-15.52,22Z"/><path class="cls-16" d="M536.24,1684.71c17.3-24.78,24.49-55.27,24.49-55.27s-16-27.72-34-12.24-45.26,2.86-58.79-4.17c-9.86-5.13-17.67,3.93-21.19,9.22Z"/><path class="cls-22" d="M1019.61,1251.34l-190.11-8.12s-135,16-160.16,41.15-143.18,333.8-143.18,333.8L563,1640l164.74-261.93s155.92-4.58,202-25.15S1019.61,1251.34,1019.61,1251.34Z"/><path class="cls-22" d="M815,1644.84s33-344.47,52.34-360.47,208.86-41.15,208.86-41.15-.39,96-51.22,125.74-86,36.74-86,36.74l-72.35,246Z"/><path class="cls-28" d="M909.78,926C848,944.27,827.3,986,794,1073.47s66.33,81,66.33,81Z"/><path class="cls-23" d="M1063.83,1311.41c15.79,24.84,45.84-298.85,41.17-321.41-6.08-29.36-54.66-68.84-119.32-71.87s-97.53,10.74-119.35,39.09c-11.94,15.51-28.35,111.11-20.46,196.94,3.81,41.46-32.12,53.91-15.79,92.2,0,0,11.69-6.69,42.6,18.56,17.17,14,79.15-12.85,131.64-9.4C1053,1258.72,1063.83,1311.41,1063.83,1311.41Z"/><path class="cls-28" d="M990.89,950.77s57.86-8.93,61.62-21.31c8.22-27.09-90.28-31.69-71.52-30.15,0,0-53.64-9.4-57.86,14.44S911.21,945.08,990.89,950.77Z"/><path class="cls-23" d="M1041.23,924.12s-76.42-28.25-89.41-21.21-11.48,36.85,12.69,45S1039.22,931.78,1041.23,924.12Z"/><path class="cls-16" d="M950.33,760.83s-25,18.43-14.33,59,34.31-49.11,34.31-49.11Z"/><path class="cls-8" d="M1034.49,839.14c-10.6,39.55-41.26,51-65.79,47.48-15.8-2.23-29-10.68-32.72-21.82-3-9.12-4-24.45-2.6-40.52.3-3.64.71-7.31,1.25-11,2.67-18,8.24-35.45,16.93-44.57a19.86,19.86,0,0,1,11-6.37C1015.2,753,1051.93,774.15,1034.49,839.14Z"/><path class="cls-29" d="M1013.05,808.93c-6.5,6.05,1.59,14-1.73,23.73S995,847.83,1000.42,858s-13.1,6.77-14.6,21.94c-.34,3.49-7.44,8.67-17.12,6.73-15.8-2.23-29-10.68-32.72-21.82-3-9.12-4-24.45-2.6-40.52.3-3.64.71-7.31,1.25-11,2.67-18,8.24-35.45,16.93-44.57,28.3-4.14,56.08,21.6,56.08,21.6S1019.56,802.91,1013.05,808.93Z"/><path class="cls-30" d="M985.6,812.92c-.67,3.68-2.86,6.36-4.91,6s-3.16-3.65-2.49-7.33,2.86-6.37,4.91-6S986.27,809.24,985.6,812.92Z"/><path class="cls-30" d="M951.42,809.61c-.66,3.68-2.86,6.36-4.91,6s-3.16-3.65-2.49-7.33,2.87-6.37,4.91-6S952.09,805.93,951.42,809.61Z"/><path class="cls-31" d="M956.53,816.49s-10.29,12.69-16.45,9.32-4.07,13.11,15.07,11.12C955.15,836.93,961.42,829.15,956.53,816.49Z"/><path class="cls-31" d="M997.8,827c.38,3-2.39,5.91-6.21,6.39s-7.21-1.6-7.6-4.65,2.39-5.91,6.2-6.39S997.41,824,997.8,827Z"/><path class="cls-31" d="M941.71,822.2c-1.27,2.68-5,3.57-8.32,2.08q.43-5.47,1.25-11a8.41,8.41,0,0,1,3.26.83C941.36,815.84,943.06,819.45,941.71,822.2Z"/><path class="cls-16" d="M981,787.71s8,.12,12.49,5.25"/><path class="cls-16" d="M952.1,786.82s-8-1.27-9,3"/><path class="cls-16" d="M1032,760.83s-30.32-26.81-62.76-21-31.21,25.95-17,36.36,66.84,16.08,66.84,16.08l3.61,50.58-9,23.23-.57,7.84s28.24-8.39,37.46-54.78S1032,760.83,1032,760.83Z"/><path class="cls-8" d="M1020.92,834.87s13.06-10.63,21.61-1.1-12.43,29.65-23,26.82S1020.92,834.87,1020.92,834.87Z"/><path class="cls-16" d="M1032,760.83s-3.43-15.6-16.88-21.81c0,0,6.43,4.08,6.78,17.63l17,14.62s9.93-7,18.6-6.5C1057.48,764.77,1044.48,754.72,1032,760.83Z"/><path class="cls-16" d="M957.21,764.23s2.75,21.53,21.17,31.35c0,0-21-9.21-26.28-27.4S957.21,764.23,957.21,764.23Z"/><path class="cls-16" d="M964.51,740.88s-13.83-5.9-10.54-14c0,0,.68,9.75,16.34,9.75s35.52,8.31,35.52,8.31L973,749.6Z"/><path class="cls-16" d="M944.37,767a27.31,27.31,0,0,0-16.91,26s4.61-14.67,14.71-15.71Z"/><path class="cls-16" d="M1038.88,767s15.89,1.4,21.85,22.91c0,0-10.65-15.84-21.85-12.61Z"/><path class="cls-16" d="M947.6,858.22s22.49,3.8,21.76,9.35S949.87,869.06,947.6,858.22Z"/><path class="cls-32" d="M927.46,858.22l-10.29-5.69s3.16-.52,1.8-4.69-5.87-2.51-5.87-2.51,2.71-6.06-3.25-8.23-7,3.74-7,3.74-6.87-4.72-10.38,3.3c-2.26,5.14,5.21,9.77,5.21,9.77s-5.21,1.46.3,7c4.51,4.49,8.84,0,8.84,0s1.63,5.66,6.78,3.27,1.89-7.8,1.89-7.8Z"/><path class="cls-29" d="M969.36,745.89s-4.34,9.92,4.33,14.94,28.38,8.28,23.94,10.44-19.25,0-19.25,0,2.76,4.87,15.1,7.13,14.88,5.15,9.1,6.6-32.27-5-32.27-5-.83,2-9.79-4.59-2.8-2.5-8.7-4.09-7-13.47-4.1-16.12,4.38,1.32,4.38,1.32.95-11.05,6.39-10.58,6,3.71,6,3.71S965.76,742.17,969.36,745.89Z"/><path class="cls-7" d="M954,882.42l4.52,58.48s14.79,10.37,52.89-6.7c0,0-10.75-45.76,10.54-73.29,0,0-5.82.35-6.77-6.32C1015.15,854.59,999.06,892.31,954,882.42Z"/><path class="cls-28" d="M973.88,949.4c25.63-25.28,62.47-35.65,83.6-35.65s18.58,36.78,18.58,36.78-15.87-8.19-50,0S973.88,949.4,973.88,949.4Z"/><path class="cls-28" d="M1103.43,984.57c-14.28-21.41-66.9,17.48-67.62,51.43s0,68.62,0,68.62-107.6-23.11-126-21.67-19.85,51.27,0,60.67,167.92,35.4,186.7,20.23S1119.19,1008.2,1103.43,984.57Z"/><path class="cls-28" d="M891,1090.18c5.82-4.66,15.89-2.53,20.95,8.66s4,36.12-10.47,33.59S883.76,1096,891,1090.18Z"/><path class="cls-7" d="M883.61,1090.29s-8.7-5.5-12.85-6.8c-5-1.55-17.16-.4-17.16-.4s-1.13.48,0,2.16c1.76,2.62,8.26.14,10.3,4.2S883.61,1090.29,883.61,1090.29Z"/><path class="cls-8" d="M898.57,1119.31s2.27-22-3.9-26.78c0,0-18-3.44-23.83-5.35-6.37-2.09-28.43-.54-32.22,2.91-10,9.11-9.45,9.57-7.09,11.69s7.82-5.53,11-6.14c1.58-.31,9.08,1.76,9.08,1.76-3.27,0-8.44,1.66-10.43,5.14-2.48,4.33-5.09,8-3.69,10.16,2.54,4,8.14-6.24,11-5.54,1,.26,7.5,1,7.5,1-1.84,1.1-5.13,1.24-6.64,2.61-1.93,1.74-7.23,9.72-5.28,11.14,3.05,2.2,7.59-5.19,10.53-5.28a63.28,63.28,0,0,1,6.27.91s-4.06,2-5.15,3.38c-1.26,1.57-4.5,8.69-2.88,9.1,4.23,1.06,5.86-6,11.88-6.79,5-.68,16.64,1.46,21.61-1.63S898.57,1119.31,898.57,1119.31Z"/><path class="cls-21" d="M785.06,1108.2s-2.94-42.22,52.39-49.81,64.45-10.15,46.35-40.83,4.15-59,32.32-81.18-23.27-53.06-32.51-72.25-4.77-35.79,24.9-51.88-1.67-47-15.19-73.23,39.56-37.09,34.14-54.43S899,662.92,899,662.92s31.08,14.09,15.69,23.84-70.64,14.12-75,42.81,32.22,53.95,13.4,60.29-97.16,29.63-90,74.86,39.66,46.48,24,59.4S688,941.62,694.51,966.3s-34.19,34.37-34.19,34.37Z"/><path class="cls-33" d="M892.09,695s-53.66,22.09-27.56,54.59,32.92,53.2-34.45,80.73,11.84,63.43,23.73,103.49-69.59,45.08-59.73,83.74,3.12,68.82-49.31,55.91-83.12-50.24-43.4-82.5,85.24-10.47,79.82-37.07-26.44-28.68-41.39-63.4,28.37-39.83,47.88-54.07,4.13-17.46,6.4-43.47,66.8,2.19,62.71-15.71S764.63,710.84,892.09,695Z"/><polygon class="cls-12" points="907.01 1078.14 905.11 1065.33 908.87 1075.96 917.49 1065.33 914.16 1078.14 924.16 1078.14 914.63 1081.51 917.97 1088.65 908.87 1085.32 905.11 1092.14 905.11 1083.41 897.01 1078.73 907.01 1078.14"/><polygon class="cls-12" points="976.33 1134.05 982.91 1132.16 977.6 1134.87 983.76 1138.65 976.82 1137.79 977.51 1143.03 975.09 1138.27 971.57 1140.51 972.69 1135.51 968.86 1134.02 973.43 1133.41 975.33 1128.85 976.33 1134.05"/><polygon class="cls-12" points="834.24 945.37 840.82 943.49 835.51 946.19 841.68 949.97 834.74 949.11 835.43 954.35 833 949.59 829.49 951.83 830.61 946.83 826.77 945.34 831.35 944.73 833.24 940.17 834.24 945.37"/><polygon class="cls-12" points="962.88 1026.47 969.46 1024.59 964.15 1027.29 970.31 1031.08 963.37 1030.22 964.06 1035.46 961.64 1030.7 958.12 1032.94 959.24 1027.94 955.41 1026.44 959.98 1025.84 961.88 1021.27 962.88 1026.47"/><polygon class="cls-12" points="677.53 891.67 684.11 889.79 678.8 892.49 684.96 896.28 678.02 895.42 678.71 900.66 676.29 895.9 672.77 898.14 673.89 893.14 670.06 891.64 674.63 891.04 676.53 886.47 677.53 891.67"/><polygon class="cls-12" points="545.02 1125.37 551.6 1123.49 546.29 1126.19 552.46 1129.98 545.52 1129.12 546.21 1134.36 543.78 1129.6 540.27 1131.84 541.39 1126.84 537.55 1125.34 542.13 1124.74 544.02 1120.17 545.02 1125.37"/><polygon class="cls-12" points="652.92 939.65 651.01 926.84 654.77 937.47 663.39 926.84 660.06 939.65 670.06 939.65 660.54 943.02 663.87 950.17 654.77 946.83 651.01 953.65 651.01 944.93 642.92 940.25 652.92 939.65"/><polygon class="cls-12" points="575.35 1078.14 573.45 1065.33 577.2 1075.96 585.83 1065.33 582.5 1078.14 592.5 1078.14 582.97 1081.51 586.3 1088.65 577.2 1085.32 573.45 1092.14 573.45 1083.41 565.35 1078.73 575.35 1078.14"/><path class="cls-12" d="M865,1078.73s13-31.48,59.16-43.27v5.89S886.19,1047.35,865,1078.73Z"/><path class="cls-12" d="M711.59,971.42s-5.89-63.62-18.53-71L688,905.05S704,919.18,711.59,971.42Z"/><path class="cls-12" d="M628.18,1107.79s-27-5.77-71.63,6.87v6.74S581,1109.34,628.18,1107.79Z"/><path class="cls-25" d="M670.07,1147.47H935.91a0,0,0,0,1,0,0v13a1.48,1.48,0,0,1-1.48,1.48H671.55a1.48,1.48,0,0,1-1.48-1.48v-13A0,0,0,0,1,670.07,1147.47Z"/><path class="cls-25" d="M668.1,1151.26,638,1013.49a7.14,7.14,0,0,1,7-8.67H806.06a12.4,12.4,0,0,1,12.14,9.92l27.67,136.52-2,2.71Z"/><path class="cls-26" d="M664.89,1148.6l-29-132.41a7.15,7.15,0,0,1,7-8.67H804a12.38,12.38,0,0,1,12.14,9.93L843.83,1154H671.56A6.83,6.83,0,0,1,664.89,1148.6Z"/><path class="cls-21" d="M1385.28,1162l-13.06,537.68h-25.57L1325.55,1223h-149l-29.5,476.64h-41.46L1079.88,1223H371.4L351,1699.63H331.5L324.25,1162s561.6-3.55,807.23-2.94C1225.47,1159.23,1315.62,1160.1,1385.28,1162Z"/><path class="cls-21" d="M1385.28,1162l-13.06,537.68h-25.57L1325.55,1223h-149l-29.5,476.64h-19.66L1122,1162l9.53-2.94C1225.47,1159.23,1315.62,1160.1,1385.28,1162Z"/></svg>