<svg xmlns="http://www.w3.org/2000/svg" xmlns:xlink="http://www.w3.org/1999/xlink" viewBox="0 0 1833.76 1402.86"><defs><style>.cls-1,.cls-14,.cls-40,.cls-45{fill:#19191b;}.cls-2{fill:none;}.cls-3{isolation:isolate;}.cls-4{fill:#25283d;}.cls-5{clip-path:url(#clip-path);}.cls-6{clip-path:url(#clip-path-2);}.cls-7{clip-path:url(#clip-path-3);}.cls-8{fill:#ebdb15;}.cls-9{fill:#6ff;}.cls-10{fill:#5b84e6;}.cls-11{fill:#3c6;}.cls-12{fill:#702fb5;}.cls-13,.cls-67{fill:#f7f8f9;}.cls-14{mix-blend-mode:overlay;}.cls-15{clip-path:url(#clip-path-4);}.cls-16{fill:#303649;}.cls-17{opacity:0.9;}.cls-18,.cls-19,.cls-20,.cls-21,.cls-22,.cls-23,.cls-24,.cls-25,.cls-26,.cls-27,.cls-28,.cls-29,.cls-30,.cls-31,.cls-40,.cls-67{opacity:0.7;}.cls-18{fill:url(#Degradado_sin_nombre_571);}.cls-19{fill:url(#Degradado_sin_nombre_571-2);}.cls-20{fill:url(#Degradado_sin_nombre_571-3);}.cls-21{fill:url(#Degradado_sin_nombre_571-4);}.cls-22{fill:url(#Degradado_sin_nombre_571-5);}.cls-23{fill:url(#Degradado_sin_nombre_571-6);}.cls-24{fill:url(#Degradado_sin_nombre_571-7);}.cls-25{fill:url(#Degradado_sin_nombre_571-8);}.cls-26{fill:url(#Degradado_sin_nombre_571-9);}.cls-27{fill:url(#Degradado_sin_nombre_571-10);}.cls-28{fill:url(#Degradado_sin_nombre_571-11);}.cls-29{fill:url(#Degradado_sin_nombre_571-12);}.cls-30{fill:url(#Degradado_sin_nombre_571-13);}.cls-31{fill:url(#Degradado_sin_nombre_571-14);}.cls-32{clip-path:url(#clip-path-5);}.cls-33{fill:#9f9f9f;}.cls-34{clip-path:url(#clip-path-6);}.cls-35{clip-path:url(#clip-path-7);}.cls-36{clip-path:url(#clip-path-8);}.cls-37{clip-path:url(#clip-path-9);}.cls-38{clip-path:url(#clip-path-10);}.cls-39{fill:url(#Degradado_sin_nombre_571-15);}.cls-41{clip-path:url(#clip-path-11);}.cls-42{clip-path:url(#clip-path-12);}.cls-43{fill:#000205;opacity:0.41;}.cls-44{clip-path:url(#clip-path-13);}.cls-45{opacity:0.47;}.cls-46{clip-path:url(#clip-path-14);}.cls-47{clip-path:url(#clip-path-15);}.cls-48{clip-path:url(#clip-path-16);}.cls-49{clip-path:url(#clip-path-17);}.cls-50{clip-path:url(#clip-path-18);}.cls-51{clip-path:url(#clip-path-19);}.cls-52{clip-path:url(#clip-path-20);}.cls-53{clip-path:url(#clip-path-21);}.cls-54{clip-path:url(#clip-path-22);}.cls-55{clip-path:url(#clip-path-23);}.cls-56{clip-path:url(#clip-path-24);}.cls-57{clip-path:url(#clip-path-25);}.cls-58{clip-path:url(#clip-path-26);}.cls-59{clip-path:url(#clip-path-27);}.cls-60{clip-path:url(#clip-path-28);}.cls-61{clip-path:url(#clip-path-29);}.cls-62{clip-path:url(#clip-path-30);}.cls-63{fill:#127171;}.cls-64{fill:#1bafaf;}.cls-65{clip-path:url(#clip-path-31);}.cls-66{clip-path:url(#clip-path-32);}.cls-67{mix-blend-mode:lighten;}</style><clipPath id="clip-path"><path class="cls-1" d="M812.58,8.39,825.25,1C828-.58,831.83-.35,836,2.08L823.37,9.44C819.16,7,815.34,6.78,812.58,8.39Z"/></clipPath><clipPath id="clip-path-2"><path class="cls-1" d="M1394.33,759.67,1381.66,767c2.73-1.58,4.41-4.94,4.43-9.73l12.67-7.36C1398.75,754.72,1397.06,758.09,1394.33,759.67Z"/></clipPath><clipPath id="clip-path-3"><path class="cls-1" d="M1372.11,326.26l12.67-7.36c8.38,4.83,15.16,16.57,15.13,26.22l-12.67,7.37C1387.26,342.83,1380.49,331.1,1372.11,326.26Z"/></clipPath><clipPath id="clip-path-4"><path class="cls-1" d="M1002.84,854.33l-.19,68.32c-.11,38.27-25.26,76.48-75.51,105.69-101.12,58.76-265.68,58.76-367.47,0-51.23-29.58-76.81-68.41-76.7-107.17l.19-68.33c-.11,38.77,25.47,77.59,76.7,107.17,101.79,58.77,266.35,58.77,367.48,0C977.58,930.81,1002.73,892.6,1002.84,854.33Z"/></clipPath><linearGradient id="Degradado_sin_nombre_571" x1="904.14" y1="838.48" x2="948.19" y2="838.48" gradientUnits="userSpaceOnUse"><stop offset="0" stop-color="#fef6e1"/><stop offset="0.61" stop-color="#fbef4f"/><stop offset="1" stop-color="#ff7c3b"/></linearGradient><linearGradient id="Degradado_sin_nombre_571-2" x1="526.61" y1="693.2" x2="570.66" y2="693.2" xlink:href="#Degradado_sin_nombre_571"/><linearGradient id="Degradado_sin_nombre_571-3" x1="500.33" y1="801.77" x2="544.38" y2="801.77" xlink:href="#Degradado_sin_nombre_571"/><linearGradient id="Degradado_sin_nombre_571-4" x1="536.77" y1="762.15" x2="785.35" y2="762.15" xlink:href="#Degradado_sin_nombre_571"/><linearGradient id="Degradado_sin_nombre_571-5" x1="663.53" y1="741.26" x2="905.99" y2="741.26" xlink:href="#Degradado_sin_nombre_571"/><linearGradient id="Degradado_sin_nombre_571-6" x1="553.11" y1="817.72" x2="653.45" y2="817.72" gradientTransform="translate(754.91 -187.08) rotate(45)" xlink:href="#Degradado_sin_nombre_571"/><linearGradient id="Degradado_sin_nombre_571-7" x1="708.55" y1="918.29" x2="717.48" y2="789.12" xlink:href="#Degradado_sin_nombre_571"/><linearGradient id="Degradado_sin_nombre_571-8" x1="823.38" y1="907" x2="906.59" y2="907" xlink:href="#Degradado_sin_nombre_571"/><linearGradient id="Degradado_sin_nombre_571-9" x1="800.29" y1="693.2" x2="844.34" y2="693.2" xlink:href="#Degradado_sin_nombre_571"/><linearGradient id="Degradado_sin_nombre_571-10" x1="469.74" y1="783.41" x2="530.92" y2="783.41" xlink:href="#Degradado_sin_nombre_571"/><linearGradient id="Degradado_sin_nombre_571-11" x1="780.17" y1="835.95" x2="824.23" y2="835.95" xlink:href="#Degradado_sin_nombre_571"/><linearGradient id="Degradado_sin_nombre_571-12" x1="792.15" y1="762.15" x2="875.36" y2="762.15" xlink:href="#Degradado_sin_nombre_571"/><linearGradient id="Degradado_sin_nombre_571-13" x1="738.91" y1="926.16" x2="740.81" y2="680.46" xlink:href="#Degradado_sin_nombre_571"/><linearGradient id="Degradado_sin_nombre_571-14" x1="597.25" y1="914.13" x2="848.36" y2="914.13" gradientTransform="matrix(1, 0.04, -0.04, 1, 29.5, -34.52)" xlink:href="#Degradado_sin_nombre_571"/><clipPath id="clip-path-5"><path class="cls-2" d="M636.73,567.05l8.86-5.15-.38.25-8.86,5.15Z"/></clipPath><clipPath id="clip-path-6"><path class="cls-2" d="M637.11,566.82l8.86-5.15-.38.23-8.86,5.15Z"/></clipPath><clipPath id="clip-path-7"><path class="cls-2" d="M637.48,566.59l8.86-5.15-.37.23-8.86,5.15Z"/></clipPath><clipPath id="clip-path-8"><path class="cls-2" d="M637.65,566.49l8.86-5.15-.17.1-8.86,5.15Z"/></clipPath><clipPath id="clip-path-9"><path class="cls-2" d="M613.25,600.14c-6.61-124.45,44.19-98.51,46.87-97.14l-2.8,64-.5-.31-.5-.3c-7.22-2.55-7.3-2.57-7.39-2.58l-.42,0c-.58-.05-1.09-.07-1.59-.07h-.39l-.39,0-.39,0-.41,0-.41,0-.39.06-.41.07-.41.07-.4.09-.39.1-.4.1-.4.12-.4.13-.39.13-.39.15c-.24.08-.31.12-.39.15l-.39.16-.39.17-.39.18-.38.19-.39.19-.38.21a4.2,4.2,0,0,0-.37.21l-.39.22-.37.23-.38.23-.38.25-.37.25a3.56,3.56,0,0,0-.36.26l-.37.26-.37.28-.36.27-.36.29c-.21.16-.29.23-.37.3l-.35.29-.36.31-.36.31-.35.32-.35.33-.35.33-.35.34-.35.34-.34.35-.34.36c-.15.15-.25.25-.34.36l-.34.36c-1.24,1.36-2.4,2.76-3.53,4.25l-.3.4-.33.44c-.12.18-.21.3-.3.42l-.29.4-.29.41c-.16.22-.22.32-.29.42s-.24.34-.3.44-.24.34-.3.44-.23.33-.29.43l-.3.45-.3.45-.29.45-.28.45c-.18.28-.24.37-.29.46l-.29.47-.29.46-.27.45-.29.48-.27.46-.27.46-.13.22-.15.26-.27.47-.27.49-.27.47-.26.48-.25.45-.14.25-.12.23c0,.08-.09.16-.13.24s-.09.17-.13.25l-.13.23-.13.25-.12.23a2,2,0,0,0-.13.25c0,.08-.08.16-.13.24l-.13.25c-.15.3-.2.39-.25.48-.15.3-.2.39-.24.48l-.13.25-.23.47a2,2,0,0,0-.13.25l-.24.48-.12.25-.25.5-.23.48-.22.45-.11.23-.12.25c-.15.31-.19.41-.24.5l-.26.56c-.1.22-.16.34-.21.46s-.15.33-.2.42c-.12.27-.16.35-.19.43l-.11.23-.32.71C613.46,599.68,613.35,599.91,613.25,600.14Z"/></clipPath><clipPath id="clip-path-10"><path class="cls-2" d="M862.35,597.63c6.61-124.46-44.2-98.51-46.87-97.15l2.8,64.06.5-.31.5-.3c7.21-2.56,7.3-2.57,7.39-2.58l.42,0a15,15,0,0,1,1.59-.07h.78l.38,0,.41,0,.42,0,.39,0,.4.07.41.08.4.09.4.09.4.11.4.12.39.12.4.14.39.14.39.15.39.17.39.17.39.18.38.18.39.2.38.2.37.21.38.22.38.23.38.24.37.24.37.25.37.26.37.27.37.27.36.28.36.29.36.29.36.3.36.31.36.31a4.1,4.1,0,0,1,.34.32l.36.32.35.34.35.33.35.35.34.35.34.35.34.36.34.36c1.24,1.36,2.4,2.77,3.52,4.25l.31.41.32.44.31.41.29.41.29.41.29.42.3.43.3.44.29.43.3.45.3.46.29.45c.17.26.22.36.28.45.18.27.23.37.29.46l.29.46.28.46c.17.28.22.37.28.45.18.3.23.4.29.49l.27.46c.17.28.22.37.26.45l.13.22.16.27c.16.29.21.38.27.47l.27.48.26.47c.17.29.22.39.27.48.16.29.2.38.25.46a2,2,0,0,1,.13.25,1.71,1.71,0,0,1,.13.23l.13.24.13.24.13.24c0,.08.08.16.13.24l.12.24.13.24.12.24.14.25.24.49.25.47c0,.09.08.17.13.26l.23.46c0,.09.09.17.13.25.14.29.19.39.24.48l.12.25.25.51c.14.28.18.38.23.47l.22.46a2.4,2.4,0,0,0,.11.23l.12.25c.15.31.19.4.23.5.15.32.21.43.26.55s.17.35.22.47.15.32.2.42l.19.42a2.56,2.56,0,0,0,.11.24l.32.71C862.14,597.16,862.25,597.39,862.35,597.63Z"/></clipPath><linearGradient id="Degradado_sin_nombre_571-15" x1="740.02" y1="892.95" x2="740.02" y2="687.63" xlink:href="#Degradado_sin_nombre_571"/><clipPath id="clip-path-11"><path class="cls-2" d="M786.32,544.59c2.68,1.72,53.46,34.43,54.55,153.72-8.47-3.2-8.57-3.55-8.67-3.9l-.24-.81c-.11-.39-.15-.51-.18-.62s-.07-.25-.11-.37c-.13-.44-.17-.59-.22-.74l-.21-.71-.15-.49c-.11-.36-.15-.5-.19-.64s-.07-.23-.11-.35c-.14-.47-.18-.6-.22-.72s-.09-.3-.13-.45l-.22-.72-.22-.72c-.16-.49-.2-.64-.25-.79-.14-.46-.19-.62-.24-.77-.13-.44-.18-.59-.23-.74-.15-.46-.19-.62-.24-.78-.15-.45-.2-.62-.25-.79-.14-.41-.19-.58-.25-.76l-.23-.72-.25-.78-.25-.77-.25-.77-.26-.78c-.16-.47-.21-.64-.27-.81l-.26-.78-.26-.79-.26-.76c-.15-.45-.21-.62-.27-.79l-.27-.78-.27-.8-.28-.8-.27-.77c-.15-.42-.22-.61-.28-.8l-.28-.79c-.14-.4-.22-.6-.29-.81s-.2-.57-.28-.78-.21-.59-.3-.81l-.28-.78c-.12-.33-.21-.56-.29-.79s-.21-.55-.29-.79-.21-.54-.3-.78l-.29-.79c-.12-.3-.21-.54-.3-.79s-.2-.53-.3-.78c-2.71-7-5.65-13.93-8.81-20.31l-.35-.7-.35-.69c-.13-.27-.24-.48-.35-.69l-.36-.71-.36-.68-.36-.67-.36-.69-.37-.68-.37-.66-.36-.66-.38-.66c-.15-.28-.26-.47-.37-.66s-.26-.45-.37-.64l-.38-.64-.38-.64c-.15-.26-.27-.44-.38-.63l-.38-.61-.38-.62-.39-.61-.38-.61-.39-.59-.39-.59-.4-.59c-.15-.23-.27-.4-.39-.57l-.4-.57-.39-.56-.4-.55-.4-.54a57.53,57.53,0,0,0-5.74-6.7L796,617l-.41-.39-.4-.37-.41-.37-.42-.36-.42-.36c-4.24-3-4.35-3-4.47-3.09l-.65-.35Z"/></clipPath><clipPath id="clip-path-12"><path class="cls-2" d="M711.46,544.59C708.79,546.31,658,579,656.91,698.31c8.47-3.2,8.57-3.55,8.67-3.9l.24-.81c.11-.39.15-.51.18-.62s.07-.25.11-.37c.13-.44.17-.59.22-.74l.21-.71.15-.49c.11-.36.15-.5.19-.64s.07-.23.11-.35c.14-.47.18-.6.22-.72s.09-.3.13-.45l.22-.72.22-.72c.16-.49.2-.64.25-.79.14-.46.19-.62.24-.77.13-.44.18-.59.23-.74l.25-.78c.14-.45.19-.62.25-.79.13-.41.18-.58.24-.76l.23-.72.25-.78.25-.77c.15-.46.2-.62.26-.77l.25-.78.27-.81L671,677c.14-.42.2-.61.27-.79.13-.41.19-.58.25-.76.15-.45.21-.62.27-.79l.27-.78.27-.8c.15-.42.21-.61.28-.8.14-.39.21-.58.27-.77.15-.42.22-.61.28-.8l.28-.79c.14-.4.22-.6.29-.81s.21-.57.28-.78.22-.59.3-.81l.28-.78c.12-.33.21-.56.29-.79l.3-.79.29-.78.29-.79c.12-.3.21-.54.3-.79s.21-.53.3-.78c2.71-7,5.65-13.93,8.81-20.31l.35-.7.35-.69c.13-.27.24-.48.35-.69s.25-.5.36-.71l.36-.68.36-.67.36-.69.37-.68.37-.66.36-.66.38-.66c.15-.28.26-.47.37-.66s.26-.45.37-.64l.38-.64.38-.64L691,631l.38-.61.38-.62.39-.61.39-.61L693,628l.39-.59.4-.59.39-.57.4-.57.39-.56.4-.55.4-.54a58.51,58.51,0,0,1,5.74-6.7l.37-.36c.18-.18.3-.28.42-.39l.39-.37.41-.37.42-.36.42-.36c4.24-3,4.35-3,4.47-3.09l.65-.35Z"/></clipPath><clipPath id="clip-path-13"><path class="cls-1" d="M286.12,1058.06l-.07,23.47a4.59,4.59,0,0,1-.89,2.52c-4.19,6.33-8.33,12.64-12.52,19a4.49,4.49,0,0,0-.74,2.48L272,1082a4.41,4.41,0,0,1,.74-2.48c4.18-6.33,8.33-12.64,12.52-19A4.68,4.68,0,0,0,286.12,1058.06Z"/></clipPath><clipPath id="clip-path-14"><path class="cls-1" d="M47.72,1081.85l-.07,23.48a6.89,6.89,0,0,0-1.42-4c-5.27-7.52-10.14-15.16-15.15-22.73l.07-23.47c5,7.57,9.88,15.21,15.15,22.73A6.88,6.88,0,0,1,47.72,1081.85Z"/></clipPath><clipPath id="clip-path-15"><path class="cls-1" d="M321,1105.46l-.07,23.47a3.62,3.62,0,0,1,0,.46c-.11,1.72-.16,3.45-.17,5.17l.07-23.47c0-1.72.06-3.45.17-5.17C321,1105.76,321,1105.61,321,1105.46Z"/></clipPath><clipPath id="clip-path-16"><path class="cls-1" d="M.68,1115.08l-.07,23.47A78,78,0,0,0,0,1128.41a7.09,7.09,0,0,1,0-.79l.07-23.47a6.91,6.91,0,0,0,0,.78A80,80,0,0,1,.68,1115.08Z"/></clipPath><clipPath id="clip-path-17"><path class="cls-1" d="M321.43,1121.73l-.07,23.47c0,3.15-2.67,5.08-7.59,6.31q-15.13,3.79-30.32,7.5c-6.26,1.51-9.76,4.79-9.77,8.41l.06-23.47c0-3.62,3.52-6.9,9.78-8.42,10.13-2.44,20.22-5,30.31-7.49C318.75,1126.81,321.42,1124.88,321.43,1121.73Z"/></clipPath><clipPath id="clip-path-18"><path class="cls-1" d="M49.44,1143.57,49.38,1167c0-2.66-2-5.38-5.21-7.26a17.7,17.7,0,0,0-4.76-1.86q-16-3.78-31.79-7.64a16.77,16.77,0,0,1-4.26-1.59,5,5,0,0,1-2.9-4.48l.07-23.47a5,5,0,0,0,2.9,4.47,16.31,16.31,0,0,0,4.25,1.6q15.84,3.86,31.8,7.64a17.37,17.37,0,0,1,4.76,1.86C47.49,1138.18,49.45,1140.91,49.44,1143.57Z"/></clipPath><clipPath id="clip-path-19"><path class="cls-1" d="M351.11,1269.2l0,14.35a2.79,2.79,0,0,1-.54,1.54l-7.66,11.6a2.7,2.7,0,0,0-.45,1.52l0-14.35a2.78,2.78,0,0,1,.45-1.52l7.66-11.6A2.82,2.82,0,0,0,351.11,1269.2Z"/></clipPath><clipPath id="clip-path-20"><path class="cls-1" d="M205.34,1283.75l0,14.35a4.24,4.24,0,0,0-.87-2.46c-3.22-4.59-6.21-9.27-9.27-13.9l0-14.35c3.07,4.63,6.05,9.3,9.27,13.9A4.22,4.22,0,0,1,205.34,1283.75Z"/></clipPath><clipPath id="clip-path-21"><path class="cls-1" d="M372.44,1298.18l0,14.36a2.44,2.44,0,0,1,0,.27c-.07,1.06-.1,2.11-.1,3.17l0-14.35c0-1.06,0-2.11.1-3.17A2.62,2.62,0,0,0,372.44,1298.18Z"/></clipPath><clipPath id="clip-path-22"><path class="cls-1" d="M176.57,1304.06l0,14.36a47.69,47.69,0,0,0-.35-6.21c0-.16,0-.32,0-.47l0-14.36a3.87,3.87,0,0,0,0,.48A49.45,49.45,0,0,1,176.57,1304.06Z"/></clipPath><clipPath id="clip-path-23"><path class="cls-1" d="M372.71,1308.13l0,14.35c0,1.93-1.64,3.11-4.65,3.86-6.17,1.55-12.34,3.09-18.54,4.58-3.83.93-6,2.94-6,5.15l0-14.35c0-2.22,2.15-4.22,6-5.15,6.2-1.49,12.37-3,18.54-4.58C371.07,1311.24,372.7,1310.06,372.71,1308.13Z"/></clipPath><clipPath id="clip-path-24"><path class="cls-1" d="M206.39,1321.49l0,14.35c0-1.63-1.19-3.29-3.18-4.44a10.71,10.71,0,0,0-2.91-1.14q-9.76-2.31-19.45-4.67a9.83,9.83,0,0,1-2.6-1,3,3,0,0,1-1.77-2.73l0-14.36a3,3,0,0,0,1.77,2.74,10.14,10.14,0,0,0,2.61,1q9.67,2.37,19.44,4.68a10.71,10.71,0,0,1,2.91,1.14C205.2,1318.19,206.4,1319.86,206.39,1321.49Z"/></clipPath><clipPath id="clip-path-25"><path class="cls-1" d="M545.35,1153.26l0,14.77a3,3,0,0,1-.55,1.58c-2.64,4-5.25,8-7.88,11.94a2.77,2.77,0,0,0-.47,1.56l0-14.77a2.77,2.77,0,0,1,.47-1.56c2.63-4,5.24-8,7.88-11.93A2.88,2.88,0,0,0,545.35,1153.26Z"/></clipPath><clipPath id="clip-path-26"><path class="cls-1" d="M395.38,1168.23l0,14.77a4.38,4.38,0,0,0-.89-2.53c-3.32-4.73-6.39-9.54-9.54-14.3l0-14.76c3.15,4.76,6.22,9.57,9.54,14.29A4.4,4.4,0,0,1,395.38,1168.23Z"/></clipPath><clipPath id="clip-path-27"><path class="cls-1" d="M567.3,1183.08l0,14.77c0,.09,0,.19,0,.29-.07,1.08-.11,2.17-.11,3.25l0-14.77c0-1.08,0-2.17.11-3.25C567.29,1183.27,567.3,1183.18,567.3,1183.08Z"/></clipPath><clipPath id="clip-path-28"><path class="cls-1" d="M365.79,1189.13l-.05,14.77a50.22,50.22,0,0,0-.35-6.38,4.29,4.29,0,0,1,0-.49l0-14.77a4.15,4.15,0,0,0,0,.49A52.37,52.37,0,0,1,365.79,1189.13Z"/></clipPath><clipPath id="clip-path-29"><path class="cls-1" d="M567.57,1193.32l0,14.76c0,2-1.69,3.2-4.78,4-6.35,1.59-12.7,3.18-19.07,4.72-3.94,1-6.14,3-6.15,5.29l0-14.76c0-2.28,2.21-4.34,6.15-5.3,6.38-1.54,12.72-3.13,19.07-4.71C565.89,1196.51,567.56,1195.3,567.57,1193.32Z"/></clipPath><clipPath id="clip-path-30"><path class="cls-1" d="M396.46,1207.06l0,14.76c0-1.67-1.23-3.38-3.27-4.57a11.1,11.1,0,0,0-3-1.16q-10-2.38-20-4.81a10.69,10.69,0,0,1-2.68-1,3.16,3.16,0,0,1-1.82-2.82l0-14.77a3.14,3.14,0,0,0,1.83,2.82,10.6,10.6,0,0,0,2.67,1q10,2.43,20,4.81a11.11,11.11,0,0,1,3,1.17C395.24,1203.67,396.47,1205.38,396.46,1207.06Z"/></clipPath><clipPath id="clip-path-31"><path class="cls-1" d="M786.32,544.59l8.86-5.15c2.68,1.72,53.46,34.43,54.55,153.72l-8.86,5.15C839.78,579,789,546.31,786.32,544.59Z"/></clipPath><clipPath id="clip-path-32"><path class="cls-1" d="M711.46,544.59l-8.86-5.15c-2.67,1.72-53.46,34.43-54.55,153.72l8.86,5.15C658,579,708.79,546.31,711.46,544.59Z"/></clipPath></defs><title>Ativo 1</title><g class="cls-3"><g id="Camada_2" data-name="Camada 2"><g id="Camada_1-2" data-name="Camada 1"><polygon class="cls-4" points="1158.69 641.35 1077.6 688.48 952.61 616.31 1033.7 569.19 1158.69 641.35"/><polygon class="cls-1" points="1158.69 641.35 1158.65 656.01 1077.56 703.13 1077.6 688.48 1158.69 641.35"/><polygon class="cls-1" points="1077.6 688.48 1077.56 703.13 952.57 630.97 952.61 616.31 1077.6 688.48"/><path class="cls-1" d="M812.58,8.39,825.25,1C828-.58,831.83-.35,836,2.08L823.37,9.44C819.16,7,815.34,6.78,812.58,8.39Z"/><g class="cls-5"><path class="cls-1" d="M812.58,8.39,825.25,1a7.6,7.6,0,0,1,1.23-.56L813.81,7.82a6.87,6.87,0,0,0-1.23.57"/><path class="cls-1" d="M813.81,7.82,826.48.46a7.2,7.2,0,0,1,1.06-.3L814.87,7.53a7.18,7.18,0,0,0-1.06.29"/><path class="cls-1" d="M814.87,7.53,827.54.16a7.93,7.93,0,0,1,.87-.12L815.74,7.4a7.91,7.91,0,0,0-.87.13"/><path class="cls-1" d="M815.74,7.4,828.41,0a6.85,6.85,0,0,1,.79,0L816.53,7.36l-.79,0"/><path class="cls-1" d="M816.53,7.36,829.2,0l.71,0L817.24,7.39l-.71,0"/><path class="cls-1" d="M817.24,7.39,829.91,0l.68.07L817.91,7.46c-.22,0-.45-.06-.67-.07"/><path class="cls-1" d="M817.91,7.46,830.59.09l.66.11L818.58,7.57c-.23-.05-.45-.08-.67-.11"/><path class="cls-1" d="M818.58,7.57,831.25.2l.62.14L819.2,7.7l-.62-.13"/><path class="cls-1" d="M819.2,7.7,831.87.34l.63.17L819.83,7.88l-.63-.18"/><path class="cls-1" d="M819.83,7.88,832.5.51l.61.2L820.43,8.08c-.2-.08-.4-.14-.6-.2"/><path class="cls-1" d="M820.43,8.08,833.11.71l.61.23L821.05,8.31c-.21-.09-.41-.16-.62-.23"/><path class="cls-1" d="M821.05,8.31,833.72.94l.6.26L821.65,8.56l-.6-.25"/><path class="cls-1" d="M821.65,8.56,834.32,1.2l.62.29L822.27,8.85l-.62-.29"/><path class="cls-1" d="M822.27,8.85l12.67-7.36.62.32L822.89,9.18l-.62-.33"/><path class="cls-1" d="M822.89,9.18l12.67-7.37.48.27L823.37,9.44l-.48-.26"/></g><path class="cls-1" d="M1394.33,759.67,1381.66,767c2.73-1.58,4.41-4.94,4.43-9.73l12.67-7.36C1398.75,754.72,1397.06,758.09,1394.33,759.67Z"/><g class="cls-6"><path class="cls-1" d="M1386.09,757.3l12.67-7.36v0l-12.67,7.36v0"/><path class="cls-1" d="M1386.09,757.34l12.67-7.36c0,.25,0,.49,0,.73l-12.67,7.37c0-.24,0-.49,0-.74"/><path class="cls-1" d="M1386.07,758.08l12.67-7.37c0,.25,0,.48,0,.72L1386,758.79c0-.23,0-.47,0-.71"/><path class="cls-1" d="M1386,758.79l12.67-7.36c0,.25,0,.49-.08.73L1386,759.52c0-.23.06-.48.08-.73"/><path class="cls-1" d="M1386,759.52l12.67-7.36c0,.25-.06.49-.1.72l-12.68,7.37c0-.24.08-.48.11-.73"/><path class="cls-1" d="M1385.84,760.25l12.68-7.37q-.07.39-.15.75L1385.69,761c.06-.24.11-.49.15-.74"/><path class="cls-1" d="M1385.69,761l12.68-7.36c-.06.26-.13.52-.21.77l-12.67,7.37c.08-.26.14-.51.2-.78"/><path class="cls-1" d="M1385.49,761.77l12.67-7.37c-.08.28-.16.54-.26.8l-12.67,7.37c.09-.26.18-.53.26-.8"/><path class="cls-1" d="M1385.23,762.57l12.67-7.37c-.11.3-.23.59-.36.86l-12.68,7.37c.13-.28.26-.57.37-.86"/><path class="cls-1" d="M1384.86,763.43l12.68-7.37a9.36,9.36,0,0,1-.58,1l-12.67,7.37a9.48,9.48,0,0,0,.57-1"/><path class="cls-1" d="M1384.29,764.47,1397,757.1a7.68,7.68,0,0,1-2.63,2.57L1381.66,767a7.65,7.65,0,0,0,2.63-2.56"/></g><polygon class="cls-1" points="1387.24 352.49 1399.91 345.12 1398.76 749.94 1386.09 757.3 1387.24 352.49"/><polygon class="cls-1" points="823.37 9.45 836.04 2.08 1384.78 318.89 1372.11 326.26 823.37 9.45"/><path class="cls-1" d="M1372.11,326.26l12.67-7.36c8.38,4.83,15.16,16.57,15.13,26.22l-12.67,7.37C1387.26,342.83,1380.49,331.1,1372.11,326.26Z"/><g class="cls-7"><path class="cls-1" d="M1372.11,326.26l12.67-7.36.15.08-12.67,7.37-.15-.09"/><path class="cls-1" d="M1372.26,326.35l12.67-7.37.64.4-12.67,7.36c-.21-.14-.43-.27-.64-.39"/><path class="cls-1" d="M1372.9,326.74l12.67-7.36c.22.13.43.27.65.42l-12.68,7.37-.64-.43"/><path class="cls-1" d="M1373.54,327.17l12.68-7.37.66.47-12.68,7.36c-.21-.16-.43-.31-.66-.46"/><path class="cls-1" d="M1374.2,327.63l12.68-7.36.66.51-12.67,7.36-.67-.51"/><path class="cls-1" d="M1374.87,328.14l12.67-7.36.68.55-12.68,7.36-.67-.55"/><path class="cls-1" d="M1375.54,328.69l12.68-7.36.67.59-12.67,7.36-.68-.59"/><path class="cls-1" d="M1376.22,329.28l12.67-7.36c.23.2.45.41.67.62l-12.67,7.36-.67-.62"/><path class="cls-1" d="M1376.89,329.9l12.67-7.36c.21.2.43.41.64.63l-12.68,7.36-.63-.63"/><path class="cls-1" d="M1377.52,330.53l12.68-7.36c.21.21.41.43.62.65l-12.68,7.36c-.2-.22-.41-.43-.62-.65"/><path class="cls-1" d="M1378.14,331.18l12.68-7.36c.2.21.39.43.59.65l-12.67,7.37-.6-.66"/><path class="cls-1" d="M1378.74,331.84l12.67-7.37.58.69-12.67,7.36-.58-.68"/><path class="cls-1" d="M1379.32,332.52l12.67-7.36.59.72-12.68,7.36-.58-.72"/><path class="cls-1" d="M1379.9,333.24l12.68-7.36c.22.29.45.58.67.88l-12.67,7.36-.68-.88"/><path class="cls-1" d="M1380.58,334.12l12.67-7.36c.33.45.65.9,1,1.37l-12.67,7.36-1-1.37"/><path class="cls-1" d="M1381.54,335.49l12.67-7.36c.39.59.77,1.19,1.13,1.8l-12.67,7.36c-.36-.61-.74-1.21-1.13-1.8"/><path class="cls-1" d="M1382.67,337.29l12.67-7.36c.26.44.51.89.75,1.34l-12.67,7.36c-.24-.45-.49-.9-.75-1.34"/><path class="cls-1" d="M1383.42,338.63l12.67-7.36c.16.3.32.6.47.91l-12.67,7.36-.47-.91"/><path class="cls-1" d="M1383.89,339.54l12.67-7.36c.13.26.26.53.38.79l-12.67,7.37c-.12-.27-.25-.54-.38-.8"/><path class="cls-1" d="M1384.27,340.34l12.67-7.37c.12.25.23.49.34.74l-12.67,7.36c-.11-.24-.22-.49-.34-.73"/><path class="cls-1" d="M1384.61,341.07l12.67-7.36.31.72-12.67,7.37c-.1-.25-.21-.49-.31-.73"/><path class="cls-1" d="M1384.92,341.8l12.67-7.37.3.74-12.68,7.36c-.09-.24-.19-.49-.29-.73"/><path class="cls-1" d="M1385.21,342.53l12.68-7.36c.09.25.19.49.28.74l-12.68,7.37c-.09-.25-.18-.5-.28-.75"/><path class="cls-1" d="M1385.49,343.28l12.68-7.37.27.78-12.68,7.36c-.08-.26-.17-.52-.27-.77"/><path class="cls-1" d="M1385.76,344.05l12.68-7.36c.08.26.17.52.25.78L1386,344.84c-.08-.26-.16-.53-.25-.79"/><path class="cls-1" d="M1386,344.84l12.68-7.37c.08.27.16.54.23.81l-12.67,7.36c-.07-.27-.15-.53-.24-.8"/><path class="cls-1" d="M1386.25,345.64l12.67-7.36c.08.27.15.54.21.8l-12.67,7.37-.21-.81"/><path class="cls-1" d="M1386.46,346.45l12.67-7.37c.07.27.13.54.19.8l-12.67,7.37c-.06-.27-.12-.54-.19-.8"/><path class="cls-1" d="M1386.65,347.25l12.67-7.37c.06.27.11.53.16.8L1386.81,348c0-.26-.1-.53-.16-.79"/><path class="cls-1" d="M1386.81,348l12.67-7.36c0,.25.09.51.13.77l-12.67,7.36c0-.26-.08-.51-.13-.77"/><path class="cls-1" d="M1386.94,348.81l12.67-7.36c0,.25.08.51.11.76l-12.67,7.36c0-.25-.07-.5-.11-.76"/><path class="cls-1" d="M1387.05,349.57l12.67-7.36.09.75-12.68,7.36c0-.25-.05-.5-.08-.75"/><path class="cls-1" d="M1387.13,350.32l12.68-7.36.06.74-12.68,7.36c0-.24,0-.49-.06-.74"/><path class="cls-1" d="M1387.19,351.06l12.68-7.36,0,.73-12.67,7.37c0-.25,0-.49,0-.74"/><path class="cls-1" d="M1387.23,351.8l12.67-7.37c0,.24,0,.46,0,.69l-12.67,7.37c0-.23,0-.46,0-.69"/></g><path class="cls-1" d="M1372.11,326.26c8.38,4.84,15.15,16.57,15.13,26.23l-1.15,404.81c0,9.63-6.85,13.52-15.23,8.68L822.12,449.16C813.74,444.32,807,432.59,807,423l1.14-404.81c0-9.66,6.85-13.54,15.23-8.71Z"/><polygon class="cls-4" points="1375.11 342.31 1373.95 752.72 820.36 433.11 821.53 22.7 1375.11 342.31"/><path class="cls-8" d="M1013.59,322.41l-.21-.54c.15.12.3.25.45.36Z"/><path class="cls-8" d="M1014.8,309.42a11.26,11.26,0,0,1,3.12,2.84,13.76,13.76,0,0,1,2.43,5,9.2,9.2,0,0,1,.28,2.23c0,3.72-2.63,5.21-5.87,3.34a7.91,7.91,0,0,1-.93-.62c-.15-.11-.3-.24-.45-.36a13,13,0,0,1-4.43-9.11,5.94,5.94,0,0,1,.3-1.94,3,3,0,0,1,2.67-2.18A5.06,5.06,0,0,1,1014.8,309.42Z"/><polygon class="cls-8" points="1112.31 244.27 1103.06 268.45 1101.75 255.53 1101.47 252.76 1098.94 250.82 1090.28 244.18 1112.31 244.27"/><path class="cls-8" d="M1101.47,252.76l.28,2.77-81.4,61.75a13.63,13.63,0,0,0-2.44-5l81-61.44Z"/><path class="cls-8" d="M978.32,228.12a3,3,0,0,0,2.94-1.42l30.66,81.94a3,3,0,0,0-2.67,2.18Z"/><polygon class="cls-8" points="1073.33 354.18 1073.16 416.44 1058.26 407.83 1058.43 345.57 1073.33 354.18"/><polygon class="cls-9" points="1058.5 321.12 1058.26 407.83 1043.36 399.23 1043.6 312.51 1058.5 321.12"/><polygon class="cls-8" points="1088.27 350.06 1088.06 425.04 1073.16 416.44 1073.37 341.46 1088.27 350.06"/><polygon class="cls-10" points="1103.08 391.96 1103.05 401.27 1102.87 401.17 1102.78 433.54 1102.96 433.64 1088.06 425.04 1088.18 383.36 1103.08 391.96"/><polygon class="cls-11" points="1117.77 409.77 1117.68 442.14 1102.96 433.64 1102.78 433.54 1102.87 401.17 1103.05 401.27 1117.77 409.77"/><polygon class="cls-10" points="1132.85 354.24 1132.58 450.74 1117.68 442.14 1117.95 345.63 1132.85 354.24"/><path class="cls-8" d="M1008.37,348.83a7.85,7.85,0,0,1,3.57,6.18c0,2.61-1.62,3.53-3.59,2.39l-143.82-83a7.87,7.87,0,0,1-3.57-6.19c0-2.61,1.62-3.53,3.59-2.39Z"/><path class="cls-8" d="M1008.37,365.5a7.85,7.85,0,0,1,3.57,6.18c0,2.64-1.62,3.56-3.59,2.42l-143.82-83a7.86,7.86,0,0,1-3.57-6.21c0-2.61,1.62-3.53,3.59-2.39Z"/><path class="cls-8" d="M1066,226a8,8,0,0,1,3.6,6.23v1.42c0,2.29-1.62,3.21-3.61,2.06l-200.88-116a7.9,7.9,0,0,1-3.57-6.21v-1.43c0-2.27,1.62-3.21,3.6-2.07Z"/><path class="cls-10" d="M1366.28,388.81a8,8,0,0,1,3.59,6.23v1.42c0,2.3-1.61,3.21-3.61,2.06l-200.88-116a7.93,7.93,0,0,1-3.57-6.21v-1.43c0-2.27,1.62-3.21,3.59-2.07Z"/><path class="cls-8" d="M1366.28,414.28a7.93,7.93,0,0,1,3.59,6.22v1.42c0,2.3-1.61,3.22-3.61,2.07L1165.37,308a7.91,7.91,0,0,1-3.57-6.21v-1.42c0-2.27,1.62-3.22,3.59-2.08Z"/><path class="cls-8" d="M1307.71,446.12a7.87,7.87,0,0,1,3.57,6.21c0,2.27-1.61,3.19-3.59,2.05l-138.22-79.8a7.9,7.9,0,0,1-3.57-6.18c0-2.3,1.62-3.22,3.6-2.08Z"/><path class="cls-12" d="M1307.71,471.69a7.86,7.86,0,0,1,3.57,6.21c0,2.27-1.61,3.19-3.59,2.05l-138.22-79.8a7.94,7.94,0,0,1-3.57-6.19c0-2.29,1.62-3.21,3.6-2.07Z"/><path class="cls-9" d="M1307.71,523.35a7.86,7.86,0,0,1,3.57,6.21c0,2.27-1.61,3.19-3.59,2.05l-138.22-79.8a7.92,7.92,0,0,1-3.57-6.19c0-2.29,1.62-3.21,3.6-2.07Z"/><path class="cls-11" d="M1307.71,548.91a7.87,7.87,0,0,1,3.57,6.21c0,2.27-1.61,3.19-3.59,2l-138.22-79.8a7.9,7.9,0,0,1-3.57-6.18c0-2.3,1.62-3.22,3.6-2.08Z"/><path class="cls-11" d="M1352.09,627.28a7.86,7.86,0,0,1,3.57,6.18c0,2.3-1.61,3.22-3.59,2.08L1177,534.48a7.93,7.93,0,0,1-3.6-6.23c0-2.27,1.62-3.18,3.62-2Z"/><path class="cls-11" d="M1352.09,652.85a7.85,7.85,0,0,1,3.57,6.18c0,2.27-1.61,3.19-3.59,2.05L1177,560a7.92,7.92,0,0,1-3.6-6.2c0-2.27,1.62-3.19,3.62-2Z"/><path class="cls-13" d="M1352.09,677.9a7.85,7.85,0,0,1,3.57,6.18c0,2.27-1.61,3.19-3.59,2L1177,585.07a7.92,7.92,0,0,1-3.6-6.2c0-2.27,1.62-3.19,3.62-2Z"/><path class="cls-10" d="M895,406.39c1.7,1.78,2.59,3.53,2.59,5.3,0,2.35-1.78,3-4.26,1.53s-4.18-4.05-4.17-6.37c0-1.79.93-2.37,2.42-2.25a6.62,6.62,0,0,1-1.9-4.37c0-2.37,1.87-2.54,3.73-1.46s3.7,3.29,3.69,5.66C897.05,405.86,896.35,406.41,895,406.39Zm-1.65,5.32c1.54.88,2.46.44,2.47-1s-.69-2.56-2.66-4.49l-.46-.45c-1.19,0-1.79.6-1.8,2.13a4.57,4.57,0,0,0,2.45,3.85m-2-10.5c0,1.43.84,2.45,2.24,3.78l.32.32c1.1-.08,1.57-.55,1.57-1.74a3.88,3.88,0,0,0-2.06-3.35c-1.26-.73-2.07-.43-2.07,1"/><path class="cls-10" d="M903.47,404.6c2.73,1.58,4.08,5,4.06,9.59s-1.37,6.47-4.11,4.89-4.07-4.94-4.06-9.61S900.73,403,903.47,404.6Zm0,12.95c1.51.88,2.35-.23,2.36-4.37s-.81-6.18-2.33-7.05-2.34.23-2.36,4.34.79,6.19,2.33,7.08"/><path class="cls-10" d="M915.3,415c0,2.19-1.27,2.84-3,1.84a6.19,6.19,0,0,1-2.93-5.26c0-2.16,1.25-2.82,3-1.84A6.24,6.24,0,0,1,915.3,415Zm-4.45-2.57a3.36,3.36,0,0,0,1.46,3.09c1.2.69,1.5-.24,1.5-1.38a3.38,3.38,0,0,0-1.49-3.1c-1.17-.68-1.47.26-1.47,1.39"/><polygon class="cls-10" points="919.75 413.34 920.91 414.88 912.42 424.7 911.25 423.13 919.75 413.34"/><path class="cls-10" d="M919.84,421.48a6.14,6.14,0,0,1,2.95,5.24c0,2.19-1.25,2.82-3,1.83a6.24,6.24,0,0,1-3-5.26C916.85,421.1,918.12,420.48,919.84,421.48Zm0,5.77c1.2.69,1.47-.26,1.48-1.39a3.32,3.32,0,0,0-1.47-3.07c-1.17-.67-1.47.24-1.47,1.37a3.39,3.39,0,0,0,1.46,3.09"/><path class="cls-10" d="M987.3,460.41a7.4,7.4,0,0,1,3.36,6.43c0,3.06-1.76,4-3.9,2.77-3-1.72-4.1-5.19-4.09-9.23,0-4.59,1.75-6.66,4.64-5a8.33,8.33,0,0,1,2.52,2.33l-.67.88a6.75,6.75,0,0,0-1.88-1.69c-1.77-1-2.83.48-2.93,3.65C985.16,459.73,986.15,459.74,987.3,460.41Zm-.53,7.67c1.42.82,2.18-.11,2.19-2.17,0-2.22-.82-3.48-2-4.15a1.87,1.87,0,0,0-2.62.42c.06,3.1.77,5,2.4,5.9"/><path class="cls-10" d="M996.49,460.69c2.76,1.6,4.11,5,4.09,9.61s-1.37,6.5-4.13,4.91-4.08-5-4.06-9.65S993.76,459.12,996.49,460.69Zm0,13c1.51.87,2.34-.26,2.35-4.4s-.81-6.18-2.32-7-2.32.27-2.34,4.36.79,6.21,2.31,7.09"/><path class="cls-10" d="M1012.87,477.57a6.19,6.19,0,0,1,3,5.25c0,2.19-1.25,2.84-3,1.85a6.25,6.25,0,0,1-3-5.27C1009.9,477.21,1011.17,476.59,1012.87,477.57Zm0,5.78c1.19.69,1.49-.25,1.5-1.38a3.35,3.35,0,0,0-1.49-3.08c-1.17-.67-1.47.24-1.47,1.37a3.34,3.34,0,0,0,1.46,3.09"/><path class="cls-10" d="M1008.33,471.07c0,2.19-1.25,2.85-3,1.85a6.22,6.22,0,0,1-3-5.27c0-2.16,1.27-2.81,3-1.83A6.21,6.21,0,0,1,1008.33,471.07Zm-4.45-2.57a3.43,3.43,0,0,0,1.48,3.13c1.17.68,1.48-.29,1.48-1.42a3.39,3.39,0,0,0-1.46-3.09c-1.18-.68-1.5.27-1.5,1.38"/><polygon class="cls-10" points="1012.8 469.45 1013.94 470.98 1005.45 480.8 1004.28 479.23 1012.8 469.45"/><path class="cls-10" d="M904.8,382.41c15,8.68,27.22,29.77,27.17,47S919.66,453.72,904.62,445s-27.21-29.8-27.16-47.05S889.79,373.74,904.8,382.41Zm-.17,59.7c13.64,7.87,24.74,1.52,24.79-14.12s-11-34.78-24.63-42.66-24.74-1.52-24.78,14.13,11,34.79,24.62,42.65"/><path class="cls-10" d="M996.28,437.12c15,8.68,27.21,29.77,27.17,47.05s-12.31,24.27-27.35,15.58S968.89,470,968.94,452.7,981.26,428.45,996.28,437.12Zm-.17,59.71c13.64,7.87,24.74,1.52,24.79-14.13s-11-34.78-24.63-42.65-24.74-1.52-24.78,14.12,11,34.79,24.62,42.66"/><path class="cls-10" d="M1071.29,502.25a7,7,0,0,1,3.62,5.66c0,1.79-1,2.26-2.4,1.86a6.17,6.17,0,0,1,2.77,5c0,2.48-1.65,3.38-4.19,1.91a9.75,9.75,0,0,1-3.67-4l1-.5a7.19,7.19,0,0,0,2.61,2.91c1.54.89,2.46.34,2.47-1.33a4.24,4.24,0,0,0-2.43-3.93l-.89-.52.19-1.37.62.36c1.21.7,2.22.44,2.23-1.2a3.92,3.92,0,0,0-2-3.31,2.3,2.3,0,0,0-2.5-.18l-.9-1.68A3.59,3.59,0,0,1,1071.29,502.25Z"/><path class="cls-10" d="M1081.39,508.08c2.73,1.58,4.08,5,4.07,9.59s-1.38,6.5-4.11,4.92-4.08-5-4.07-9.64S1078.66,506.51,1081.39,508.08Zm0,13c1.52.87,2.35-.23,2.36-4.37s-.81-6.18-2.32-7.06-2.35.26-2.36,4.35.79,6.19,2.32,7.08"/><polygon class="cls-10" points="1097.67 516.82 1098.84 518.37 1090.35 528.19 1089.18 526.61 1097.67 516.82"/><path class="cls-10" d="M1097.76,525a6.17,6.17,0,0,1,3,5.25c0,2.19-1.25,2.84-3,1.85a6.24,6.24,0,0,1-3-5.29C1094.77,524.58,1096,524,1097.76,525Zm0,5.78c1.17.68,1.47-.26,1.47-1.39a3.33,3.33,0,0,0-1.46-3.07c-1.17-.67-1.5.22-1.5,1.36a3.44,3.44,0,0,0,1.49,3.1"/><path class="cls-10" d="M1093.23,518.46c0,2.19-1.28,2.83-3,1.84a6.22,6.22,0,0,1-3-5.27c0-2.17,1.27-2.81,3-1.83A6.25,6.25,0,0,1,1093.23,518.46Zm-4.46-2.57a3.42,3.42,0,0,0,1.47,3.12c1.19.68,1.49-.28,1.5-1.41a3.42,3.42,0,0,0-1.49-3.11c-1.17-.67-1.47.29-1.48,1.4"/><path class="cls-10" d="M1082.06,484.47c15,8.68,27.21,29.77,27.16,47s-12.3,24.27-27.34,15.58-27.21-29.79-27.16-47.05S1067,475.8,1082.06,484.47Zm-.17,59.7c13.64,7.88,24.74,1.52,24.79-14.12s-11-34.78-24.63-42.65-24.74-1.52-24.78,14.12,11,34.79,24.62,42.65"/><path class="cls-8" d="M976.09,213.93A12.81,12.81,0,0,1,981.92,224a5.07,5.07,0,0,1-.66,2.69,3,3,0,0,1-2.94,1.42,5.62,5.62,0,0,1-2.27-.79,8.88,8.88,0,0,1-.85-.56,12.7,12.7,0,0,1-3.44-4.1,11.55,11.55,0,0,1-1.52-5.41C970.25,213.54,972.87,212.07,976.09,213.93Z"/><path class="cls-8" d="M935.66,268.23a9.65,9.65,0,0,1,1.78,1.34,13.9,13.9,0,0,1,3.1,4.52,11.08,11.08,0,0,1,.94,4.21c0,3.69-2.64,5.19-5.85,3.33a12.79,12.79,0,0,1-5.82-10.07,5.43,5.43,0,0,1,.52-2.43,2.9,2.9,0,0,1,2.68-1.7A5.24,5.24,0,0,1,935.66,268.23Z"/><path class="cls-8" d="M971.76,222.67a12.7,12.7,0,0,0,3.44,4.1l-34.66,47.32a13.9,13.9,0,0,0-3.1-4.52Z"/><path class="cls-14" d="M512.71,828.42,398.82,758.74c1.41-3.74-.71-8.75-5.28-11.86-5.13-3.48-11.38-3.24-14,.54s-.5,9.69,4.63,13.17c3.78,2.57,8.14,3.1,11.22,1.7L508,831.16Z"/><path class="cls-14" d="M572.91,985.17l-157.54,99c-4-4.34-12.1-4.83-19.25-.79-8,4.53-11.81,13-8.47,18.91s12.55,7,20.57,2.52c5.9-3.33,9.48-8.79,9.65-13.8l162-101.8Z"/><path class="cls-14" d="M959.72,908.38l159.68,95.49c-2,5.57,1.2,13,8,17.51,7.67,5.1,16.94,4.63,20.69-1s.59-14.38-7.08-19.47c-5.65-3.75-12.14-4.46-16.68-2.34L960.15,900.33Z"/><path class="cls-1" d="M1002.84,854.33l-.19,68.32c-.11,38.27-25.26,76.48-75.51,105.69-101.12,58.76-265.68,58.76-367.47,0-51.23-29.58-76.81-68.41-76.7-107.17l.19-68.33c-.11,38.77,25.47,77.59,76.7,107.17,101.79,58.77,266.35,58.77,367.48,0C977.58,930.81,1002.73,892.6,1002.84,854.33Z"/><g class="cls-15"><path class="cls-14" d="M1002.8,856.61a88.69,88.69,0,0,1-1.7,14.91,93.87,93.87,0,0,1-4.2,14.63A105.8,105.8,0,0,1,990,900.92a122.44,122.44,0,0,1-10.46,15.52,148.64,148.64,0,0,1-16.11,17.33,201.51,201.51,0,0,1-32.9,24.36L927.34,960a293.61,293.61,0,0,1-56.93,25,375.39,375.39,0,0,1-49.19,12.24c-10.89,2-22,3.51-33.15,4.62q-14.33,1.43-28.83,1.92c-8.86.31-17.75.35-26.62.13q-12.84-.33-25.6-1.37c-8.48-.7-16.92-1.64-25.27-2.83q-13-1.85-25.77-4.48-13.79-2.85-27.1-6.64Q612.62,984,597.33,978a282.21,282.21,0,0,1-37.47-18c-51.23-29.58-76.81-68.4-76.7-107.17L483,921.17c-.11,38.76,25.47,77.59,76.7,107.17a282.81,282.81,0,0,0,37.47,18c10.16,4,20.71,7.57,31.55,10.65q13.27,3.79,27.1,6.65,12.72,2.63,25.77,4.48,12.53,1.77,25.27,2.82c8.49.7,17,1.16,25.6,1.37,8.87.22,17.76.18,26.62-.12,9.65-.33,19.28-1,28.83-1.92q16.77-1.68,33.15-4.62a375.81,375.81,0,0,0,49.19-12.25,293.49,293.49,0,0,0,56.92-25c1.07-.63,2.13-1.25,3.17-1.88a201.61,201.61,0,0,0,32.91-24.36,150.26,150.26,0,0,0,16.11-17.33,122.44,122.44,0,0,0,10.46-15.52,106.52,106.52,0,0,0,6.92-14.78,95.78,95.78,0,0,0,4.2-14.63,88.57,88.57,0,0,0,1.7-14.91c0-.76,0-1.52,0-2.28l.19-68.32C1002.84,855.09,1002.83,855.85,1002.8,856.61Z"/></g><ellipse class="cls-16" cx="743" cy="853.58" rx="150.51" ry="259.84" transform="translate(-112.69 1594.16) rotate(-89.84)"/><g class="cls-17"><path class="cls-18" d="M948.19,838.48a22,22,0,1,1-22-22A22,22,0,0,1,948.19,838.48Z"/><path class="cls-19" d="M570.66,693.2a22,22,0,1,1-22-22A22,22,0,0,1,570.66,693.2Z"/><path class="cls-20" d="M544.38,801.77a22,22,0,1,1-22-22A22,22,0,0,1,544.38,801.77Z"/><path class="cls-21" d="M564.86,788.49a31.18,31.18,0,1,0,48.94,16,34.46,34.46,0,0,0,44-4.29,31.17,31.17,0,0,0,32.46,12,31.19,31.19,0,1,0,59.86,1.05,50.68,50.68,0,1,0-43.7-90.36,44.17,44.17,0,0,0,.76-6.15,42.88,42.88,0,0,0-84.92-10.38,50.67,50.67,0,1,0-57.43,82.15Zm98.85-31.1-1,.82c-.17-.29-.36-.57-.54-.86h0Z"/><path class="cls-22" d="M690.93,767a30.41,30.41,0,1,0,47.74,15.58,33.61,33.61,0,0,0,42.94-4.19,30.35,30.35,0,0,0,23,12.51,30.66,30.66,0,0,0,8.61-.79,30.43,30.43,0,1,0,58.38,1A49.43,49.43,0,1,0,829,703a43.92,43.92,0,0,0,.75-6A41.83,41.83,0,0,0,747,686.82a49.43,49.43,0,1,0-56,80.13Zm96.42-30.33c-.33.26-.65.53-1,.8-.17-.29-.35-.56-.53-.84h0C786.36,736.61,786.85,736.61,787.35,736.62Z"/><circle class="cls-23" cx="603.28" cy="817.72" r="50.17" transform="translate(-401.52 666.09) rotate(-45)"/><path class="cls-24" d="M828,802.57a37.92,37.92,0,1,0-60.45-16.36,41.88,41.88,0,0,0-53.21,7.95,37.93,37.93,0,0,0-40.18-12.58A37.93,37.93,0,1,0,601.35,784a61.65,61.65,0,1,0,58.7,107.05,53.14,53.14,0,0,0-.54,7.52,52.15,52.15,0,0,0,103.79,7.33A61.64,61.64,0,1,0,828,802.57ZM709.82,846.48c.39-.34.77-.69,1.15-1.05.23.34.47.67.72,1h0C711.05,846.44,710.43,846.46,709.82,846.48Z"/><circle class="cls-25" cx="864.98" cy="907" r="41.61"/><path class="cls-26" d="M844.34,693.2a22,22,0,1,1-22-22A22,22,0,0,1,844.34,693.2Z"/><path class="cls-27" d="M530.92,783.41a30.59,30.59,0,1,1-30.59-30.59A30.6,30.6,0,0,1,530.92,783.41Z"/><path class="cls-28" d="M824.23,836a22,22,0,1,1-22-22A22,22,0,0,1,824.23,836Z"/><circle class="cls-29" cx="833.75" cy="762.15" r="41.61"/><path class="cls-30" d="M802.2,869.12c0,20.49-12.6,68.57-65.37,68.57s-60.33-48.08-60.33-68.57,7.57-182.84,60.33-182.84S802.2,848.64,802.2,869.12Z"/><path class="cls-31" d="M794.48,844.48a51.29,51.29,0,0,0-46.67,26.22,122.63,122.63,0,0,0-23.69-3.18,116.74,116.74,0,0,0-39.21,5,51.27,51.27,0,1,0-23.23,78.51c14.27,10.85,35.15,18.1,58.63,19,29.64,1.11,55.88-8.24,70.3-23h.06a51.29,51.29,0,0,0,3.81-102.51Z"/></g><path class="cls-14" d="M724.88,1048.11l159.68,95.5c-2,5.57,1.2,13,8,17.51,7.68,5.09,16.94,4.63,20.7-1s.59-14.38-7.08-19.47c-5.65-3.75-12.14-4.47-16.69-2.34L725.3,1040.07Z"/><path class="cls-1" d="M1190.3,1229.14c0,.22,0,.45-.08.68s-.09.36-.14.55-.11.42-.18.64-.15.35-.22.52-.2.45-.32.67-.19.32-.28.47a7.61,7.61,0,0,1-.51.75c-.17.24-.36.48-.56.71l-.14.16c-.28.3-.58.6-.91.89s-.43.36-.65.54l-.6.48c-.24.17-.51.34-.77.51s-.53.36-.82.52l-258.07,150a21.19,21.19,0,0,1-2,1l-.61.26c-.55.23-1.11.44-1.68.64l-.63.21c-.36.12-.73.22-1.1.32s-.56.16-.84.22-.79.18-1.18.26l-.82.16c-.8.14-1.62.26-2.44.34l-.75.06c-.49,0-1,.08-1.46.1l-.93,0h-1.18l-1,0-1.09,0-1-.09c-.36,0-.72-.07-1.07-.12l-1-.13-1.14-.2-.89-.18c-.45-.1-.89-.21-1.33-.33l-.73-.19q-1.18-.35-2.31-.78c-.37-.15-.73-.3-1.08-.46l-.56-.24c-.54-.26-1.06-.53-1.57-.82l-127.85-73.82a14.71,14.71,0,0,1-4.76-4.14,8.13,8.13,0,0,1-1.57-4.71l0,12c0,3.2,2.11,6.41,6.34,8.85l127.85,73.82c.5.29,1,.56,1.57.82l.55.24c.32.14.64.29,1,.42l.12,0c.74.29,1.51.55,2.3.78l.19.06.55.14,1.33.32.35.09.54.09,1.14.2.45.08.5.06,1.08.12.51,0,.48,0,1.09.06.55,0h2.19l.35,0c.48,0,1,0,1.45-.09l.59,0,.17,0c.82-.08,1.64-.19,2.44-.34h.12l.7-.15,1.17-.25.85-.23c.37-.1.74-.2,1.1-.32l.24-.06.38-.15c.57-.19,1.13-.41,1.68-.63.21-.09.41-.17.61-.27a21.19,21.19,0,0,0,2-1l258.08-150,.26-.16c.2-.12.37-.25.55-.37s.53-.33.77-.51.41-.32.6-.48.46-.35.66-.54l.13-.11c.28-.25.53-.51.77-.77l.15-.17c.14-.16.28-.32.41-.49a1.7,1.7,0,0,0,.15-.22,8.73,8.73,0,0,0,.5-.74c.07-.11.15-.21.21-.32l.08-.16a5.79,5.79,0,0,0,.31-.67c.06-.13.14-.26.19-.39l0-.13c.08-.21.13-.43.19-.64s.09-.29.12-.43a.49.49,0,0,0,0-.12,5.25,5.25,0,0,0,.08-.68,3.12,3.12,0,0,0,0-.44c0-.06,0-.12,0-.18l0-12C1190.35,1228.72,1190.32,1228.93,1190.3,1229.14Z"/><path class="cls-1" d="M1184,1219.66c8.4,4.85,8.45,12.72.1,17.57l-258.07,150c-8.35,4.85-21.94,4.85-30.34,0l-127.85-73.82c-8.4-4.85-8.45-12.72-.11-17.57l258.08-150c8.34-4.85,21.93-4.84,30.34,0Z"/><polygon class="cls-4" points="1028.59 1151.24 1172.4 1234.27 917.53 1382.39 773.72 1299.36 1028.59 1151.24"/><path class="cls-10" d="M1139.83,1232.32c1.69,1,1.7,2.55,0,3.53a6.76,6.76,0,0,1-6.1,0l-116.42-67.22c-1.69-1-1.7-2.55,0-3.53a6.7,6.7,0,0,1,6.1,0Z"/><path class="cls-11" d="M1118.24,1246.78c1.69,1,1.7,2.56,0,3.54a6.76,6.76,0,0,1-6.1,0L995.74,1183.1c-1.69-1-1.7-2.56,0-3.53a6.7,6.7,0,0,1,6.1,0Z"/><path class="cls-9" d="M1104.64,1256.23c1.69,1,1.7,2.56,0,3.53a6.7,6.7,0,0,1-6.1,0l-116.42-67.21c-1.69-1-1.7-2.56,0-3.53a6.7,6.7,0,0,1,6.1,0Z"/><path class="cls-8" d="M1090.73,1264.86c1.69,1,1.7,2.56,0,3.53a6.7,6.7,0,0,1-6.1,0l-116.42-67.21c-1.69-1-1.7-2.56,0-3.53a6.7,6.7,0,0,1,6.1,0Z"/><polygon class="cls-13" points="899.39 1260.19 893.47 1263.63 887.51 1260.19 893.43 1256.75 899.39 1260.19"/><polygon class="cls-13" points="830.75 1315.68 819.76 1322.07 808.71 1315.69 819.69 1309.3 830.75 1315.68"/><polygon class="cls-13" points="881.25 1333.27 871.92 1338.69 862.53 1333.27 871.86 1327.85 881.25 1333.27"/><polygon class="cls-10" points="982.59 1241.36 954.98 1257.4 953.04 1256.28 879.89 1298.79 881.83 1299.91 861.32 1288.07 962.07 1229.52 982.59 1241.36"/><polygon class="cls-8" points="984.55 1309.31 941.46 1334.34 920.91 1322.48 964 1297.44 984.55 1309.31"/><polygon class="cls-9" points="1016.98 1266.65 920.91 1322.48 900.4 1310.64 996.47 1254.81 1016.98 1266.65"/><polygon class="cls-11" points="973.55 1268.13 900.4 1310.64 881.83 1299.91 879.89 1298.79 953.04 1256.28 954.98 1257.4 973.55 1268.13"/><line class="cls-13" x1="924.95" y1="1228.44" x2="823.96" y2="1288.92"/><line class="cls-13" x1="823.96" y1="1278.67" x2="949.38" y2="1348.8"/><path class="cls-1" d="M645.21,562.15l-8.86,5.15-.37.25a3.56,3.56,0,0,0-.36.26l-.37.26-.37.28-.36.27-.36.29c-.21.16-.29.23-.37.3l-.35.29-.36.31-.36.31-.35.32-.35.33-.35.33-.35.34-.35.34-.34.35-.34.36c-.15.15-.25.25-.34.36l-.34.36c-1.24,1.36-2.4,2.76-3.53,4.25l-.3.4-.33.44c-.12.18-.21.3-.3.42l-.29.4-.29.41c-.16.22-.22.32-.29.42s-.24.34-.3.44-.24.34-.3.44-.23.33-.29.43l-.3.45-.3.45-.29.45-.28.45c-.18.28-.24.37-.29.46l-.29.47-.29.46-.27.45-.29.48-.27.46-.27.46-.13.22-.15.26-.27.47-.27.49-.27.47-.26.48-.25.45-.14.25-.12.23c0,.08-.09.16-.13.24s-.09.17-.13.25l-.13.23-.13.25-.12.23a2,2,0,0,0-.13.25c0,.08-.08.16-.13.24l-.13.25c-.15.3-.2.39-.25.48-.15.3-.2.39-.24.48l-.13.25-.23.47a2,2,0,0,0-.13.25l-.24.48-.12.25-.25.5-.23.48-.22.45-.11.23-.12.25-.07.14c-.09.21-.13.28-.17.36l-.26.56c-.1.22-.16.34-.21.46s-.15.33-.2.42c-.12.27-.16.35-.19.43l-.11.23-.32.71c-.1.24-.21.47-.31.7l8.86-5.15c.1-.23.2-.46.31-.69l.32-.71.11-.24c0-.08.07-.16.19-.43.05-.09.09-.19.2-.42s.11-.24.21-.46l.26-.56.07-.13.07-.14.1-.23.12-.25.11-.23.22-.45c0-.1.09-.19.23-.48l.25-.5.12-.25.24-.48a2,2,0,0,1,.13-.25l.23-.47.13-.25c0-.09.09-.18.24-.48,0-.09.1-.18.25-.48,0-.08.09-.17.13-.25s.09-.16.13-.24.08-.17.13-.25l.12-.23c0-.08.09-.16.13-.25L627,585l.13-.25a1.71,1.71,0,0,1,.13-.23l.12-.24.14-.25.25-.45.26-.48c.06-.09.11-.19.27-.47.05-.1.1-.19.27-.48.05-.09.1-.19.27-.48l.15-.26.13-.22.27-.46.27-.46.29-.48.27-.45.29-.46c.06-.1.11-.19.29-.46.05-.1.11-.19.28-.46h0l.29-.45.29-.44.3-.46.3-.45c.06-.1.12-.19.29-.43l.29-.44.31-.44c.06-.1.13-.19.29-.42l.29-.41.29-.4c.09-.12.18-.24.3-.42l.33-.43c.08-.12.17-.23.3-.41,1.13-1.48,2.29-2.89,3.53-4.25l.33-.36.35-.36.34-.36.34-.35.35-.34.34-.34.36-.33.35-.33.35-.31.36-.32.36-.31.35-.29.37-.3.36-.29.36-.27.36-.27.38-.27.36-.26.14-.09.23-.16Z"/><g class="cls-3"><g class="cls-32"><path class="cls-33" d="M636.73,567.05l8.86-5.15-.38.25-8.86,5.15.38-.25"/></g></g><g class="cls-3"><g class="cls-34"><path class="cls-33" d="M637.11,566.82l8.86-5.15-.38.23-8.86,5.15.38-.23"/></g></g><g class="cls-3"><g class="cls-35"><path class="cls-33" d="M637.48,566.59l8.86-5.15-.37.23-8.86,5.15.37-.23"/></g></g><g class="cls-3"><g class="cls-36"><path class="cls-33" d="M637.65,566.49l8.86-5.15-.17.1-8.86,5.15.17-.1"/></g></g><path class="cls-1" d="M639.36,501.16a23.07,23.07,0,0,1,2.8-.79l.75-.13c.54-.09,1.07-.18,1.59-.23l.9-.08,1.15-.06h1c.33,0,.65,0,1,0s.63,0,.94.06l.88.09.92.12.79.14.87.16.74.17.78.2.71.19.68.21.69.23.57.2.63.24.45.18.67.28.31.14.2.09.39.18.15.07.28.15,8.86-5.15-.21-.11-.07,0-.15-.08-.39-.18-.2-.09-.11-.06-.2-.08-.67-.28-.2-.09-.25-.09-.63-.24c-.11,0-.19-.08-.3-.11l-.27-.09-.69-.23-.38-.12-.3-.08-.71-.2-.44-.12-.34-.08-.75-.16-.45-.11-.41-.06-.79-.13-.46-.08-.46-.05-.88-.09-.45,0c-.16,0-.33,0-.49,0-.32,0-.64,0-1,0l-.47,0-.48,0c-.38,0-.76,0-1.15,0l-.52,0c-.12,0-.25.05-.38.06-.52.06-1.05.14-1.59.23-.19,0-.37,0-.57.08l-.18.06a21.33,21.33,0,0,0-2.8.78,1.41,1.41,0,0,0-.22.06c-.35.12-.71.29-1.07.44s-.45.17-.68.28a22.09,22.09,0,0,0-2,1L635.34,503c.68-.4,1.37-.74,2-1.06l.68-.27C638.5,501.48,638.93,501.3,639.36,501.16Z"/><path class="cls-16" d="M613.25,600.14c-6.61-124.45,44.19-98.51,46.87-97.14l-2.8,64-.5-.31-.5-.3c-7.22-2.55-7.3-2.57-7.39-2.58l-.42,0c-.58-.05-1.09-.07-1.59-.07h-.39l-.39,0-.39,0-.41,0-.41,0-.39.06-.41.07-.41.07-.4.09-.39.1-.4.1-.4.12-.4.13-.39.13-.39.15c-.24.08-.31.12-.39.15l-.39.16-.39.17-.39.18-.38.19-.39.19-.38.21a4.2,4.2,0,0,0-.37.21l-.39.22-.37.23-.38.23-.38.25-.37.25a3.56,3.56,0,0,0-.36.26l-.37.26-.37.28-.36.27-.36.29c-.21.16-.29.23-.37.3l-.35.29-.36.31-.36.31-.35.32-.35.33-.35.33-.35.34-.35.34-.34.35-.34.36c-.15.15-.25.25-.34.36l-.34.36c-1.24,1.36-2.4,2.76-3.53,4.25l-.3.4-.33.44c-.12.18-.21.3-.3.42l-.29.4-.29.41c-.16.22-.22.32-.29.42s-.24.34-.3.44-.24.34-.3.44-.23.33-.29.43l-.3.45-.3.45-.29.45-.28.45c-.18.28-.24.37-.29.46l-.29.47-.29.46-.27.45-.29.48-.27.46-.27.46-.13.22-.15.26-.27.47-.27.49-.27.47-.26.48-.25.45-.14.25-.12.23c0,.08-.09.16-.13.24s-.09.17-.13.25l-.13.23-.13.25-.12.23a2,2,0,0,0-.13.25c0,.08-.08.16-.13.24l-.13.25c-.15.3-.2.39-.25.48-.15.3-.2.39-.24.48l-.13.25-.23.47a2,2,0,0,0-.13.25l-.24.48-.12.25-.25.5-.23.48-.22.45-.11.23-.12.25c-.15.31-.19.41-.24.5l-.26.56c-.1.22-.16.34-.21.46s-.15.33-.2.42c-.12.27-.16.35-.19.43l-.11.23-.32.71C613.46,599.68,613.35,599.91,613.25,600.14Z"/><path class="cls-1" d="M830.38,559.64l8.86,5.14.37.25.37.26.37.27.37.27.36.28.36.29.36.29.36.3.36.31.36.31a4.1,4.1,0,0,1,.34.32l.36.32.35.34.35.33.35.35.34.35.34.35.34.36.34.36c1.24,1.36,2.4,2.77,3.52,4.25l.31.41.32.44.31.41.29.41.29.41.29.42.3.43c.17.25.23.35.3.44l.29.43.3.45.3.46.29.45c.17.26.22.36.28.45.18.27.23.37.29.46l.29.46.28.46.28.45c.18.3.23.4.29.49l.27.46c.17.28.22.37.26.45l.13.22.16.27c.16.29.21.38.27.47l.27.48.26.47c.17.29.22.39.27.48.16.29.2.38.25.46s.09.16.13.25a1.71,1.71,0,0,1,.13.23l.13.24.13.24c0,.08.08.16.13.24s.08.16.13.24l.12.24.13.24.12.24.14.25c.15.31.2.4.24.48l.25.48c0,.09.08.17.13.26l.23.46c0,.09.09.17.13.25.14.29.19.39.24.48l.12.25.25.51c.14.28.18.38.23.47l.22.46a2.4,2.4,0,0,0,.11.23l.12.25.06.14c.1.2.14.28.17.36.15.32.21.43.26.55s.17.35.22.47.15.32.2.42l.19.42a2.56,2.56,0,0,0,.11.24l.32.71c.1.23.21.46.31.7l-8.86-5.15-.31-.7-.32-.71-.11-.24c0-.07-.07-.15-.19-.42l-.2-.42c-.05-.12-.11-.24-.22-.47l-.26-.55a.49.49,0,0,0-.06-.13.66.66,0,0,0-.07-.15c0-.06,0-.12-.1-.22l-.12-.25-.11-.23-.22-.45-.23-.48-.25-.51-.12-.25c-.05-.09-.1-.19-.24-.48,0-.08-.09-.16-.13-.25l-.23-.46c0-.09-.09-.17-.13-.26s-.09-.17-.25-.47l-.24-.48-.14-.26-.12-.24-.13-.24-.12-.23-.13-.25-.13-.23c0-.09-.09-.17-.13-.25l-.13-.24-.12-.23-.14-.25c-.05-.08-.09-.17-.25-.45-.05-.1-.1-.19-.27-.48l-.26-.48c0-.09-.11-.18-.27-.48,0-.09-.11-.18-.27-.47l-.16-.27-.12-.22-.27-.45-.27-.46c-.06-.09-.11-.19-.29-.49-.06-.08-.11-.17-.28-.45l-.28-.46-.29-.46-.29-.46h0c-.06-.09-.11-.19-.28-.45l-.29-.45-.3-.45-.3-.46-.29-.43-.3-.43c-.06-.1-.13-.2-.3-.44l-.29-.42-.29-.41-.29-.4-.31-.42-.32-.44-.31-.41c-1.12-1.48-2.28-2.89-3.52-4.25l-.34-.36-.34-.36-.34-.35-.34-.35-.35-.35-.35-.33-.35-.34-.36-.32a4.1,4.1,0,0,0-.34-.32l-.36-.31-.36-.31-.35-.3-.37-.29-.36-.29-.36-.28-.37-.27-.37-.27-.37-.25-.13-.1-.24-.15h0Z"/><path class="cls-16" d="M862.35,597.63c6.61-124.46-44.2-98.51-46.87-97.15l2.8,64.06.5-.31.5-.3c7.21-2.56,7.3-2.57,7.39-2.58l.42,0a15,15,0,0,1,1.59-.07h.78l.38,0,.41,0,.42,0,.39,0,.4.07.41.08.4.09.4.09.4.11.4.12.39.12.4.14.39.14.39.15.39.17.39.17.39.18.38.18.39.2.38.2.37.21.38.22.38.23.38.24.37.24.37.25.37.26.37.27.37.27.36.28.36.29.36.29.36.3.36.31.36.31a4.1,4.1,0,0,1,.34.32l.36.32.35.34.35.33.35.35.34.35.34.35.34.36.34.36c1.24,1.36,2.4,2.77,3.52,4.25l.31.41.32.44.31.41.29.41.29.41.29.42.3.43.3.44.29.43.3.45.3.46.29.45c.17.26.22.36.28.45.18.27.23.37.29.46l.29.46.28.46c.17.28.22.37.28.45.18.3.23.4.29.49l.27.46c.17.28.22.37.26.45l.13.22.16.27c.16.29.21.38.27.47l.27.48.26.47c.17.29.22.39.27.48.16.29.2.38.25.46a2,2,0,0,1,.13.25,1.71,1.71,0,0,1,.13.23l.13.24.13.24.13.24c0,.08.08.16.13.24l.12.24.13.24.12.24.14.25.24.49.25.47c0,.09.08.17.13.26l.23.46c0,.09.09.17.13.25.14.29.19.39.24.48l.12.25.25.51c.14.28.18.38.23.47l.22.46a2.4,2.4,0,0,0,.11.23l.12.25c.15.31.19.4.23.5.15.32.21.43.26.55s.17.35.22.47.15.32.2.42l.19.42a2.56,2.56,0,0,0,.11.24l.32.71C862.14,597.16,862.25,597.39,862.35,597.63Z"/><path class="cls-39" d="M783.71,624.28s7.9,195-40.89,286.14c0,0-63.66-198.79-42.75-286.14Z"/><path class="cls-1" d="M740.31,673.65h0A60.34,60.34,0,0,1,680,613.31v-38.4c3.08,3.52,25.58,28.26,62.16,27.43,34.45-.78,55.19-23.64,58.51-27.43v38.4A60.34,60.34,0,0,1,740.31,673.65Z"/><ellipse class="cls-1" cx="740.31" cy="499.48" rx="82.96" ry="45.11"/><ellipse class="cls-4" cx="740.31" cy="495.85" rx="67.88" ry="33.94"/><path class="cls-40" d="M730.83,284.88c0-13.88-4.76-25.14-10.64-25.14S709.56,271,709.56,284.88c0,10.16,2.55,18.88,6.22,22.85V501.09a4.42,4.42,0,1,0,8.83,0V307.73C728.28,303.76,730.83,295,730.83,284.88Z"/><path class="cls-40" d="M771.05,284.88c0-13.88-4.76-25.14-10.63-25.14S749.78,271,749.78,284.88c0,10.16,2.55,18.88,6.22,22.85V501.09a4.42,4.42,0,1,0,8.83,0V307.73C768.5,303.76,771.05,295,771.05,284.88Z"/><path class="cls-43" d="M626.13,187.81c17.13-21.1,41-42.31,73-55A10.27,10.27,0,0,0,702.75,116l-15.64-15.65a10.26,10.26,0,0,0-13.38-1c-14.77,10.94-48.28,38.79-64.53,76.72l-.6,1.4C604,188.46,618.61,197.07,626.13,187.81Z"/><path class="cls-43" d="M608.4,217.73a160.66,160.66,0,0,0-6.1,17.09,10.55,10.55,0,0,1-14.25,6.62L584.63,240a10.57,10.57,0,0,1-5.4-14.21,131.56,131.56,0,0,1,10.85-18.31,10.52,10.52,0,0,1,14.08-3h0A10.58,10.58,0,0,1,608.4,217.73Z"/><polygon class="cls-16" points="1502.97 885.41 1833.76 1052.61 1832.6 1063.86 1463.03 1266.86 1134.57 1089.03 1134.57 1077.15 1502.97 885.41"/><polygon class="cls-16" points="1502.97 885.41 1833.76 1052.61 1833.76 1063.22 1463.03 1266.86 1502.97 885.41"/><polygon class="cls-1" points="1504.13 874.15 1833.76 1052.61 1464.19 1255.6 1134.57 1077.15 1504.13 874.15"/><path class="cls-10" d="M1224,1042.19l-51.41,28.24c-5.25,2.88-4.86,8.79.79,11.85l48.16,26.07a13.58,13.58,0,0,0,12.4.2l51.37-28.21c5.25-2.89,4.86-8.79-.78-11.85l-48.12-26.1A13.6,13.6,0,0,0,1224,1042.19Z"/><path class="cls-10" d="M1418.08,995.48l-48.59-26.36a13.27,13.27,0,0,0-12.09-.19l-42.2,23.18c-5.11,2.81-4.74,8.56.75,11.54l48.6,26.35a13.19,13.19,0,0,0,12.08.19l42.2-23.18C1423.94,1004.2,1423.57,998.45,1418.08,995.48Z"/><path class="cls-10" d="M1350.67,1031.64,1303.33,1006a14.19,14.19,0,0,0-13-.21l-41,22.54c-5.48,3-5.08,9.18.81,12.37l47.35,25.68a14.17,14.17,0,0,0,13,.21l41-22.55C1357,1041,1356.56,1034.83,1350.67,1031.64Z"/><path class="cls-10" d="M1383.64,1128.43,1331.55,1157c-5,2.74-4.62,8.36.75,11.26l58.74,31.8a12.92,12.92,0,0,0,11.79.19l52-28.59c5-2.74,4.62-8.35-.74-11.26l-58.69-31.82A12.89,12.89,0,0,0,1383.64,1128.43Z"/><path class="cls-10" d="M1299.93,1082.17,1245.6,1112c-4.3,2.36-4,7.2.64,9.7l61.07,33.06a11.12,11.12,0,0,0,10.16.16l54.27-29.81c4.3-2.36,4-7.19-.64-9.7l-61-33.09A11.12,11.12,0,0,0,1299.93,1082.17Z"/><path class="cls-10" d="M1557.58,919l-48.84-26.44a13.06,13.06,0,0,0-11.93-.19L1448.3,919c-5,2.78-4.68,8.46.75,11.4l48.8,26.46a13,13,0,0,0,11.93.19l48.55-26.66C1563.39,927.61,1563,921.93,1557.58,919Z"/><path class="cls-10" d="M1747.24,1086l49.06-27c5-2.72,4.59-8.29-.74-11.18l-42.92-23.23a12.79,12.79,0,0,0-11.7-.18l-49,26.92c-5,2.73-4.59,8.3.73,11.18l42.88,23.26A12.81,12.81,0,0,0,1747.24,1086Z"/><path class="cls-10" d="M1678.47,1048.88l49.55-27.22c4.78-2.63,4.42-8-.72-10.79l-59.44-32.18a12.37,12.37,0,0,0-11.29-.18l-49.49,27.19c-4.78,2.62-4.43,8,.7,10.79l59.39,32.2A12.36,12.36,0,0,0,1678.47,1048.88Z"/><path class="cls-10" d="M1485.35,959.25l-49.63-26.92a12.4,12.4,0,0,0-11.35-.18l-43.18,23.71c-4.8,2.64-4.44,8,.71,10.84l49.64,26.92a12.43,12.43,0,0,0,11.35.18l43.17-23.72C1490.86,967.44,1490.51,962,1485.35,959.25Z"/><path class="cls-10" d="M1594,1003l49.32-27.09c4.83-2.65,4.47-8.09-.72-10.9l-59.29-32.1a12.47,12.47,0,0,0-11.4-.17l-49.27,27.06c-4.83,2.65-4.47,8.08.71,10.89l59.24,32.13A12.49,12.49,0,0,0,1594,1003Z"/><path class="cls-10" d="M1415.82,1213.52l44.44,24.06a11.63,11.63,0,0,0,10.63.16l53.51-29.39c4.5-2.47,4.17-7.53-.67-10.15l-44.4-24.08a11.63,11.63,0,0,0-10.64-.17l-53.54,29.41C1410.65,1205.83,1411,1210.9,1415.82,1213.52Z"/><path class="cls-10" d="M1539.4,1052.11l62.17,33.72a10.23,10.23,0,0,0,9.35.15l45.83-25.17c4-2.18,3.66-6.62-.58-8.92L1594,1018.17a10.17,10.17,0,0,0-9.34-.15l-45.83,25.17C1534.86,1045.36,1535.15,1049.81,1539.4,1052.11Z"/><path class="cls-10" d="M1408,1126.29l59.26,32.14a12.42,12.42,0,0,0,11.39.18l43.11-23.68c4.82-2.64,4.47-8.06-.71-10.87l-59.26-32.14a12.45,12.45,0,0,0-11.39-.18l-43.12,23.68C1402.5,1118.07,1402.86,1123.49,1408,1126.29Z"/><path class="cls-10" d="M1474.51,1089.64l59.46,32.25a12.31,12.31,0,0,0,11.25.18l43.32-23.79c4.75-2.62,4.4-8-.71-10.74l-59.46-32.25a12.31,12.31,0,0,0-11.25-.18l-43.31,23.79C1469.05,1081.51,1469.4,1086.87,1474.51,1089.64Z"/><path class="cls-10" d="M1366.06,1045.84l-43.44,23.87c-4.72,2.59-4.37,7.89.69,10.63l59.62,32.34a12.18,12.18,0,0,0,11.14.17l43.44-23.86c4.72-2.59,4.37-7.89-.69-10.64L1377.2,1046A12.21,12.21,0,0,0,1366.06,1045.84Z"/><path class="cls-10" d="M1493.75,1172.78l41.41,22.46a14,14,0,0,0,12.74.21l41.33-22.71c5.39-3,5-9-.79-12.16L1547,1138.12a13.93,13.93,0,0,0-12.73-.2l-41.34,22.7C1487.57,1163.58,1488,1169.64,1493.75,1172.78Z"/><path class="cls-10" d="M1503,1041.51l-58.87-31.93a12.77,12.77,0,0,0-11.66-.19l-42.76,23.49c-4.93,2.71-4.57,8.26.73,11.14l58.87,31.92a12.76,12.76,0,0,0,11.67.19l42.75-23.48C1508.62,1049.93,1508.26,1044.38,1503,1041.51Z"/><path class="cls-10" d="M1625.71,1098.92l43.39,23.53a12.43,12.43,0,0,0,11.35.19l43.18-23.72c4.8-2.64,4.44-8-.71-10.83l-43.39-23.53a12.43,12.43,0,0,0-11.35-.19L1625,1088.09C1620.2,1090.73,1620.56,1096.13,1625.71,1098.92Z"/><path class="cls-10" d="M1561.62,1136.88l39.42,21.38a15.49,15.49,0,0,0,14.14.23l39.49-21.69c6-3.29,5.54-10-.88-13.49l-39.43-21.38a15.43,15.43,0,0,0-14.13-.23l-39.5,21.69C1554.76,1126.68,1555.2,1133.4,1561.62,1136.88Z"/><path class="cls-10" d="M1569,1004.61l-58-31.44a13.41,13.41,0,0,0-12.29-.2l-41.93,23c-5.2,2.86-4.82,8.7.77,11.73l58,31.45a13.47,13.47,0,0,0,12.29.2l41.93-23C1575,1013.49,1574.59,1007.64,1569,1004.61Z"/><path class="cls-1" d="M286.12,1058.06l-.07,23.47a4.59,4.59,0,0,1-.89,2.52c-4.19,6.33-8.33,12.64-12.52,19a4.49,4.49,0,0,0-.74,2.48L272,1082a4.41,4.41,0,0,1,.74-2.48c4.18-6.33,8.33-12.64,12.52-19A4.68,4.68,0,0,0,286.12,1058.06Z"/><g class="cls-44"><path class="cls-1" d="M286.12,1058.06l-.07,23.47v.09l.06-23.47s0-.06,0-.09"/><path class="cls-1" d="M286.11,1058.15l-.06,23.47a4,4,0,0,1-.07.58l.07-23.47a2.93,2.93,0,0,0,.06-.58"/><path class="cls-1" d="M286.05,1058.73,286,1082.2a3.88,3.88,0,0,1-.19.64l.07-23.47a5.17,5.17,0,0,0,.19-.64"/><path class="cls-1" d="M285.86,1059.37l-.07,23.47a4.52,4.52,0,0,1-.36.78l.06-23.47a5.51,5.51,0,0,0,.37-.78"/><path class="cls-45" d="M285.49,1060.15l-.06,23.47a5.08,5.08,0,0,1-.27.43c-4.19,6.33-8.33,12.64-12.52,19l-.17.27.07-23.47c0-.09.11-.18.17-.27,4.18-6.33,8.33-12.64,12.52-19a4.92,4.92,0,0,0,.26-.43"/><path class="cls-1" d="M272.54,1079.82l-.07,23.47a5.89,5.89,0,0,0-.29.63l.07-23.47a5.11,5.11,0,0,1,.29-.63"/><path class="cls-1" d="M272.25,1080.45l-.07,23.47a4,4,0,0,0-.19.68l.07-23.47a4,4,0,0,1,.19-.68"/><path class="cls-1" d="M272.06,1081.13,272,1104.6a5.18,5.18,0,0,0-.09.78l.07-23.47a3.39,3.39,0,0,1,.09-.78"/><path class="cls-1" d="M272,1081.91l-.07,23.47v.12L272,1082v-.12"/></g><path class="cls-1" d="M47.72,1081.85l-.07,23.48a6.89,6.89,0,0,0-1.42-4c-5.27-7.52-10.14-15.16-15.15-22.73l.07-23.47c5,7.57,9.88,15.21,15.15,22.73A6.88,6.88,0,0,1,47.72,1081.85Z"/><g class="cls-46"><path class="cls-45" d="M47.72,1081.85l-.07,23.48a6.89,6.89,0,0,0-1.42-4c-5.27-7.52-10.14-15.16-15.15-22.73l.07-23.47c5,7.57,9.88,15.21,15.15,22.73a6.88,6.88,0,0,1,1.42,4"/></g><path class="cls-1" d="M321,1105.46l-.07,23.47a3.62,3.62,0,0,1,0,.46c-.11,1.72-.16,3.45-.17,5.17l.07-23.47c0-1.72.06-3.45.17-5.17C321,1105.76,321,1105.61,321,1105.46Z"/><g class="cls-47"><path class="cls-1" d="M321,1105.46l-.07,23.47v.18l.07-23.47v-.18"/><path class="cls-1" d="M321,1105.64l-.07,23.47a2.46,2.46,0,0,1,0,.28c-.06,1-.1,2-.13,3l.06-23.47c0-1,.08-2,.14-3,0-.1,0-.19,0-.28"/><path class="cls-1" d="M320.84,1108.88l-.06,23.47c0,.74,0,1.48,0,2.21l.07-23.47c0-.74,0-1.47,0-2.21"/></g><path class="cls-1" d="M200.42,1090.43l-.41-.24a61.72,61.72,0,0,0-8.34-4l-.31-.11c-.37-.14-.77-.25-1.15-.39-1.82-.67-3.65-1.33-5.57-1.88-.77-.22-1.57-.38-2.36-.58-.59-.15-1.18-.3-1.78-.43s-1.26-.34-1.91-.47q-2.82-.58-5.72-1c-.44-.06-.89-.09-1.34-.15l-1.34-.15c-1-.1-1.91-.24-2.88-.32-1.86-.15-3.72-.25-5.59-.3-.33,0-.65,0-1,0h-1.23c-1.18,0-2.37,0-3.55,0q-3.14.11-6.23.41h-.06l-.28,0c-2.27.24-4.51.54-6.72.94-.55.1-1,.28-1.59.39-1.81.37-3.54.84-5.29,1.32-1.1.3-2.28.49-3.35.83-.63.21-1.21.47-1.83.69s-1.29.48-1.93.73a59.76,59.76,0,0,0-7.75,3.59l-.94.55c-.5.3-.92.62-1.39.93-.64.42-1.3.83-1.89,1.26s-1.1.84-1.63,1.27-1.12.89-1.63,1.35c-.13.11-.29.22-.41.34s-.39.43-.61.65a31.49,31.49,0,0,0-2.25,2.42c-.17.2-.39.39-.54.58s-.24.37-.37.55c-.48.64-.9,1.28-1.29,1.92-.18.28-.41.55-.56.83s-.12.28-.2.41c-.3.57-.55,1.14-.8,1.72-.15.34-.35.68-.48,1a3.57,3.57,0,0,0-.1.35c-.2.54-.33,1.09-.48,1.65-.1.38-.25.76-.32,1.14,0,.1,0,.2,0,.3a17.75,17.75,0,0,0-.2,1.77c0,.38-.12.76-.13,1.15,0,.16,0,.33,0,.49l-.07,23.47c0-.55.09-1.09.14-1.64s.1-1.18.2-1.76.24-1,.37-1.45.28-1.11.47-1.65.38-.92.58-1.38.5-1.15.81-1.71.49-.84.75-1.25c.4-.64.82-1.29,1.29-1.92.29-.37.6-.75.91-1.12a28.31,28.31,0,0,1,2.26-2.43c.34-.33.65-.67,1-1,.51-.46,1.08-.9,1.64-1.35s1-.85,1.62-1.27,1.25-.85,1.9-1.26,1.5-1,2.32-1.48a59.28,59.28,0,0,1,7.76-3.59c.63-.25,1.27-.5,1.92-.73,1.67-.59,3.43-1,5.18-1.52s3.48-1,5.3-1.31c2.73-.55,5.49-1,8.32-1.34l.26,0c3.24-.32,6.54-.44,9.84-.44h1.24q4.74.08,9.44.62c.45,0,.9.09,1.35.15a87.83,87.83,0,0,1,9,1.61l1.79.44a79.3,79.3,0,0,1,7.92,2.45c.38.14.78.25,1.16.39a63.76,63.76,0,0,1,8.65,4.11l.41.24a42,42,0,0,1,10,8c4.28,4.78,6.41,10,6.39,15.26l.07-23.48C216.84,1105.33,211.38,1096.9,200.42,1090.43Z"/><path class="cls-1" d="M.68,1115.08l-.07,23.47A78,78,0,0,0,0,1128.41a7.09,7.09,0,0,1,0-.79l.07-23.47a6.91,6.91,0,0,0,0,.78A80,80,0,0,1,.68,1115.08Z"/><g class="cls-48"><path class="cls-1" d="M.68,1115.08l-.07,23.47A78,78,0,0,0,0,1128.41a7.09,7.09,0,0,1,0-.79l.07-23.47a6.91,6.91,0,0,0,0,.78,80,80,0,0,1,.57,10.15"/></g><path class="cls-1" d="M321.43,1121.73l-.07,23.47c0,3.15-2.67,5.08-7.59,6.31q-15.13,3.79-30.32,7.5c-6.26,1.51-9.76,4.79-9.77,8.41l.06-23.47c0-3.62,3.52-6.9,9.78-8.42,10.13-2.44,20.22-5,30.31-7.49C318.75,1126.81,321.42,1124.88,321.43,1121.73Z"/><g class="cls-49"><path class="cls-45" d="M321.43,1121.87a5.68,5.68,0,0,1-.09.84,4.33,4.33,0,0,1-.21.7,3.6,3.6,0,0,1-.29.63,4.65,4.65,0,0,1-.41.61,7.22,7.22,0,0,1-.6.65,7.89,7.89,0,0,1-1.27.94,15.42,15.42,0,0,1-3.06,1.33c-.52.17-1.08.32-1.67.47-10.09,2.52-20.18,5-30.31,7.49-.62.15-1.21.32-1.77.5a17.89,17.89,0,0,0-3.73,1.66,12,12,0,0,0-1.91,1.42,8.38,8.38,0,0,0-1,1,8.73,8.73,0,0,0-.62.92,9.08,9.08,0,0,0-.42.9,6.1,6.1,0,0,0-.26.9,6,6,0,0,0-.1.94s0,.1,0,.15l-.06,23.47v-.14a4.83,4.83,0,0,1,.11-.94,5,5,0,0,1,.26-.91,5.53,5.53,0,0,1,.42-.89,6,6,0,0,1,.62-.93,9.17,9.17,0,0,1,1-1,11.71,11.71,0,0,1,1.91-1.42,17.8,17.8,0,0,1,3.72-1.66c.56-.18,1.15-.35,1.77-.49q15.21-3.67,30.32-7.5c.59-.14,1.14-.3,1.66-.47a14.12,14.12,0,0,0,3.06-1.33,7.47,7.47,0,0,0,1.27-.94,5.19,5.19,0,0,0,.6-.65,3.83,3.83,0,0,0,.41-.61,3.64,3.64,0,0,0,.3-.63,5.6,5.6,0,0,0,.2-.7,5.68,5.68,0,0,0,.09-.84v-.14l.07-23.47Z"/></g><path class="cls-1" d="M49.44,1143.57,49.38,1167c0-2.66-2-5.38-5.21-7.26a17.7,17.7,0,0,0-4.76-1.86q-16-3.78-31.79-7.64a16.77,16.77,0,0,1-4.26-1.59,5,5,0,0,1-2.9-4.48l.07-23.47a5,5,0,0,0,2.9,4.47,16.31,16.31,0,0,0,4.25,1.6q15.84,3.86,31.8,7.64a17.37,17.37,0,0,1,4.76,1.86C47.49,1138.18,49.45,1140.91,49.44,1143.57Z"/><g class="cls-50"><path class="cls-45" d="M44.24,1136.31a16.32,16.32,0,0,0-2.22-1.07c-.54-.21-1.11-.4-1.69-.57l-.85-.22q-16-3.78-31.8-7.64l-.86-.23c-.63-.18-1.22-.38-1.77-.59a12.23,12.23,0,0,1-1.62-.78,5,5,0,0,1-2.9-4.47l-.07,23.47a5,5,0,0,0,2.9,4.48,12.39,12.39,0,0,0,1.63.77c.54.21,1.13.41,1.76.59l.87.23q15.83,3.85,31.79,7.64l.85.22a17.86,17.86,0,0,1,1.7.58,15.58,15.58,0,0,1,2.21,1.06c3.25,1.88,5.21,4.6,5.21,7.26l.06-23.47C49.45,1140.91,47.49,1138.18,44.24,1136.31Z"/></g><path class="cls-1" d="M35.34,1191l.07-23.47c0,1.79,1.23,3.41,3.91,5,.27.15.55.31.85.46,3.11,1.62,6.14,3.3,9.12,5,3.49,2,6.91,4.09,10.61,6.34l-.07,23.47c-3.7-2.25-7.12-4.32-10.61-6.34-3-1.71-6-3.39-9.11-5-.3-.16-.59-.31-.86-.47C36.58,1194.44,35.34,1192.82,35.34,1191Z"/><path class="cls-1" d="M290.38,1170.68l-.07,23.47-28.39,16.5.07-23.47Z"/><path class="cls-1" d="M262,1187.18l-.07,23.47c-13.69-2.83-27.43-5.63-41-8.58l.07-23.47C234.56,1181.55,248.3,1184.35,262,1187.18Z"/><path class="cls-1" d="M262,1187.18l-15.51-3.2q-12.79-2.64-25.48-5.38l-.13,0c-.48-.1-1-.18-1.47-.25s-.79-.1-1.2-.14l-.16,0h-.12c-.51,0-1-.07-1.53-.08h-1.65c-.61,0-1.22.06-1.82.12l-.45.06-.76.11c-.31,0-.64.07-.94.13s-.39.11-.6.15c-.62.12-1.22.28-1.81.45-.23.06-.49.1-.72.18s-.18.09-.28.12a18,18,0,0,0-3.1,1.37l-.17.08c-.27.16-.47.35-.72.53a10.52,10.52,0,0,0-.9.67c-.05,0-.13.08-.17.12a7.62,7.62,0,0,0-.83.89l-.26.36q-6.48,9.45-13.09,18.84a7.46,7.46,0,0,1-1.48,1.49l-.39.29a9.34,9.34,0,0,1-1.61.82c-.19.08-.35.18-.55.25a13.61,13.61,0,0,1-2.58.57l-.27,0a25,25,0,0,1-3.34.15c-5.82-.12-11.66-.12-17.51-.16-4.21,0-8.43,0-12.63-.19a12,12,0,0,1-1.51-.16l-.25,0c-.43-.07-.86-.17-1.29-.28l-.3-.08a13.53,13.53,0,0,1-1.52-.5,8.94,8.94,0,0,1-1.35-.64,4,4,0,0,1-1-.77c-5.79-6.51-11-13.22-16.23-19.88a10.85,10.85,0,0,0-3.19-2.64,18.08,18.08,0,0,0-2.46-1.18c-.39-.15-.81-.27-1.22-.41l-.47-.16c-.16,0-.3-.11-.46-.15-.62-.18-1.25-.33-1.9-.47s-1.17-.22-1.76-.3l-.2,0h-.16c-.44-.06-.88-.12-1.33-.15s-1.1-.08-1.65-.09-1.1,0-1.65,0h-.17c-.51,0-1,.05-1.54.1s-1.27.15-1.89.26c-.42.08-.83.16-1.23.26-10.53,2.57-21.19,5.07-31.8,7.54a17.93,17.93,0,0,1-3,.48H68a14.19,14.19,0,0,1-2.78-.09h0a14.36,14.36,0,0,1-2.53-.61l-.3-.1a14.91,14.91,0,0,1-2.44-1.13c-3.7-2.25-7.12-4.32-10.61-6.34-3-1.71-6-3.39-9.12-5-.3-.15-.58-.31-.85-.46-2.68-1.55-3.91-3.17-3.91-5L35.34,1191c0,1.8,1.24,3.42,3.91,5,.27.16.56.31.86.47,3.11,1.61,6.14,3.29,9.11,5,3.49,2,6.91,4.09,10.61,6.34a15.92,15.92,0,0,0,2.08,1l.36.12.3.1c.21.07.41.15.62.21s.65.17,1,.24.57.11.85.15h.13l.68.08c.27,0,.54,0,.82,0h.89l.39,0h.18l.47,0c.46,0,.92-.11,1.4-.2l1.16-.24c10.62-2.48,21.27-5,31.8-7.55a23.78,23.78,0,0,1,4.67-.62h.08a28.48,28.48,0,0,1,4.71.23l.17,0a27.64,27.64,0,0,1,4.31.94l.48.16A19.52,19.52,0,0,1,121,1204a10.88,10.88,0,0,1,3.19,2.64c5.27,6.66,10.44,13.37,16.23,19.88a4.45,4.45,0,0,0,1,.78,10,10,0,0,0,1.35.63h0c.45.17.93.33,1.42.47l.11,0,.28.07.81.2.5.09.24,0,.22,0,.74.09.55,0,3,.09c3.18.08,6.37.09,9.56.1,5.86,0,11.72,0,17.55.16.54,0,1.06,0,1.55,0s1,0,1.45-.09l.34,0,.27,0,.77-.1a13,13,0,0,0,1.69-.42s.08,0,.12-.05c.2-.07.36-.17.55-.25a9.35,9.35,0,0,0,1.28-.57c.12-.07.21-.17.33-.25l.39-.29c.17-.13.35-.24.51-.38a7.67,7.67,0,0,0,.77-.84c.07-.09.14-.17.2-.26q6.62-9.39,13.09-18.85a7.67,7.67,0,0,1,1.26-1.37,10.52,10.52,0,0,1,.9-.67c.29-.2.57-.42.89-.61a18,18,0,0,1,3.1-1.37c.33-.11.67-.2,1-.3.59-.17,1.2-.32,1.82-.45s1-.2,1.53-.28l.77-.11c.83-.09,1.67-.16,2.51-.18h.36a26.56,26.56,0,0,1,2.68.09l.19,0a23.27,23.27,0,0,1,2.78.41q12.67,2.76,25.48,5.38l15.51,3.2,28.39-16.5.07-23.47Z"/><path class="cls-16" d="M121.32,1135.43c22.33,12.9,58,13.2,79.49.78s21.33-32.94-.39-45.78l-.41-.24c-22-12.74-57.51-13.13-79.08-.8-21.84,12.49-21.68,33.15.39,46M221,1178.6c-7.59-1.62-16.85.53-19.79,4.82q-6.48,9.45-13.09,18.84c-1.86,2.6-5.16,3.71-10.22,3.61-10-.2-20.12,0-30.14-.35a14.93,14.93,0,0,1-6.22-1.7,4,4,0,0,1-1-.77c-5.79-6.51-11-13.22-16.23-19.88a10.85,10.85,0,0,0-3.19-2.64c-4.65-2.69-12.06-3.76-18.09-2.31-10.53,2.57-21.19,5.07-31.8,7.54a14.54,14.54,0,0,1-11.31-1.44c-3.7-2.25-7.12-4.32-10.61-6.34-3-1.71-6-3.39-9.12-5-.3-.15-.58-.31-.85-.46-4.14-2.39-4.84-5-2.81-8.09,4-6,7.9-11.88,12-17.78,2.32-3.45.3-7.71-4.23-10.33a17.37,17.37,0,0,0-4.76-1.86q-16-3.78-31.8-7.64a16.31,16.31,0,0,1-4.25-1.6c-2.05-1.18-3-2.76-2.88-4.89a90.9,90.9,0,0,0-.44-15.39c-.41-3.66,2.06-5.85,7.45-7.21,10.05-2.55,20.09-5,30.23-7.5,8.7-2.06,12.11-7.34,8.51-12.38-5.27-7.52-10.15-15.16-15.15-22.73l28.43-16.53c13.65,2.85,27.38,5.6,41,8.55,7.5,1.62,16.94-.58,19.79-4.81,4.19-6.19,8.51-12.34,12.79-18.47,2-3,5.63-4.14,11.21-3.94,8.63.26,17.29.48,25.87.1,4.47-.19,7.62.44,10,1.81a11.51,11.51,0,0,1,3.33,3c4.7,6.08,9.39,12.16,14.13,18.22a9.33,9.33,0,0,0,2.74,2.27,26.59,26.59,0,0,0,17.5,2.37c10.35-2.52,20.7-5.05,31.09-7.5,4.95-1.17,9.1-.79,13,1.46,3.5,2.2,6.55,4,9.66,5.83,3.35,1.94,6.79,3.84,10.26,5.68,4.16,2.4,5.21,4.64,3.35,7.47-4.19,6.33-8.34,12.64-12.52,19-2,3.08.3,7.45,4.67,10a15,15,0,0,0,4.06,1.61c10.6,2.55,21.2,5.15,31.84,7.67a17.59,17.59,0,0,1,4.6,1.69,5.46,5.46,0,0,1,3.1,5.43,82.19,82.19,0,0,0,.39,15c.5,3.65-2.19,5.82-7.54,7.16-10.09,2.52-20.18,5-30.31,7.49-8.53,2.07-11.94,7.4-8.38,12.42,5.31,7.49,10.19,15.13,15.24,22.73L262,1187.18C248.3,1184.35,234.56,1181.55,221,1178.6Z"/><path class="cls-1" d="M351.11,1269.2l0,14.35a2.79,2.79,0,0,1-.54,1.54l-7.66,11.6a2.7,2.7,0,0,0-.45,1.52l0-14.35a2.78,2.78,0,0,1,.45-1.52l7.66-11.6A2.82,2.82,0,0,0,351.11,1269.2Z"/><g class="cls-51"><path class="cls-1" d="M351.11,1269.2l0,14.35v0l0-14.35v0"/><path class="cls-1" d="M351.11,1269.25l0,14.35a2.2,2.2,0,0,1,0,.36l0-14.35a2.2,2.2,0,0,0,0-.36"/><path class="cls-1" d="M351.07,1269.61l0,14.35a2.85,2.85,0,0,1-.11.39l0-14.35a2.85,2.85,0,0,0,.11-.39"/><path class="cls-1" d="M351,1270l0,14.35a3.49,3.49,0,0,1-.23.48l0-14.35a4.15,4.15,0,0,0,.23-.48"/><path class="cls-45" d="M350.73,1270.48l0,14.35-.16.26-7.66,11.6-.1.17,0-14.36.1-.16,7.66-11.6.16-.26"/><path class="cls-1" d="M342.81,1282.5l0,14.36a2.64,2.64,0,0,0-.18.38l0-14.35a3.39,3.39,0,0,1,.18-.39"/><path class="cls-1" d="M342.63,1282.89l0,14.35a3.31,3.31,0,0,0-.12.42l0-14.36a2.77,2.77,0,0,1,.12-.41"/><path class="cls-1" d="M342.51,1283.3l0,14.36a3.56,3.56,0,0,0-.05.47l0-14.35a3.91,3.91,0,0,1,.05-.48"/><path class="cls-1" d="M342.46,1283.78l0,14.35v.08l0-14.35v-.08"/></g><path class="cls-1" d="M205.34,1283.75l0,14.35a4.24,4.24,0,0,0-.87-2.46c-3.22-4.59-6.21-9.27-9.27-13.9l0-14.35c3.07,4.63,6.05,9.3,9.27,13.9A4.22,4.22,0,0,1,205.34,1283.75Z"/><g class="cls-52"><path class="cls-45" d="M205.34,1283.75l0,14.35a4.24,4.24,0,0,0-.87-2.46c-3.22-4.59-6.21-9.27-9.27-13.9l0-14.35c3.07,4.63,6.05,9.3,9.27,13.9a4.22,4.22,0,0,1,.87,2.46"/></g><path class="cls-1" d="M372.44,1298.18l0,14.36a2.44,2.44,0,0,1,0,.27c-.07,1.06-.1,2.11-.1,3.17l0-14.35c0-1.06,0-2.11.1-3.17A2.62,2.62,0,0,0,372.44,1298.18Z"/><g class="cls-53"><path class="cls-1" d="M372.44,1298.18l0,14.36v.11l0-14.36v-.11"/><path class="cls-1" d="M372.44,1298.29l0,14.36a.86.86,0,0,1,0,.16c0,.61-.06,1.21-.08,1.82l0-14.36c0-.6,0-1.21.08-1.81a1,1,0,0,0,0-.17"/><path class="cls-1" d="M372.35,1300.27l0,14.36c0,.45,0,.9,0,1.35l0-14.35c0-.46,0-.91,0-1.36"/></g><path class="cls-1" d="M298.71,1289l-.25-.15a38.09,38.09,0,0,0-5.1-2.44l-.19-.07c-.23-.09-.47-.15-.7-.23-1.11-.42-2.24-.82-3.41-1.15-.47-.14-1-.24-1.44-.36l-1.09-.27c-.39-.09-.77-.2-1.17-.28-1.15-.24-2.32-.44-3.49-.61-.27,0-.55-.06-.82-.09l-.83-.09c-.58-.07-1.16-.15-1.75-.2-1.14-.09-2.28-.16-3.43-.18H273.7c-.73,0-1.45,0-2.18,0-1.27,0-2.54.13-3.8.26h0l-.17,0c-1.39.15-2.76.33-4.11.58-.34.06-.64.17-1,.24-1.1.22-2.16.51-3.23.8-.67.19-1.39.3-2.05.51-.38.13-.74.29-1.12.42l-1.17.45a35.57,35.57,0,0,0-4.75,2.2l-.57.33c-.3.19-.56.38-.85.57s-.79.51-1.16.77-.67.52-1,.78-.69.54-1,.82c-.08.07-.18.14-.25.21s-.24.27-.37.4a18.93,18.93,0,0,0-1.38,1.48c-.1.12-.24.23-.33.36s-.15.22-.23.33c-.29.39-.54.78-.79,1.17-.1.18-.24.34-.34.51s-.07.17-.12.25c-.18.35-.34.7-.49,1.05s-.21.42-.29.63a1.66,1.66,0,0,0-.06.21,10.32,10.32,0,0,0-.29,1,6.77,6.77,0,0,0-.2.7c0,.07,0,.13,0,.19-.06.36-.09.72-.12,1.08s-.07.47-.08.7v.3l0,14.36c0-.34.06-.67.09-1s.06-.72.12-1.08.15-.59.22-.88.18-.68.3-1,.23-.57.35-.85a10.9,10.9,0,0,1,.49-1c.14-.26.31-.51.46-.77s.5-.78.79-1.17c.18-.23.37-.46.56-.68a17.4,17.4,0,0,1,1.38-1.49c.21-.2.4-.41.62-.61s.66-.55,1-.82.64-.52,1-.78.77-.51,1.16-.77.92-.61,1.42-.9a37.36,37.36,0,0,1,4.74-2.2l1.18-.44c1-.36,2.1-.64,3.17-.93s2.13-.59,3.24-.81c1.67-.33,3.35-.64,5.09-.81l.15,0c2-.2,4-.27,6-.27h.76c1.93,0,3.86.16,5.77.38l.83.09a54.36,54.36,0,0,1,5.47,1l1.1.26a48.73,48.73,0,0,1,4.84,1.51c.24.08.48.15.71.24a36.78,36.78,0,0,1,5.29,2.51,2,2,0,0,1,.25.14,26,26,0,0,1,6.12,4.89,13.94,13.94,0,0,1,3.91,9.33l0-14.35C308.75,1298.1,305.41,1293,298.71,1289Z"/><path class="cls-1" d="M176.57,1304.06l0,14.36a47.69,47.69,0,0,0-.35-6.21c0-.16,0-.32,0-.47l0-14.36a3.87,3.87,0,0,0,0,.48A49.45,49.45,0,0,1,176.57,1304.06Z"/><g class="cls-54"><path class="cls-1" d="M176.57,1304.06l0,14.36a47.69,47.69,0,0,0-.35-6.21c0-.16,0-.32,0-.47l0-14.36a3.87,3.87,0,0,0,0,.48,49.45,49.45,0,0,1,.34,6.2"/></g><path class="cls-1" d="M372.71,1308.13l0,14.35c0,1.93-1.64,3.11-4.65,3.86-6.17,1.55-12.34,3.09-18.54,4.58-3.83.93-6,2.94-6,5.15l0-14.35c0-2.22,2.15-4.22,6-5.15,6.2-1.49,12.37-3,18.54-4.58C371.07,1311.24,372.7,1310.06,372.71,1308.13Z"/><g class="cls-55"><path class="cls-45" d="M372.71,1308.22a4.43,4.43,0,0,1-.06.51,3,3,0,0,1-.12.43,2.64,2.64,0,0,1-.18.38c-.08.13-.16.26-.25.38a4.51,4.51,0,0,1-.37.39,4.79,4.79,0,0,1-.78.58,8.6,8.6,0,0,1-1.87.81c-.32.1-.66.2-1,.29-6.17,1.54-12.34,3.09-18.54,4.58-.37.09-.73.19-1.08.31a10.94,10.94,0,0,0-2.28,1,7.16,7.16,0,0,0-1.16.87,5,5,0,0,0-.59.63,4,4,0,0,0-.38.56,4.55,4.55,0,0,0-.26.55,3.21,3.21,0,0,0-.22,1.13v.09l0,14.35V1336a3.68,3.68,0,0,1,.06-.57,3.92,3.92,0,0,1,.16-.56,4.43,4.43,0,0,1,.26-.54,4,4,0,0,1,.38-.57,5,5,0,0,1,.59-.63,7.16,7.16,0,0,1,1.16-.87,10.94,10.94,0,0,1,2.28-1l1.08-.31c6.2-1.49,12.37-3,18.54-4.58.36-.09.7-.18,1-.29a8.6,8.6,0,0,0,1.87-.81,5.42,5.42,0,0,0,.78-.57,4.61,4.61,0,0,0,.37-.4c.09-.12.17-.25.25-.37a3.39,3.39,0,0,0,.18-.39,3,3,0,0,0,.12-.43,2.76,2.76,0,0,0,.05-.51.28.28,0,0,0,0-.09l0-14.35Z"/></g><path class="cls-1" d="M206.39,1321.49l0,14.35c0-1.63-1.19-3.29-3.18-4.44a10.71,10.71,0,0,0-2.91-1.14q-9.76-2.31-19.45-4.67a9.83,9.83,0,0,1-2.6-1,3,3,0,0,1-1.77-2.73l0-14.36a3,3,0,0,0,1.77,2.74,10.14,10.14,0,0,0,2.61,1q9.67,2.37,19.44,4.68a10.71,10.71,0,0,1,2.91,1.14C205.2,1318.19,206.4,1319.86,206.39,1321.49Z"/><g class="cls-56"><path class="cls-45" d="M203.21,1317.05a10.09,10.09,0,0,0-1.36-.66c-.33-.13-.67-.24-1-.35l-.52-.13q-9.77-2.31-19.44-4.68c-.19,0-.36-.09-.53-.14a11.38,11.38,0,0,1-1.08-.36,7.15,7.15,0,0,1-1-.47,3,3,0,0,1-1.77-2.74l0,14.36a3,3,0,0,0,1.77,2.73,7.16,7.16,0,0,0,1,.48,11.38,11.38,0,0,0,1.08.36l.52.14q9.69,2.36,19.45,4.67l.52.14a10.37,10.37,0,0,1,1,.35,10.07,10.07,0,0,1,1.36.65c2,1.15,3.18,2.81,3.18,4.44l0-14.36C206.4,1319.86,205.2,1318.19,203.21,1317.05Z"/></g><path class="cls-1" d="M197.77,1350.5l0-14.35c0,1.1.75,2.09,2.39,3,.16.1.34.19.52.29,1.91,1,3.76,2,5.58,3.06,2.13,1.23,4.22,2.5,6.48,3.87l0,14.35c-2.26-1.37-4.35-2.64-6.48-3.87-1.82-1.05-3.68-2.08-5.58-3.06-.18-.1-.36-.19-.52-.29C198.52,1352.59,197.77,1351.6,197.77,1350.5Z"/><path class="cls-1" d="M353.72,1338.06l0,14.35-17.36,10.09,0-14.35Z"/><path class="cls-1" d="M336.36,1348.15l0,14.35c-8.37-1.73-16.77-3.44-25.07-5.24l0-14.36C319.59,1344.71,328,1346.42,336.36,1348.15Z"/><path class="cls-1" d="M336.36,1348.15l-9.48-2q-7.83-1.61-15.59-3.29h-.07l-.9-.16-.73-.08h-.18l-.94-.05h-1c-.38,0-.75,0-1.12.07l-.27,0-.46.06-.58.08c-.13,0-.24.07-.37.09-.38.08-.74.18-1.1.28-.15,0-.3.06-.44.11a1.42,1.42,0,0,0-.18.08,10.56,10.56,0,0,0-1.89.83l-.1,0a5,5,0,0,0-.44.33c-.19.13-.39.26-.56.4l-.1.08a5.12,5.12,0,0,0-.51.54c-.05.08-.11.15-.16.22q-4,5.79-8,11.53a4.31,4.31,0,0,1-.91.9,2.15,2.15,0,0,1-.24.18,4.75,4.75,0,0,1-1,.5,3.49,3.49,0,0,1-.34.15,8.63,8.63,0,0,1-1.57.36l-.17,0a14.52,14.52,0,0,1-2,.09c-3.56-.07-7.13-.08-10.7-.1-2.58,0-5.16,0-7.73-.11a7.82,7.82,0,0,1-.92-.1l-.15,0c-.27,0-.53-.11-.8-.18l-.18,0a8.45,8.45,0,0,1-.93-.31,6.43,6.43,0,0,1-.83-.39,2.47,2.47,0,0,1-.62-.48c-3.54-4-6.7-8.08-9.92-12.15a6.91,6.91,0,0,0-1.95-1.62,12.23,12.23,0,0,0-1.5-.71c-.24-.1-.5-.17-.75-.26l-.29-.09-.28-.1c-.38-.11-.77-.2-1.16-.28s-.72-.14-1.08-.19h-.22l-.81-.09c-.34,0-.67,0-1-.06s-.67,0-1,0H242c-.32,0-.63,0-.94.06s-.78.1-1.16.17-.51.09-.76.15c-6.43,1.58-12.95,3.1-19.44,4.62a11.59,11.59,0,0,1-1.85.29h-.11a8.67,8.67,0,0,1-1.7,0h0a8.78,8.78,0,0,1-1.55-.38l-.18-.06a9.18,9.18,0,0,1-1.5-.69c-2.26-1.37-4.35-2.64-6.48-3.87-1.82-1-3.67-2.08-5.58-3.06-.18-.1-.36-.19-.52-.29-1.64-.94-2.39-1.93-2.39-3l0,14.35c0,1.1.75,2.09,2.39,3,.16.1.34.19.52.29,1.9,1,3.76,2,5.58,3.06,2.13,1.23,4.22,2.5,6.48,3.87a9.91,9.91,0,0,0,1.27.62l.23.08.18.06.38.13.6.14a4.34,4.34,0,0,0,.52.09H216l.41,0,.5,0h.9l.28,0,.86-.12.71-.15c6.49-1.51,13-3,19.44-4.61a14.93,14.93,0,0,1,2.86-.39h0a18.47,18.47,0,0,1,2.88.14h.1a15.85,15.85,0,0,1,2.64.58l.29.1a12.11,12.11,0,0,1,2.25,1,6.72,6.72,0,0,1,2,1.61c3.22,4.07,6.38,8.18,9.92,12.16a2.5,2.5,0,0,0,.62.47,6.43,6.43,0,0,0,.83.39h0q.42.17.87.3h.06l.17,0,.5.13.31,0,.14,0,.14,0,.45,0,.34,0,1.85,0c1.95,0,3.9.06,5.84.07,3.59,0,7.17,0,10.74.09h1c.31,0,.6,0,.88-.06l.21,0,.17,0,.46-.07a7.54,7.54,0,0,0,1-.25l.07,0c.13,0,.22-.11.34-.15a5.57,5.57,0,0,0,.78-.35l.2-.16a2.07,2.07,0,0,0,.24-.17,3.65,3.65,0,0,0,.31-.24,3.9,3.9,0,0,0,.48-.51l.12-.16q4-5.74,8-11.53a5,5,0,0,1,.77-.83,5.61,5.61,0,0,1,.55-.41,5.28,5.28,0,0,1,.55-.37,9.91,9.91,0,0,1,1.89-.84l.62-.19c.36-.1.73-.2,1.11-.27a9,9,0,0,1,.93-.17l.47-.07c.51-.06,1-.1,1.54-.11h.22a14.9,14.9,0,0,1,1.64,0h.11a15.45,15.45,0,0,1,1.7.26q7.75,1.68,15.59,3.29l9.48,2,17.36-10.09,0-14.35Z"/><path class="cls-16" d="M250.34,1316.51c13.66,7.88,35.44,8.07,48.61.48s13-20.15-.24-28l-.25-.15c-13.48-7.78-35.16-8-48.36-.48s-13.25,20.27.24,28.15m61,26.39c-4.64-1-10.3.33-12.1,2.95q-4,5.79-8,11.53c-1.14,1.58-3.16,2.26-6.25,2.2-6.12-.12-12.3,0-18.43-.21a9.38,9.38,0,0,1-3.81-1,2.47,2.47,0,0,1-.62-.48c-3.54-4-6.7-8.08-9.92-12.15a6.91,6.91,0,0,0-1.95-1.62,16.33,16.33,0,0,0-11.07-1.41c-6.43,1.58-12.95,3.1-19.44,4.62a8.93,8.93,0,0,1-6.92-.89c-2.26-1.37-4.35-2.64-6.48-3.87-1.82-1-3.67-2.08-5.58-3.06-.18-.1-.36-.19-.52-.29-2.53-1.46-3-3-1.72-4.94,2.43-3.65,4.84-7.27,7.32-10.88,1.42-2.11.18-4.71-2.59-6.31a10.71,10.71,0,0,0-2.91-1.14q-9.77-2.31-19.44-4.68a10.14,10.14,0,0,1-2.61-1,3,3,0,0,1-1.76-3,55.77,55.77,0,0,0-.26-9.41c-.26-2.24,1.25-3.58,4.55-4.41,6.14-1.56,12.29-3.09,18.49-4.58,5.31-1.27,7.4-4.49,5.2-7.58-3.22-4.6-6.2-9.27-9.27-13.9l17.39-10.1c8.35,1.74,16.74,3.42,25,5.23,4.58,1,10.36-.36,12.1-3,2.56-3.78,5.2-7.54,7.82-11.29,1.24-1.81,3.45-2.53,6.86-2.41,5.27.16,10.57.29,15.82.06a11,11,0,0,1,6.1,1.11,6.93,6.93,0,0,1,2,1.81q4.31,5.58,8.64,11.14a5.34,5.34,0,0,0,1.67,1.38,16.21,16.21,0,0,0,10.7,1.46q9.5-2.32,19-4.59a10.29,10.29,0,0,1,7.94.89c2.14,1.35,4,2.47,5.91,3.57s4.15,2.34,6.27,3.47c2.55,1.47,3.19,2.84,2.05,4.57l-7.66,11.6c-1.24,1.88.19,4.55,2.86,6.1a9.37,9.37,0,0,0,2.48,1c6.48,1.56,13,3.15,19.47,4.69a11,11,0,0,1,2.81,1,3.33,3.33,0,0,1,1.9,3.32,50.85,50.85,0,0,0,.24,9.15c.31,2.24-1.34,3.56-4.61,4.38-6.17,1.54-12.34,3.09-18.54,4.58-5.21,1.27-7.29,4.52-5.12,7.59,3.25,4.58,6.23,9.26,9.32,13.9l-17.36,10.09C328,1346.42,319.59,1344.71,311.29,1342.9Z"/><path class="cls-1" d="M545.35,1153.26l0,14.77a3,3,0,0,1-.55,1.58c-2.64,4-5.25,8-7.88,11.94a2.77,2.77,0,0,0-.47,1.56l0-14.77a2.77,2.77,0,0,1,.47-1.56c2.63-4,5.24-8,7.88-11.93A2.88,2.88,0,0,0,545.35,1153.26Z"/><g class="cls-57"><path class="cls-1" d="M545.35,1153.26l0,14.77v0l0-14.76v-.06"/><path class="cls-1" d="M545.35,1153.32l0,14.76a2.33,2.33,0,0,1,0,.37l0-14.77a1.47,1.47,0,0,0,0-.36"/><path class="cls-1" d="M545.31,1153.68l0,14.77a3.71,3.71,0,0,1-.12.41l0-14.77a3.17,3.17,0,0,0,.12-.41"/><path class="cls-1" d="M545.19,1154.09l0,14.77a3.49,3.49,0,0,1-.23.48l0-14.76a3.06,3.06,0,0,0,.23-.49"/><path class="cls-45" d="M545,1154.58l0,14.76-.16.27c-2.64,4-5.25,8-7.88,11.94a1.63,1.63,0,0,0-.11.17l0-14.77s.07-.11.11-.17c2.63-4,5.24-8,7.88-11.93.06-.09.11-.18.16-.27"/><path class="cls-1" d="M536.81,1167l0,14.77a3.39,3.39,0,0,0-.18.39l0-14.76a2.87,2.87,0,0,1,.18-.4"/><path class="cls-1" d="M536.63,1167.35l0,14.76a3.45,3.45,0,0,0-.12.43l0-14.76a3,3,0,0,1,.12-.43"/><path class="cls-1" d="M536.51,1167.78l0,14.76a2.73,2.73,0,0,0-.06.49l0-14.76a3.86,3.86,0,0,1,.06-.49"/><path class="cls-1" d="M536.45,1168.27l0,14.76v.08l0-14.77v-.07"/></g><path class="cls-1" d="M395.38,1168.23l0,14.77a4.38,4.38,0,0,0-.89-2.53c-3.32-4.73-6.39-9.54-9.54-14.3l0-14.76c3.15,4.76,6.22,9.57,9.54,14.29A4.4,4.4,0,0,1,395.38,1168.23Z"/><g class="cls-58"><path class="cls-45" d="M395.38,1168.23l0,14.77a4.38,4.38,0,0,0-.89-2.53c-3.32-4.73-6.39-9.54-9.54-14.3l0-14.76c3.15,4.76,6.22,9.57,9.54,14.29a4.4,4.4,0,0,1,.89,2.53"/></g><path class="cls-1" d="M567.3,1183.08l0,14.77c0,.09,0,.19,0,.29-.07,1.08-.11,2.17-.11,3.25l0-14.77c0-1.08,0-2.17.11-3.25C567.29,1183.27,567.3,1183.18,567.3,1183.08Z"/><g class="cls-59"><path class="cls-1" d="M567.3,1183.08l0,14.77a.37.37,0,0,1,0,.11l0-14.76v-.12"/><path class="cls-1" d="M567.3,1183.2l0,14.76v.18q-.06.93-.09,1.86l0-14.77q0-.93.09-1.86a.91.91,0,0,1,0-.17"/><path class="cls-1" d="M567.2,1185.23l0,14.77c0,.46,0,.93,0,1.39l0-14.77c0-.46,0-.92,0-1.39"/></g><path class="cls-1" d="M491.45,1173.62l-.26-.15a40.35,40.35,0,0,0-5.25-2.51l-.2-.07c-.23-.09-.48-.15-.72-.24-1.14-.43-2.3-.84-3.5-1.19-.49-.13-1-.23-1.49-.36l-1.12-.28c-.4-.09-.79-.21-1.2-.29-1.18-.24-2.38-.45-3.6-.62l-.84-.1c-.28,0-.56-.06-.85-.09-.6-.07-1.2-.16-1.8-.21-1.17-.09-2.35-.16-3.52-.18h-1.39c-.75,0-1.49,0-2.24,0-1.31.05-2.62.13-3.91.26h0l-.18,0c-1.43.15-2.84.34-4.22.59-.35.06-.67.18-1,.25-1.14.23-2.23.53-3.33.83-.69.19-1.43.3-2.1.52-.4.13-.76.3-1.15.44s-.81.29-1.22.45a38.12,38.12,0,0,0-4.87,2.26l-.59.35c-.32.19-.58.39-.88.58s-.81.53-1.19.8-.69.53-1,.8-.71.55-1,.84c-.08.08-.18.14-.26.22s-.24.27-.38.41a18.28,18.28,0,0,0-1.42,1.52c-.1.13-.24.24-.34.37s-.15.23-.23.34c-.3.4-.56.8-.81,1.21-.11.18-.26.35-.36.52a2.06,2.06,0,0,1-.12.26c-.19.36-.34.72-.5,1.08s-.22.43-.31.65c0,.07,0,.14-.06.22-.12.34-.2.69-.3,1s-.15.48-.2.72a1.36,1.36,0,0,0,0,.2,10.19,10.19,0,0,0-.13,1.11c0,.24-.08.48-.08.72s0,.21,0,.31l0,14.76c0-.34.06-.68.09-1s.06-.74.12-1.11.15-.6.23-.91.18-.69.3-1,.24-.58.37-.87a11.5,11.5,0,0,1,.5-1.07c.14-.27.31-.53.48-.79s.51-.8.81-1.2c.18-.24.37-.47.57-.71a20.11,20.11,0,0,1,1.42-1.53c.21-.21.41-.42.64-.62s.68-.57,1-.85.66-.54,1-.8.79-.53,1.19-.79.95-.63,1.46-.93a35.7,35.7,0,0,1,4.88-2.26l1.21-.46c1-.37,2.16-.65,3.26-1s2.19-.59,3.33-.82a53,53,0,0,1,5.24-.84l.16,0a60.65,60.65,0,0,1,6.19-.27h.78c2,0,4,.17,5.94.39l.85.1a54.74,54.74,0,0,1,5.63,1l1.13.28a48.9,48.9,0,0,1,5,1.54c.24.09.5.16.73.25a40.18,40.18,0,0,1,5.45,2.58l.25.15a26.41,26.41,0,0,1,6.3,5,14.36,14.36,0,0,1,4,9.6l0-14.76C501.78,1183,498.34,1177.7,491.45,1173.62Z"/><path class="cls-1" d="M365.79,1189.13l-.05,14.77a50.22,50.22,0,0,0-.35-6.38,4.29,4.29,0,0,1,0-.49l0-14.77a4.15,4.15,0,0,0,0,.49A52.37,52.37,0,0,1,365.79,1189.13Z"/><g class="cls-60"><path class="cls-1" d="M365.79,1189.13l-.05,14.77a50.22,50.22,0,0,0-.35-6.38,4.29,4.29,0,0,1,0-.49l0-14.77a4.15,4.15,0,0,0,0,.49,52.37,52.37,0,0,1,.36,6.38"/></g><path class="cls-1" d="M567.57,1193.32l0,14.76c0,2-1.69,3.2-4.78,4-6.35,1.59-12.7,3.18-19.07,4.72-3.94,1-6.14,3-6.15,5.29l0-14.76c0-2.28,2.21-4.34,6.15-5.3,6.38-1.54,12.72-3.13,19.07-4.71C565.89,1196.51,567.56,1195.3,567.57,1193.32Z"/><g class="cls-61"><path class="cls-45" d="M567.57,1193.41a4.35,4.35,0,0,1-.06.52,2.23,2.23,0,0,1-.13.44,2.87,2.87,0,0,1-.18.4,3.19,3.19,0,0,1-.26.38,2.93,2.93,0,0,1-.38.41,4.92,4.92,0,0,1-.79.59,9.4,9.4,0,0,1-1.93.84q-.5.16-1.05.3c-6.35,1.58-12.69,3.17-19.07,4.71-.39.1-.76.2-1.11.32a10.87,10.87,0,0,0-2.35,1,8.12,8.12,0,0,0-1.2.89,6,6,0,0,0-.6.65,4.21,4.21,0,0,0-.39.58,3.29,3.29,0,0,0-.27.57,3.58,3.58,0,0,0-.16.56,4.12,4.12,0,0,0-.07.59v.09l0,14.77V1222a3.81,3.81,0,0,1,.07-.59,3.76,3.76,0,0,1,.42-1.13,5.45,5.45,0,0,1,.4-.58,4.53,4.53,0,0,1,.6-.65,7.05,7.05,0,0,1,1.2-.89,10.87,10.87,0,0,1,2.35-1.05c.35-.11.72-.22,1.11-.31,6.37-1.54,12.72-3.13,19.07-4.72.37-.09.72-.19,1-.29a9.06,9.06,0,0,0,1.92-.84,4.61,4.61,0,0,0,.8-.59,3.62,3.62,0,0,0,.38-.41,3.19,3.19,0,0,0,.26-.38,2.87,2.87,0,0,0,.18-.4,2.23,2.23,0,0,0,.13-.44,4.52,4.52,0,0,0,.06-.53v-.09l0-14.76Z"/></g><path class="cls-1" d="M396.46,1207.06l0,14.76c0-1.67-1.23-3.38-3.27-4.57a11.1,11.1,0,0,0-3-1.16q-10-2.38-20-4.81a10.69,10.69,0,0,1-2.68-1,3.16,3.16,0,0,1-1.82-2.82l0-14.77a3.14,3.14,0,0,0,1.83,2.82,10.6,10.6,0,0,0,2.67,1q10,2.43,20,4.81a11.11,11.11,0,0,1,3,1.17C395.24,1203.67,396.47,1205.38,396.46,1207.06Z"/><g class="cls-62"><path class="cls-45" d="M393.19,1202.49a10.53,10.53,0,0,0-1.39-.67,9,9,0,0,0-1.07-.36l-.54-.14q-10-2.38-20-4.81l-.54-.14c-.4-.12-.77-.24-1.11-.37a6.92,6.92,0,0,1-1-.49,3.14,3.14,0,0,1-1.83-2.82l0,14.77a3.16,3.16,0,0,0,1.82,2.82,9,9,0,0,0,1,.48,9.62,9.62,0,0,0,1.11.37l.54.15q10,2.43,20,4.81l.54.13a11,11,0,0,1,1.06.37,10.65,10.65,0,0,1,1.4.66c2,1.19,3.28,2.9,3.27,4.57l0-14.76C396.47,1205.38,395.24,1203.67,393.19,1202.49Z"/></g><path class="cls-1" d="M387.6,1236.91l0-14.77c0,1.13.77,2.15,2.45,3.12.17.1.35.2.54.29,2,1,3.87,2.08,5.74,3.16,2.19,1.27,4.34,2.56,6.67,4l0,14.77c-2.33-1.42-4.48-2.72-6.68-4-1.87-1.08-3.77-2.13-5.73-3.15l-.54-.29C388.37,1239.06,387.59,1238,387.6,1236.91Z"/><path class="cls-1" d="M548,1224.11l0,14.77-17.86,10.38,0-14.77Z"/><path class="cls-1" d="M530.18,1234.49l0,14.77c-8.61-1.78-17.25-3.54-25.78-5.4l0-14.77C512.92,1231,521.56,1232.71,530.18,1234.49Z"/><path class="cls-1" d="M530.18,1234.49l-9.76-2c-5.36-1.11-10.72-2.23-16-3.39h-.08a9.3,9.3,0,0,0-.92-.16c-.25,0-.51-.06-.76-.09h-.18l-1,0h-1c-.38,0-.77,0-1.14.07l-.29,0-.47.07-.6.08c-.13,0-.24.07-.37.09-.39.08-.77.18-1.14.29-.15,0-.31.06-.45.11s-.12.06-.18.08a11.25,11.25,0,0,0-1.95.86l-.11,0c-.17.1-.29.22-.45.33a6.47,6.47,0,0,0-.57.42l-.11.08a6.77,6.77,0,0,0-.52.56l-.16.23q-4.08,5.94-8.24,11.85a4.87,4.87,0,0,1-.93.94l-.24.18a5.11,5.11,0,0,1-1,.51,2.68,2.68,0,0,1-.34.16,9.21,9.21,0,0,1-1.62.36l-.17,0a15.48,15.48,0,0,1-2.1.09c-3.66-.07-7.34-.08-11-.1-2.65,0-5.3,0-7.94-.12a8.08,8.08,0,0,1-.95-.1l-.16,0a7.78,7.78,0,0,1-.81-.17l-.19,0c-.33-.09-.66-.2-1-.31a6.73,6.73,0,0,1-.85-.41,2.44,2.44,0,0,1-.64-.49c-3.64-4.09-6.9-8.31-10.21-12.5a6.71,6.71,0,0,0-2-1.66,11,11,0,0,0-1.54-.74c-.25-.1-.51-.18-.77-.26l-.3-.1-.29-.1c-.39-.11-.78-.21-1.19-.29s-.74-.14-1.11-.19l-.12,0h-.1l-.84-.09c-.35,0-.69,0-1-.06s-.69,0-1,0h-.1c-.33,0-.65,0-1,.07s-.8.09-1.19.16-.52.1-.78.17c-6.62,1.61-13.32,3.19-20,4.74a11.26,11.26,0,0,1-1.91.3h-.11a9.17,9.17,0,0,1-1.75-.06h0a8.69,8.69,0,0,1-1.6-.39l-.18-.06a9.29,9.29,0,0,1-1.54-.71c-2.33-1.42-4.48-2.71-6.67-4-1.87-1.08-3.78-2.14-5.74-3.16-.19-.09-.37-.19-.54-.29-1.68-1-2.46-2-2.45-3.12l0,14.77c0,1.13.77,2.15,2.45,3.12l.54.29c2,1,3.86,2.07,5.73,3.15,2.2,1.27,4.35,2.57,6.68,4a9.83,9.83,0,0,0,1.31.63l.23.08.18.06a2.67,2.67,0,0,0,.4.13l.61.16.54.09h.08l.42.05.52,0h.56l.25,0h.11l.29,0c.29,0,.58-.07.88-.13l.74-.15c6.67-1.56,13.38-3.13,20-4.75a15.66,15.66,0,0,1,2.93-.39h.06a17.17,17.17,0,0,1,3,.14h.11a16.7,16.7,0,0,1,2.71.6l.3.1a12.17,12.17,0,0,1,2.31,1,7,7,0,0,1,2,1.66c3.31,4.19,6.57,8.41,10.21,12.51a2.49,2.49,0,0,0,.64.49,6.14,6.14,0,0,0,.85.4h0c.28.11.58.21.89.3l.07,0,.17,0,.52.13.31.05.15,0,.14,0,.47,0,.34,0c.64,0,1.27,0,1.91.06,2,.05,4,.06,6,.07,3.69,0,7.37,0,11.05.1h1c.32,0,.62,0,.91-.06l.21,0,.18,0,.48-.07a7.83,7.83,0,0,0,1.06-.26s.05,0,.08,0l.34-.16a5,5,0,0,0,.81-.36c.07,0,.13-.11.21-.16l.24-.18c.1-.08.22-.15.32-.24a4.1,4.1,0,0,0,.49-.53l.12-.16q4.15-5.91,8.24-11.86a4.53,4.53,0,0,1,.79-.86,6.47,6.47,0,0,1,.57-.42,6.08,6.08,0,0,1,.56-.38,10.93,10.93,0,0,1,1.95-.87l.63-.19c.37-.1.75-.2,1.14-.28s.63-.13,1-.17l.49-.07c.52-.06,1.05-.11,1.58-.12h.22a15.81,15.81,0,0,1,1.69.06h.11a14.34,14.34,0,0,1,1.76.26c5.31,1.16,10.66,2.27,16,3.38l9.75,2L548,1238.88l0-14.77Z"/><path class="cls-16" d="M441.68,1201.94c14.05,8.11,36.46,8.3,50,.49s13.42-20.73-.24-28.81l-.26-.15c-13.88-8-36.18-8.26-49.75-.5-13.74,7.86-13.64,20.86.24,29m62.71,27.15c-4.77-1-10.6.34-12.45,3q-4.08,5.94-8.24,11.85c-1.17,1.64-3.24,2.33-6.42,2.27-6.31-.13-12.66,0-19-.22a9.51,9.51,0,0,1-3.92-1.07,2.44,2.44,0,0,1-.64-.49c-3.64-4.09-6.9-8.31-10.21-12.5a6.71,6.71,0,0,0-2-1.66,16.73,16.73,0,0,0-11.38-1.45c-6.62,1.61-13.32,3.19-20,4.74a9.19,9.19,0,0,1-7.12-.91c-2.33-1.42-4.48-2.71-6.67-4-1.87-1.08-3.78-2.14-5.74-3.16-.19-.09-.37-.19-.54-.29-2.6-1.5-3-3.12-1.76-5.09,2.5-3.74,5-7.47,7.52-11.18,1.46-2.17.19-4.85-2.66-6.5a11.11,11.11,0,0,0-3-1.17q-10-2.38-20-4.81a10.6,10.6,0,0,1-2.67-1,3.12,3.12,0,0,1-1.82-3.08,56.87,56.87,0,0,0-.27-9.68c-.26-2.3,1.29-3.68,4.69-4.54,6.32-1.6,12.64-3.17,19-4.71,5.48-1.3,7.62-4.62,5.36-7.8-3.32-4.72-6.39-9.53-9.54-14.29l17.89-10.4c8.59,1.79,17.23,3.52,25.76,5.38,4.72,1,10.66-.37,12.45-3,2.64-3.89,5.35-7.76,8.05-11.62,1.27-1.86,3.54-2.6,7-2.48,5.43.16,10.88.31,16.28.07a11.35,11.35,0,0,1,6.28,1.14,7,7,0,0,1,2.09,1.86q4.43,5.73,8.89,11.46a5.8,5.8,0,0,0,1.72,1.42,16.74,16.74,0,0,0,11,1.5c6.51-1.59,13-3.18,19.56-4.72a10.58,10.58,0,0,1,8.18.92c2.2,1.38,4.12,2.54,6.07,3.67,2.11,1.22,4.28,2.41,6.46,3.57,2.62,1.51,3.28,2.92,2.11,4.7-2.64,4-5.25,8-7.88,11.93-1.28,1.94.19,4.69,2.94,6.28a9.43,9.43,0,0,0,2.55,1c6.67,1.6,13.34,3.24,20,4.82a11,11,0,0,1,2.89,1.07,3.42,3.42,0,0,1,2,3.41,51.92,51.92,0,0,0,.24,9.41c.32,2.3-1.37,3.67-4.74,4.51-6.35,1.58-12.69,3.17-19.07,4.71-5.36,1.3-7.51,4.65-5.27,7.81,3.34,4.71,6.41,9.52,9.59,14.3l-17.86,10.38C521.56,1232.71,512.92,1231,504.39,1229.09Z"/><polygon class="cls-16" points="483.35 339.25 483.66 657.27 411.51 698.29 411.2 380.27 483.35 339.25"/><polygon class="cls-4" points="411.51 698.29 337.08 655.03 336.77 337.02 411.2 380.27 411.51 698.29"/><polygon class="cls-10" points="411.2 380.27 336.77 337.02 408.93 296 483.35 339.25 411.2 380.27"/><polygon class="cls-16" points="376.05 510.91 376.36 719.25 304.21 760.27 303.9 551.93 376.05 510.91"/><polygon class="cls-4" points="304.21 760.27 229.78 717.02 229.47 508.67 303.9 551.93 304.21 760.27"/><polygon class="cls-12" points="303.9 551.93 229.47 508.67 301.62 467.65 376.05 510.91 303.9 551.93"/><polygon class="cls-16" points="264.67 674.67 264.98 783.71 192.82 824.73 192.52 715.7 264.67 674.67"/><polygon class="cls-4" points="192.82 824.73 118.4 781.47 118.09 672.44 192.52 715.7 192.82 824.73"/><polygon class="cls-10" points="192.52 715.7 118.09 672.44 190.24 631.42 264.67 674.67 192.52 715.7"/><polygon class="cls-4" points="337.33 202.67 399.28 152.44 386.92 230.92 368.7 220.56 333.74 281.13 306.74 265.75 227.91 402.3 182.05 376.16 127.5 470.67 115.71 463.94 181.98 349.16 227.84 375.27 306.66 238.75 333.66 254.13 356.92 213.85 337.33 202.67"/><path class="cls-63" d="M219.66,172.53c.05-1.19.07-2.38.06-3.55C219.73,170.16,219.71,171.34,219.66,172.53Z"/><path class="cls-64" d="M209.18,214.83c.85-2,1.67-3.92,2.43-5.89a132.35,132.35,0,0,0,4.53-13.85A128,128,0,0,1,211.61,209Q210.47,211.9,209.18,214.83Z"/><path class="cls-64" d="M201.62,129.53a30.71,30.71,0,0,1,9.79,8.95A31,31,0,0,0,201.62,129.53Z"/><path class="cls-64" d="M188.89,125.66a30.77,30.77,0,0,1,12.73,3.87A31.12,31.12,0,0,0,188.89,125.66Z"/><path class="cls-64" d="M187.21,125.55a43.13,43.13,0,0,0-13.13,1.61c-1.26.34-2.54.73-3.84,1.18q1.95-.68,3.84-1.2A43.71,43.71,0,0,1,187.21,125.55Z"/><path class="cls-4" d="M158.21,133.93l.19,67.92,49.88,15c-1.92,4.19-4.05,8.32-6.37,12.33a146.41,146.41,0,0,1-12.67,18.54,128.19,128.19,0,0,1-14.77,15.59,97.58,97.58,0,0,1-15.87,11.54,66.4,66.4,0,0,1-15.88,6.78,42.48,42.48,0,0,1-14.8,1.49,30.2,30.2,0,0,1-22.52-12.82,42,42,0,0,1-6.18-13.47,65.67,65.67,0,0,1-2.12-17,96.39,96.39,0,0,1,2-19.43,126.73,126.73,0,0,1,6.08-20.55,149,149,0,0,1,22.37-38.74,128.23,128.23,0,0,1,14.77-15.59A99.23,99.23,0,0,1,158.21,133.93Z"/><path class="cls-64" d="M211.41,138.48a38.39,38.39,0,0,1,4.13,7.46A38.93,38.93,0,0,0,211.41,138.48Z"/><path class="cls-10" d="M158.21,133.93a69.78,69.78,0,0,1,12-5.59c1.3-.45,2.58-.84,3.84-1.18A43,43,0,0,1,188,125.59l.86.07a30.07,30.07,0,0,1,22.52,12.82,38.93,38.93,0,0,1,4.13,7.46,49,49,0,0,1,2.06,6,66,66,0,0,1,2.12,17c0,1.18,0,2.37-.06,3.56a102.05,102.05,0,0,1-2,15.88q-.67,3.33-1.56,6.68a132.35,132.35,0,0,1-4.53,13.85c-.76,2-1.58,3.94-2.43,5.89-.29.67-.59,1.33-.89,2l-49.89-15Z"/><path class="cls-4" d="M740.31,639.83h0a84.38,84.38,0,0,1-84.39-84.38V501.74c4.31,4.92,35.78,39.53,86.94,38.36C791,539,820.05,507,824.69,501.74v53.71A84.38,84.38,0,0,1,740.31,639.83Z"/><path class="cls-1" d="M824.69,535.46v-5c-11.25,10.62-42.65,35.81-87,35.81-43.49,0-71.41-24.28-81.74-35.16v5.23C668.36,548.55,696.16,570,737.66,570,780.26,570,811.28,547.39,824.69,535.46Z"/><path class="cls-1" d="M737.66,610.11c-39.72,0-66.45-20.24-78.65-32q1,3.58,2.29,7a116.36,116.36,0,0,0,76.36,28.68c38.19,0,67.07-18.16,82.31-30.51.74-2.13,1.42-4.29,2-6.49C808.86,588.41,778.85,610.11,737.66,610.11Z"/><path class="cls-1" d="M786.32,544.59l8.86-5.15c2.68,1.72,53.46,34.43,54.55,153.72l-8.86,5.15C839.78,579,789,546.31,786.32,544.59Z"/><g class="cls-65"><path class="cls-1" d="M849.57,684.84q-.2-6.57-.58-12.78-.37-5.79-.89-11.27c-.33-3.37-.69-6.64-1.09-9.84s-.82-6.09-1.28-9-.91-5.52-1.41-8.17-1-5-1.5-7.42-1.05-4.67-1.61-6.92c-.52-2.1-1.05-4.14-1.61-6.13s-1.11-3.91-1.68-5.8q-.79-2.55-1.6-5c-.54-1.62-1.1-3.21-1.66-4.76-.5-1.39-1-2.76-1.54-4.1s-1-2.61-1.55-3.87-1.05-2.48-1.58-3.68-1-2.34-1.58-3.47-1.1-2.32-1.66-3.43q-1.07-2.13-2.13-4.12-1.71-3.2-3.44-6.06t-3.34-5.29c-1.15-1.73-2.3-3.36-3.42-4.89-.71-1-1.41-1.87-2.1-2.75s-1.28-1.6-1.91-2.36-1.18-1.4-1.76-2.05-1.2-1.35-1.78-2-1.18-1.26-1.75-1.84-1.23-1.23-1.81-1.78-1.18-1.12-1.74-1.61-1.16-1-1.69-1.48-1.07-.89-1.54-1.26l-1.34-1c-.42-.31-.78-.56-1.07-.76s-.61-.41-.75-.5l-8.86,5.15.75.5c.29.2.65.45,1.07.76s.84.63,1.34,1,1,.79,1.54,1.26,1.1.93,1.69,1.47,1.14,1,1.74,1.62,1.18,1.15,1.81,1.78,1.15,1.19,1.75,1.84,1.18,1.28,1.78,2,1.17,1.35,1.76,2.06,1.27,1.54,1.91,2.36,1.39,1.79,2.1,2.75c1.12,1.53,2.27,3.15,3.42,4.89s2.23,3.42,3.34,5.29,2.3,3.93,3.44,6.06q1.07,2,2.13,4.11c.56,1.12,1.11,2.26,1.66,3.43s1.06,2.3,1.58,3.48,1.06,2.42,1.58,3.68,1,2.55,1.55,3.87,1,2.7,1.54,4.1c.56,1.55,1.12,3.14,1.66,4.76s1.07,3.29,1.6,5c.57,1.88,1.14,3.81,1.69,5.79s1.08,4,1.6,6.14,1.1,4.55,1.61,6.92,1,4.88,1.5,7.41,1,5.39,1.41,8.18.89,5.94,1.28,9,.76,6.47,1.09,9.84q.51,5.47.89,11.27.39,6.21.58,12.78c.08,2.72.14,5.5.16,8.32l8.86-5.15C849.71,690.34,849.65,687.57,849.57,684.84Z"/></g><path class="cls-16" d="M786.32,544.59c2.68,1.72,53.46,34.43,54.55,153.72-8.47-3.2-8.57-3.55-8.67-3.9l-.24-.81c-.11-.39-.15-.51-.18-.62s-.07-.25-.11-.37c-.13-.44-.17-.59-.22-.74l-.21-.71-.15-.49c-.11-.36-.15-.5-.19-.64s-.07-.23-.11-.35c-.14-.47-.18-.6-.22-.72s-.09-.3-.13-.45l-.22-.72-.22-.72c-.16-.49-.2-.64-.25-.79-.14-.46-.19-.62-.24-.77-.13-.44-.18-.59-.23-.74-.15-.46-.19-.62-.24-.78-.15-.45-.2-.62-.25-.79-.14-.41-.19-.58-.25-.76l-.23-.72-.25-.78-.25-.77-.25-.77-.26-.78c-.16-.47-.21-.64-.27-.81l-.26-.78-.26-.79-.26-.76c-.15-.45-.21-.62-.27-.79l-.27-.78-.27-.8-.28-.8-.27-.77c-.15-.42-.22-.61-.28-.8l-.28-.79c-.14-.4-.22-.6-.29-.81s-.2-.57-.28-.78-.21-.59-.3-.81l-.28-.78c-.12-.33-.21-.56-.29-.79s-.21-.55-.29-.79-.21-.54-.3-.78l-.29-.79c-.12-.3-.21-.54-.3-.79s-.2-.53-.3-.78c-2.71-7-5.65-13.93-8.81-20.31l-.35-.7-.35-.69c-.13-.27-.24-.48-.35-.69l-.36-.71-.36-.68-.36-.67-.36-.69-.37-.68-.37-.66-.36-.66-.38-.66c-.15-.28-.26-.47-.37-.66s-.26-.45-.37-.64l-.38-.64-.38-.64c-.15-.26-.27-.44-.38-.63l-.38-.61-.38-.62-.39-.61-.38-.61-.39-.59-.39-.59-.4-.59c-.15-.23-.27-.4-.39-.57l-.4-.57-.39-.56-.4-.55-.4-.54a57.53,57.53,0,0,0-5.74-6.7L796,617l-.41-.39-.4-.37-.41-.37-.42-.36-.42-.36c-4.24-3-4.35-3-4.47-3.09l-.65-.35Z"/><path class="cls-1" d="M711.46,544.59l-8.86-5.15c-2.67,1.72-53.46,34.43-54.55,153.72l8.86,5.15C658,579,708.79,546.31,711.46,544.59Z"/><g class="cls-66"><path class="cls-1" d="M648.21,684.84q.19-6.57.59-12.78.36-5.79.89-11.27c.32-3.37.68-6.64,1.08-9.84s.82-6.09,1.28-9,.91-5.52,1.41-8.17,1-5,1.5-7.42,1-4.67,1.61-6.92c.52-2.1,1-4.14,1.61-6.13s1.11-3.91,1.69-5.8q.78-2.55,1.59-5t1.66-4.76c.51-1.39,1-2.76,1.54-4.1s1-2.61,1.55-3.87,1-2.48,1.58-3.68,1.05-2.34,1.58-3.47,1.11-2.32,1.66-3.43q1.07-2.13,2.13-4.12,1.71-3.2,3.44-6.06t3.34-5.29c1.15-1.73,2.3-3.36,3.43-4.89.7-1,1.4-1.87,2.09-2.75s1.28-1.6,1.91-2.36,1.18-1.4,1.76-2.05,1.2-1.35,1.78-2l1.75-1.84c.63-.63,1.23-1.23,1.81-1.78s1.19-1.12,1.74-1.61,1.16-1,1.69-1.48,1.07-.89,1.54-1.26l1.34-1c.42-.31.78-.56,1.07-.76l.75-.5,8.86,5.15-.75.5c-.29.2-.65.45-1.07.76l-1.34,1c-.47.37-1,.79-1.54,1.26s-1.09.93-1.69,1.47-1.13,1-1.74,1.62-1.18,1.15-1.81,1.78-1.15,1.19-1.75,1.84-1.18,1.28-1.78,2-1.17,1.35-1.76,2.06-1.27,1.54-1.91,2.36-1.39,1.79-2.09,2.75c-1.13,1.53-2.28,3.15-3.43,4.89s-2.22,3.42-3.34,5.29-2.3,3.93-3.44,6.06q-1.07,2-2.13,4.11c-.56,1.12-1.11,2.26-1.66,3.43s-1.06,2.3-1.58,3.48-1.06,2.42-1.58,3.68-1,2.55-1.55,3.87-1,2.7-1.54,4.1q-.84,2.33-1.66,4.76t-1.6,5c-.57,1.88-1.14,3.81-1.68,5.79s-1.09,4-1.61,6.14-1.1,4.55-1.61,6.92-1,4.88-1.5,7.41-1,5.39-1.41,8.18-.89,5.94-1.28,9-.76,6.47-1.08,9.84q-.52,5.47-.89,11.27-.4,6.21-.59,12.78c-.08,2.72-.14,5.5-.16,8.32l-8.86-5.15C648.07,690.34,648.13,687.57,648.21,684.84Z"/></g><path class="cls-16" d="M711.46,544.59C708.79,546.31,658,579,656.91,698.31c8.47-3.2,8.57-3.55,8.67-3.9l.24-.81c.11-.39.15-.51.18-.62s.07-.25.11-.37c.13-.44.17-.59.22-.74l.21-.71.15-.49c.11-.36.15-.5.19-.64s.07-.23.11-.35c.14-.47.18-.6.22-.72s.09-.3.13-.45l.22-.72.22-.72c.16-.49.2-.64.25-.79.14-.46.19-.62.24-.77.13-.44.18-.59.23-.74l.25-.78c.14-.45.19-.62.25-.79.13-.41.18-.58.24-.76l.23-.72.25-.78.25-.77c.15-.46.2-.62.26-.77l.25-.78.27-.81L671,677c.14-.42.2-.61.27-.79.13-.41.19-.58.25-.76.15-.45.21-.62.27-.79l.27-.78.27-.8c.15-.42.21-.61.28-.8.14-.39.21-.58.27-.77.15-.42.22-.61.28-.8l.28-.79c.14-.4.22-.6.29-.81s.21-.57.28-.78.22-.59.3-.81l.28-.78c.12-.33.21-.56.29-.79l.3-.79.29-.78.29-.79c.12-.3.21-.54.3-.79s.21-.53.3-.78c2.71-7,5.65-13.93,8.81-20.31l.35-.7.35-.69c.13-.27.24-.48.35-.69s.25-.5.36-.71l.36-.68.36-.67.36-.69.37-.68.37-.66.36-.66.38-.66c.15-.28.26-.47.37-.66s.26-.45.37-.64l.38-.64.38-.64L691,631l.38-.61.38-.62.39-.61.39-.61L693,628l.39-.59.4-.59.39-.57.4-.57.39-.56.4-.55.4-.54a58.51,58.51,0,0,1,5.74-6.7l.37-.36c.18-.18.3-.28.42-.39l.39-.37.41-.37.42-.36.42-.36c4.24-3,4.35-3,4.47-3.09l.65-.35Z"/><path class="cls-67" d="M928.72,237.29c0-107-89.14-193.11-197.18-188.21-95.95,4.35-174.11,81.74-179.36,177.64A187.71,187.71,0,0,0,588,348.13a4.72,4.72,0,0,0,3.4,4.56l.07,0a189.45,189.45,0,0,0,43.44,40.75,214.49,214.49,0,0,1,14.46,25.73v54.47c0,27.8,19.3,52.1,46.52,57.75a233.88,233.88,0,0,0,94.71.17,59,59,0,0,0,47.18-57.75V438.69c-4.34-26,8.32-43.33,17.2-51.94A188.06,188.06,0,0,0,928.72,237.29Z"/></g></g></g></svg>