<?xml version="1.0" encoding="utf-8"?>
<!-- Generator: Adobe Illustrator 22.0.0, SVG Export Plug-In . SVG Version: 6.00 Build 0)  -->
<svg version="1.1" id="Layer_1" xmlns="http://www.w3.org/2000/svg" xmlns:xlink="http://www.w3.org/1999/xlink" x="0px" y="0px"
	 viewBox="0 0 1000 400" style="enable-background:new 0 0 1000 400;" xml:space="preserve">
<style type="text/css">
	.st0{fill:#EBDB15;}
	.st1{fill:#FFFFFF;}
</style>
<path class="st0" d="M795.526,46.156c0.378,0.08,0.752,0.203,1.134,0.235c2.97,0.25,5.952,0.394,8.911,0.742
	c3.451,0.405,6.9,0.886,10.319,1.504c10.146,1.832,20.005,4.684,29.568,8.545c17.514,7.07,33.257,16.951,47.073,29.837
	c18.066,16.851,31.232,36.953,39.597,60.193c2.932,8.146,5.139,16.487,6.635,25.02c0.919,5.242,1.592,10.514,1.949,15.818
	c0.401,5.952,0.504,11.911,0.167,17.878c-0.225,3.972-0.527,7.934-1.038,11.875c-0.98,7.546-2.496,14.984-4.606,22.299
	c-5.92,20.518-15.599,39.068-29.224,55.516c-16.2,19.557-36.119,34.091-59.594,43.758c-9.258,3.813-18.815,6.644-28.635,8.571
	c-4.289,0.842-8.615,1.456-12.963,1.941c-7.428,0.828-14.876,1.028-22.331,0.75c-5.61-0.209-11.195-0.78-16.753-1.636
	c-18.312-2.819-35.544-8.77-51.66-17.886c-26.179-14.808-46.252-35.571-60.249-62.19c-6.417-12.204-10.999-25.084-13.916-38.554
	c-0.946-4.369-1.667-8.778-2.232-13.216c-0.534-4.193-0.907-8.402-1.054-12.619c-0.168-4.815-0.244-9.64,0.141-14.454
	c0.213-2.674,0.395-5.35,0.646-8.02c0.371-3.959,1.006-7.88,1.737-11.788c1.843-9.843,4.659-19.4,8.416-28.679
	c6.992-17.267,16.72-32.82,29.403-46.477c19.113-20.579,42.198-34.775,69.12-42.752c6.342-1.879,12.787-3.303,19.315-4.335
	c3.778-0.597,7.575-1.072,11.396-1.321c1.587-0.104,3.173-0.211,4.758-0.337c0.285-0.023,0.562-0.144,0.843-0.219H795.526z
	 M790.943,257.588c0.138-0.101,0.191-0.122,0.215-0.161c0.205-0.339,0.412-0.676,0.605-1.022
	c3.239-5.819,7.233-11.049,12.094-15.613c3.419-3.21,7.146-6.012,11.064-8.574c4.037-2.639,8.245-4.991,12.441-7.361
	c4.673-2.639,9.331-5.302,13.752-8.358c5.762-3.983,10.917-8.613,15.243-14.145c2.921-3.735,5.319-7.796,7.501-11.988
	c4.356-8.373,6.656-17.307,7.076-26.718c0.268-5.992-0.297-11.933-1.811-17.733c-5.046-19.332-16.457-33.581-34.37-42.508
	c-8.727-4.349-18.041-6.407-27.77-6.464c-5.785-0.034-11.483,0.785-17.082,2.298c-18.532,5.008-34.184,18.512-41.785,36.098
	c-2.861,6.62-4.618,13.51-5.195,20.711c-0.323,4.032-0.279,8.051,0.198,12.054c0.399,3.352,0.985,6.682,1.508,10.018
	c0.77,4.906,1.596,9.804,2.327,14.716c0.776,5.219,1.135,10.465,0.884,15.749c-0.172,3.585-0.634,7.122-1.405,10.623
	c-1.008,4.576-2.548,8.973-4.491,13.233c-0.178,0.39-0.309,0.802-0.453,1.18C742.578,234.337,788.189,256.426,790.943,257.588
	 M738.338,239.762c-0.26,0.481-0.484,0.861-0.676,1.256c-1.666,3.441-3.328,6.884-4.988,10.327
	c-1.272,2.639-2.498,5.301-3.824,7.911c-0.695,1.366-0.653,2.669-0.053,4.004c0.223,0.496,0.479,0.989,0.799,1.426
	c0.645,0.88,1.299,1.761,2.027,2.57c1.737,1.927,3.728,3.575,5.824,5.095c7.055,5.118,14.765,8.939,23.059,11.589
	c3.363,1.074,6.775,1.951,10.322,2.153c1.589,0.09,3.174,0.092,4.735-0.323c1.323-0.352,2.236-1.063,2.85-2.363
	c2.927-6.194,5.937-12.349,8.914-18.52c0.171-0.354,0.316-0.721,0.488-1.115c-0.177-0.144-0.31-0.301-0.48-0.383
	C771.024,255.523,754.72,247.644,738.338,239.762 M760.827,290.819c-9.057-4.374-17.928-8.673-26.811-12.937
	c-0.156,0.174-0.284,0.266-0.345,0.392c-0.723,1.468-1.433,2.943-2.154,4.412c-0.332,0.678-0.288,1.356,0.023,2.01
	c0.212,0.445,0.445,0.905,0.773,1.264c0.834,0.914,1.645,1.876,2.607,2.642c5.248,4.18,11.16,6.995,17.744,8.335
	c1.31,0.267,2.663,0.334,3.998,0.088c0.696-0.128,1.347-0.362,1.688-1.07C759.144,294.304,759.941,292.654,760.827,290.819"/>
<path class="st1" d="M311.684,46.155c0.419,0.365,0.943,0.252,1.423,0.288c5.215,0.385,10.353,1.224,15.406,2.584
	c10.419,2.803,19.802,7.648,28.204,14.391c7.859,6.307,14.573,13.649,19.835,22.272c4.893,8.019,8.145,16.659,9.76,25.917
	c0.685,3.923,1.065,7.869,1.213,11.849c0.104,2.788,0.056,5.569-0.103,8.344c-0.971,16.886-6.51,32.021-17.472,45.03
	c-6.472,7.68-14.058,14.024-22.889,18.849c-6.893,3.767-14.2,6.394-21.882,8.011c-6.541,1.377-13.155,2.026-19.831,2.042
	c-11.236,0.025-22.472,0.007-33.708,0.005c-0.488,0-0.976-0.031-1.418-0.046c-0.379-0.525-0.243-1.038-0.244-1.519
	c-0.012-3.779-0.007-7.557-0.007-11.335c0-5.518-0.001-11.037,0.002-16.555c0-0.537,0.031-1.073,0.046-1.573
	c0.548-0.352,1.058-0.227,1.54-0.227c4.673-0.009,9.347,0,14.02-0.007c5.916-0.009,11.834,0.071,17.747-0.067
	c8.375-0.195,16.505-1.699,24.115-5.348c10.346-4.96,18.008-12.583,22.558-23.194c1.634-3.809,2.623-7.798,3.216-11.901
	c0.55-3.806,0.686-7.627,0.485-11.452c-0.663-12.623-5.501-23.37-14.639-32.144c-6.159-5.914-13.347-9.962-21.699-11.856
	c-4.825-1.094-9.713-1.477-14.658-1.195c-3.882,0.222-7.709,0.746-11.459,1.79c-9.662,2.69-17.329,8.221-23.201,16.302
	c-3.756,5.169-6.3,10.909-7.952,17.056c-1.138,4.232-1.82,8.54-2.177,12.91c-0.207,2.532-0.275,5.061-0.275,7.596
	c0,54.042,0,108.083-0.001,162.125c0,0.686-0.02,1.373-0.032,2.139c-0.376,0.053-0.657,0.123-0.938,0.127
	c-1.044,0.014-2.088,0.008-3.132,0.008c-8.998,0-17.997,0.002-26.996-0.004c-0.583,0-1.182,0.09-1.796-0.145
	c-0.039-0.211-0.099-0.398-0.104-0.587c-0.016-0.547-0.012-1.094-0.012-1.641c0-48.821-0.003-97.643,0.003-146.464
	c0.001-6.86,0.183-13.717,0.614-20.562c0.362-5.752,0.963-11.484,2.049-17.155c2.743-14.331,8.844-27.031,18.503-37.988
	c11.063-12.549,24.809-20.626,41.06-24.469c4.26-1.007,8.587-1.622,12.958-1.917c0.48-0.032,1.005,0.079,1.426-0.283H311.684z"/>
<path class="st1" d="M47.497,166.812c0.098-0.586,0.114-1.186,0.15-1.781c0.843-14.009,3.866-27.514,9.422-40.421
	c5.339-12.403,12.695-23.487,21.925-33.336c8.108-8.651,17.335-15.913,27.361-22.208c8.318-5.222,17.286-8.903,26.702-11.566
	c5.931-1.678,11.948-2.961,18.035-3.938c4.76-0.764,9.539-1.357,14.34-1.79c5-0.451,10.008-0.722,15.025-0.924
	c6.461-0.261,12.921-0.176,19.383-0.206c0.238-0.001,0.477,0.043,0.613,0.057c0.13,0.123,0.176,0.151,0.199,0.193
	c0.024,0.041,0.035,0.095,0.036,0.143c0.017,9.096,0.033,18.193,0.047,27.29c0.001,0.446-0.013,0.894-0.033,1.34
	c-0.004,0.091-0.066,0.18-0.143,0.377c-0.282,0.018-0.616,0.081-0.942,0.053c-4.814-0.416-9.636-0.263-14.457-0.257
	c-4.178,0.005-8.346,0.275-12.502,0.658c-11.824,1.091-23.379,3.419-34.493,7.705c-10.628,4.099-20.287,9.8-28.806,17.393
	c-12.362,11.018-20.677,24.532-24.97,40.519c-1.329,4.948-2.217,9.978-2.777,15.074c-0.56,5.1-0.721,10.211-0.643,15.331
	c0.079,5.172,0.511,10.321,1.333,15.431c2.216,13.762,7.088,26.44,15.469,37.666c7.023,9.408,15.694,16.98,25.773,22.961
	c8.128,4.823,16.82,8.297,25.934,10.738c5.619,1.505,11.319,2.596,17.089,3.354c5.129,0.674,10.277,1.06,15.442,1.275
	c5.616,0.234,11.228,0.178,16.84-0.124c0.543-0.029,1.09-0.004,1.715-0.004c0.058,0.268,0.166,0.543,0.17,0.82
	c0.021,1.143,0.011,2.286,0.011,3.43c0,7.805,0,15.61,0,23.415v1.714c-0.394,0.066-0.719,0.167-1.044,0.167
	c-4.275-0.001-8.551,0.022-12.826-0.039c-3.825-0.054-7.653-0.141-11.474-0.331c-3.621-0.18-7.238-0.473-10.85-0.791
	c-2.819-0.249-5.631-0.595-8.442-0.932c-4.836-0.579-9.628-1.423-14.389-2.445c-6.612-1.419-13.099-3.269-19.421-5.685
	c-6.998-2.674-13.512-6.246-19.717-10.426c-9.402-6.335-18.013-13.576-25.547-22.068c-12.81-14.438-21.538-31.015-26.094-49.78
	c-1.232-5.074-2.171-10.2-2.694-15.397c-0.239-2.372-0.382-4.753-0.627-7.124C47.542,181.582,47.453,167.078,47.497,166.812"/>
<path class="st1" d="M166.71,363.845c-0.695-0.449-1.533-0.337-2.286-0.577c-0.655-0.209-1.34-0.325-2.059-0.493
	c-0.208-0.887-0.129-1.708-0.072-2.594c0.614-0.077,1.13,0.11,1.649,0.194c1.372,0.223,2.735,0.503,4.112,0.691
	c1.034,0.142,2.079,0.176,3.106-0.132c1.299-0.39,1.857-1.087,1.845-2.352c-0.012-1.366-0.582-2.186-1.878-2.506
	c-0.716-0.177-1.471-0.198-2.209-0.283c-0.485-0.056-0.994,0.138-1.484-0.147c0.224-1.96,0.873-3.853,1.071-5.891
	c-0.562-0.18-1.072-0.349-1.586-0.507c-2.071-0.635-3.939-1.638-5.575-3.062c-2.809-2.445-4.265-5.547-4.509-9.248
	c-0.205-3.114,0.362-6.044,2.084-8.683c2.57-3.938,6.202-6.188,10.876-6.787c1.883-0.242,3.767-0.236,5.656-0.224
	c0.285,0.002,0.569,0.057,0.825,0.084c0.273,1.25,0.267,3.61-0.003,4.822c-0.604,0.2-1.251,0.103-1.885,0.104
	c-1.649,0.001-3.274,0.177-4.866,0.607c-1.305,0.353-2.522,0.903-3.619,1.705c-2.895,2.114-3.945,5.007-3.534,8.484
	c0.319,2.697,1.757,4.707,4.008,6.157c1.749,1.127,3.695,1.691,5.754,1.859c0.99,0.081,1.986,0.086,2.979,0.134
	c0.388,0.019,0.776,0.061,1.238,0.099c0.224,1.58,0.119,3.096,0.072,4.703c-0.315,0.064-0.59,0.166-0.864,0.168
	c-1.193,0.007-2.386-0.016-3.579-0.026c-0.344-0.003-0.689,0-1.056,0c-0.407,0.953-0.604,1.901-0.665,2.99
	c0.688,0.084,1.325,0.111,1.938,0.249c0.769,0.172,1.562,0.343,2.266,0.679c1.391,0.662,2.225,1.812,2.414,3.358
	c0.078,0.634,0.089,1.288,0.03,1.924c-0.171,1.861-1.221,3.098-2.888,3.847c-0.536,0.241-1.092,0.438-1.639,0.655H166.71z"/>
<path class="st1" d="M553.51,297.321c-0.57,0.018-1.061,0.05-1.55,0.048c-5.866-0.029-11.732-0.021-17.597-0.114
	c-2.979-0.048-5.955-0.271-8.931-0.438c-1.736-0.098-3.473-0.204-5.203-0.373c-3.608-0.354-7.216-0.724-10.818-1.138
	c-4.889-0.562-9.728-1.426-14.538-2.457c-9.306-1.995-18.347-4.784-26.935-8.944c-5.611-2.718-10.812-6.107-15.879-9.71
	c-8.997-6.398-17.133-13.743-24.203-22.237c-11.807-14.185-19.836-30.256-24.033-48.24c-1.176-5.039-2.025-10.131-2.573-15.27
	c-0.639-5.986-0.804-11.994-0.69-18.015c0.07-3.682,0.294-7.352,0.683-11.006c2.157-20.259,8.861-38.841,20.611-55.543
	c7.768-11.041,17.239-20.403,28.098-28.385c4.77-3.506,9.703-6.767,14.909-9.591c7.064-3.833,14.56-6.58,22.294-8.705
	c6.184-1.699,12.456-2.969,18.796-3.935c4.669-0.711,9.355-1.268,14.058-1.657c4.357-0.36,8.723-0.586,13.095-0.757
	c6.461-0.253,12.922-0.184,19.383-0.214c0.296-0.002,0.591,0.027,0.968,0.046c0.065,0.278,0.156,0.548,0.187,0.826
	c0.033,0.295,0.01,0.596,0.01,0.894c0,8.651,0.001,17.301-0.002,25.952c0,0.536-0.035,1.071-0.05,1.522
	c-0.416,0.315-0.769,0.225-1.105,0.211c-2.184-0.088-4.367-0.239-6.552-0.267c-5.369-0.07-10.737,0-16.096,0.362
	c-10.685,0.722-21.228,2.291-31.52,5.338c-9.251,2.74-17.993,6.59-26.02,11.986c-12.306,8.275-21.473,19.243-27.859,32.579
	c-3.773,7.879-6.41,16.14-8.185,24.684c-0.049,0.238-0.066,0.482-0.096,0.71c0.091,0.04,0.136,0.061,0.183,0.079
	c0.046,0.017,0.092,0.035,0.14,0.045c0.048,0.01,0.098,0.012,0.148,0.017c0.049,0.004,0.099,0.007,0.149,0.009
	c0.05,0.002,0.099,0.003,0.149,0.003c0.05,0.001,0.1,0.001,0.149,0.001c0.05,0,0.099,0.001,0.149,0.001c0.05,0,0.1,0,0.149,0
	c0.099,0,0.199,0,0.298,0c0.05,0,0.099,0,0.149,0c38.083,0,76.166,0,114.249,0c0.049,0,0.099,0,0.149,0c0.049,0,0.099,0,0.149,0
	c0.049,0,0.099,0,0.149,0c0.049,0,0.1,0.001,0.149,0.001c0.05,0.001,0.099,0.001,0.149,0.002c0.05,0.001,0.1,0.002,0.149,0.005
	c0.05,0.003,0.099,0.006,0.148,0.012c0.049,0.006,0.099,0.012,0.147,0.025c0.046,0.013,0.089,0.035,0.233,0.096
	c0.042,0.218,0.135,0.494,0.139,0.772c0.018,1.143,0.01,2.287,0.01,3.43c0,7.656,0,15.313,0,22.969c0,0.591,0.026,1.085,0.026,1.747
	c-0.355,0.078-0.654,0.274-0.93,0.287c-0.595,0.028-1.193,0.014-1.789,0.014c-38.182-0.003-76.365-0.007-114.547-0.008
	c-0.634,0-1.277-0.05-1.988,0.097c0.056,0.536,0.08,0.972,0.151,1.4c1.909,11.638,5.165,22.849,10.629,33.353
	c8.127,15.624,20.097,27.368,35.759,35.372c7.783,3.978,15.996,6.754,24.502,8.707c5.137,1.179,10.331,2.043,15.566,2.618
	c5.434,0.596,10.885,1.008,16.359,1.013c1.54,0.002,3.081,0.109,4.62,0.079c3.626-0.07,7.251-0.194,10.876-0.295
	c0.189-0.005,0.379-0.001,0.614-0.001c0.056,0.237,0.127,0.421,0.138,0.609C553.764,270.005,553.663,296.143,553.51,297.321"/>
<path class="st0" d="M599.371,253.919c12.659,0.082,21.952,10.614,21.669,22.233c-0.283,11.606-9.881,21.239-21.783,21.219
	c-11.877-0.021-21.764-9.783-21.661-21.93C577.693,263.909,587.028,253.936,599.371,253.919"/>
<path class="st1" d="M450.709,362.049c0.057-1.367,0.565-3.642,1.094-4.996c0.462,0.124,0.935,0.24,1.402,0.378
	c2.004,0.593,4.026,1.095,6.13,1.139c1.193,0.025,2.379-0.029,3.543-0.351c2.852-0.79,4.755-2.588,5.719-5.37
	c0.375-1.082,0.592-2.206,0.592-3.359c0.001-4.77,0.001-9.54-0.001-14.31c0-1.103-0.221-2.171-0.547-3.218
	c-1.312-4.217-5.171-6.894-10.099-6.175c-4.761,0.694-7.229,4.606-7.593,8.04c-0.185,1.747-0.158,3.478,0.358,5.166
	c1.407,4.602,5.63,7.273,10.515,6.517c1.648-0.254,3.145-0.882,4.546-1.768c0.317-0.201,0.594-0.519,1.002-0.477
	c0.084,0.133,0.178,0.211,0.179,0.291c0.008,1.637,0.006,3.275,0.006,4.94c-0.139,0.128-0.262,0.3-0.429,0.386
	c-8.343,4.288-17.659,0.582-20.703-7.604c-1.459-3.923-1.452-7.949,0.184-11.789c2.361-5.541,6.686-8.474,12.734-8.744
	c3.662-0.163,6.985,0.847,9.842,3.173c2.94,2.394,4.71,5.473,5.098,9.274c0.151,1.48,0.235,2.971,0.25,4.458
	c0.036,3.528,0.011,7.055,0.014,10.583c0.002,2.099-0.213,4.172-0.9,6.162c-1.661,4.811-4.997,7.789-9.976,8.836
	c-3.466,0.729-6.918,0.424-10.33-0.432C452.479,362.584,451.63,362.313,450.709,362.049"/>
<path class="st1" d="M344.896,350.097c-0.528,0.035-0.871,0.075-1.213,0.077c-1.24,0.008-2.48,0.003-3.664,0.003
	c-0.467-0.559-0.288-1.13-0.29-1.654c-0.015-5.12,0.005-10.24-0.022-15.36c-0.005-0.936-0.079-1.896-0.295-2.803
	c-0.611-2.567-2.673-4.226-5.315-4.472c-3.732-0.348-6.25,1.893-6.777,5.226c-0.108,0.683-0.123,1.386-0.125,2.079
	c-0.01,5.07-0.004,10.14-0.008,15.21c0,0.535-0.037,1.069-0.059,1.669c-1.717,0.188-3.337,0.089-5.029,0.086
	c-0.064-0.417-0.157-0.747-0.158-1.076c-0.011-5.219-0.027-10.439-0.004-15.658c0.008-1.792,0.2-3.574,0.804-5.281
	c1.325-3.742,3.827-6.279,7.755-7.105c4.268-0.898,8.096-0.01,11.148,3.327c0.194,0.212,0.405,0.409,0.736,0.741
	c0.287-0.357,0.515-0.685,0.787-0.972c2.416-2.554,5.418-3.576,8.883-3.376c6.111,0.351,9.574,4.717,10.31,9.791
	c0.185,1.274,0.253,2.574,0.261,3.863c0.03,4.672,0.012,9.345,0.012,14.017v1.51c-0.872,0.424-1.725,0.192-2.542,0.23
	c-0.837,0.038-1.678,0-2.462-0.005c-0.421-0.59-0.263-1.156-0.264-1.683c-0.014-5.169,0.002-10.339-0.02-15.509
	c-0.003-0.837-0.053-1.698-0.247-2.507c-0.681-2.831-2.753-4.485-5.655-4.612c-3.461-0.152-6.017,2.03-6.411,5.493
	c-0.067,0.59-0.081,1.19-0.081,1.785c-0.006,5.07-0.002,10.14-0.006,15.21C344.944,348.88,344.915,349.42,344.896,350.097"/>
<path class="st1" d="M49.654,350.178c-0.236-1.598-0.22-4.364,0.02-5.601c0.455-0.023,0.939-0.067,1.423-0.068
	c4.173-0.006,8.346-0.003,12.52-0.006c1.093-0.001,2.187-0.008,3.251-0.316c0.095-0.027,0.195-0.037,0.291-0.063
	c4.452-1.22,4.474-5.991,2.525-8.194c-0.425-0.479-0.9-0.943-1.432-1.292c-1.16-0.761-2.343-1.497-3.567-2.15
	c-2.453-1.308-4.938-2.555-7.412-3.823c-1.33-0.682-2.595-1.465-3.737-2.434c-1.749-1.484-3.089-3.259-3.558-5.538
	c-1.071-5.205,0.877-9.16,5.272-11.281c1.812-0.874,3.749-1.341,5.755-1.362c4.371-0.045,8.743-0.024,13.115-0.024
	c0.187,0,0.375,0.063,0.641,0.11c0.157,1.806,0.081,3.57,0.053,5.28c-0.534,0.397-1.047,0.259-1.527,0.26
	c-3.875,0.012-7.75,0.006-11.625,0.008c-0.497,0-0.997-0.02-1.489,0.033c-0.539,0.058-1.088,0.133-1.602,0.298
	c-3.566,1.144-3.666,5.071-1.917,6.984c0.497,0.543,1.09,1.027,1.716,1.416c1.349,0.837,2.726,1.632,4.129,2.374
	c2.106,1.114,4.246,2.164,6.369,3.246c1.464,0.747,2.841,1.623,4.106,2.683c4.045,3.389,4.745,8.476,2.993,12.859
	c-0.883,2.21-2.525,3.776-4.618,4.873c-1.922,1.007-3.994,1.477-6.14,1.654c-0.692,0.057-1.39,0.063-2.085,0.065
	c-4.024,0.008-8.048,0.007-12.073,0.009C50.608,350.178,50.165,350.178,49.654,350.178"/>
<path class="st1" d="M390.238,331.059c-0.266,0.545-0.135,0.99-0.022,1.406c0.274,1.004,0.535,2.02,0.917,2.985
	c1.66,4.183,4.692,6.94,8.927,8.383c2.611,0.889,5.317,1.21,8.066,1.219c0.688,0.002,1.375,0,2.034,0
	c0.285,1.128,0.31,3.492,0.065,4.994c-0.158,0.036-0.342,0.111-0.527,0.115c-3.486,0.074-6.939-0.138-10.357-0.929
	c-6.253-1.447-13.467-7.481-14.89-16.027c-0.725-4.354-0.521-8.649,1.359-12.695c2.926-6.3,7.809-10.281,14.624-11.79
	c3.074-0.681,6.202-0.783,9.339-0.686c0.142,0.004,0.282,0.066,0.413,0.099c0.256,1.005,0.296,3.104,0.083,4.798
	c-0.258,0.033-0.538,0.103-0.817,0.1c-2.039-0.021-4.071,0.03-6.087,0.381c-1.572,0.273-3.103,0.687-4.563,1.33
	c-4.578,2.015-7.189,5.625-8.357,10.386c-0.055,0.224-0.007,0.474-0.007,0.803c1.685,0.067,3.32,0.026,4.953,0.032
	c1.64,0.008,3.279,0.002,4.919,0.002h4.919c1.637,0,3.274,0,4.923,0c0.435,0.863,0.199,1.717,0.231,2.537
	c0.03,0.781,0.074,1.573-0.071,2.39c-0.583,0.204-1.13,0.133-1.663,0.134c-5.615,0.005-11.229,0.001-16.844,0.003
	C391.267,331.031,390.727,331.05,390.238,331.059"/>
<path class="st1" d="M240.951,329.743c-6.374,3.556-12.624,7.003-18.859,10.447c-0.758-0.865-1.754-2.62-2.25-3.972
	c4.527-2.609,9.156-5.076,13.788-7.746c-0.229-0.281-0.358-0.486-0.531-0.645c-3.144-2.886-8.075-2.987-11.318-0.209
	c-2.273,1.947-3.46,4.429-3.518,7.434c-0.023,1.193-0.004,2.378,0.325,3.546c0.614,2.181,1.815,3.956,3.604,5.332
	c3.447,2.649,9.239,2.384,12.31-1.88c0.794-1.102,1.338-2.318,1.697-3.62c0.145-0.526,0.26-1.06,0.409-1.673
	c0.257-0.027,0.544-0.112,0.817-0.078c1.468,0.184,2.943,0.337,4.375,0.707c0.025,0.225,0.078,0.375,0.052,0.51
	c-0.679,3.552-2.132,6.706-4.812,9.208c-2.622,2.449-5.738,3.561-9.326,3.688c-6.449,0.229-12.401-4.346-14.293-10.348
	c-2.3-7.298,1.084-15.289,7.884-18.448c5.788-2.689,13.011-1.441,17.323,4.058c0.519,0.662,0.983,1.371,1.439,2.08
	C240.363,328.588,240.594,329.083,240.951,329.743"/>
<path class="st1" d="M297.186,340.141c-0.845-1.155-1.41-2.476-2.147-3.689c0.317-0.526,0.809-0.678,1.226-0.912
	c3.684-2.064,7.374-4.117,11.061-6.175c0.474-0.265,0.941-0.544,1.492-0.863c-0.206-0.283-0.337-0.546-0.54-0.729
	c-3.078-2.785-7.88-2.918-11.095-0.286c-2.365,1.936-3.567,4.467-3.703,7.514c-0.064,1.453,0.082,2.874,0.563,4.257
	c0.585,1.684,1.563,3.094,2.891,4.271c3.564,3.158,9.806,2.93,12.967-1.691c0.884-1.292,1.408-2.729,1.759-4.241
	c0.066-0.282,0.128-0.565,0.185-0.817c1.277-0.149,3.575,0.165,5.204,0.699c0,0.225,0.041,0.473-0.006,0.703
	c-0.738,3.602-2.288,6.763-5.088,9.224c-2.571,2.259-5.581,3.261-9.002,3.387c-6.365,0.233-12.547-4.279-14.367-10.656
	c-1.727-6.054,0.133-12.273,4.98-16.268c5.63-4.641,14.677-4.489,19.971,1.762c1.031,1.217,1.92,2.526,2.582,4.043
	c-0.213,0.163-0.394,0.329-0.599,0.452C312.002,332.229,298.394,339.664,297.186,340.141"/>
<path class="st1" d="M508.39,337.375c-0.477,4.82-3.765,11.174-10.487,12.916c-9.018,2.337-16.415-3.442-18.186-10.727
	c-1.641-6.753,0.961-12.825,6.077-16.4c5.586-3.904,13.916-3.448,18.91,2.328c1.16,1.342,1.984,2.606,2.653,4.189
	c-0.163,0.137-0.326,0.322-0.528,0.435c-5.904,3.277-11.811,6.547-17.72,9.815c-0.169,0.093-0.356,0.154-0.521,0.225
	c-0.814-0.963-1.816-2.765-2.193-3.972c4.522-2.527,9.065-5.066,13.703-7.657c-0.191-0.276-0.309-0.538-0.504-0.716
	c-3.216-2.958-8.301-2.947-11.541,0.031c-2.656,2.442-3.587,5.533-3.242,9.038c0.281,2.852,1.55,5.213,3.834,6.978
	c3.693,2.855,9.094,2.226,12.05-1.378c1.127-1.374,1.788-2.964,2.196-4.676c0.089-0.373,0.205-0.74,0.333-1.194
	C505.02,336.764,506.718,337.003,508.39,337.375"/>
<path class="st1" d="M549.696,350.082c-1.635,0.204-3.256,0.07-4.948,0.085c-0.075-0.334-0.165-0.606-0.191-0.884
	c-0.032-0.345-0.012-0.695-0.012-1.043c-0.005-12.722-0.01-25.443-0.009-38.165c0-0.633-0.076-1.278,0.109-1.872
	c1.175-0.229,3.225-0.263,4.95-0.092c0.385,0.343,0.266,0.816,0.268,1.243c0.012,2.932,0.007,5.864,0.007,8.796
	c0,1.441-0.005,2.882,0.005,4.323c0.003,0.333,0.058,0.666,0.102,1.152c0.443-0.293,0.768-0.485,1.069-0.71
	c3.039-2.273,6.426-2.762,10.039-1.881c2.806,0.684,4.873,2.377,6.271,4.896c1.056,1.903,1.531,3.973,1.732,6.116
	c0.065,0.691,0.072,1.389,0.073,2.085c0.006,4.87,0.003,9.74,0.003,14.61v1.2c-0.863,0.428-1.716,0.195-2.536,0.233
	c-0.837,0.038-1.677-0.001-2.456-0.006c-0.413-0.597-0.276-1.159-0.277-1.689c-0.012-4.77-0.002-9.541-0.01-14.312
	c-0.002-1.241-0.056-2.477-0.383-3.692c-0.846-3.14-3.268-4.476-5.567-4.577c-0.948-0.042-1.889-0.059-2.809,0.197
	c-1.711,0.477-2.987,1.535-3.91,3.029c-0.661,1.07-1.091,2.234-1.213,3.488c-0.09,0.938-0.139,1.883-0.142,2.825
	c-0.015,4.324-0.003,8.647-0.011,12.97C549.851,348.942,549.928,349.491,549.696,350.082"/>
<path class="st1" d="M668.982,350.007c-1.433,0.241-3.979,0.229-5.241-0.023c-0.018-0.503-0.055-1.037-0.055-1.572
	c-0.005-4.274-0.01-8.548,0.001-12.822c0.003-1.254-0.181-2.473-0.559-3.665c-1.305-4.11-5.026-6.825-9.982-6.155
	c-5.034,0.681-7.384,4.8-7.71,8.095c-0.168,1.697-0.143,3.376,0.334,5.023c1.324,4.567,5.557,7.419,10.586,6.614
	c1.544-0.247,2.963-0.808,4.286-1.63c0.374-0.232,0.758-0.449,1.144-0.677c0.364,0.855,0.434,2.707,0.221,5.367
	c-0.119,0.102-0.25,0.263-0.418,0.349c-5.887,3.027-13.572,2.392-18.446-3.661c-2.383-2.959-3.304-6.402-3.199-10.151
	c0.101-3.593,1.171-6.834,3.572-9.568c2.552-2.906,5.769-4.472,9.624-4.75c3.874-0.279,7.406,0.631,10.457,3.084
	c3,2.411,4.798,5.526,5.182,9.387c0.137,1.382,0.226,2.774,0.238,4.162c0.033,3.827,0.015,7.654,0.013,11.48
	C669.031,349.236,669.002,349.578,668.982,350.007"/>
<path class="st1" d="M603.189,350.113c-1.32,0.12-2.458,0.052-3.593,0.065c-0.491,0.005-0.983-0.026-1.434-0.04
	c-0.391-0.567-0.255-1.13-0.256-1.66c-0.013-4.175-0.01-8.349-0.008-12.524c0.001-1.297-0.087-2.586-0.473-3.83
	c-1.451-4.68-5.512-7.03-10.142-6.327c-3.936,0.597-6.69,3.348-7.487,7.285c-0.423,2.092-0.335,4.151,0.326,6.176
	c1.402,4.296,5.501,7.006,10.409,6.249c1.597-0.246,3.056-0.84,4.423-1.687c0.365-0.226,0.741-0.434,1.142-0.668
	c0.225,1.165,0.261,3.602,0.091,5.5c-0.29,0.17-0.61,0.401-0.963,0.56c-6.68,3.012-14.153,1.355-18.429-4.729
	c-1.671-2.378-2.496-5.052-2.605-7.956c-0.077-2.052,0.098-4.069,0.728-6.033c1.49-4.643,5.865-9.554,13.099-9.757
	c4.757-0.134,8.764,1.485,11.869,5.134c1.995,2.344,3.061,5.094,3.221,8.169c0.096,1.835,0.142,3.674,0.155,5.512
	c0.021,2.982-0.002,5.964-0.012,8.946C603.246,348.987,603.213,349.476,603.189,350.113"/>
<path class="st1" d="M110.133,335.712c-0.272,6.224-2.976,10.999-8.716,13.642c-6.687,3.078-14.685,0.779-18.706-6.362
	c-3.878-6.885-1.703-15.656,4.885-20.019c7.472-4.947,18.557-2.019,21.839,8.024C109.961,332.605,110.114,333.832,110.133,335.712
	 M86.334,334.933c-0.007,3.845,1.212,6.559,3.591,8.578c3.24,2.748,7.999,2.708,11.196-0.087c2.17-1.897,3.318-4.312,3.494-7.158
	c0.183-2.947-0.642-5.592-2.664-7.805c-3.362-3.681-8.912-3.875-12.512-0.428C87.317,330.066,86.322,332.579,86.334,334.933"/>
<path class="st1" d="M193.785,350.732c-5.197,0.12-10.561-3.903-12.707-9.287c-2.64-6.625-0.568-14.257,5.836-18.478
	c6.134-4.042,16.001-2.97,20.597,5.56c3.392,6.296,1.882,14.16-3.454,18.729C201.342,349.583,198.192,350.72,193.785,350.732
	 M203.756,335.489c0.071-2.432-0.746-4.765-2.497-6.755c-3.638-4.134-9.736-4.091-13.326,0.085c-1.804,2.098-2.553,4.548-2.44,7.292
	c0.127,3.1,1.343,5.67,3.753,7.626c3.307,2.685,8.056,2.523,11.189-0.356C202.677,341.321,203.785,338.757,203.756,335.489"/>
<path class="st0" d="M606.906,217.944c5.813-0.003,10.552,4.715,10.473,10.527c-0.089,6.555-5.541,10.403-10.453,10.416
	c-4.987,0.013-10.5-4.001-10.469-10.544C596.489,222.172,601.591,217.883,606.906,217.944"/>
<path class="st1" d="M440.452,350.029c-1.434,0.207-3.859,0.198-5.058-0.002c-0.291-0.488-0.155-1.048-0.156-1.578
	c-0.012-4.968-0.012-9.935-0.004-14.903c0.001-1-0.075-1.983-0.393-2.938c-0.909-2.728-3.296-4.564-6.061-4.748
	c-4.422-0.294-7.267,2.864-7.613,6.512c-0.061,0.641-0.053,1.29-0.054,1.936c-0.004,4.67-0.001,9.339-0.004,14.009
	c0,0.539-0.027,1.078-0.04,1.588c-1.012,0.332-3.433,0.385-5.116,0.12c-0.039-0.259-0.117-0.541-0.117-0.824
	c-0.004-5.216-0.011-10.432,0.011-15.648c0.007-1.496,0.268-2.966,0.707-4.397c1.576-5.137,5.649-8.239,11.036-8.416
	c1.245-0.041,2.49,0.015,3.703,0.301c4.484,1.059,7.213,3.963,8.543,8.272c0.44,1.426,0.656,2.909,0.661,4.405
	c0.017,5.117,0.012,10.234,0.012,15.35C440.508,349.36,440.475,349.65,440.452,350.029"/>
<path class="st0" d="M970.511,151.278c0.172,6.315-5.557,10.662-10.928,10.3c-6.076-0.409-9.711-5.428-9.861-10.097
	c-0.161-5.021,3.352-9.584,8.266-10.585c5.727-1.166,10.766,2.298,12.186,7.285C970.454,149.165,970.407,150.243,970.511,151.278"/>
<path class="st1" d="M266.326,321.397c-0.021,1.592,0.091,3.114-0.09,4.725c-0.49,0.033-0.923,0.086-1.356,0.087
	c-3.281,0.007-6.561,0.003-9.842,0.005c-0.447,0-0.899-0.022-1.34,0.036c-0.437,0.059-0.892,0.143-1.287,0.327
	c-1.405,0.653-1.709,2.341-0.649,3.48c0.553,0.594,1.263,0.964,1.995,1.277c1.233,0.527,2.482,1.013,3.719,1.53
	c1.374,0.575,2.768,1.111,4.103,1.767c1.154,0.567,2.288,1.207,3.342,1.942c2.254,1.572,3.045,3.856,2.819,6.506
	c-0.247,2.897-1.775,4.884-4.484,5.957c-1.633,0.647-3.335,1.021-5.08,1.061c-3.229,0.075-6.461,0.062-9.691,0.079
	c-0.838,0.005-1.675-0.015-2.482-0.023c-0.295-1.108-0.325-3.392-0.087-4.784c0.507-0.28,1.065-0.167,1.602-0.169
	c3.231-0.011,6.462,0.002,9.693-0.011c0.744-0.003,1.493-0.029,2.23-0.123c0.484-0.062,0.978-0.204,1.419-0.412
	c1.874-0.883,1.705-3.206,0.512-4.078c-0.637-0.465-1.325-0.888-2.045-1.206c-1.679-0.743-3.396-1.4-5.088-2.115
	c-1.097-0.463-2.195-0.933-3.259-1.464c-0.753-0.376-1.473-0.827-2.17-1.301c-3.154-2.143-3.545-6.001-2.448-8.765
	c0.639-1.611,1.84-2.673,3.38-3.403c1.511-0.716,3.13-1.031,4.768-1.059c3.727-0.066,7.456-0.019,11.184-0.012
	C265.833,321.254,265.974,321.315,266.326,321.397"/>
<path class="st1" d="M146.726,321.245c1.604,0,2.99-0.003,4.375,0.004c0.189,0.001,0.378,0.056,0.639,0.097
	c0.044,0.37,0.117,0.702,0.117,1.034c0,5.216-0.003,10.432-0.018,15.648c-0.005,2.063-0.403,4.06-1.285,5.923
	c-2.039,4.304-5.493,6.526-10.233,6.756c-1.492,0.072-2.979-0.002-4.431-0.414c-3.709-1.051-6.185-3.46-7.602-6.987
	c-0.576-1.433-0.913-2.938-0.969-4.492c-0.031-0.844-0.061-1.688-0.062-2.532c-0.006-4.422-0.007-8.843,0.003-13.265
	c0.001-0.534-0.111-1.089,0.148-1.592c1.135-0.246,3.554-0.257,4.915-0.016c0.217,0.491,0.126,1.042,0.127,1.573
	c0.008,4.72-0.007,9.439,0.015,14.159c0.004,0.89,0.078,1.789,0.223,2.667c0.566,3.432,3.401,5.819,6.876,5.836
	c3.435,0.016,6.233-2.258,6.874-5.64c0.156-0.824,0.225-1.675,0.229-2.514c0.021-4.819,0.009-9.638,0.012-14.457
	C146.678,322.496,146.706,321.96,146.726,321.245"/>
<path class="st1" d="M537.835,350.098c-1.762,0.152-3.338,0.07-4.88,0.073c-0.435-0.555-0.269-1.124-0.271-1.647
	c-0.015-4.869,0.002-9.739-0.02-14.608c-0.004-0.839-0.061-1.697-0.245-2.513c-0.589-2.615-2.09-4.477-4.718-5.269
	c-4.273-1.287-8.383,1.327-9.045,5.746c-0.125,0.832-0.191,1.68-0.194,2.521c-0.018,4.671-0.007,9.342-0.012,14.013
	c-0.001,0.535-0.04,1.069-0.064,1.681c-1.711,0.144-3.323,0.127-5.016,0.015c-0.047-0.29-0.118-0.523-0.117-0.757
	c0.007-5.416,0.013-10.832,0.04-16.248c0.009-1.757,0.364-3.467,1.051-5.077c1.966-4.611,5.498-7.024,10.494-7.281
	c1.646-0.085,3.285,0.036,4.862,0.55c3.489,1.138,5.819,3.511,7.15,6.888c0.661,1.677,0.989,3.432,0.993,5.24
	c0.01,4.571,0.02,9.143,0.025,13.714C537.867,348.076,537.847,349.014,537.835,350.098"/>
<path class="st1" d="M120.655,350.155c-1.806,0.033-3.432,0.055-5.131-0.018c-0.054-0.35-0.114-0.631-0.135-0.913
	c-0.022-0.297-0.007-0.596-0.007-0.895c-0.003-12.826-0.007-25.652-0.007-38.479c0-0.539,0.026-1.078,0.039-1.591
	c1.048-0.294,3.359-0.345,5.158-0.121c0.044,0.307,0.13,0.638,0.132,0.969c0.01,2.138-0.002,4.275-0.002,6.413
	c-0.001,10.888,0,21.775-0.002,32.662C120.699,348.771,120.673,349.36,120.655,350.155"/>
<path class="st1" d="M614.98,350.177c-1.569,0-2.958,0.004-4.346-0.005c-0.24-0.002-0.479-0.059-0.724-0.092
	c-0.296-0.553-0.173-1.111-0.174-1.642c-0.01-6.758-0.008-13.517-0.008-20.276c0-1.789-0.003-3.578,0.002-5.367
	c0.001-0.441,0.032-0.882,0.049-1.299c0.993-0.315,2.697-0.367,4.635-0.155c0.494,1.034-0.066,2.226,0.423,3.438
	c0.213-0.225,0.352-0.342,0.456-0.485c1.389-1.939,3.362-2.903,5.639-3.292c1.562-0.267,3.144-0.367,4.703-0.205
	c0.305,1.046,0.351,3.044,0.123,4.859c-0.242,0.056-0.512,0.147-0.789,0.177c-1.084,0.119-2.186,0.136-3.253,0.34
	c-4.489,0.859-5.752,3.575-6.332,6.578c-0.234,1.21-0.307,2.466-0.319,3.702c-0.039,4.025-0.013,8.051-0.018,12.076
	C615.044,349.016,615.008,349.503,614.98,350.177"/>
<path class="st1" d="M629.517,321.296c1.636-0.114,3.259-0.046,4.814-0.041c0.487,0.478,0.33,1.002,0.331,1.48
	c0.007,5.312,0,10.625-0.002,15.937c-0.001,3.277,0.002,6.554-0.003,9.83c-0.001,0.488-0.04,0.976-0.059,1.432
	c-1.082,0.304-3.546,0.343-5.112,0.091c-0.234-0.488-0.126-1.042-0.127-1.572c-0.009-5.163-0.005-10.327-0.006-15.49
	c-0.001-3.376-0.008-6.752-0.006-10.128C629.347,322.351,629.28,321.853,629.517,321.296"/>
<path class="st1" d="M186.073,316.231c0.348-1.696,0.975-3.014,2.086-4.064c1.552-1.467,3.42-1.688,5.407-1.227
	c0.866,0.201,1.697,0.548,2.556,0.786c0.521,0.144,1.063,0.256,1.601,0.293c1.014,0.069,1.837-0.323,2.415-1.18
	c0.164-0.244,0.322-0.491,0.507-0.775h2.448c-0.034,0.353-0.008,0.65-0.096,0.907c-0.388,1.134-0.911,2.198-1.753,3.077
	c-1.378,1.438-3.04,2.014-4.996,1.582c-0.868-0.192-1.711-0.498-2.569-0.738c-0.571-0.16-1.142-0.355-1.727-0.43
	c-1.095-0.141-2.065,0.145-2.78,1.052c-0.183,0.232-0.363,0.466-0.559,0.717H186.073z"/>
<path class="st1" d="M628.785,313.035c0.026-1.773,1.488-3.17,3.277-3.129c1.793,0.04,3.146,1.487,3.087,3.302
	c-0.06,1.823-1.486,3.205-3.256,3.153C630.153,316.31,628.759,314.818,628.785,313.035"/>
</svg>
