<svg xmlns="http://www.w3.org/2000/svg" xmlns:xlink="http://www.w3.org/1999/xlink" viewBox="0 0 419.08 478.48"><defs><style>.cls-1{fill:url(#Gradiente_sem_nome_2);}.cls-2{fill:url(#Gradiente_sem_nome_2-2);}.cls-3{fill:url(#Gradiente_sem_nome_26);}.cls-4{fill:url(#Gradiente_sem_nome_5);}.cls-5{fill:url(#Gradiente_sem_nome_5-2);}.cls-6{fill:url(#Gradiente_sem_nome_6);}.cls-7{fill:url(#Gradiente_sem_nome_26-2);}.cls-8{fill:url(#Gradiente_sem_nome_26-3);}.cls-9{fill:url(#Gradiente_sem_nome_26-4);}.cls-10{fill:url(#Gradiente_sem_nome_26-5);}.cls-11{fill:url(#Gradiente_sem_nome_26-6);}.cls-12{fill:url(#Gradiente_sem_nome_26-7);}.cls-13{fill:url(#Gradiente_sem_nome_26-8);}.cls-14{fill:url(#Gradiente_sem_nome_26-9);}.cls-15{fill:url(#Gradiente_sem_nome_26-10);}.cls-16{fill:url(#Gradiente_sem_nome_26-11);}.cls-17{fill:url(#Gradiente_sem_nome_26-12);}.cls-18{fill:url(#Gradiente_sem_nome_26-13);}.cls-19{fill:url(#Gradiente_sem_nome_26-14);}.cls-20{fill:url(#Gradiente_sem_nome_26-15);}.cls-21{fill:url(#Gradiente_sem_nome_26-16);}.cls-22{fill:url(#Gradiente_sem_nome_26-17);}.cls-23{fill:url(#Gradiente_sem_nome_26-18);}.cls-24{fill:url(#Gradiente_sem_nome_26-19);}.cls-25{fill:url(#Gradiente_sem_nome_26-20);}.cls-26{fill:url(#Gradiente_sem_nome_26-21);}.cls-27{fill:#fff;opacity:0.05;}.cls-27,.cls-28,.cls-29,.cls-30,.cls-35,.cls-36{isolation:isolate;}.cls-28,.cls-35,.cls-36{opacity:0.3;}.cls-28{fill:url(#Gradiente_sem_nome_32);}.cls-29,.cls-30{opacity:0.2;}.cls-29{fill:url(#Gradiente_sem_nome_32-2);}.cls-30{fill:url(#Gradiente_sem_nome_32-3);}.cls-31{opacity:0.7;}.cls-32{fill:url(#Gradiente_sem_nome_32-4);}.cls-33{fill:url(#Gradiente_sem_nome_32-5);}.cls-34{fill:url(#Gradiente_sem_nome_32-6);}.cls-35{fill:url(#Gradiente_sem_nome_34);}.cls-36{fill:url(#Gradiente_sem_nome_34-2);}</style><linearGradient id="Gradiente_sem_nome_2" x1="-34.48" y1="1273.89" x2="-31.4" y2="1273.89" gradientTransform="matrix(65.41, 0, 0, -70.59, 2461.49, 90289.73)" gradientUnits="userSpaceOnUse"><stop offset="0" stop-color="#556164"/><stop offset="1" stop-color="#828f97"/></linearGradient><linearGradient id="Gradiente_sem_nome_2-2" x1="-11.57" y1="1280.25" x2="-11.57" y2="1281.01" gradientTransform="matrix(13.42, 0, 0, -30.44, 542.39, 39322.72)" xlink:href="#Gradiente_sem_nome_2"/><linearGradient id="Gradiente_sem_nome_26" x1="-34.41" y1="1273.96" x2="-31.34" y2="1273.96" gradientTransform="matrix(65.41, 0, 0, -69.34, 2463.53, 88706.7)" gradientUnits="userSpaceOnUse"><stop offset="0" stop-color="#828f97"/><stop offset="1" stop-color="#556164"/></linearGradient><linearGradient id="Gradiente_sem_nome_5" x1="-37.23" y1="1272.61" x2="-35.78" y2="1272.61" gradientTransform="matrix(136.19, 0, 0, -105.32, 5078.32, 134346.19)" gradientUnits="userSpaceOnUse"><stop offset="0" stop-color="#dee1e5"/><stop offset="1" stop-color="#c0c4ca"/></linearGradient><linearGradient id="Gradiente_sem_nome_5-2" x1="-34.59" y1="1272.61" x2="-31.51" y2="1272.61" gradientTransform="matrix(68.15, 0, 0, -105.32, 2566.49, 134346.19)" xlink:href="#Gradiente_sem_nome_5"/><linearGradient id="Gradiente_sem_nome_6" x1="-37.29" y1="1272.67" x2="-34.21" y2="1272.67" gradientTransform="matrix(136.19, 0, 0, -105.32, 5078.36, 134344.32)" gradientUnits="userSpaceOnUse"><stop offset="0" stop-color="#eceef4"/><stop offset="1" stop-color="#dee1e5"/></linearGradient><linearGradient id="Gradiente_sem_nome_26-2" x1="-31.99" y1="1297.56" x2="-32.24" y2="1282.78" gradientTransform="matrix(23.47, 0, 0, -18.99, 811.17, 24803.26)" xlink:href="#Gradiente_sem_nome_26"/><linearGradient id="Gradiente_sem_nome_26-3" x1="-29.21" y1="1299.03" x2="-29.47" y2="1282.88" gradientTransform="matrix(21.77, 0, 0, -17.3, 772.73, 22639.41)" xlink:href="#Gradiente_sem_nome_26"/><linearGradient id="Gradiente_sem_nome_26-4" x1="-30.28" y1="1299.74" x2="-30.55" y2="1283.59" gradientTransform="matrix(21.58, 0, 0, -17.23, 753.47, 22561.32)" xlink:href="#Gradiente_sem_nome_26"/><linearGradient id="Gradiente_sem_nome_26-5" x1="-29.64" y1="1296.66" x2="-29.87" y2="1282.68" gradientTransform="matrix(25.58, 0, 0, -20.17, 923.76, 26324.23)" xlink:href="#Gradiente_sem_nome_26"/><linearGradient id="Gradiente_sem_nome_26-6" x1="-31.17" y1="1296.15" x2="-31.39" y2="1282.19" gradientTransform="matrix(25.94, 0, 0, -20.32, 919.85, 26496.08)" xlink:href="#Gradiente_sem_nome_26"/><linearGradient id="Gradiente_sem_nome_26-7" x1="-27.41" y1="1296.05" x2="-27.67" y2="1280.8" gradientTransform="matrix(22.93, 0, 0, -18.4, 841.41, 24009.76)" xlink:href="#Gradiente_sem_nome_26"/><linearGradient id="Gradiente_sem_nome_26-8" x1="-22.03" y1="1298.31" x2="-22.29" y2="1282.49" gradientTransform="matrix(21.73, 0, 0, -17.71, 846.14, 23160.21)" xlink:href="#Gradiente_sem_nome_26"/><linearGradient id="Gradiente_sem_nome_26-9" x1="-25.42" y1="1295.11" x2="-25.65" y2="1280.75" gradientTransform="matrix(25.09, 0, 0, -19.64, 956.13, 25599.13)" xlink:href="#Gradiente_sem_nome_26"/><linearGradient id="Gradiente_sem_nome_26-10" x1="-28.13" y1="1298.32" x2="-28.4" y2="1282.16" gradientTransform="matrix(21.92, 0, 0, -17.37, 790.8, 22707)" xlink:href="#Gradiente_sem_nome_26"/><linearGradient id="Gradiente_sem_nome_26-11" x1="-26.87" y1="1294.75" x2="-27.1" y2="1280.38" gradientTransform="matrix(25.06, 0, 0, -19.62, 937.43, 25559.14)" xlink:href="#Gradiente_sem_nome_26"/><linearGradient id="Gradiente_sem_nome_26-12" x1="-27.1" y1="1299.81" x2="-27.36" y2="1284.44" gradientTransform="matrix(22.52, 0, 0, -18.34, 825.16, 24010.21)" xlink:href="#Gradiente_sem_nome_26"/><linearGradient id="Gradiente_sem_nome_26-13" x1="-26.12" y1="1297.1" x2="-26.36" y2="1281.92" gradientTransform="matrix(24.34, 0, 0, -18.68, 915.35, 24399.42)" xlink:href="#Gradiente_sem_nome_26"/><linearGradient id="Gradiente_sem_nome_26-14" x1="-27.99" y1="1298.47" x2="-28.23" y2="1283.29" gradientTransform="matrix(23.91, 0, 0, -18.52, 874.52, 24213.12)" xlink:href="#Gradiente_sem_nome_26"/><linearGradient id="Gradiente_sem_nome_26-15" x1="-26.96" y1="1297.87" x2="-27.2" y2="1282.69" gradientTransform="matrix(23.94, 0, 0, -18.53, 887.91, 24217.05)" xlink:href="#Gradiente_sem_nome_26"/><linearGradient id="Gradiente_sem_nome_26-16" x1="-29.54" y1="1298.04" x2="-29.79" y2="1282.85" gradientTransform="matrix(23.96, 0, 0, -18.54, 859.11, 24227.81)" xlink:href="#Gradiente_sem_nome_26"/><linearGradient id="Gradiente_sem_nome_26-17" x1="-24.69" y1="1302.35" x2="-24.98" y2="1285.5" gradientTransform="matrix(20.34, 0, 0, -16.5, 756.77, 21663.92)" xlink:href="#Gradiente_sem_nome_26"/><linearGradient id="Gradiente_sem_nome_26-18" x1="-28.47" y1="1297.5" x2="-28.71" y2="1282.31" gradientTransform="matrix(23.85, 0, 0, -18.5, 867.26, 24167.06)" xlink:href="#Gradiente_sem_nome_26"/><linearGradient id="Gradiente_sem_nome_26-19" x1="-22.47" y1="1300.92" x2="-22.75" y2="1284.08" gradientTransform="matrix(20.63, 0, 0, -16.61, 792.3, 21779.97)" xlink:href="#Gradiente_sem_nome_26"/><linearGradient id="Gradiente_sem_nome_26-20" x1="-23.27" y1="1301.86" x2="-23.55" y2="1285.02" gradientTransform="matrix(20.04, 0, 0, -16.39, 757.99, 21510.12)" xlink:href="#Gradiente_sem_nome_26"/><linearGradient id="Gradiente_sem_nome_26-21" x1="-27.37" y1="1296.97" x2="-27.62" y2="1281.79" gradientTransform="matrix(23.72, 0, 0, -18.45, 874.64, 24089.48)" xlink:href="#Gradiente_sem_nome_26"/><linearGradient id="Gradiente_sem_nome_32" x1="-36.57" y1="1275.52" x2="-33.61" y2="1276.44" gradientTransform="matrix(95.86, 0, 0, -74.13, 3567.49, 94701.22)" gradientUnits="userSpaceOnUse"><stop offset="0" stop-color="#ff8024"/><stop offset="1" stop-color="#ffda00"/></linearGradient><linearGradient id="Gradiente_sem_nome_32-2" x1="-33.7" y1="1276.28" x2="-30.62" y2="1276.28" gradientTransform="matrix(46.09, 0, 0, -71.51, 1714.42, 91380.31)" xlink:href="#Gradiente_sem_nome_32"/><linearGradient id="Gradiente_sem_nome_32-3" x1="-31.01" y1="1278" x2="-27.93" y2="1278" gradientTransform="matrix(24.42, 0, 0, -55.72, 880.43, 71353.09)" xlink:href="#Gradiente_sem_nome_32"/><linearGradient id="Gradiente_sem_nome_32-4" x1="-33.76" y1="1284.19" x2="-30.68" y2="1284.19" gradientTransform="matrix(43.24, 0, 0, -34.2, 1599.39, 44033.46)" xlink:href="#Gradiente_sem_nome_32"/><linearGradient id="Gradiente_sem_nome_32-5" x1="-32.66" y1="1285.49" x2="-29.58" y2="1285.49" gradientTransform="matrix(37.03, 0, 0, -31.13, 1370.87, 40135.53)" xlink:href="#Gradiente_sem_nome_32"/><linearGradient id="Gradiente_sem_nome_32-6" x1="-33.02" y1="1286.13" x2="-29.94" y2="1286.13" gradientTransform="matrix(36.33, 0, 0, -30.76, 1336.43, 39665.79)" xlink:href="#Gradiente_sem_nome_32"/><linearGradient id="Gradiente_sem_nome_34" x1="-34.12" y1="1276.18" x2="-33.54" y2="1277.04" gradientTransform="matrix(47.89, 0, 0, -57.32, 1748.76, 73414.55)" gradientUnits="userSpaceOnUse"><stop offset="0" stop-color="#dbdac3" stop-opacity="0"/><stop offset="1" stop-color="#ffda00"/></linearGradient><linearGradient id="Gradiente_sem_nome_34-2" x1="-31.27" y1="1274.73" x2="-31.79" y2="1275.11" gradientTransform="matrix(47.56, 0, 0, -75.92, 1784.13, 97005.12)" xlink:href="#Gradiente_sem_nome_34"/></defs><title>painel-solar</title><g id="Camada_2" data-name="Camada 2"><g id="Camada_1-2" data-name="Camada 1"><g id="Grupo_205" data-name="Grupo 205"><g id="Grupo_204" data-name="Grupo 204"><g id="Grupo_201" data-name="Grupo 201"><g id="Grupo_199" data-name="Grupo 199"><path id="Caminho_1585" data-name="Caminho 1585" class="cls-1" d="M397.93,283.74l.19,69.22L219.81,455.9,397.92,283.74m9.49-22.46-201,194.27.05,19.08,6.29,3.84,194.92-120-.27-97.2Z"/></g><path id="Caminho_1586" data-name="Caminho 1586" class="cls-2" d="M366.39,300.93l5.1,8.36,26.43-25.54.2,69.21,9.29,5.68.28-.16-.26-90.9-3.84-2.6Z"/><g id="Grupo_200" data-name="Grupo 200"><path id="Caminho_1587" data-name="Caminho 1587" class="cls-3" d="M404.21,287.59l.2,69.21-178.32,103L404.21,287.59m9.49-22.46-201,194.27,0,19.08L414,362.31l-.28-97.2Z"/></g><path id="Caminho_1588" data-name="Caminho 1588" class="cls-4" d="M209.71,153,419.08,264.81v9.56l-209.7,202.7L0,355.68v-9.56Z"/><path id="Caminho_1589" data-name="Caminho 1589" class="cls-5" d="M209.71,153,419.08,264.81v9.56l-209.7,202.7Z"/><path id="Caminho_1590" data-name="Caminho 1590" class="cls-6" d="M209.71,143.43,419.08,264.81l-209.7,202.7L0,346.12Z"/><path id="Caminho_1591" data-name="Caminho 1591" class="cls-7" d="M51.65,309,22.48,337.17a6.24,6.24,0,0,0-.15,8.83,6.12,6.12,0,0,0,1.36,1.07L54.28,364.8a6.26,6.26,0,0,0,7.48-.92L90.9,335.71a6.25,6.25,0,0,0,.15-8.84,6.58,6.58,0,0,0-1.35-1.06L59.13,308.05A6.24,6.24,0,0,0,51.65,309Z"/><path id="Caminho_1592" data-name="Caminho 1592" class="cls-8" d="M165.47,252.87l-30.86-17.93a6.07,6.07,0,0,0-7.28.88l-24,23.15a6.08,6.08,0,0,0-.15,8.6,6,6,0,0,0,1.32,1l30.87,17.94a6.07,6.07,0,0,0,7.27-.89l24-23.15a6.09,6.09,0,0,0,.14-8.6A6,6,0,0,0,165.47,252.87Z"/><path id="Caminho_1593" data-name="Caminho 1593" class="cls-9" d="M127.17,289.11,97.1,271.64a6.51,6.51,0,0,0-7.81.95L66,295.1a6.52,6.52,0,0,0-.15,9.22,6.9,6.9,0,0,0,1.41,1.11L97.34,322.9a6.51,6.51,0,0,0,7.8-.95l23.29-22.51a6.52,6.52,0,0,0,.16-9.22A6.63,6.63,0,0,0,127.17,289.11Z"/><path id="Caminho_1594" data-name="Caminho 1594" class="cls-10" d="M153,367.61l-29.56,28.57a5.94,5.94,0,0,0,1.15,9.4l37.31,21.63a5.94,5.94,0,0,0,7.1-.86l29.53-28.55a5.93,5.93,0,0,0,.15-8.38,5.75,5.75,0,0,0-1.3-1l-37.27-21.67A6,6,0,0,0,153,367.61Z"/><path id="Caminho_1595" data-name="Caminho 1595" class="cls-11" d="M99.79,336,69,365.79a5.12,5.12,0,0,0-.13,7.23,5.26,5.26,0,0,0,1.12.87l38.79,22.49a5.12,5.12,0,0,0,6.12-.74l30.79-29.78a5.12,5.12,0,0,0,.13-7.23,5.2,5.2,0,0,0-1.11-.87L105.9,335.25A5.11,5.11,0,0,0,99.79,336Z"/><path id="Caminho_1596" data-name="Caminho 1596" class="cls-12" d="M244.64,176.47l-31-18a6,6,0,0,0-7.19.87L178.91,186a6,6,0,0,0-.13,8.5,5.49,5.49,0,0,0,1.29,1l31,18a6,6,0,0,0,7.19-.88L245.81,186a6,6,0,0,0,.14-8.49A6.15,6.15,0,0,0,244.64,176.47Z"/><path id="Caminho_1597" data-name="Caminho 1597" class="cls-13" d="M369.11,300.35,397,273.44a5.92,5.92,0,0,0-1.14-9.34l-27.26-15.8a5.89,5.89,0,0,0-7.05.86l-27.82,26.89a5.89,5.89,0,0,0,1.14,9.33l27.23,15.83A5.91,5.91,0,0,0,369.11,300.35Z"/><path id="Caminho_1598" data-name="Caminho 1598" class="cls-14" d="M325.43,275.16,353.55,248a5.69,5.69,0,0,0,.14-8,6.1,6.1,0,0,0-1.24-1L314.7,217.09a5.67,5.67,0,0,0-6.8.83l-28.09,27.15a5.68,5.68,0,0,0,1.1,9L318.63,276A5.7,5.7,0,0,0,325.43,275.16Z"/><path id="Caminho_1599" data-name="Caminho 1599" class="cls-15" d="M203.69,216.58l-31.52-18.32a5.73,5.73,0,0,0-6.85.83l-24.49,23.7a5.7,5.7,0,0,0-.14,8.07,5.32,5.32,0,0,0,1.24,1l31.53,18.32a5.73,5.73,0,0,0,6.84-.83l24.49-23.7a5.7,5.7,0,0,0,.14-8.07A5.32,5.32,0,0,0,203.69,216.58Z"/><path id="Caminho_1600" data-name="Caminho 1600" class="cls-16" d="M271.79,243.94l28-27.05a5.75,5.75,0,0,0,.14-8.12,5.94,5.94,0,0,0-1.25-1L261,186a5.74,5.74,0,0,0-6.87.84l-28,27a5.74,5.74,0,0,0-.13,8.12,5.32,5.32,0,0,0,1.24,1l37.62,21.85A5.74,5.74,0,0,0,271.79,243.94Z"/><path id="Caminho_1601" data-name="Caminho 1601" class="cls-17" d="M177.66,436.34l28.23,16.36a5.35,5.35,0,0,0,6.4-.78l30.36-29.35a5.35,5.35,0,0,0,.13-7.57,5.25,5.25,0,0,0-1.15-.9l-28.21-16.39a5.36,5.36,0,0,0-6.41.78l-30.38,29.37a5.35,5.35,0,0,0-.13,7.57A5.13,5.13,0,0,0,177.66,436.34Z"/><path id="Caminho_1602" data-name="Caminho 1602" class="cls-18" d="M242,289.94l39.5,22.95a4.69,4.69,0,0,0,5.63-.69l26-25.14a4.71,4.71,0,0,0,.12-6.65,5.21,5.21,0,0,0-1-.8l-39.5-22.94a4.7,4.7,0,0,0-5.63.68l-26,25.14a4.72,4.72,0,0,0-.11,6.66A4.36,4.36,0,0,0,242,289.94Z"/><path id="Caminho_1603" data-name="Caminho 1603" class="cls-19" d="M167.56,363.7l37.65,21.87a5.73,5.73,0,0,0,6.86-.83l24.46-23.65a5.72,5.72,0,0,0,.14-8.1,5.89,5.89,0,0,0-1.24-1l-37.64-21.87a5.74,5.74,0,0,0-6.87.83l-24.46,23.65a5.72,5.72,0,0,0-.14,8.1A5.89,5.89,0,0,0,167.56,363.7Z"/><path id="Caminho_1604" data-name="Caminho 1604" class="cls-20" d="M205.27,327.12l37.78,21.95a5.67,5.67,0,0,0,6.77-.83l24.57-23.76a5.66,5.66,0,0,0,.14-8,5.5,5.5,0,0,0-1.23-1l-37.77-21.95a5.65,5.65,0,0,0-6.77.83l-24.58,23.75a5.66,5.66,0,0,0-.13,8A5.72,5.72,0,0,0,205.27,327.12Z"/><path id="Caminho_1605" data-name="Caminho 1605" class="cls-21" d="M137.31,299.72l-24.65,23.83a5.6,5.6,0,0,0-.14,7.92,5.39,5.39,0,0,0,1.22,1l37.87,22a5.61,5.61,0,0,0,6.72-.82L183,329.79a5.62,5.62,0,0,0-1.08-8.88l-37.87-22A5.62,5.62,0,0,0,137.31,299.72Z"/><path id="Caminho_1606" data-name="Caminho 1606" class="cls-22" d="M222,395.33l26.31,15.29a6.4,6.4,0,0,0,7.67-.92L279.45,387a6.41,6.41,0,0,0-1.23-10.15l-26.31-15.29a6.42,6.42,0,0,0-7.68.93l-23.45,22.67A6.39,6.39,0,0,0,222,395.33Z"/><path id="Caminho_1607" data-name="Caminho 1607" class="cls-23" d="M219.39,284.19,182,262.46a5.86,5.86,0,0,0-7,.86l-24.26,23.45a5.86,5.86,0,0,0-.14,8.3,5.61,5.61,0,0,0,1.27,1l37.4,21.73a5.86,5.86,0,0,0,7-.86l24.26-23.45a5.88,5.88,0,0,0,.13-8.31A6.11,6.11,0,0,0,219.39,284.19Z"/><path id="Caminho_1608" data-name="Caminho 1608" class="cls-24" d="M296.81,321.8l27.56,16a5.73,5.73,0,0,0,6.84-.83l24.5-23.69a5.71,5.71,0,0,0,.13-8.08,5.48,5.48,0,0,0-1.23-1l-27.57-16a5.68,5.68,0,0,0-6.83.83l-24.5,23.69a5.7,5.7,0,0,0-.15,8.07A5.64,5.64,0,0,0,296.81,321.8Z"/><path id="Caminho_1609" data-name="Caminho 1609" class="cls-25" d="M260.61,359.27l25,14.55a7.1,7.1,0,0,0,8.52-1l22.41-21.65a7.11,7.11,0,0,0,.17-10.06,7,7,0,0,0-1.54-1.21l-25-14.55a7.1,7.1,0,0,0-8.51,1L259.23,348a7.13,7.13,0,0,0,1.38,11.26Z"/><path id="Caminho_1610" data-name="Caminho 1610" class="cls-26" d="M256.83,247.45,220,226.05a6.21,6.21,0,0,0-7.41.9l-23.78,23a6.19,6.19,0,0,0-.15,8.75,6.47,6.47,0,0,0,1.34,1.05l36.84,21.39a6.18,6.18,0,0,0,7.4-.89l23.79-23a6.18,6.18,0,0,0,.15-8.74A6,6,0,0,0,256.83,247.45Z"/><path id="Caminho_1611" data-name="Caminho 1611" class="cls-27" d="M148.74,202.36,221.24,456l129-124.66L313.74,203.74l-104-60.31Z"/><path id="Caminho_1612" data-name="Caminho 1612" class="cls-27" d="M144.26,429.76l56.81,32.92L131.44,219.07,94.31,255Z"/></g><g id="Grupo_203" data-name="Grupo 203"><path id="Caminho_1613" data-name="Caminho 1613" class="cls-28" d="M204.39,0,351.76,85.46,204.16,228.13,56.79,142.69Z"/><path id="Caminho_1614" data-name="Caminho 1614" class="cls-29" d="M161.48,41.5l51,178.56L303.3,132.3,277.62,42.46,204.38,0Z"/><path id="Caminho_1615" data-name="Caminho 1615" class="cls-30" d="M158.32,201.56l40,23.18-49-171.47L123.16,78.54Z"/><g id="Grupo_202" data-name="Grupo 202" class="cls-31"><path id="Caminho_1616" data-name="Caminho 1616" class="cls-32" d="M215.17,103.55l57.6-42.11L183.53,99.91l19.53,12.19-63.35,54.58,94.38-51.32Z"/><path id="Caminho_1617" data-name="Caminho 1617" class="cls-33" d="M259.73,76,250,83.08c16.64,16.39,17.44,41.14.39,59.25-18.95,20.12-52.9,24.62-77.15,10.72l-11.58,6.3c.4.27.79.55,1.2.82,29.84,19.13,73.49,14,97.47-11.46C281.27,126.46,280.25,96,259.73,76Z"/><path id="Caminho_1618" data-name="Caminho 1618" class="cls-34" d="M160.81,143.21c-14.93-16.36-15.12-40,1.33-57.43,18-19.07,49.51-24.12,73.41-12.67l13.16-5.68c-29.82-18.46-72.8-13.21-96.53,12-20.57,21.85-20,51.57-.49,71.66Z"/></g><path id="Caminho_1619" data-name="Caminho 1619" class="cls-35" d="M204.16,228.13v91L56.79,238.2V142.69Z"/><path id="Caminho_1620" data-name="Caminho 1620" class="cls-36" d="M204.16,228.13v91L350.51,178.21V85.46Z"/></g></g></g></g></g></svg>