<svg xmlns="http://www.w3.org/2000/svg" opacity="0.75" viewBox="0 0 435.41 436"><defs><style>.cls-1{fill:#25283d;}</style></defs><title>eletrogate</title><g id="Camada_2" data-name="Camada 2"><g id="Camada_1-2" data-name="Camada 1"><polygon class="cls-1" points="285.33 0 285.33 65.38 247.56 65.38 247.56 0 188.15 0 188.15 65.38 150.37 65.38 150.37 0 89.5 0 89.5 32.69 89.5 82.01 136.87 129.38 298.55 129.38 345.91 82.01 345.91 0 285.33 0"/><polygon class="cls-1" points="150.08 436 150.08 370.63 187.86 370.63 187.86 436 247.26 436 247.26 370.63 285.04 370.63 285.04 436 345.91 436 345.91 403.31 345.91 353.99 298.55 306.62 136.87 306.62 89.5 353.99 89.5 436 150.08 436"/><polygon class="cls-1" points="0 150.37 65.38 150.37 65.38 188.15 0 188.15 0 247.56 65.38 247.56 65.38 285.33 0 285.33 0 346.21 32.69 346.21 82.01 346.21 129.38 298.84 129.38 137.16 82.01 89.79 0 89.79 0 150.37"/><polygon class="cls-1" points="435.41 285.63 370.04 285.63 370.04 247.85 435.41 247.85 435.41 188.44 370.04 188.44 370.04 150.67 435.41 150.67 435.41 89.79 402.73 89.79 353.4 89.79 306.03 137.16 306.03 298.84 353.4 346.21 435.41 346.21 435.41 285.63"/></g></g></svg>
