<svg xmlns="http://www.w3.org/2000/svg"  opacity="0.75" viewBox="0 0 473.28 351.75"><defs><style>.cls-1{fill:#25283d;}</style></defs><title>fator junior</title><g id="Camada_2" data-name="Camada 2"><g id="Camada_1-2" data-name="Camada 1"><path class="cls-1" d="M440.19,330.29c0,2.3,0,4.59,0,6.89s0,4.71,0,7.06c0-2.35,0-4.71,0-7.06S440.18,332.59,440.19,330.29Z"/><path class="cls-1" d="M186.34,97.62a65.87,65.87,0,0,1,29.09,21.29c7.8,10,12.26,21.35,12.61,34.17.05,1.61.23,3.21.36,4.91h71.91a2.09,2.09,0,0,0,.24-.51,14.08,14.08,0,0,0,.07-1.45,55,55,0,0,0-2.89-17.48,32.31,32.31,0,0,0-1.82-4.14,6.51,6.51,0,0,0-5.21-3.78c-.66-.09-1.31-.23-2-.28-3-.24-6-.57-9.06-.63a4.23,4.23,0,0,1-4.25-2.87c-2.42-5.48-5.05-10.87-7.54-16.32-.85-1.87-1.53-3.81-2.28-5.73a7.21,7.21,0,0,1,1-7.22c1-1.42,2.12-2.8,3.19-4.18,1.19-1.54,2.4-3.05,3.59-4.58a7,7,0,0,0,.33-8.91c-1.24-1.86-2.53-3.7-3.89-5.48a116.74,116.74,0,0,0-20.14-20.09c-2.45-2-4.92-3.93-7.45-5.81a32.79,32.79,0,0,0-3.58-2.13,3.13,3.13,0,0,0-3.86.35c-2,1.7-4,3.4-6,5-1.54,1.28-3.08,2.55-4.7,3.71a4.9,4.9,0,0,1-4.84.52c-.56-.22-1.13-.43-1.68-.67q-9.69-4.14-19.36-8.28c-1.83-.78-3.68-1.51-5.55-2.27-.05-.53-.09-1-.14-1.49-.45-4-.83-7.94-1.39-11.89A8.11,8.11,0,0,0,186.42,25a26.29,26.29,0,0,0-3.33-1.43,83.57,83.57,0,0,0-16-3.29c-1.24-.14-2.49-.19-3.83-.29v73c1,.11,1.94.26,2.89.33A71.89,71.89,0,0,1,186.34,97.62Z"/><path class="cls-1" d="M111.72,212.2c-12.66-10.82-20.77-24.13-22-41.08-.16-2.15-.42-4.3-.65-6.53H18.49c0,.95-.07,1.73,0,2.5.4,3.73.67,7.48,1.34,11.16a52.25,52.25,0,0,0,2.35,8.18c1.34,3.79,4.17,5.56,8.19,5.73,3.39.15,6.76.56,10.14.81A2.64,2.64,0,0,1,43,194.66c3.17,6.93,6.42,13.83,9.62,20.75a21.09,21.09,0,0,1,.89,2.57,7.29,7.29,0,0,1-1,6.75c-1,1.44-2.16,2.77-3.21,4.17-1.55,2.09-3.13,4.16-4.57,6.32a5.7,5.7,0,0,0-.29,5.73,13.73,13.73,0,0,0,1.29,2.39,101.89,101.89,0,0,0,14,16.41c4.59,4.21,9.43,8.17,14.28,12.08a58,58,0,0,0,6.54,4.23,2.89,2.89,0,0,0,3.55-.34c.88-.73,1.78-1.45,2.65-2.2,2.29-2,4.53-4,6.87-5.94a5.89,5.89,0,0,1,6.58-.91c7.79,3.33,15.65,6.47,23.44,9.8,3,1.27,2.39.56,2.76,3.95s.68,6.74,1.14,10.1a8.91,8.91,0,0,0,5.42,7.22,32.33,32.33,0,0,0,4.23,1.62,86.33,86.33,0,0,0,14.28,2.55c1.41.16,2.82.29,4.4.45,0-24.89,0-49.51,0-74.05-3.16-.29-6.06-.45-8.93-.84C133.87,225.66,121.9,220.91,111.72,212.2Z"/><path class="cls-1" d="M401.85,279.07c.26-14.65.4-29.31.54-44a174.75,174.75,0,0,0-1.17-24.84A56.47,56.47,0,0,0,398,196.52a7.5,7.5,0,0,0-1.29-2.36c-2.13-2.24-4.26-4.48-6.58-6.51a20.39,20.39,0,0,0-9.35-4.61,43.18,43.18,0,0,0-13.89-.67,36.56,36.56,0,0,0-13.77,4.22,19.46,19.46,0,0,0-8.42,8.28c-.11.22-.36.38-.85.89,0-2.35,0-4.27,0-6.19s.12-3.95-.1-5.87c-3.69-.39-61.18-.22-62.45.17-.34,2.48-.23,16.62.2,18.06h20.85c.06,1.09.13,1.86.13,2.63V238q0,36.25,0,72.51c0,.82.08,1.64.13,2.49h19.73c.05-.91.12-1.74.12-2.57q0-23.16,0-46.34,0-29.62,0-59.24c0-.94.1-1.88.15-2.76,3.08-.45,17.62-.28,18.88.19-.07.58-.13,1.18-.19,1.77-.45,4.21-1.13,8.42-1.29,12.64-.3,7.8-.44,15.62-.38,23.43.08,11.08.37,22.17.61,33.25.08,4,.15,8,.42,12a44.71,44.71,0,0,0,2.93,13.25c3.82,9.81,11.21,14.9,21.49,15.91a50.39,50.39,0,0,0,14.65-.68c9.94-2,16.7-7.5,19.74-17.35A62.92,62.92,0,0,0,401.85,279.07ZM381,289.13c-1.22,4.35-3.82,6.62-8.35,7.1a20,20,0,0,1-4.31,0,7.37,7.37,0,0,1-6.37-4.74,22.85,22.85,0,0,1-1.43-5.59,57.42,57.42,0,0,1-.32-7.07q0-27.9,0-55.79c0-2.91-.11-5.82,0-8.72a33.62,33.62,0,0,1,.63-5.76c1.24-6,4.88-7.57,9.15-8.05a14.13,14.13,0,0,1,3.44.05,8.34,8.34,0,0,1,7.18,6.1,26.47,26.47,0,0,1,1.14,8.24q0,17,0,34h.05q0,16.17,0,32.34A29,29,0,0,1,381,289.13Z"/><path class="cls-1" d="M444.22,269.51a42.57,42.57,0,0,1,.73,7.21c.06,5-.11,10-.16,15.08a100.93,100.93,0,0,0,1,17c.23,1.42.6,2.81.9,4.18h20.34c-.28-1.06-.55-2-.77-2.9A65.83,65.83,0,0,1,464.9,296c-.07-5.63.17-11.26.1-16.89,0-4-.21-8-.59-12a16.78,16.78,0,0,0-5.28-10.88c-1.89-1.79-3.91-3.43-5.88-5.14l-1.55-1.35c.5-.35.82-.62,1.18-.83a22.07,22.07,0,0,0,11.23-16.71c.47-3.23.68-6.5.87-9.76A83,83,0,0,0,463.75,203c-1.42-7.83-5.87-13.11-13.16-16.08-1.12-.46-2.26-.86-3.41-1.24-6.16-2-12.56-2.5-19-2.8-7.58-.35-15.13.37-22.69.71a8.71,8.71,0,0,0-1.49.35c0,.87,0,1.64,0,2.42.05,2.36.17,4.72.17,7.08q0,58.51,0,117c0,.82.06,1.65.09,2.44,2.52.38,18.42.24,19.82-.19v-2.29q0-23.62.1-47.25c0-.88.1-1.77.16-2.77,3.94,0,7.68-.18,11.4.52C440.67,261.82,443.37,264.81,444.22,269.51ZM426.39,242c-.6,0-1.2,0-1.85,0-.5-2-.35-38.36.16-40.18,2.7,0,5.48,0,8.26,0a26.39,26.39,0,0,1,4,.37,8.09,8.09,0,0,1,6.87,5.94,16.39,16.39,0,0,1,.8,4.08c.21,5,.36,10,.39,15.07a20.64,20.64,0,0,1-1.34,7.65,13.75,13.75,0,0,1-1.57,3,7.24,7.24,0,0,1-5.73,3.35C433,241.55,429.71,241.83,426.39,242Z"/><path class="cls-1" d="M245.08,183.79c-6.88,43.14-13.74,86.12-20.62,129.2h18.31q1.8-11.67,3.55-23.07c2.13-.49,23.71-.34,25.31.16q1.77,11.37,3.58,22.91h20.14Q285,248.22,274.68,183.79Zm3.82,88.3c3.28-21.74,6.53-43.32,9.79-64.91l.56.06c3.16,21.56,6.31,43.13,9.49,64.85Z"/><path class="cls-1" d="M225.67,241.31H217c-2.91,0-5.81,0-8.72-.05s-5.66,0-8.58-.21c-.06-.75-.13-1.28-.13-1.81q0-17.72,0-35.43c0-.57.12-1.15.2-1.91h24.86c2.76,0,5.53,0,8.22,0,.46-2.18.36-16.75-.09-18.22H179.88a4,4,0,0,0-.27.4,1.06,1.06,0,0,0-.09.35c0,.24,0,.48,0,.73q0,63.31,0,126.64a5.46,5.46,0,0,0,.13.89.3.3,0,0,0,.08.16,2.12,2.12,0,0,0,.24.22h19.55c0-4.61,0-9,0-13.44V286.32q0-6.63,0-13.26c0-4.4,0-8.8,0-13.44,4.55,0,8.83,0,13.12,0s8.68.06,13-.14Z"/><path class="cls-1" d="M322,160H187.79c-4.49,0-9,0-13.45,0s-8.92.12-13.56-.11V0h-2.41V160H0l.15,2.38H158.32q.08,80.29.15,160.39h2.32v-2.42q0-47.79,0-95.59,0-30,0-60c0-.75.06-1.51.1-2.46H322Z"/><path class="cls-1" d="M407.24,323.32c-.58,0-1.16.06-1.88.1v15l-.32.05-4.3-15.08a29.31,29.31,0,0,0-5.35.13c-.35,2.72-.22,26.51.14,27.78h3.68c.09-6.14,0-12.17,0-18.19l.42,0c1.72,6.07,3.45,12.14,5.18,18.26h4.32v-28C408.44,323.31,407.84,323.3,407.24,323.32Z"/><path class="cls-1" d="M471.14,338.27a5.9,5.9,0,0,1-.44-.48,13.87,13.87,0,0,0,2-3.14,13.69,13.69,0,0,0,.18-7.35,4.7,4.7,0,0,0-3.77-3.76,27,27,0,0,0-9.16-.12c0,9.31,0,18.53,0,27.83h4.4V340.08c3.58-.25,4.55.64,4.44,3.79,0,1.33-.14,2.66-.09,4,0,1.11.26,2.23.4,3.35h4.15c0-2.66,0-5.2,0-7.73A6.55,6.55,0,0,0,471.14,338.27Zm-2.53-4.69c-.1,1.58-.67,2.07-2.29,2.22-.54.05-1.08,0-1.8,0v-8.46a17.7,17.7,0,0,1,2.2,0,1.81,1.81,0,0,1,1.85,1.86A31.56,31.56,0,0,1,468.61,333.58Z"/><path class="cls-1" d="M448.86,327.65a5.52,5.52,0,0,0-4.43-4.52c-4.6-1.11-8.19,1.35-8.58,6.06-.23,2.89,0,5.8,0,8.7h0c0,1.46,0,2.91,0,4.36a37.21,37.21,0,0,0,.12,3.81c.35,3.16,2.11,5.15,5.07,5.56,3.53.49,7.15-.23,8-5.5a17.45,17.45,0,0,0,.28-2.88c0-4.18,0-8.35-.06-12.53A16.59,16.59,0,0,0,448.86,327.65Zm-4.23,18.19a1.94,1.94,0,0,1-2.06,1.87,2,2,0,0,1-2.29-1.84,8.82,8.82,0,0,1-.09-1.63c0-2.35,0-4.71,0-7.06s0-4.59,0-6.89a7.69,7.69,0,0,1,.08-1.44,2,2,0,0,1,2.07-1.86,2,2,0,0,1,2.28,1.84,10.83,10.83,0,0,1,.14,1.8q0,6.71,0,13.41A10.83,10.83,0,0,1,444.63,345.84Z"/><path class="cls-1" d="M384.07,323.4h-4v2.06q0,8.9,0,17.79a18.4,18.4,0,0,1-.11,2.35c-.19,1.39-.87,2-2.09,2.07a2.12,2.12,0,0,1-2.33-2,20,20,0,0,1-.12-2.9c0-5.57,0-11.13,0-16.7,0-.83-.09-1.66-.14-2.6h-4a3.24,3.24,0,0,0-.17.64c0,7.14-.1,14.28.07,21.42.12,4.57,2.42,6.4,7.09,6.21,3.15-.12,5-1.64,5.52-4.71a25,25,0,0,0,.36-4.14c0-6.06,0-12.11,0-18.16C384.2,324.29,384.12,323.88,384.07,323.4Z"/><path class="cls-1" d="M360.06,323.48h-4.21c-.06,1.95-.17,3.76-.16,5.57,0,4.71.1,9.43.15,14.15a14.15,14.15,0,0,1-.12,2.16c-.24,1.47-.67,1.85-2.12,2-.58.06-1.16.09-1.78.14v3.88c1.28,0,2.37.08,3.43,0a4.44,4.44,0,0,0,4.28-3.56,20.39,20.39,0,0,0,.61-4.47c.07-6,.05-12,.05-18C360.19,324.74,360.1,324.1,360.06,323.48Z"/><path class="cls-1" d="M420.82,351.25h3.95V323.41h-4.12C420.28,326.76,420.44,350,420.82,351.25Z"/><path class="cls-1" d="M378.62,321c.86-1.3,1.7-2.6,2.69-4.12h-3.39l-1.9,4.68C377.13,321.5,378,321.93,378.62,321Z"/></g></g></svg>
