<svg xmlns="http://www.w3.org/2000/svg"  opacity="0.75" viewBox="0 0 999.77 289.76"><defs><style>.cls-1{fill:#25283d;}</style></defs><title>ufmg</title><g id="Camada_2" data-name="Camada 2"><g id="Camada_1-2" data-name="Camada 1"><path class="cls-1" d="M517.86,91.44c12.47-14.1,22.86-27.55,35-39.14a532.84,532.84,0,0,1,45.57-38.15c9.1-6.9,20-11.07,32.06-9.72,9.24,1,14.1,5.55,12.32,14.61-2.66,13.6-6.9,26.91-10.8,40.24-3.19,10.87-6.86,21.6-9.51,32.87,7.77-8.75,15.37-17.65,23.34-26.21,18.92-20.32,38.56-40,63.18-53.38a73.65,73.65,0,0,1,24.39-8c12.36-1.76,18.86,5.56,16.82,18a148.7,148.7,0,0,1-6.18,23.18c-10.19,30.2-20.78,60.27-30.86,90.51-1.19,3.55-1.78,9.2.17,11.49,3.45,4,8.38.81,11.86-1.84,8.24-6.25,16.07-13,24.28-19.33,1.47-1.13,4-.93,6-1.34-.25,2.21.35,5.24-.87,6.51-11.15,11.53-22.21,23.21-34.14,33.9a44.36,44.36,0,0,1-28.88,11.58c-12.2.31-18-6.39-14.5-18.13,4.61-15.35,10.12-30.44,15.34-45.6,7-20.36,14.17-40.67,21.14-61,1.9-5.56,4.61-11.68-1.17-16.41-5.5-4.51-11.35-1.63-16.63,1-17.95,9-31.26,23.58-44.84,37.82-25.75,27-42,59.51-54.88,94.05-3.41,9.15-15.89,12.65-24.16,7.2-3.81-2.52-2.75-5.63-1.63-8.95,9.75-29,19.62-58,29.14-87.1a318.42,318.42,0,0,0,9-32.28c2.35-10.95-3.26-15.69-14.11-12.57-12.61,3.62-22.19,12-31.35,20.89-31.82,30.76-56.54,66-69.25,109-3.23,10.91-10,14.25-21.33,11.69-6.09-1.38-7.53-3.88-5.53-9.93,12.11-36.68,24.3-73.34,36.31-110A64.37,64.37,0,0,0,506.34,42c.48-6.09-2.81-8.91-8.72-7.25a32.84,32.84,0,0,0-12.11,6.42C479.92,46,475,51.63,470,57c-2.34,2.47-5,4.92-7.89,1.85-1.05-1.13-.36-5.29.95-7,11.62-14.88,24-29.24,40.39-39a68.34,68.34,0,0,1,23.51-8.36C537,2.88,543.08,10,541,20.16c-1.81,8.85-4.78,17.49-7.63,26.09C528.56,60.82,523.43,75.29,517.86,91.44Z"/><path class="cls-1" d="M729.94,289.76H468.58V227h6.74q123.7,0,247.4-.14c6.2,0,7.83,1.81,7.68,7.82-.4,16.06-.13,32.14-.15,48.21C730.25,285,730.07,287.07,729.94,289.76Z"/><path class="cls-1" d="M987.82,170.22c-32.45,8.11-64.47,15.19-97.28,5.6-41.51-12.14-66-46.18-64.77-89,1.16-40.62,28.81-73.62,69.68-83.61C920-2.8,944.16.75,968.39,4.87c2.92.49,5.8,1.14,8.71,1.7C989.54,9,989.61,9,990.63,21.38c.52,6.3.73,12.63,1.08,18.93-9,2.64-10.8,2.08-15.21-5.43C965,15.4,946.83,10.16,926,11.52,888.81,14,865.67,36.85,861.32,74.05c-3.1,26.54,1,51.05,18.62,72,16.86,20.09,49.63,28.27,74.2,19.1,3.36-1.25,5.13-2.7,5-6.73-.25-9.08.17-18.18.21-27.27,0-9.6-2.7-17.3-13.82-18.72v-8.73h54.22v7.51c-10.54,3.36-11.69,4.64-11.89,15.63-.22,12.05-.06,24.11-.06,36.17Z"/><path class="cls-1" d="M.5,2.84H58.78v8c-1.48.4-3.25.84-5,1.35-5.27,1.53-8.32,4.92-8.32,10.54,0,33.22-.6,66.44.2,99.64.59,24.11,15.88,38.67,40.29,40.46a74.77,74.77,0,0,0,15.83-.31c24.37-3.42,37.3-17.54,38.37-44.91,1.13-29.11.6-58.31.24-87.46-.15-11.91-3.19-14.58-14-18.83-2-.77-2.65-4.83-4.46-8.46h50.94v8c-12,1.71-14.8,10.34-14.88,20.72-.2,25.59.12,51.19-.58,76.76a108.25,108.25,0,0,1-4.47,28.63c-6.54,21.23-21.88,33.72-43.29,38.43a113.62,113.62,0,0,1-55.23-1.66C28.5,166.68,15.09,148.5,15,120.93c-.12-31.09,0-62.19,0-93.29,0-11-.89-12.4-11.5-15.72C-2,10.19.72,6.4.5,2.84Z"/><path class="cls-1" d="M322.65,176.82H254.09v-8.15c2.26-.58,4.49-1.12,6.7-1.72,6.06-1.63,9.32-5.65,9.59-11.85.24-5.49.17-11,.17-16.49q0-54.57,0-109.15c0-12.13-1.73-14.44-13.54-17.62-6.14-1.65-2.27-6.06-3.47-9.72H386.76c.42,9,.82,17.78,1.24,26.9-5.61,1-9.94,1.5-12.55-4.94-2.4-5.95-8.15-9-14.18-9.36-19.76-1.14-39.57-1.61-60.25-2.36V23.58c0,16.71.1,33.42-.07,50.13,0,4.09,1.21,5.55,5.43,5.45,10.57-.26,21.15.08,31.72-.14,8.06-.17,16.35-.07,19.8-10,.44-1.3,4.12-1.48,7-2.41v34.21c-3.79,1.39-6.07.7-9-3.16a18.37,18.37,0,0,0-12.07-6.4c-13.88-.79-27.83-.3-42.41-.3-.13,2.42-.35,4.65-.35,6.87q0,23.16,0,46.32c0,18,3.22,21.82,21,24.87C322.21,171.31,322.4,173.75,322.65,176.82Z"/></g></g></svg>
