<svg xmlns="http://www.w3.org/2000/svg"  opacity="0.75" viewBox="0 0 480.68 458"><defs><style>.cls-1{fill:#25283d;}</style></defs><title>ifg</title><g id="Camada_2" data-name="Camada 2"><g id="Camada_1-2" data-name="Camada 1"><path class="cls-1" d="M476.94,229.46c-8.51-42.86-28.93-79.11-61.86-107.57C365.71,79.19,308.49,65,244.58,78.3,217.37,84,192.93,95.82,170.8,112.51c-1.52,1.15-3.48,3.54-3.21,5,3.74,19.74,6.36,39.86,12.15,59,12.73,42.05,40.07,70.4,83.23,82.17,14,3.84,28.14,7.48,42.08,11.67,55.6,16.74,89.4,55.63,110.38,109.82-2.51-1.69-3.7-2.57-5-3.33-19.56-11.88-38.76-24.39-58.8-35.4-16.24-8.93-33.84-14.9-52.78-15-16.52-.12-25.78,9.22-26.12,25.68-.3,15.07,5.72,28.07,13.24,40.53,13.2,21.85,30.48,40.45,47.75,59,1.18,1.26,4.31,1.74,6.14,1.22C437.23,425.12,496.56,328.26,476.94,229.46Zm-223.11,8.23c-11.7,1.56-21.21-3.62-29.1-12-17.34-18.39-12.87-50.12,8.85-63,20.13-11.94,45.68,0,52.33,24.48a101.7,101.7,0,0,1,1.71,10.36C287.25,218.21,273.54,235.05,253.83,237.69Z"/><path class="cls-1" d="M178.24,325c-11.59-37.71-19.3-76.15-24.6-115.12-2.61-19.21-4.5-38.55-5.8-57.9q-3.3-49-5.32-98.09c-.72-17.83-.13-35.72-.13-53.58L141.19,0,0,245.74,64.67,217.9c.87,3.23,1.62,5.87,2.29,8.53,9.6,38.39,21.47,76,39,111.6,14.62,29.65,32.13,57,58.19,78.14A195,195,0,0,0,257.42,458c-8.22-9.36-15.89-17.61-23-26.31C208.41,400,190.29,364.21,178.24,325Z"/></g></g></svg>
