<svg xmlns="http://www.w3.org/2000/svg"  opacity="0.75" viewBox="0 0 373 418.95"><defs><style>.cls-1{fill:#25283d;}</style></defs><title>nata house</title><g id="Camada_2" data-name="Camada 2"><g id="Camada_1-2" data-name="Camada 1"><path class="cls-1" d="M237.86,177.79C248.33,187.48,257.91,196,267,205c1.82,1.82,2.25,5.67,2.26,8.59.14,34.86.21,69.73,0,104.59,0,5.84,1.43,9.53,6.68,12.73,14.53,8.86,28.64,18.43,42.93,27.69,2.09,1.35,4.29,2.56,7.21,4.29.21-2.73.45-4.47.45-6.21,0-43.26.05-86.51-.22-129.76,0-3.21-1.46-7.45-3.77-9.45-26.52-23-53.33-45.68-80.08-68.42-1.18-1-2.49-1.85-4.07-3q-27.13,23-54,45.79c-9.19,7.8-18.14,15.9-27.58,23.38-4.62,3.65-6.09,7.7-6.08,13.43.19,59.25.12,118.49.13,177.74v12.36c-15.92,0-30.8.1-45.67-.11-1.88,0-3.87-1.45-5.59-2.56C68.28,395.92,37.1,375.63,5.76,355.6,1.46,352.86,0,349.88,0,344.81c.17-75,0-149.95.3-224.92,0-3.83,1.86-8.93,4.66-11.3C47.13,72.86,89.61,37.48,132,2c.78-.65,1.69-1.15,3-2l83.66,69.94-35.88,30.6L134.73,60.62c-16,13.29-31.67,26.3-47.32,39.34-11.88,9.89-23.93,19.6-35.43,29.91a15.88,15.88,0,0,0-4.89,10.44c-.3,59.77-.15,119.54-.31,179.3,0,5.05,1.46,8,5.83,10.75,16.63,10.38,33,21.21,51.29,33.08V353.11c0-47.45.17-94.9-.2-142.34-.06-8.37,2.37-13.7,9-19.14,40.71-33.4,80.94-67.38,121.33-101.16,1.39-1.17,2.88-2.21,4.59-3.51,20.06,16.6,40.05,33.08,59.95,49.66,23.16,19.28,46.3,38.58,69.24,58.12,2.45,2.09,5,5.82,5,8.79.28,70.52.21,141,.19,211.55a32.45,32.45,0,0,1-.56,3.83c-15,0-29.83.16-44.7-.16-2.32-.05-4.72-2.06-6.9-3.46-30.84-19.85-61.61-39.8-92.5-59.57-4.16-2.67-6-5.62-6-10.78.18-48.49.28-97-.05-145.49C222.18,187.66,233.28,186.12,237.86,177.79Z"/></g></g></svg>
