<svg xmlns="http://www.w3.org/2000/svg" viewBox="0 0 372.96 369.65"><defs><style>.cls-1{fill:#d4ecff;}.cls-2{fill:#24b24f;}.cls-3{fill:#3c6;}.cls-4{fill:#52db7c;}.cls-5{fill:#e62a7d;}.cls-6{fill:#cc0293;}.cls-7{fill:#ce2475;}.cls-8{fill:#ef509c;}.cls-9{fill:#8caef4;}.cls-10{fill:#3e6bc6;}.cls-11{fill:#5b84e6;}.cls-12{fill:#19191b;}.cls-13{fill:#25283d;}.cls-14{fill:#f7e969;}.cls-15{fill:#cebc15;}.cls-16{fill:#fff;}.cls-17{fill:#ebdb15;}.cls-18{fill:#173d7a;}.cls-19{fill:#ffc2b0;}.cls-20{fill:#ea9c92;}.cls-21{fill:#95d359;}.cls-22{fill:#c13d1a;}.cls-23{fill:#db5126;}.cls-24{fill:#ef602e;}.cls-25{fill:#6614cf;}.cls-26{fill:#983be9;}.cls-27{fill:#d29fff;}.cls-28{fill:#b45ef4;}.cls-29{fill:#e8a200;}.cls-30{fill:#f9bf30;}.cls-31{fill:#fdd762;}.cls-32{fill:#d3008d;}.cls-33{fill:#ff2c9c;}.cls-34{fill:#8a2ae3;}</style></defs><title>premio-comemoracao</title><g id="Camada_2" data-name="Camada 2"><g id="Ñëîé_1" data-name="Ñëîé 1"><path class="cls-1" d="M76,250.59l-1.84-15.72a118.7,118.7,0,0,0-31.31,6l14.79,13.25A76.65,76.65,0,0,1,76,250.59Z"/><path class="cls-2" d="M76,242.37l-1.84-15.72a118.7,118.7,0,0,0-31.31,6l14.79,13.25A76.65,76.65,0,0,1,76,242.37Z"/><polygon class="cls-2" points="75.94 209.04 57.95 209.84 57.59 212.54 57.59 245.87 71.59 240.57 75.94 242.37 75.94 209.04"/><polygon class="cls-3" points="42.8 199.28 42.8 232.62 57.59 245.87 57.59 212.54 42.8 199.28"/><path class="cls-4" d="M76,209l-1.84-15.73a119.1,119.1,0,0,0-31.31,6l14.79,13.26A76.65,76.65,0,0,1,76,209Z"/><path class="cls-1" d="M81.52,250.28c12-.07,24,2.35,33.59,7.28l19.29-11.14c-15.36-8.25-35.12-12.2-54.71-11.86Z"/><path class="cls-5" d="M81.52,242.15c12-.07,24,2.35,33.59,7.28l19.29-11.14C119,230,99.28,226.09,79.69,226.43Z"/><polygon class="cls-6" points="81.53 242.15 81.53 230.64 79.69 214.93 79.69 226.44 81.53 242.15"/><polygon class="cls-5" points="115.11 237.92 93.63 218.61 81.53 230.64 81.53 242.15 112.77 241.95 115.11 249.43 115.11 237.92"/><polygon class="cls-7" points="134.4 226.78 134.4 238.29 115.11 249.43 115.11 237.92 134.4 226.78"/><path class="cls-8" d="M81.52,230.64c12-.07,24,2.35,33.59,7.28l19.29-11.13c-15.36-8.26-35.12-12.21-54.71-11.86Z"/><path class="cls-1" d="M39.8,293.77c-11.79-11-9.41-25.7,7.17-35.27a54.27,54.27,0,0,1,5.92-2.92L38.12,242.34a84.47,84.47,0,0,0-10.43,5C1.63,262.42-1.79,285.59,17.4,302.78Z"/><path class="cls-9" d="M39.8,285.81C28,274.76,30.39,260.11,47,250.53a52.47,52.47,0,0,1,5.92-2.91L38.12,234.37a84.47,84.47,0,0,0-10.43,5c-26.06,15-29.48,38.22-10.29,55.41Z"/><path class="cls-9" d="M52.89,227.13v20.49L39.8,252.47s-17-9.27-17-9.48,2.86-19.86,5-20.74S52.89,227.13,52.89,227.13Z"/><polygon class="cls-9" points="39.8 285.81 39.8 265.32 17.4 274.33 17.4 294.81 39.8 285.81"/><path class="cls-10" d="M17.4,261.48v33.33S5.71,285,5.19,271.87l0-21.39,13.61-2Z"/><path class="cls-11" d="M39.8,265.32c-11.79-11-9.41-25.7,7.17-35.27a52.52,52.52,0,0,1,5.92-2.92L38.12,213.89a84.47,84.47,0,0,0-10.43,5C1.63,234-1.79,257.14,17.4,274.33Z"/><ellipse class="cls-1" cx="215.85" cy="236.01" rx="38.37" ry="22.15"/><path class="cls-12" d="M259,196.84l-10.28.06c-.75-.51-1.53-1-2.36-1.49-16.85-9.73-44.17-9.73-61,0-1.06.61-2.05,1.25-3,1.9l-9.67.06V213h0c0,6.37,4.21,12.75,12.64,17.61,16.85,9.73,44.17,9.73,61,0C254.79,225.78,259,219.4,259,213h0Z"/><path class="cls-12" d="M214.41,188.14c-10.56.2-21,2.62-29.07,7.27-1.06.61-2.05,1.25-3,1.9l-9.67.06V213c0,6.37,4.21,12.75,12.64,17.61,8.06,4.66,18.51,7.08,29.07,7.28Z"/><path class="cls-12" d="M178.63,197.33l-5.93,0V213c0,4.37,2,8.73,5.93,12.61Z"/><ellipse class="cls-13" cx="215.85" cy="196.84" rx="43.15" ry="24.91"/><path class="cls-14" d="M158.64,135.5A30,30,0,0,1,133,121.05L116.6,93.85a10.37,10.37,0,0,1,8.88-15.73H157.9v8.44H125.48a1.92,1.92,0,0,0-1.65,2.92l16.41,27.21A21.47,21.47,0,0,0,159,127.05l28.22-.42.12,8.44-28.21.43Z"/><path class="cls-15" d="M273.06,135.5h-.45l-28.21-.43.13-8.44,28.21.42a21.44,21.44,0,0,0,18.72-10.37l16.41-27.2a1.92,1.92,0,0,0-1.65-2.92H273.8V78.12h32.42a10.37,10.37,0,0,1,8.88,15.73l-16.41,27.2A30,30,0,0,1,273.06,135.5Z"/><path class="cls-15" d="M299.3,103.69l-7.84,13a21.44,21.44,0,0,1-18.72,10.37l-28.21-.42-.13,8.44,28.21.43h.45A30.06,30.06,0,0,0,297,123.59C300.66,114.05,300.08,107.16,299.3,103.69Z"/><ellipse class="cls-16" cx="215.85" cy="165.57" rx="23.71" ry="13.69"/><path class="cls-17" d="M188.16,179.26c5-3.71,4-7.34,4-7.34l3.78,4.57c11.49-5.55,28.28-5.55,39.77,0l3.78-4.57s-1,3.63,4,7.34,3.36,11,3.36,11h0c0,4.59-3,9.18-9.09,12.68-12.13,7-31.79,7-43.92,0-6.06-3.5-9.09-8.08-9.09-12.67C184.8,190.24,183.17,183,188.16,179.26Z"/><path class="cls-15" d="M233.2,180.35s-9-5.31-9-6.43a1.88,1.88,0,0,1,.48-.83,41.52,41.52,0,0,1,11,3.4l3.78-4.57s-1,3.63,4,7.34,3.36,11,3.36,11h0a12,12,0,0,1-2.73,7.33c.08-.57,1-8.07-4.61-10.53C233.7,184.49,233.2,180.35,233.2,180.35Z"/><path class="cls-15" d="M199.08,180.7c9.26,5.34,24.28,5.34,33.54,0s9.26-14,0-19.36-24.28-5.35-33.54,0S189.82,175.35,199.08,180.7Z"/><path class="cls-17" d="M277.87,78.62c-.62,34.57-18.44,38.76-28,51.7-8.9,12.07-7.89,29.54-7.72,31.82a2.13,2.13,0,0,1,0,.25h0c0,3.89-2.58,7.79-7.72,10.76-10.3,5.94-27,5.94-37.28,0-4.82-2.78-7.35-6.38-7.65-10h-.06v-.73h0a2.11,2.11,0,0,1,0-.25c.17-2.26,1.19-19.74-7.71-31.82-9.54-12.94-27.36-17.13-28-51.7Z"/><path class="cls-15" d="M232.56,116.26s-1.45,4.13-5.95,16-2.38,41.71-2.38,41.71l7.66.53a27.4,27.4,0,0,0,2.6-1.3c5.14-3,7.72-6.87,7.72-10.76h0a2.13,2.13,0,0,0,0-.25c-.17-2.28-1.18-19.75,7.72-31.82,9.53-12.94,27.35-17.13,28-51.7h-6.79Z"/><ellipse class="cls-14" cx="215.85" cy="78.62" rx="62.02" ry="35.81"/><ellipse class="cls-15" cx="215.85" cy="78.62" rx="52.06" ry="30.05"/><path class="cls-17" d="M179,99.88c8.52,4.91,19.26,7.74,30.36,8.54,1.74-2.18,2.41-4.53,1.57-7-5.4-16.2-3.31-49.77-3.31-49.77l-9.79-1.16A64.45,64.45,0,0,0,179,57.37C158.71,69.11,158.71,88.14,179,99.88Z"/><path class="cls-17" d="M241.34,104.83a86.49,86.49,0,0,1-51,0c.54-.36,1.09-.72,1.69-1.06,13.14-7.59,34.44-7.59,47.58,0C240.24,104.11,240.8,104.47,241.34,104.83Z"/><path class="cls-18" d="M181.38,147.09s-3.25-1.64-5.26.81-4.86,8.22-5,12.12,3.09,3.64,5,2.72,7.41-8.93,7.74-10.5a5.42,5.42,0,0,0-.92-4.1C182.44,147.73,181.38,147.09,181.38,147.09Z"/><path class="cls-5" d="M182.09,146.31l.16,3.37a1.91,1.91,0,0,1-1,1.76,3.76,3.76,0,0,1-2.51.39c-2.46-.39-2.68-1.09-2.85-4.47S182.09,146.31,182.09,146.31Z"/><path class="cls-18" d="M169.46,140.6s-3.26-1.64-5.26.81-4.87,8.22-4.95,12.12,3.08,3.64,5,2.72,7.41-8.93,7.74-10.5a5.4,5.4,0,0,0-.92-4.1C170.51,141.23,169.46,140.6,169.46,140.6Z"/><path class="cls-5" d="M170.17,139.82l.15,3.37a1.92,1.92,0,0,1-1,1.76,3.76,3.76,0,0,1-2.51.39c-2.45-.39-2.67-1.1-2.85-4.47S170.17,139.82,170.17,139.82Z"/><path class="cls-13" d="M199.24,77.84c-1-15.7-17,2.3-17,2.3l-11,10.76-9.88,10.85a9.75,9.75,0,0,0-2.46,7.82l4,30.44a3,3,0,0,0,3,2.6,12.56,12.56,0,0,0,1.48-.13,3.73,3.73,0,0,0,3.3-3.95L170,110.07l20.75-12.51S200.21,93.53,199.24,77.84Z"/><path class="cls-13" d="M211.17,83.81c-1-15.69-17,2.31-17,2.31l-11,10.76-9.88,10.85a9.75,9.75,0,0,0-2.46,7.82l4,30.44a3,3,0,0,0,3,2.59,10.58,10.58,0,0,0,1.48-.12,3.73,3.73,0,0,0,3.3-4l-.73-28.46,20.75-12.51S212.14,99.51,211.17,83.81Z"/><path class="cls-3" d="M201.69,33.44c12.15,5,11.91,12.22,11.91,12.22S211.22,72,212,89.59c.34,7.35-39.07,7.91-33.19-11.7,6.93-23.13,4.33-41.86,7.57-44.68S198.54,32.14,201.69,33.44Z"/><path class="cls-19" d="M205.6,39.81c-.64,2.47-3.87,3.77-7.22,2.91s-5.56-3.57-4.92-6,3.87-3.76,7.22-2.9S206.23,37.34,205.6,39.81Z"/><path class="cls-16" d="M200.45,43.56a9,9,0,0,1-2.22-.28c-3.66-.94-6-4-5.34-6.74s4.28-4.27,7.93-3.32a8,8,0,0,1,4.26,2.61A4.65,4.65,0,0,1,206.16,40h0a4.65,4.65,0,0,1-2.94,3.09A7.45,7.45,0,0,1,200.45,43.56Zm-1.85-9.47c-2.26,0-4.15,1-4.58,2.74-.55,2.15,1.46,4.54,4.5,5.32a6.85,6.85,0,0,0,4.27-.18,3.48,3.48,0,0,0,2.24-2.3h0a3.49,3.49,0,0,0-.85-3.11,6.93,6.93,0,0,0-3.65-2.22A7.75,7.75,0,0,0,198.6,34.09Z"/><path class="cls-19" d="M196.81,32.89a28.9,28.9,0,0,1-.1,4.34c-.07,1.21,4.17,2.34,5.27,1.25s.66-2.24.92-6.36S196.81,32.89,196.81,32.89Z"/><path class="cls-20" d="M202.9,32.12s-1.05,3.82-6.19,5.29l.08-3.47Z"/><path class="cls-19" d="M206.16,22.42a9.35,9.35,0,1,1-11.4-6.72A9.34,9.34,0,0,1,206.16,22.42Z"/><path class="cls-20" d="M199.25,25.1s-5.15,2.21-8.72,2.23-2.78-3-2.78-3l10.59-1.53Z"/><path class="cls-5" d="M189.47,25.68s4.49-1.9,8.42-1.11A4.12,4.12,0,0,1,200.27,26a1.48,1.48,0,0,0,.72.53c.7.15,1.84-2.74,3.2-2.81s2.26.9,1.15,2.68-.74,3.77-.23,4.06,5.94-3.88,1.16-13.36-17-4.38-18.85-2.46c0,0-2,1.74-3.61.2C183.81,14.82,182,28.42,189.47,25.68Z"/><path class="cls-19" d="M180.47,31.28l-6.54-2.81a3,3,0,0,1-1.59-1.72l-6.45-18.7-3,.52,5.21,23.27A3.92,3.92,0,0,0,170,34.4l10.88,6.12Z"/><path class="cls-19" d="M248.46,34.33l1.5-.69a12,12,0,0,0,3.44-2.38l1-1a2,2,0,0,0,.44-2.22h0a1.11,1.11,0,0,0-1.53-.57L250.23,29s.49-1.39.25-1.75-2.66,2.31-3.78,4.21S248.46,34.33,248.46,34.33Z"/><path class="cls-19" d="M222.38,41.81l5.59-.63A10,10,0,0,0,231.73,40l15-8.48,1.76,2.84L233.15,46.15a7,7,0,0,1-1.54.9L222.48,51Z"/><path class="cls-19" d="M162.9,8.57l-.57-.66a5.2,5.2,0,0,1-1.23-2.68l-.4-2.73a2.35,2.35,0,0,1,.9-2.22l.07-.05a1.41,1.41,0,0,1,2.07.67l1.35,3.25s-.43-1.68.12-1.87c.4-.13,1.15,2,.7,3.12a4.94,4.94,0,0,0,0,2.65Z"/><path class="cls-16" d="M193.39,31.2,191,30.53a5.8,5.8,0,0,0,2.83,2.28c1.69.46,1.95-1,1.95-1Z"/><path class="cls-3" d="M189.77,31.86s-10.92-2.15-14.25-3.16-4.73,8.14-4.47,10.46,11.6,4.91,12.95,8.89S189.77,31.86,189.77,31.86Z"/><path class="cls-3" d="M206.46,35.88s8,3.43,21.33,5.1a1.42,1.42,0,0,1,1.19.94,15.83,15.83,0,0,1,.7,8,3,3,0,0,1-2.92,2.32c-4.18,0-13.17.37-14.63,4.27C210.22,61.66,206.46,35.88,206.46,35.88Z"/><rect class="cls-17" x="304.77" y="50.32" width="2.52" height="7.32" transform="translate(437.62 335.51) rotate(-125.06)"/><rect class="cls-17" x="306.91" y="45.75" width="2.52" height="7.32" transform="translate(444.73 330.05) rotate(-125.06)"/><rect class="cls-17" x="309.05" y="41.17" width="2.52" height="7.32" transform="translate(451.84 324.59) rotate(-125.06)"/><rect class="cls-17" x="311.18" y="36.59" width="2.52" height="7.32" transform="translate(458.94 319.14) rotate(-125.05)"/><rect class="cls-5" x="357.28" y="105.85" width="1.96" height="5.68" transform="translate(729.36 59.24) rotate(155.53)"/><rect class="cls-5" x="354.09" y="103.56" width="1.96" height="5.68" transform="translate(722.33 56.2) rotate(155.53)"/><rect class="cls-5" x="350.91" y="101.28" width="1.96" height="5.68" transform="translate(715.29 53.16) rotate(155.53)"/><rect class="cls-5" x="347.72" y="99" width="1.96" height="5.68" transform="translate(708.26 50.13) rotate(155.54)"/><rect class="cls-5" x="343.89" y="21.56" width="2.52" height="2.74" transform="matrix(0.57, 0.82, -0.82, 0.57, 167.82, -274.07)"/><rect class="cls-3" x="331.74" y="16.83" width="2.52" height="2.74" transform="translate(158.69 -266.12) rotate(55.36)"/><path class="cls-3" d="M337.76,72.94,338.9,71a2.74,2.74,0,0,0,2,.2A3.82,3.82,0,0,0,343,69c2-4.2,5.78-4.52,7.47-4.1l-.53,2.17.26-1.09-.26,1.09c-.32-.08-3.22-.63-4.92,2.9a5.93,5.93,0,0,1-3.48,3.36A4.93,4.93,0,0,1,337.76,72.94Z"/><ellipse class="cls-1" cx="94.8" cy="287.12" rx="33.61" ry="19.41"/><path class="cls-18" d="M78.77,278.8A5.18,5.18,0,0,0,75.84,284a8.4,8.4,0,0,0,.43,2.54c.6,1.26,2.57,3,5.72,1.75s10.15-7.82,10.42-12.12C92.89,268.16,83.75,276.67,78.77,278.8Z"/><path class="cls-18" d="M97.28,292s-.75,4.61-.39,5.45,2.56,2.65,5.8,2.26,12.57-3.6,14.64-9.75c3.22-9.52-18,.72-18,.72Z"/><path class="cls-12" d="M106.39,218.33l.72,72a5,5,0,0,1-3.92,5l-.87.11A4.5,4.5,0,0,1,98,293.63a5.27,5.27,0,0,1-1-2.91L96.16,260l-4.59-27.47-6.34,48.62a4.19,4.19,0,0,1-1.75,3.2,4.84,4.84,0,0,1-2.89.78,5.31,5.31,0,0,1-3.85-1.89,3.81,3.81,0,0,1-.91-2.6l2.51-29.25.94-37.31Z"/><path class="cls-19" d="M97.07,153.92l-1.14,6.55a3,3,0,0,0,2.46,2.86c2.5.62,3.27-1,3.27-1l1.13-7.39Z"/><ellipse class="cls-19" cx="102.14" cy="149.79" rx="10.67" ry="9.5" transform="translate(-77.51 174.17) rotate(-63.44)"/><path class="cls-17" d="M97.37,160.59c-.17-.07-10.6-6.78-14.45.25C76.63,172.29,77,209.16,79,213.94c1.83,4.42,6.42,7.68,9.63,9.52A19.33,19.33,0,0,0,98,226.12c3.26,0,9.51-2.88,9.28-7.13-1-19.59.69-36.1,2.29-52.13C109.54,166.86,107.54,164.71,97.37,160.59Z"/><path class="cls-13" d="M91.57,232.53l-6.34,48.62a4.19,4.19,0,0,1-1.75,3.2,4.52,4.52,0,0,1-.54.31c1.32-1,5.17-41.8,5.88-46.34S91.57,232.53,91.57,232.53Z"/><polygon class="cls-19" points="130.71 162.76 136.37 144.2 133.38 142.96 126.7 157.5 130.71 162.76"/><polygon class="cls-19" points="73.6 148.13 77.85 128.81 81.23 128.85 79.96 144.87 73.6 148.13"/><path class="cls-17" d="M109.54,166.86s10.18,2,16.65-9.82a1.61,1.61,0,0,1,2.69-.28c1,1.58,2.41,4,1.7,6.62-3.15,11.58-20.27,14.14-23.34,20.86S109.54,166.86,109.54,166.86Z"/><path class="cls-17" d="M90.76,158.19s-8.06.62-9.23-6.36a55.9,55.9,0,0,1-.81-7,1.4,1.4,0,0,0-1.58-1.36c-1.93.24-4.92.81-5.32,2.11-.61,1.93-1.74,11.4,6.22,25.94C85.25,181.06,90.76,158.19,90.76,158.19Z"/><path class="cls-19" d="M77.83,128.86l.08-2.2a4.39,4.39,0,0,1,.66-2.2l2.23-3.67.58-.73a1.69,1.69,0,0,1,2.23-.38l.52.32a2.12,2.12,0,0,1,1,1.92L84,125.06l1.46-.29a.52.52,0,0,1,.61.42h0a.51.51,0,0,1-.31.57l-2.39,1-2.17,3.07Z"/><path class="cls-19" d="M136.46,144.3l.67-2.1a4.56,4.56,0,0,0,.13-2.29l-.86-4.21-.29-.89a1.69,1.69,0,0,0-2-1.11l-.6.13A2.09,2.09,0,0,0,132,135.3l0,3.34-1.28-.76a.51.51,0,0,0-.71.18h0a.52.52,0,0,0,.1.65l1.92,1.71,1.12,4.07Z"/><path class="cls-17" d="M104.77,180.9c-.93,4.23,1.68,37.08-6.8,45.22,3.26,0,9.51-2.88,9.28-7.13a260.26,260.26,0,0,1,.78-36c3.32-4.3,12.47-7.05,18.19-12.57C125.8,170.52,105.69,176.71,104.77,180.9Z"/><path class="cls-16" d="M93.62,158.74l1.45-1.49s2.38,2.44,4.29,2.86a22.67,22.67,0,0,0,3.43.71l.93,2.57S96.14,162.85,93.62,158.74Z"/><path class="cls-18" d="M103.84,153.19a1.24,1.24,0,0,0,1.07-.34c.49-.5.69-3.14,2-3.36,2-.35,6,2.77,7.69-3.93.86-3.48-.7-4.71-.36-6.64,0,0,0,1-9-1.17s-13.3,5.38-14.17,9.18S91,157.35,97,159.28c1,.32,5.91-2.4,5.88-2.88s-1.67-.73-1.2-2A1.72,1.72,0,0,1,103.84,153.19Z"/><path class="cls-16" d="M206.3,27.33a1.16,1.16,0,1,1-1.16-1.16A1.17,1.17,0,0,1,206.3,27.33Z"/><polygon class="cls-1" points="209.07 327.22 195.41 319.33 181.75 327.22 195.41 335.1 209.07 327.22"/><polygon class="cls-15" points="195.41 327.79 195.41 318.9 211.73 309.48 211.73 318.37 195.41 327.79"/><polygon class="cls-17" points="195.41 318.9 179.09 309.48 179.09 318.37 195.41 327.79 195.41 318.9"/><polygon class="cls-14" points="211.73 309.48 195.41 300.06 179.09 309.48 195.41 318.9 211.73 309.48"/><polygon class="cls-1" points="80.43 107.08 66.77 99.19 53.1 107.08 66.77 114.97 80.43 107.08"/><polygon class="cls-7" points="66.77 107.65 66.77 98.77 83.09 89.34 83.09 98.23 66.77 107.65"/><polygon class="cls-5" points="66.77 98.77 50.45 89.34 50.45 98.23 66.77 107.65 66.77 98.77"/><polygon class="cls-8" points="83.09 89.34 66.77 79.92 50.45 89.34 66.77 98.77 83.09 89.34"/><path class="cls-17" d="M333,157.93a7.27,7.27,0,1,1,7.27-7.26A7.27,7.27,0,0,1,333,157.93Zm0-12.29a5,5,0,1,0,5,5A5,5,0,0,0,333,145.64Z"/><path class="cls-5" d="M4.93,189.88,0,179.85l10-4.93L15,185Zm-1.94-9,3,6,6-2.95-3-6Z"/><path class="cls-5" d="M161.49,280.73a10.24,10.24,0,1,1,10.25-10.24A10.25,10.25,0,0,1,161.49,280.73Zm0-18.25a8,8,0,1,0,8,8A8,8,0,0,0,161.49,262.48Z"/><circle class="cls-17" cx="152.37" cy="277.24" r="7.4"/><polygon class="cls-1" points="370.61 317.5 353.82 307.8 337.03 317.5 353.82 327.19 370.61 317.5"/><polygon class="cls-10" points="358.7 304.63 358.7 244.24 372.96 236.01 372.96 296.39 358.7 304.63"/><polygon class="cls-11" points="358.7 244.24 344.44 236.01 344.44 296.39 358.7 304.63 358.7 244.24"/><polygon class="cls-9" points="372.96 236.01 358.7 227.77 344.44 236.01 358.7 244.24 372.96 236.01"/><polygon class="cls-21" points="372.96 307.37 358.7 299.14 358.7 304.63 372.96 312.86 372.96 307.37"/><polygon class="cls-22" points="344.44 312.86 344.44 268.95 358.7 260.71 358.7 304.63 344.44 312.86"/><polygon class="cls-23" points="344.44 268.95 330.18 260.71 330.18 304.63 344.44 312.86 344.44 268.95"/><polygon class="cls-24" points="358.7 260.71 344.44 252.48 330.18 260.71 344.44 268.95 358.7 260.71"/><polygon class="cls-7" points="344.44 312.86 344.44 268.95 358.7 260.71 358.7 304.63 344.44 312.86"/><polygon class="cls-5" points="344.44 268.95 330.18 260.71 330.18 304.63 344.44 312.86 344.44 268.95"/><polygon class="cls-8" points="358.7 260.71 344.44 252.48 330.18 260.71 344.44 268.95 358.7 260.71"/><polygon class="cls-15" points="358.7 321.1 358.7 296.39 372.96 288.16 372.96 312.86 358.7 321.1"/><polygon class="cls-17" points="358.7 296.39 344.44 288.16 344.44 312.86 358.7 321.1 358.7 296.39"/><polygon class="cls-14" points="372.96 288.16 358.7 279.93 344.44 288.16 358.7 296.39 372.96 288.16"/><rect class="cls-17" x="138.83" y="48.14" width="2.52" height="7.32" transform="translate(17.22 136.72) rotate(-54.94)"/><rect class="cls-17" x="136.69" y="43.56" width="2.52" height="7.32" transform="matrix(0.57, -0.82, 0.82, 0.57, 20.06, 133.03)"/><rect class="cls-17" x="134.56" y="38.99" width="2.52" height="7.32" transform="translate(22.9 129.33) rotate(-54.94)"/><rect class="cls-17" x="132.42" y="34.41" width="2.52" height="7.32" transform="translate(25.74 125.63) rotate(-54.95)"/><rect class="cls-5" x="86.89" y="103.66" width="1.96" height="5.68" transform="translate(52 -26.83) rotate(24.47)"/><rect class="cls-5" x="90.07" y="101.38" width="1.96" height="5.68" transform="translate(51.34 -28.35) rotate(24.47)"/><rect class="cls-5" x="93.26" y="99.1" width="1.96" height="5.68" transform="translate(50.68 -29.88) rotate(24.47)"/><rect class="cls-5" x="96.45" y="96.81" width="1.96" height="5.68" transform="translate(50.01 -31.4) rotate(24.46)"/><rect class="cls-5" x="99.71" y="19.38" width="2.52" height="2.74" transform="translate(175.44 -50.53) rotate(124.64)"/><rect class="cls-3" x="111.86" y="14.65" width="2.52" height="2.74" transform="translate(190.6 -67.94) rotate(124.64)"/><path class="cls-3" d="M108.36,70.76l-1.14-1.93a2.72,2.72,0,0,1-2,.21,3.81,3.81,0,0,1-2.09-2.19c-2-4.2-5.77-4.52-7.47-4.1l.54,2.17L96,63.84l.26,1.08c.32-.07,3.22-.62,4.93,2.91a5.9,5.9,0,0,0,3.47,3.35A4.93,4.93,0,0,0,108.36,70.76Z"/><ellipse class="cls-1" cx="288.69" cy="294.19" rx="18.42" ry="10.64"/><path class="cls-25" d="M300.33,150.13s-.53,10.92-1.36,18.25-18.5-5.63-18.5-5.63V154.4Z"/><path class="cls-12" d="M290.92,285.94c-.26.67-4.84,6.24-9.42,7.63a10.33,10.33,0,0,1-4.2.58,1.38,1.38,0,0,1-1.13-1.84,17.4,17.4,0,0,1,8.78-9.68C292.71,278.78,290.92,285.94,290.92,285.94Z"/><path class="cls-12" d="M292.45,288.08a37.73,37.73,0,0,0-2.26,7.44c-.32,2.06.81,4.74,1.74,6.52a1.91,1.91,0,0,0,3,.51,11,11,0,0,0,3.72-7.1c.53-5.71,0-6.7,0-6.7Z"/><path class="cls-13" d="M303.48,219.13a109.69,109.69,0,0,1,0,15.15c-.6,8-2.74,45.2-3.14,54.15,0,0,.2,2.71-5,2.12s-4.82-3.61-4.82-3.61-7.38-.1-7.61-4.45-7.55-51.89-7.55-69Z"/><polygon class="cls-19" points="277.85 181.98 273.6 207.98 269.73 207.91 270.08 184.08 277.85 181.98"/><path class="cls-11" d="M279.63,159s-5.74-.15-7.73,8.14-3.56,18.68-1.83,19.54c5.22,2.59,8.52-.44,8.52-.44Z"/><path class="cls-11" d="M277.91,159.3a4.71,4.71,0,0,1,3.1-.17c4.89,1.41,23.27,6.8,26.3,9.39,3.5,3-5.25,19.8-5.13,25.31s.75,12,1.24,18,1.14,9.28-3.76,11.82-13.26,2.67-19.53-2.1-5.12-8-4.86-11.51,2.39-18.44,2.21-22.7a15.93,15.93,0,0,1-3.84-4.41c-1.64-2.79,1.25-7.91,2.45-11.25s-.68-7.14-.31-9.86A3.09,3.09,0,0,1,277.91,159.3Z"/><ellipse class="cls-16" cx="290.69" cy="165.92" rx="5.53" ry="6.96" transform="translate(89.19 433.18) rotate(-82.7)"/><path class="cls-19" d="M285.76,165.29c-.28,2.16,1.71,4.2,4.43,4.55s5.16-1.13,5.44-3.29-1.71-4.2-4.43-4.55S286,163.12,285.76,165.29Z"/><path class="cls-19" d="M288.47,158.18s3.32-2.73,4-1.35,1.19,7.32,1.19,7.32L287,165.92l1-6S286.72,158.79,288.47,158.18Z"/><circle class="cls-19" cx="287.99" cy="151.1" r="9.84" transform="translate(-37.23 152.28) rotate(-27.89)"/><path class="cls-20" d="M292.9,158.55c.06.31.11.65.16,1-.66,3.43-5.78,4.93-5.78,4.93l.76-4.55s-.62-.53-.45-1.06C289.62,158.22,292.17,157.65,292.9,158.55Z"/><circle class="cls-19" cx="287.99" cy="151.1" r="9.84" transform="translate(-37.23 152.28) rotate(-27.89)"/><polygon class="cls-19" points="312.23 192.75 311.13 219.07 307.28 219.47 304.77 195.77 312.23 192.75"/><path class="cls-11" d="M299.58,190.54c1.28-5.62,3.79-18,3.79-18l1.08,12.36c-1.24,3.66-2.31,7-2.27,9,.08,3.24.32,6.81.61,10.42v0S298.31,196.17,299.58,190.54Z"/><path class="cls-11" d="M306.57,168s3.08,1.18,4.82,10.63,3.05,18.92-.06,20.14-5.7,2.14-6.61-.39-1.48-14.71-1.6-19.09S302.84,168.85,306.57,168Z"/><path class="cls-13" d="M290.47,286.94a14.39,14.39,0,0,1-2.11-.22h0l-1.44-57.87Z"/><path class="cls-26" d="M296,255.68l2-2.68,21.54-12.46a3,3,0,0,0,1.25-2.4l0-17.63,1.24-1.61-1.17-.68h0a.78.78,0,0,0-.84.05L295.67,232.4a3,3,0,0,0-1.25,2.39l0,19.21a1.09,1.09,0,0,0,.45,1h0Z"/><path class="cls-27" d="M310.93,245.57l1.53-.89,8.4-14.59v-9.58l1.24-1.61-1.17-.68h0a.78.78,0,0,0-.84.05L295.67,232.4a2.55,2.55,0,0,0-.92,1.08Z"/><path class="cls-27" d="M321.54,219.61l.55-.71-1.17-.68h0a.78.78,0,0,0-.84.05l-.43.25Z"/><path class="cls-26" d="M295.45,232.56a3.14,3.14,0,0,0-1,2.05l2.39,1.38,1.14-2Z"/><path class="cls-28" d="M296.84,233.08,321.24,219c.69-.4,1.25,0,1.25.94l0,19.2a3,3,0,0,1-1.24,2.39l-24.41,14.13c-.69.4-1.25,0-1.25-.94l0-19.2A3,3,0,0,1,296.84,233.08Z"/><path class="cls-27" d="M312,236.9a4.09,4.09,0,0,1-1.85,3.2c-1,.59-1.85.11-1.85-1.06a4.1,4.1,0,0,1,1.85-3.21C311.14,235.24,312,235.72,312,236.9Z"/><path class="cls-19" d="M311.1,218.85s1,6.15.86,8.11-1.2,5.22-2,5.15,0-7.92-1.43-7.13-1.56,2.12-2.19,1.64,1.11-7.17.64-10.08S311.1,218.85,311.1,218.85Z"/><path class="cls-19" d="M269.73,207.91s-1,6.15-.87,8.12,1.21,5.21,2,5.14,0-7.91,1.43-7.13,1.55,2.12,2.19,1.65-1.11-7.18-.64-10.09S269.73,207.91,269.73,207.91Z"/><path class="cls-20" d="M284.21,152c-4.93,1.75-5.89.68-5.94.63a9,9,0,0,1-.1-.91,9.9,9.9,0,0,1,.33-3.14l12.8-1.73A14,14,0,0,1,284.21,152Z"/><path class="cls-25" d="M277.82,141.88c1.16-1,5.36-5.93,12.87-4.76,4.7.72,8.66,3.93,9.54,11.24a16.82,16.82,0,0,1-4.54,13.37,3.4,3.4,0,0,1-.54-.27c-1.88-1.24-2.09-1.92-2.08-1.93l-.42-3.73a1,1,0,0,1,.94-1,1.9,1.9,0,0,0,1.37-.84c1.08-1.42.59-3.62-1.57-3.7a1.65,1.65,0,0,1-1.73-1.23.88.88,0,0,0-1.15-.6c-2.46.89-8.51,2.81-12.41,1.71C273.12,148.69,276.65,142.88,277.82,141.88Z"/><path class="cls-16" d="M283.42,156.4l-3-.82a7.24,7.24,0,0,0,3.54,2.83c2.09.58,2.42-1.2,2.42-1.2Z"/><polygon class="cls-27" points="305.98 226.43 308.55 224.97 307.58 226.54 306.29 227.02 305.98 226.43"/><path class="cls-1" d="M274.11,341.94c-11-6.34-28.79-6.34-39.77,0s-11,16.62,0,23,28.79,6.34,39.77,0S285.09,348.28,274.11,341.94Zm-10.75,16.75c-5,2.92-13.23,2.92-18.28,0s-5.05-7.64,0-10.55,13.24-2.92,18.28,0S268.41,355.78,263.36,358.69Z"/><path class="cls-29" d="M230.19,333.23l10,.15a10.72,10.72,0,0,1,3.17-2.66c5.52-3.19,14.19-3.43,20.2-.74l6-5.61,9.18.14c-.46-.29-.92-.59-1.41-.87-12.76-7.36-33.44-7.36-46.19,0a23.92,23.92,0,0,0-5.74,4.47Z"/><polygon class="cls-30" points="278.73 309.95 278.73 324.51 269.55 324.37 269.55 309.8 278.73 309.95"/><polygon class="cls-29" points="263.59 315.41 263.59 329.98 269.55 324.37 269.55 309.8 263.59 315.41"/><path class="cls-29" d="M240.22,318.82v14.56l13.2-10.75L263.59,330V315.41l-9.37-4.55s-12.89,3.95-13.56,4.12S240.22,318.82,240.22,318.82Z"/><polygon class="cls-29" points="230.19 318.66 230.19 333.23 240.22 333.38 240.22 318.81 230.19 318.66"/><polygon class="cls-30" points="225.39 313.54 225.39 328.11 230.19 333.23 230.19 318.66 225.39 313.54"/><path class="cls-31" d="M230.19,318.66l10,.16a10.59,10.59,0,0,1,3.17-2.67c5.52-3.18,14.19-3.43,20.2-.74l6-5.61,9.18.15c-.46-.3-.92-.59-1.41-.88-12.76-7.36-33.44-7.36-46.19,0a24.43,24.43,0,0,0-5.74,4.47Z"/><path class="cls-32" d="M266.61,317.2v13.39l8.68-2.08s-.51-7.83-.69-8S266.61,317.2,266.61,317.2Z"/><path class="cls-32" d="M260,330.59v14.57l.94,1,6.12-3.53s-1-11.12-1.06-11.35A59,59,0,0,0,260,330.59Z"/><path class="cls-32" d="M271.86,326.83l-5.25,4.94c4.37,3.46,3.86,8.33-1.55,11.46a18.84,18.84,0,0,1-5,1.93l5.43,5.78-4.81,4.52a43.64,43.64,0,0,0,16.66-5.15c11-6.33,12.49-16,4.6-23.32Z"/><polygon class="cls-32" points="260.66 340.89 260.66 355.46 272.56 350.86 286.88 337.2 286.82 321.74 271.68 333.74 260.66 340.89"/><path class="cls-33" d="M271.86,312.26l-5.25,4.94c4.37,3.46,3.86,8.34-1.55,11.46a18.51,18.51,0,0,1-5,1.93l5.43,5.78-4.81,4.52a43.64,43.64,0,0,0,16.66-5.15c11-6.33,12.49-16,4.6-23.32Z"/><path class="cls-28" d="M260.62,350.86l-4.78-5.09a22.91,22.91,0,0,1-12.45-2.54c-3.51-2-5-4.8-4.35-7.44l-11.39-.18L223.28,331c-3.84,6.57-1.22,14.12,7.85,19.36,6.66,3.84,15.49,5.68,24.22,5.5Z"/><polygon class="cls-28" points="255.35 341.25 255.35 355.81 221.57 337.09 221.57 322.52 226.5 324.51 255.35 341.25"/><polygon class="cls-26" points="260.62 336.3 260.62 350.86 255.35 355.81 255.35 341.25 260.62 336.3"/><path class="cls-34" d="M260.62,336.3l-4.78-5.1a22.83,22.83,0,0,1-12.45-2.54c-3.51-2-5-4.8-4.35-7.44L227.65,321l-4.37-4.66c-3.84,6.57-1.22,14.12,7.85,19.36,6.66,3.85,15.49,5.68,24.22,5.51Z"/></g></g></svg>
