<svg xmlns="http://www.w3.org/2000/svg" xmlns:xlink="http://www.w3.org/1999/xlink" viewBox="0 0 417.17 460.58"><defs><style>.cls-1{isolation:isolate;}.cls-2,.cls-3{fill:#19191b;}.cls-2{opacity:0.4;}.cls-4{fill:#25283d;}.cls-5{fill:#f7f8f9;}.cls-6{fill:#ebdb15;}.cls-7{fill:none;}.cls-8{fill:#3060a8;}.cls-9{fill:#204389;}.cls-10{fill:#5b84e6;}.cls-11{fill:#3b1354;}.cls-12{fill:#501074;}.cls-13{fill:#af2869;}.cls-14{fill:#e62a7d;}.cls-15{fill:#b7825e;}.cls-16{fill:#faa379;}.cls-17{fill:#02007d;}.cls-18{fill:#fab08b;}.cls-19{fill:#3c6;}.cls-20{fill:#5d4037;}.cls-21{mix-blend-mode:hard-light;fill:url(#linear-gradient);}.cls-22{fill:url(#linear-gradient-2);}.cls-23{fill:url(#linear-gradient-3);}.cls-24{fill:url(#linear-gradient-4);}.cls-25{fill:url(#linear-gradient-5);}.cls-26,.cls-27{mix-blend-mode:overlay;}.cls-26{fill:url(#linear-gradient-6);}.cls-27{fill:url(#linear-gradient-7);}.cls-28{fill:url(#linear-gradient-8);}.cls-29{fill:url(#linear-gradient-9);}.cls-30{fill:url(#linear-gradient-10);}.cls-31{fill:url(#linear-gradient-11);}.cls-32{fill:url(#linear-gradient-12);}.cls-33{fill:url(#linear-gradient-13);}.cls-34{fill:url(#linear-gradient-14);}.cls-35{opacity:0.76;fill:url(#linear-gradient-15);}</style><linearGradient id="linear-gradient" x1="197.88" y1="22.36" x2="197.88" y2="300.99" gradientUnits="userSpaceOnUse"><stop offset="0" stop-color="#f6a4ff" stop-opacity="0"/><stop offset="0.11" stop-color="#eaaaff" stop-opacity="0.08"/><stop offset="0.33" stop-color="#cab8ff" stop-opacity="0.28"/><stop offset="0.64" stop-color="#97d0ff" stop-opacity="0.6"/><stop offset="1" stop-color="#57edff"/></linearGradient><linearGradient id="linear-gradient-2" x1="154.21" y1="124.4" x2="154.21" y2="199.97" xlink:href="#linear-gradient"/><linearGradient id="linear-gradient-3" x1="161.49" y1="140.18" x2="161.49" y2="208.32" gradientUnits="userSpaceOnUse"><stop offset="0.01" stop-color="#f6a4ff" stop-opacity="0.5"/><stop offset="0.17" stop-color="#e2adff" stop-opacity="0.56"/><stop offset="0.5" stop-color="#aec5ff" stop-opacity="0.73"/><stop offset="0.97" stop-color="#5bebff" stop-opacity="0.99"/><stop offset="1" stop-color="#57edff"/></linearGradient><linearGradient id="linear-gradient-4" x1="241.55" y1="144.27" x2="241.55" y2="194.85" gradientUnits="userSpaceOnUse"><stop offset="0.01" stop-color="#f6a4ff" stop-opacity="0.9"/><stop offset="0.2" stop-color="#dfafff" stop-opacity="0.91"/><stop offset="0.57" stop-color="#a3caff" stop-opacity="0.95"/><stop offset="1" stop-color="#57edff"/></linearGradient><linearGradient id="linear-gradient-5" x1="198.49" y1="202" x2="198.49" y2="245.23" xlink:href="#linear-gradient-3"/><linearGradient id="linear-gradient-6" x1="192.22" y1="90.77" x2="192.22" y2="187.46" xlink:href="#linear-gradient"/><linearGradient id="linear-gradient-7" x1="223.9" y1="164.29" x2="223.9" y2="208.02" xlink:href="#linear-gradient"/><linearGradient id="linear-gradient-8" x1="214.54" y1="151.63" x2="214.54" y2="36.77" gradientUnits="userSpaceOnUse"><stop offset="0" stop-color="#504bf9" stop-opacity="0"/><stop offset="1" stop-color="#773fff"/></linearGradient><linearGradient id="linear-gradient-9" x1="187.51" y1="67.37" x2="187.51" y2="25.6" gradientUnits="userSpaceOnUse"><stop offset="0" stop-color="#504bf9" stop-opacity="0"/><stop offset="1" stop-color="#e06dff"/></linearGradient><linearGradient id="linear-gradient-10" x1="159.32" y1="195.98" x2="159.32" y2="26.57" gradientUnits="userSpaceOnUse"><stop offset="0" stop-color="#504bf9" stop-opacity="0"/><stop offset="1" stop-color="#416fff"/></linearGradient><linearGradient id="linear-gradient-11" x1="181.74" y1="207.38" x2="181.74" y2="133.88" xlink:href="#linear-gradient-9"/><linearGradient id="linear-gradient-12" x1="161.49" y1="260.71" x2="161.49" y2="211.02" xlink:href="#linear-gradient-9"/><linearGradient id="linear-gradient-13" x1="241.19" y1="249" x2="241.19" y2="199.3" xlink:href="#linear-gradient-9"/><linearGradient id="linear-gradient-14" x1="226.85" y1="227.81" x2="226.85" y2="88.15" gradientUnits="userSpaceOnUse"><stop offset="0" stop-color="#504bf9" stop-opacity="0"/><stop offset="1" stop-color="#9400d5"/></linearGradient><linearGradient id="linear-gradient-15" x1="196.2" y1="203.93" x2="196.2" y2="41.52" gradientUnits="userSpaceOnUse"><stop offset="0" stop-color="#fff"/><stop offset="1" stop-color="#57edff" stop-opacity="0"/></linearGradient></defs><title>produtividade</title><g class="cls-1"><g id="Camada_2" data-name="Camada 2"><g id="Camada_1-2" data-name="Camada 1"><path class="cls-2" d="M367.65,270.65c9.75,5.63,9.81,14.77.11,20.4l-152,88.34c-9.69,5.64-25.47,5.63-35.22,0l-153-88.34c-9.76-5.63-9.81-14.76-.11-20.4l152-88.34c9.7-5.63,25.46-5.63,35.22,0Z"/><path class="cls-3" d="M362.86,278.28,215.23,364.07c-9.42,5.47-24.74,5.47-34.21,0L32.42,278.28c-4.77-2.75-7.15-6.37-7.14-10V273c0,3.61,2.37,7.22,7.14,10L181,368.77c9.47,5.47,24.79,5.47,34.2,0L362.85,283c4.67-2.71,7-6.27,7-9.83l0-4.7C369.88,272,367.54,275.56,362.86,278.28Z"/><path class="cls-4" d="M362.75,258.46c9.47,5.47,9.53,14.35.11,19.82L215.23,364.07c-9.42,5.47-24.74,5.47-34.21,0L32.42,278.28c-9.48-5.47-9.53-14.34-.11-19.81l147.63-85.8c9.42-5.47,24.73-5.47,34.21,0Z"/><path class="cls-2" d="M170.32,395.24c4.79,2.76,4.81,7.24.06,10l-74.51,43.3c-4.76,2.76-12.48,2.76-17.27,0l-75-43.3c-4.78-2.76-4.8-7.24-.05-10l74.51-43.3c4.75-2.76,12.48-2.76,17.26,0Z"/><path class="cls-3" d="M161.51,382.55l-66.59,38.7a17,17,0,0,1-15.43,0l-67-38.7c-2.15-1.24-3.22-2.87-3.22-4.5l-.05,19.06c0,1.63,1.06,3.26,3.21,4.5l67,38.7a17,17,0,0,0,15.43,0l66.59-38.69c2.11-1.23,3.17-2.84,3.17-4.44l.05-19.06C164.68,379.72,163.62,381.32,161.51,382.55Z"/><path class="cls-5" d="M161.47,373.61c4.27,2.47,4.29,6.47,0,8.94l-66.59,38.7a17,17,0,0,1-15.43,0l-67-38.7c-4.28-2.47-4.29-6.47-.05-8.94L79,334.91c4.24-2.47,11.15-2.47,15.42,0Z"/><path class="cls-4" d="M157.05,376.14c1.82,1.05,1.83,2.77,0,3.83L90.47,418.66a7.3,7.3,0,0,1-6.61,0l-67-38.7c-1.83-1.06-1.84-2.78,0-3.83l66.59-38.7a7.27,7.27,0,0,1,6.61,0Z"/><path class="cls-6" d="M70.41,377.42c.6.35.61.91,0,1.26L48.51,391.42a2.46,2.46,0,0,1-2.18,0L24.27,378.68a.67.67,0,0,1,0-1.26l21.91-12.73a2.39,2.39,0,0,1,2.18,0Z"/><path class="cls-6" d="M59.44,390a.76.76,0,0,1,0,1.43,2.75,2.75,0,0,1-2.47,0c-.69-.4-.69-1,0-1.43A2.69,2.69,0,0,1,59.44,390Z"/><path class="cls-6" d="M55.15,392.5a.75.75,0,0,1,0,1.43,2.69,2.69,0,0,1-2.47,0c-.69-.4-.69-1,0-1.43A2.69,2.69,0,0,1,55.15,392.5Z"/><path class="cls-6" d="M63.73,387.52a.75.75,0,0,1,0,1.43,2.75,2.75,0,0,1-2.47,0,.76.76,0,0,1,0-1.43A2.71,2.71,0,0,1,63.73,387.52Z"/><path class="cls-6" d="M68,385a.76.76,0,0,1,0,1.44,2.75,2.75,0,0,1-2.47,0,.76.76,0,0,1,0-1.44A2.75,2.75,0,0,1,68,385Z"/><path class="cls-6" d="M72.3,382.53c.69.4.69,1,0,1.43a2.69,2.69,0,0,1-2.47,0,.75.75,0,0,1,0-1.43A2.75,2.75,0,0,1,72.3,382.53Z"/><path class="cls-6" d="M74.67,428.68a3.77,3.77,0,0,1,1.7,2.94c0,1.08-.77,1.52-1.71,1a3.75,3.75,0,0,1-1.7-2.94C73,428.58,73.73,428.14,74.67,428.68Z"/><path class="cls-6" d="M68.58,425.17a3.75,3.75,0,0,1,1.7,2.94c0,1.08-.77,1.52-1.71,1a3.72,3.72,0,0,1-1.69-2.95C66.88,425.06,67.64,424.63,68.58,425.17Z"/><path class="cls-6" d="M62.5,421.66a3.75,3.75,0,0,1,1.7,2.94c0,1.08-.77,1.52-1.71,1a3.75,3.75,0,0,1-1.7-2.94C60.79,421.55,61.56,421.12,62.5,421.66Z"/><polygon class="cls-6" points="22.33 393.08 22.32 396.65 15.68 392.82 15.69 389.24 22.33 393.08"/><polygon class="cls-6" points="30.47 397.78 30.46 401.35 23.82 397.52 23.83 393.94 30.47 397.78"/><polygon class="cls-5" points="203.32 337.38 181.45 350.01 176.69 347.26 198.56 334.64 203.32 337.38"/><polygon class="cls-5" points="225.09 333.25 188.75 354.23 183.99 351.48 220.32 330.5 225.09 333.25"/><polygon class="cls-5" points="248.23 328.31 196.04 358.44 191.28 355.69 243.47 325.56 248.23 328.31"/><path class="cls-4" d="M170.21,460.58a21.51,21.51,0,0,1-10.48-2.5L107.64,428a.74.74,0,0,1-.26-1,.73.73,0,0,1,1-.27l52.08,30.07c5.37,3.1,14.12,3.1,19.5,0L320,376c2.47-1.43,3.83-3.28,3.83-5.21s-1.36-3.79-3.83-5.21l-50.3-29a.73.73,0,0,1,.73-1.27l50.31,29c2.93,1.7,4.55,4,4.55,6.48s-1.62,4.78-4.55,6.47l-140,80.85A21.54,21.54,0,0,1,170.21,460.58Z"/><path class="cls-4" d="M157.67,423.38a21.47,21.47,0,0,1-10.49-2.5L133.59,413a.73.73,0,1,1,.73-1.27l13.6,7.85c5.37,3.11,14.12,3.11,19.5,0l90.71-52.37C260.6,365.82,262,364,262,362s-1.35-3.78-3.82-5.2l-12.37-7.14a.73.73,0,0,1,.73-1.27l12.37,7.14c2.94,1.7,4.56,4,4.56,6.47s-1.62,4.78-4.56,6.48l-90.71,52.37A21.43,21.43,0,0,1,157.67,423.38Z"/><path class="cls-4" d="M306.15,428.74a21.43,21.43,0,0,1-10.48-2.51l-30.28-17.48a.73.73,0,0,1,.73-1.27L296.4,425c5.38,3.1,14.13,3.1,19.5,0l96-55.42c2.47-1.42,3.83-3.27,3.83-5.2s-1.36-3.79-3.83-5.21L319.4,305.75a.73.73,0,0,1,.74-1.27l92.47,53.39c2.94,1.7,4.56,4,4.56,6.48s-1.62,4.77-4.56,6.47l-96,55.41A21.44,21.44,0,0,1,306.15,428.74Z"/><ellipse class="cls-4" cx="341.1" cy="410.1" rx="17.09" ry="9.86"/><ellipse class="cls-6" cx="341.1" cy="410.1" rx="7.53" ry="4.35"/><ellipse class="cls-4" cx="377.06" cy="390.12" rx="17.09" ry="9.86"/><path class="cls-6" d="M371.74,387a11.76,11.76,0,0,1,10.65,0c2.94,1.7,2.94,4.45,0,6.15a11.76,11.76,0,0,1-10.65,0C368.79,391.49,368.79,388.74,371.74,387Z"/><path class="cls-4" d="M341.83,316.83c6.67-3.85,17.49-3.85,24.17,0s6.67,10.1,0,13.95-17.5,3.86-24.17,0S335.16,320.69,341.83,316.83Z"/><path class="cls-6" d="M348.59,320.73a11.76,11.76,0,0,1,10.65,0c2.94,1.7,2.94,4.45,0,6.15a11.76,11.76,0,0,1-10.65,0C345.65,325.18,345.65,322.43,348.59,320.73Z"/><ellipse class="cls-4" cx="203.32" cy="399.98" rx="17.09" ry="9.86"/><path class="cls-6" d="M198,396.91a11.76,11.76,0,0,1,10.65,0c2.94,1.69,2.94,4.45,0,6.15a11.82,11.82,0,0,1-10.65,0C195.05,401.36,195.05,398.6,198,396.91Z"/><path class="cls-7" d="M234.46,246.39a39.66,39.66,0,0,0,8.38-6.39,40.52,40.52,0,0,0-8.23-6.17c-19.87-11.47-51.6-11.82-72.06-1-.63.33-1.26.67-1.87,1-6.75,3.92-11.23,8.66-13.48,13.66,2.26,5.11,6.85,9.95,13.77,13.94,20.35,11.75,53.14,11.82,73.52.22l-.07,0Z"/><path class="cls-8" d="M269,276.15c-1.33.87-2.7,1.73-4.13,2.57l-.37.2.37-.2C266.27,277.88,267.64,277,269,276.15Z"/><path class="cls-8" d="M103.71,244.69a.19.19,0,0,1,0-.08.19.19,0,0,0,0,.08c0,.1,0,.19,0,.28h0C103.74,244.88,103.72,244.79,103.71,244.69Z"/><path class="cls-8" d="M103.35,240.33v.26c0,.2,0,.41,0,.61,0-.2,0-.41,0-.61Z"/><path class="cls-8" d="M273.93,272.58l0,0,0,0-.65.5-.75.56.75-.56Z"/><path class="cls-8" d="M291.83,235a32.36,32.36,0,0,1,.42,5.36s0-.05,0-.08l-.05,15.22c0,11.37-6.14,22.7-18.33,32.26l-.65.5c-.43.33-.86.66-1.31,1-.71.53-1.44,1.05-2.2,1.56q-2.34,1.59-4.93,3.09c-36.77,21.38-96.6,21.38-133.61,0-15.27-8.82-24.27-19.89-27-31.36-.13-.57-.24-1.06-.32-1.55s-.14-.76-.19-1.12-.08-.46-.11-.7c-.12-.93-.21-1.86-.24-2.79,0-.21,0-.41,0-.62s0-.41,0-.62l0-15.22v-.45a.66.66,0,0,0,0,.14,2,2,0,0,1,0-.35v-.09a9.84,9.84,0,0,1,0-1.09v0h0a2.55,2.55,0,0,1,0-.39c0-.36,0-.73.09-1.09.07-.66.15-1.32.27-2,0,0,0-.06,0-.09v-1.89a48.15,48.15,0,0,0-4.64,11.09c-.16.56-.3,1.11-.5,2-.13.58-.25,1.15-.36,1.73s-.21,1.17-.29,1.76c-.12.79-.21,1.57-.28,2.37,0,.43-.08.86-.1,1.29a3.62,3.62,0,0,0,0,.46c0,.43,0,.87,0,1.32a3,3,0,0,0,0,.52c0,.37,0,.75,0,1.12s0,.48,0,.73c0,1.1.13,2.22.26,3.33,0,.28.07.56.11.83,0,.43.12.84.2,1.33s.21,1.17.34,1.85c2.88,13.66,12.39,26.86,28.51,37.36,39.08,25.46,102.26,25.45,141.09,0q2.73-1.79,5.2-3.68c.8-.61,1.57-1.24,2.32-1.86.48-.38.93-.78,1.39-1.17l.69-.6C297.25,277.09,302,254.86,291.83,235Z"/><path class="cls-8" d="M103.34,240.09c0,.09,0,.19,0,.29v-.19a4.73,4.73,0,0,1,0-.53Z"/><path class="cls-9" d="M160.68,233.83c.61-.36,1.24-.7,1.87-1,20.46-10.79,52.19-10.44,72.06,1a40.52,40.52,0,0,1,8.23,6.17c.27-.28.54-.55.8-.83a45,45,0,0,0-7.43-5.8c-21-13.17-54.49-13.57-76.1-1.18-.66.38-1.32.77-2,1.18a38.33,38.33,0,0,0-11.94,11.34,18.47,18.47,0,0,0,1,2.78C149.45,242.49,153.93,237.75,160.68,233.83Z"/><path class="cls-9" d="M158.15,233.37c.64-.41,1.3-.8,2-1.18,21.61-12.39,55.12-12,76.1,1.18a45,45,0,0,1,7.43,5.8,24.69,24.69,0,0,0,4.3-6.45,21.18,21.18,0,0,0-1.14-2.22c-2.51-4.28-6.72-8.3-12.63-11.71-17.9-10.34-45.45-11.63-65.69-3.89a58.39,58.39,0,0,0-5.89,2.68c-.63.33-1.25.67-1.86,1s-1.36.82-2,1.24l-.62.41c-.43.29-.85.58-1.26.88l-.66.5c-.37.28-.73.56-1.08.85l-.63.52-1,.9-.53.49c-.37.36-.72.73-1.06,1.09-.11.11-.22.22-.32.34-.44.48-.85,1-1.24,1.45-.1.12-.19.25-.28.37-.28.37-.56.74-.82,1.12l-.35.54c-.21.32-.41.65-.6,1l-.33.58c-.17.33-.34.66-.49,1s-.19.39-.27.58c-.16.36-.3.71-.43,1.07-.06.16-.13.33-.18.49-.18.52-.34,1-.47,1.57,0,0,0,.05,0,.08q-.18.75-.3,1.5c0,.17,0,.35-.07.52,0,.36-.08.72-.11,1.07s0,.4,0,.6,0,.42,0,.63v.74a17.76,17.76,0,0,0,.48,3.38c.05.21.11.42.17.63A38.33,38.33,0,0,1,158.15,233.37Z"/><path class="cls-9" d="M103.39,238.11v0Z"/><path class="cls-9" d="M292.15,242.75c0,.57-.1,1.13-.17,1.69,0,.23-.08.46-.11.7-.07.43-.14.87-.23,1.31-.05.26-.11.53-.17.79s-.19.81-.29,1.22-.15.54-.23.82-.24.79-.36,1.18-.19.55-.28.82-.3.8-.46,1.2-.2.52-.31.78c-.18.43-.37.85-.57,1.27-.11.23-.21.47-.32.7-.26.51-.53,1-.81,1.54l-.21.4c-.37.65-.75,1.29-1.16,1.92-.11.18-.23.35-.34.52-.3.47-.61.93-.94,1.39-.16.23-.34.46-.51.7s-.59.79-.9,1.18l-.61.75q-.45.56-.93,1.11l-.68.76c-.33.36-.66.72-1,1.08s-.47.5-.71.74-.74.74-1.12,1.1l-.73.69c-.42.4-.87.79-1.31,1.18l-.66.57c-.67.57-1.36,1.14-2.07,1.7l0,0-.65.5-.75.56c-.19.14-.37.29-.57.42q-1.06.79-2.19,1.56l-.8.53c-1.33.87-2.7,1.73-4.13,2.57l-.37.2c-1.26.72-2.54,1.42-3.85,2.09q-3.93,2-8.13,3.75-3.15,1.29-6.44,2.41c-2.19.75-4.42,1.45-6.68,2.08-3,.85-6.11,1.61-9.24,2.26l-1.59.32a156.38,156.38,0,0,1-21.37,2.67c-3,.16-6,.25-9,.25-18.14,0-36.29-3-52-9a103.52,103.52,0,0,1-14.86-7,78.93,78.93,0,0,1-10.28-7,51.8,51.8,0,0,1-13.5-15.85q-.54-1.05-1-2.1c-.23-.52-.45-1-.66-1.55a35.06,35.06,0,0,1-1.5-4.7l-.51,0V245c0-.09,0-.18,0-.28a.19.19,0,0,1,0-.08c0-.2-.07-.4-.1-.61-.11-.94-.2-1.87-.24-2.8,0-.2,0-.41,0-.61v-.21c0-.1,0-.2,0-.29v-.43h0a.66.66,0,0,1,0-.14V240l0,15.22c0,.21,0,.42,0,.62s0,.41,0,.62c0,.93.12,1.86.24,2.79,0,.24.07.48.11.7s.11.7.19,1.12.19,1,.32,1.55c2.73,11.47,11.73,22.54,27,31.36,37,21.37,96.84,21.37,133.61,0q2.59-1.5,4.93-3.09c.76-.51,1.49-1,2.2-1.56.45-.32.88-.65,1.31-1l.65-.5c12.19-9.56,18.3-20.89,18.33-32.26l.05-15.22s0,.06,0,.08c0,.68,0,1.35-.07,2Z"/><path class="cls-9" d="M103.35,239v0Z"/><path class="cls-10" d="M291.83,235c-.05-.32-.12-.64-.18-1v.61Z"/><path class="cls-10" d="M103.6,244c0,.21.06.41.1.61a.19.19,0,0,0,0,.08c0,.1,0,.19,0,.28l0-10.41s0,.06,0,.09c-.12.66-.2,1.32-.27,2,0,.36-.08.73-.09,1.09a2.55,2.55,0,0,0,0,.39v3.32C103.42,242.28,103.5,243.14,103.6,244Z"/><path class="cls-10" d="M103.34,239.66a4.73,4.73,0,0,0,0,.53v-.89a2,2,0,0,0,0,.35h0Z"/><path class="cls-10" d="M145.59,238.73c0-.35.07-.71.11-1.07,0-.17,0-.35.07-.52q.12-.75.3-1.5s0,0,0-.08c.13-.52.29-1.05.47-1.57.05-.16.12-.33.18-.49.13-.36.27-.71.43-1.07.08-.19.18-.38.27-.58s.32-.65.49-1l.33-.58c.19-.33.39-.66.6-1l.35-.54c.26-.38.54-.75.82-1.12.09-.12.18-.25.28-.37.39-.49.8-1,1.24-1.45.1-.12.21-.23.32-.34.34-.36.69-.73,1.06-1.09l.53-.49,1-.9.63-.52c.35-.29.71-.57,1.08-.85l.66-.5c.41-.3.83-.59,1.26-.88l.62-.41c.65-.42,1.31-.84,2-1.24s1.23-.7,1.86-1a58.39,58.39,0,0,1,5.89-2.68,60.37,60.37,0,0,0-6.37,2.86c-.62.33-1.25.68-1.86,1-8.27,4.81-13.16,10.83-14.67,17.08v3.46C145.58,239.13,145.58,238.93,145.59,238.73Z"/><path class="cls-10" d="M103.35,240.59c0,.2,0,.41,0,.61s0,.16,0,.23v-3.31a9.84,9.84,0,0,0,0,1.09v1.38Z"/><path class="cls-10" d="M145.57,239.33V240C145.56,239.75,145.56,239.54,145.57,239.33Z"/><path class="cls-10" d="M146,244.08a17.76,17.76,0,0,1-.48-3.38v3.56h0v1.56c.21-.37.44-.74.68-1.11C146.15,244.5,146.09,244.29,146,244.08Z"/><path class="cls-10" d="M230.13,291.51c3.13-.65,6.21-1.41,9.24-2.26C236.34,290.1,233.26,290.86,230.13,291.51Z"/><path class="cls-10" d="M246.05,287.17q3.28-1.12,6.44-2.41Q249.34,286.05,246.05,287.17Z"/><path class="cls-10" d="M103.36,241.2c0,.93.13,1.86.24,2.8,0,.21.06.41.1.61,0-.2-.07-.4-.1-.61-.1-.86-.18-1.72-.22-2.57v-3.32h0v3.31C103.37,241.36,103.37,241.28,103.36,241.2Z"/><polygon class="cls-10" points="103.34 239.66 103.34 239.65 103.34 239.65 103.34 239.65 103.34 239.66"/><path class="cls-10" d="M272,274.06c.2-.13.38-.28.57-.42-.19.14-.37.29-.57.42q-1.06.79-2.19,1.56l-.8.53.8-.53Q270.9,274.86,272,274.06Z"/><path class="cls-10" d="M198.12,294.75c3,0,6-.09,9-.25C204.16,294.66,201.14,294.75,198.12,294.75Z"/><path class="cls-10" d="M103.35,240.33v0Z"/><path class="cls-10" d="M105.76,252.21a35.06,35.06,0,0,1-1.5-4.7h0A35.06,35.06,0,0,0,105.76,252.21Z"/><path class="cls-11" d="M234.17,218.79c5.91,3.41,10.12,7.43,12.63,11.71a21.18,21.18,0,0,1,1.14,2.22c.09-.21.19-.41.27-.62-.28-.6-.59-1.19-.93-1.78-2.52-4.28-6.72-8.3-12.63-11.71-18.05-10.42-45.88-11.66-66.17-3.71C188.72,207.16,216.27,208.45,234.17,218.79Z"/><path class="cls-11" d="M160.25,218.79c.61-.35,1.24-.7,1.86-1a60.37,60.37,0,0,1,6.37-2.86c20.29-8,48.12-6.71,66.17,3.71,5.91,3.41,10.11,7.43,12.63,11.71.34.59.65,1.18.93,1.78a18.34,18.34,0,0,0,1.42-7.29c0-.41,0-.83-.06-1.24,0-.12,0-.24,0-.36a16.34,16.34,0,0,0-.28-1.84.19.19,0,0,0,0-.07c-.13-.6-.29-1.19-.48-1.78,0-.12-.07-.23-.11-.34a17.41,17.41,0,0,0-.7-1.76c-.05-.11-.1-.23-.16-.34a19.45,19.45,0,0,0-.91-1.75l-.24,0c-2.52-4.28-6.73-8.3-12.63-11.71-18.62-10.75-47.65-11.73-68.07-2.93-1.29.56-2.55,1.16-3.77,1.8-.63.33-1.26.68-1.87,1s-1.36.82-2,1.24c-.21.14-.4.28-.61.41-.43.29-.85.59-1.26.89l-.67.49c-.37.28-.73.57-1.08.85L154,208c-.35.3-.68.6-1,.9l-.53.5c-.37.35-.72.72-1.06,1.08l-.33.34c-.44.48-.85,1-1.24,1.45l-.28.38c-.28.37-.56.74-.81,1.11-.13.18-.24.36-.36.54s-.41.65-.6,1-.22.39-.32.59-.34.65-.5,1l-.27.57c-.15.36-.29.71-.43,1.07-.06.16-.13.33-.18.5-.18.52-.34,1-.47,1.56a.64.64,0,0,1,0,.07c-.12.5-.22,1-.3,1.51,0,.18,0,.35-.07.52,0,.36-.08.72-.11,1.08,0,.19,0,.39,0,.59a17.35,17.35,0,0,0,.47,4.75l0,6.83C147.09,229.62,152,223.6,160.25,218.79Z"/><path class="cls-11" d="M248.21,232.1c-.28-.6-.59-1.19-.93-1.78.34.59.65,1.18.93,1.78Z"/><path class="cls-11" d="M103.79,232.33v.34l.2-.36Z"/><path class="cls-11" d="M103.75,245h0a2.34,2.34,0,0,1,0,.26A2.34,2.34,0,0,0,103.75,245Z"/><path class="cls-11" d="M104,233.17c.06-.29.14-.58.21-.88l-.26,0-.2.36v1.89C103.86,234.1,103.94,233.63,104,233.17Z"/><path class="cls-11" d="M103.9,245.81c0-.21-.08-.4-.11-.58a2.34,2.34,0,0,0,0-.26v2.58l.51,0s0-.1,0-.15C104.1,246.79,104,246.3,103.9,245.81Z"/><path class="cls-11" d="M103.79,245.23c0,.18.07.37.11.58.09.49.2,1,.32,1.55,0,0,0,.1,0,.15l41.27-3.25v-4.39l0-.5v-3.5a18.05,18.05,0,0,0-.52,4.18l0-11-40.84,3.21c-.07.3-.15.59-.21.88-.1.46-.18.93-.26,1.39l0,10.41A2.34,2.34,0,0,1,103.79,245.23Z"/><path class="cls-11" d="M145.56,240.7v-1.33l0,.5v4.39h0Z"/><path class="cls-11" d="M104.26,247.51h0s0-.1,0-.15S104.25,247.46,104.26,247.51Z"/><path class="cls-11" d="M104.22,247.36c-.12-.57-.23-1.06-.32-1.55,0-.21-.08-.4-.11-.58,0,.18.07.37.11.58C104,246.3,104.1,246.79,104.22,247.36Z"/><path class="cls-11" d="M145.09,229.08l0,11a18.05,18.05,0,0,1,.52-4.18l0-6.83Z"/><path class="cls-11" d="M291.56,227.85c-.06.71-.14,1.41-.24,2.12l0,.16c-.07.46-.15.92-.24,1.37q.34,1.29.6,2.58l0-8.82c0,.13,0,.26,0,.38,0,.54,0,1.07-.06,1.61C291.58,227.45,291.57,227.65,291.56,227.85Z"/><path class="cls-11" d="M290.92,232.08c0,.21-.09.42-.14.63a2.68,2.68,0,0,1-.07.27c.33.57.64,1.14.94,1.71v-.61q-.25-1.29-.6-2.58C291,231.7,291,231.89,290.92,232.08Z"/><path class="cls-11" d="M290.2,234.86c-.21.7-.45,1.39-.71,2.08,0,.12-.09.24-.13.35-.23.58-.47,1.16-.73,1.74-.09.21-.19.42-.29.63-.25.53-.51,1.06-.79,1.6-.08.16-.16.32-.25.48-.37.68-.76,1.35-1.17,2l-.28.44c-.34.53-.69,1.06-1.06,1.59l-.43.6c-.39.54-.79,1.08-1.21,1.61-.1.13-.19.26-.3.39-.52.64-1.06,1.29-1.63,1.92-.14.17-.3.33-.44.49-.45.49-.91,1-1.39,1.46l-.56.57c-.55.55-1.12,1.09-1.72,1.64l-.25.23c-.67.61-1.37,1.21-2.1,1.81l-.61.5c-.56.45-1.13.9-1.71,1.34l-.68.51c-.79.58-1.59,1.16-2.43,1.73q-2.34,1.59-4.93,3.09l0,15.22c1.72-1,3.37-2,4.93-3.09,14.87-10.1,22.3-22.71,22.34-35.33l0-5.79c-.3-.57-.61-1.14-.94-1.71-.1.44-.22.89-.35,1.33C290.3,234.49,290.26,234.68,290.2,234.86Z"/><path class="cls-12" d="M168.94,184.33a58.46,58.46,0,0,0-7,3.09v0A58.46,58.46,0,0,1,168.94,184.33Z"/><path class="cls-12" d="M104.4,231.63c.18-.66.31-1.11.46-1.56,2.65-8.57,8.88-16.83,18.65-24,.56-.41,1.14-.82,1.72-1.22l.88-.61,1.1-.72c.23-.16.48-.32.73-.47l1.36-.85,1.49-.88c1.1-.64,2.21-1.26,3.35-1.86l.61-.31,1.36-.69c.51-.26,1-.51,1.56-.76,1.19-.57,2.4-1.12,3.64-1.65s1.85-.77,2.59-1.07c1.24-.5,2.5-1,3.76-1.43l-14.15-9c-1.07.56-2.12,1.14-3.16,1.75-.5.28-1,.58-1.48.88s-.91.56-1.37.85c-.25.15-.49.31-.73.47s-.74.47-1.09.72-.59.4-.88.6c-.59.4-1.16.81-1.72,1.22-9.56,7-15.93,15.3-18.66,24-.16.46-.28.93-.48,1.64-.11.48-.23,1-.33,1.45s-.2,1-.28,1.48c-.11.67-.21,1.32-.26,2,0,.36-.09.72-.1,1.09,0,.12,0,.25,0,.38a10.15,10.15,0,0,0,0,1.11,2.07,2.07,0,0,0,0,.43c0,.31,0,.63,0,.94s0,.41,0,.62c0,.92.12,1.86.24,2.79,0,.24.06.47.1.7s.12.7.19,1.12.2,1,.33,1.55l.2,0C104.13,232.08,104.27,231.86,104.4,231.63Z"/><path class="cls-12" d="M104.4,231.63c-.13.23-.27.45-.41.68l.26,0c0-.19.08-.38.13-.57Z"/><path class="cls-12" d="M118.85,215.16c.59-.49,1.2-1,1.82-1.45q.45-.37.93-.72c.37-.3.75-.58,1.15-.86l.77-.56c.48-.34,1-.68,1.45-1s1-.71,1.56-1.05q1.74-1.14,3.54-2.22l.64-.37,1.44-.83,1.65-.9c1.25-.68,2.53-1.34,3.84-2l2.74-1.27a118.46,118.46,0,0,1,12.78-4.9l-5.5-3.5c-1.26.46-2.52.93-3.76,1.43-.74.3-1.49.6-2.59,1.07s-2.45,1.08-3.64,1.65c-.52.25-1,.5-1.56.76l-1.36.69-.61.31c-1.14.6-2.25,1.22-3.35,1.86l-1.49.88-1.36.85c-.25.15-.5.31-.73.47l-1.1.72-.88.61c-.58.4-1.16.81-1.72,1.22-9.77,7.17-16,15.43-18.65,24-.15.45-.28.9-.46,1.56A64.86,64.86,0,0,1,118.85,215.16Z"/><path class="cls-12" d="M145.1,224.83c0-.18,0-.36,0-.54s0-.4,0-.59c0-.36.07-.72.11-1.08,0-.17,0-.34.07-.52.08-.5.18-1,.3-1.51a.64.64,0,0,0,0-.07c.13-.52.29-1,.47-1.56,0-.17.12-.34.18-.5.14-.36.28-.71.43-1.07l.27-.57c.16-.33.32-.66.5-1s.21-.39.32-.59.39-.65.6-1,.23-.36.36-.54c.25-.37.53-.74.81-1.11l.28-.38c.39-.49.8-1,1.24-1.45l.33-.34c.34-.36.69-.73,1.06-1.08l.53-.5c.33-.3.66-.6,1-.9l.62-.52c.35-.28.71-.57,1.08-.85l.67-.49c.41-.3.83-.6,1.26-.89.21-.13.4-.27.61-.41.65-.42,1.32-.83,2-1.24s1.24-.7,1.87-1c1.22-.64,2.48-1.24,3.77-1.8-1.37.59-2.7,1.22-4,1.9l-8.78-5.59a118.46,118.46,0,0,0-12.78,4.9l-2.74,1.27c-1.31.63-2.59,1.29-3.84,2l-1.65.9-1.44.83-.64.37q-1.8,1.08-3.54,2.22-.8.51-1.56,1.05c-.5.33-1,.67-1.45,1l-.77.56c-.4.28-.78.56-1.15.86s-.63.47-.93.72c-.62.48-1.23,1-1.82,1.45a64.86,64.86,0,0,0-14.45,16.47l0,.09c0,.19-.09.38-.13.57l40.84-3.21Z"/><path class="cls-12" d="M249.67,236.33l-.06-.21v0Z"/><path class="cls-12" d="M246.87,215.33a19.45,19.45,0,0,1,.91,1.75,19.45,19.45,0,0,0-.91-1.75Z"/><path class="cls-12" d="M145.13,224.29c0,.18,0,.36,0,.54v4.25l.51,0A17.35,17.35,0,0,1,145.13,224.29Z"/><path class="cls-12" d="M248.22,232.11h0Z"/><path class="cls-12" d="M291.29,230.13c-.07.45-.17.89-.25,1.34v0C291.14,231.05,291.22,230.59,291.29,230.13Z"/><path class="cls-12" d="M291.05,231.5v0c0,.2-.07.41-.12.61C291,231.89,291,231.7,291.05,231.5Z"/><path class="cls-12" d="M290.71,233a2.68,2.68,0,0,0,.07-.27c0,.08,0,.17-.07.26Z"/><path class="cls-12" d="M290.36,234.31c.13-.44.25-.89.35-1.33h0C290.6,233.42,290.49,233.86,290.36,234.31Z"/><polygon class="cls-11" points="250.04 255.4 250.04 255.39 250.04 255.39 250.04 255.4"/><path class="cls-13" d="M134.31,184.11l1.36-.69,1.8-.86c.6-.29,1.21-.57,1.81-.84.79-.36,1.35-.6,1.92-.84,1.3-.55,2.57-1.07,3.87-1.56l2-.73.7-.24-14.21-9,0,15.21,0,0a1.18,1.18,0,0,1,.19-.11C133.9,184.32,134.1,184.21,134.31,184.11Z"/><path class="cls-13" d="M162,189.32v-1.9l-14.24-9.07-.7.24-2,.73c-1.3.49-2.57,1-3.87,1.56-.57.24-1.13.48-1.92.84-.6.27-1.21.55-1.81.84l-1.8.86-1.36.69c-.21.1-.41.21-.61.32a1.18,1.18,0,0,0-.19.11l14.15,9A129.8,129.8,0,0,1,162,189.32Z"/><path class="cls-13" d="M162,194.57l0-5.25a129.8,129.8,0,0,0-14.32,4.23l5.5,3.5Q157.5,195.67,162,194.57Z"/><path class="cls-13" d="M153.16,197.05l8.78,5.59,0-8.07Q157.49,195.67,153.16,197.05Z"/><path class="cls-13" d="M234,203.67c5.9,3.41,10.11,7.43,12.63,11.71V215c-2.53-4.15-6.66-8-12.42-11.38-18.68-10.78-47.85-11.73-68.28-2.83C186.35,191.94,215.38,192.92,234,203.67Z"/><path class="cls-13" d="M237,190.29c-.92-.63-1.88-1.25-2.91-1.84-9.31-5.38-21.23-8.31-33.37-8.79-1.62-.07-3.25-.09-4.87-.07-.81,0-1.62,0-2.43.07-2.43.1-4.84.29-7.23.59A81.58,81.58,0,0,0,176.5,182a72.21,72.21,0,0,0-7.56,2.32,58.46,58.46,0,0,0-7,3.09v1.9A159,159,0,0,1,237,190.29Z"/><path class="cls-13" d="M245.75,198.73a33,33,0,0,0-8.8-8.44,159,159,0,0,0-75-1l0,5.25C189.16,187.9,220,189.29,245.75,198.73Z"/><path class="cls-13" d="M234.21,203.57c5.76,3.33,9.89,7.23,12.42,11.38l0-14.79c-.28-.48-.59-1-.92-1.43-25.8-9.44-56.59-10.83-83.79-4.16l0,8.07c1.29-.68,2.62-1.31,4-1.9C186.36,191.84,215.53,192.79,234.21,203.57Z"/><path class="cls-13" d="M286.56,207.28l.05-14.94-11,2.14A51.63,51.63,0,0,1,286.56,207.28Z"/><path class="cls-13" d="M246.63,215v.43l.24,0,0-.05C246.78,215.17,246.7,215.06,246.63,215Z"/><path class="cls-13" d="M275.64,194.48,258,197.94l1.06.52c.75.37,1.29.64,1.82.92,1.29.68,2.42,1.3,3.54,1.94.49.28,1,.57,1.43.86l.47.27c.4.25.82.5,1.21.76,1,.64,1.39.9,1.77,1.15l.75.52,1.2.85.42.29c.23.17.46.35.7.51l1,.73.81.63c.69.56,1.37,1.13,2,1.7l10.39-2v-.27A51.63,51.63,0,0,0,275.64,194.48Z"/><path class="cls-13" d="M257.77,203.89l.63.31,1.66.86c.82.43,1.37.73,1.9,1,.8.44,1.37.76,1.93,1.1,1.36.8,2.56,1.54,3.73,2.31.52.33,1,.67,1.52,1l.49.33h0l6.52-1.28c-.67-.57-1.35-1.14-2-1.7l-.81-.63-1-.73c-.24-.16-.47-.34-.7-.51l-.42-.29-1.2-.85-.75-.52c-.38-.25-.76-.51-1.77-1.15-.39-.26-.81-.51-1.21-.76l-.47-.27c-.47-.29-.94-.58-1.43-.86-1.12-.64-2.25-1.26-3.54-1.94-.53-.28-1.07-.55-1.82-.92l-1.06-.52-9.43,1.85C251.71,201,254.79,202.39,257.77,203.89Z"/><path class="cls-13" d="M246.63,215c.07.11.15.22.21.33l0,.05,22.78-4.46h0l-.49-.33c-.5-.35-1-.69-1.52-1-1.17-.77-2.37-1.51-3.73-2.31-.56-.34-1.13-.66-1.93-1.1-.53-.31-1.08-.61-1.9-1l-1.66-.86-.63-.31c-3-1.5-6.06-2.85-9.21-4.1l-1.89.37Z"/><path class="cls-13" d="M246.84,215.28l0,.05h0Z"/><path class="cls-14" d="M226.24,173l2.17.42c2.17.43,4.31.92,6.43,1.45l1.94.49,2,.55,2,.6.54.16,1.55.48c.94.3,1.51.49,2.08.69l1.92.66,1.64.6c.32.11.64.23.95.36l.6.24c.47.17.92.35,1.37.54l1.94.8,1.82.8,1.57.72c.52.24,1,.5,1.54.75l2.08,1c1.3.68,2.43,1.3,3.54,1.94l1.44.86.46.28c.41.25.82.5,1.21.76,1,.64,1.4.89,1.77,1.14,1.11.75,2.1,1.46,3.07,2.18l1.43,1.09c.79.62,1.55,1.26,2.29,1.89l11-2.14a54.07,54.07,0,0,0-13.1-14.61l-.33-.26a5.9,5.9,0,0,1-.47-.37l-1-.72-.71-.52-.41-.29-1.2-.85-.75-.52c-.38-.25-.75-.5-1.29-.84l-.48-.3c-.39-.27-.8-.52-1.21-.76l-.46-.28c-.48-.3-1-.58-1.45-.86-1.11-.64-2.24-1.26-3.54-1.94-.52-.28-1.06-.55-1.78-.9l-.29-.14c-.43-.22-.86-.43-1.55-.75l-1.57-.72c-.58-.26-1.16-.52-1.82-.8l-1.6-.67-.34-.14-1.37-.54-.59-.23c-.32-.13-.63-.25-1-.36l-1.21-.45-.42-.15c-.55-.2-1.1-.39-1.92-.66l-1.73-.58-.35-.11-1.55-.48-.54-.16-1.61-.48c-.14-.05-.29-.08-.44-.12l-1.66-.46-.34-.09-2-.5q-3.16-.79-6.43-1.45l-2.17-.41c-26.15-4.87-55.35-3-79.19,5.6-.67.23-1.32.48-2,.73-1.3.48-2.58,1-3.88,1.56l-.32.13-1.6.7-2,.95c-.52.25-1.05.5-1.56.76l-1.37.69-.6.32,14.21,9C171.4,170,200.28,168.19,226.24,173Z"/><path class="cls-14" d="M176.5,182a81.58,81.58,0,0,1,9.64-1.76c2.39-.3,4.8-.49,7.23-.59.81,0,1.62-.06,2.43-.07,1.62,0,3.25,0,4.87.07,12.14.48,24.06,3.41,33.37,8.79,1,.59,2,1.21,2.91,1.84a121.68,121.68,0,0,1,18.12,6.31l.6.27c.52.23,1.05.47,1.57.72l.75.35,17.65-3.46c-.74-.63-1.5-1.27-2.29-1.89l-1.43-1.09c-1-.72-2-1.43-3.07-2.18-.37-.25-.75-.5-1.77-1.14-.39-.26-.8-.51-1.21-.76l-.46-.28-1.44-.86c-1.11-.64-2.24-1.26-3.54-1.94l-2.08-1c-.51-.25-1-.51-1.54-.75l-1.57-.72-1.82-.8-1.94-.8c-.45-.19-.9-.37-1.37-.54l-.6-.24c-.31-.13-.63-.25-.95-.36l-1.64-.6-1.92-.66c-.57-.2-1.14-.39-2.08-.69l-1.55-.48-.54-.16-2-.6-2-.55-1.94-.49c-2.12-.53-4.26-1-6.43-1.45l-2.17-.42c-26-4.8-54.84-3-78.5,5.36L162,187.42a58.46,58.46,0,0,1,7-3.09A72.21,72.21,0,0,1,176.5,182Z"/><path class="cls-14" d="M255.67,196.87l-.6-.27A121.68,121.68,0,0,0,237,190.29a33,33,0,0,1,8.8,8.44c.94.34,1.88.7,2.81,1.06l9.43-1.85-.75-.35C256.72,197.34,256.19,197.1,255.67,196.87Z"/><path class="cls-14" d="M248.56,199.79c-.93-.36-1.87-.72-2.81-1.06.33.47.64,1,.92,1.43Z"/><path class="cls-15" d="M279.49,295.45a1.3,1.3,0,0,1-1.13-.65c-1.39-2.38-2.13-3-2.32-3.09a1.31,1.31,0,1,1,1.4-2.22,11.88,11.88,0,0,1,3.19,4,1.33,1.33,0,0,1-.47,1.8A1.35,1.35,0,0,1,279.49,295.45Z"/><path class="cls-6" d="M284.2,318.3H284a1.67,1.67,0,0,1-1.5-1.83c.07-.74.16-1.47.24-2.2.63-5.28,1.22-10.26-4-18.6a1.67,1.67,0,1,1,2.83-1.79c5.89,9.34,5.2,15.16,4.53,20.79-.08.7-.17,1.41-.24,2.13A1.67,1.67,0,0,1,284.2,318.3Z"/><path class="cls-12" d="M285.47,374.33A2.58,2.58,0,0,1,287,376.5a3.24,3.24,0,0,1-.23,1.94c-.59.76-1.24,1.7-2.66,1s-7.1-3.31-7.37-4.88,2.44-2.53,7.47-.79Z"/><path class="cls-12" d="M277.55,377.32a2.57,2.57,0,0,1,1.55,2.17,3.24,3.24,0,0,1-.23,1.94c-.59.76-1.24,1.7-2.66,1s-7.1-3.31-7.37-4.88,2.44-2.54,7.47-.79Z"/><path class="cls-4" d="M280.9,345.32s-2.36,14.55-3.33,16.64c0,0,1.75,16.6.95,17.54s-3.73,1.14-4.28,0-4-21.26-3.22-23.28,3.36-14.34,3.36-14.34S281.54,341.56,280.9,345.32Z"/><path class="cls-4" d="M288.28,341.57s-2.36,14.55-3.34,16.64c0,0,1.75,16.6.95,17.54s-3.73,1.14-4.28,0-4-21.26-3.22-23.28,3.36-14.34,3.36-14.34S288.91,337.81,288.28,341.57Z"/><path class="cls-6" d="M273.42,323.57l.05,17.71c-.05,3.91.31,3.64,1.62,4.4a5.51,5.51,0,0,0,4.81-.71l6.34-3.66a4.3,4.3,0,0,0,2.15-3.72l0-14.13c0-.24-.05-.49-.07-.74-.16-2.39-1.18-6.09-3.84-7.56-4.17-2.3-8.17,1.36-8.28,1.47A8.56,8.56,0,0,0,273.42,323.57Z"/><path class="cls-16" d="M280,311.69a2.62,2.62,0,0,1,2.27-.05.72.72,0,0,1,0,1.35,2.52,2.52,0,0,1-2.27,0A.69.69,0,0,1,280,311.69Z"/><path class="cls-15" d="M280,313a2.52,2.52,0,0,0,2.27,0,.8.8,0,0,0,.46-.69h0v3.05h0a.81.81,0,0,1-.46.66,2.52,2.52,0,0,1-2.27,0,.77.77,0,0,1-.46-.66h0v-3A.78.78,0,0,0,280,313Z"/><path class="cls-15" d="M279.57,312.3v0Z"/><path class="cls-15" d="M275.56,305.12V309a5.58,5.58,0,1,0,11.15,0v-3.86a5.57,5.57,0,0,0-.15-1.3,2,2,0,0,0-.09-.33,5.58,5.58,0,0,0-10.91,1.63Z"/><path class="cls-17" d="M282.15,298.76a4.91,4.91,0,0,1,2.14.61c.55-1.46,1.74-3.32,4.1-2.17,3.65,1.77,5.77,6.59,2.76,8.5a12.23,12.23,0,0,1-3.89,1.6c.08,2.52-.45,5.39-3.22,6.44-1.4.53-3,.61-3.76-.16a5.67,5.67,0,0,1-1.08-2.18s1,.6,1.24-.74-.2-1.54-.87-1.24-1.23-.59-1.23-.59a5,5,0,0,0-1.31-2.71,5.79,5.79,0,0,1-1.47-2.66C274.78,301.61,279,298.6,282.15,298.76Z"/><path class="cls-15" d="M261.45,344.08a1.31,1.31,0,0,1-.15-2.62c.23,0,1.15-.23,3.43-1.78a1.31,1.31,0,0,1,1.47,2.18,11.92,11.92,0,0,1-4.59,2.21Z"/><path class="cls-6" d="M266.53,342.14a1.68,1.68,0,0,1-1.13-2.91c7.26-6.66,8-11.63,8.79-16.89.11-.72.21-1.45.34-2.18a1.67,1.67,0,0,1,3.3.56c-.12.71-.22,1.42-.33,2.12-.83,5.6-1.7,11.4-9.83,18.86A1.67,1.67,0,0,1,266.53,342.14Z"/><path class="cls-18" d="M298.19,235.26l-.26,0a12,12,0,0,1-4.8-1.71,1.31,1.31,0,1,1,1.64-2.05c.17.14,1,.65,3.67,1.18a1.31,1.31,0,0,1-.25,2.6Z"/><path class="cls-19" d="M306.72,237a36,36,0,0,1-8.1-1,1.68,1.68,0,0,1,.76-3.27c9.6,2.24,14.12,0,18.9-2.28.66-.32,1.32-.64,2-.95a1.67,1.67,0,1,1,1.4,3l-1.94.93C316.12,235.22,312.42,237,306.72,237Z"/><path class="cls-5" d="M323.83,290.43a2.59,2.59,0,0,1,1.56,2.17,3.32,3.32,0,0,1-.23,1.94c-.59.76-1.25,1.7-2.66,1s-7.11-3.31-7.38-4.88,2.45-2.54,7.48-.79Z"/><path class="cls-5" d="M315.91,293.42a2.59,2.59,0,0,1,1.56,2.17,3.32,3.32,0,0,1-.23,1.94c-.59.76-1.25,1.69-2.67,1s-7.1-3.31-7.37-4.89,2.45-2.53,7.48-.78Z"/><path class="cls-14" d="M319.27,261.42s-2.36,14.55-3.33,16.64c0,0,1.74,16.59.94,17.54s-3.72,1.14-4.28,0-4-21.26-3.21-23.28S312.74,258,312.74,258,319.9,257.66,319.27,261.42Z"/><path class="cls-14" d="M326.64,257.67s-2.36,14.55-3.33,16.64c0,0,1.74,16.59.94,17.54s-3.72,1.14-4.28,0-4-21.26-3.21-23.28,3.35-14.34,3.35-14.34S327.27,253.91,326.64,257.67Z"/><path class="cls-19" d="M312.08,240.53l.05,17.71c-.05,3.91.3,3.64,1.62,4.4a5.5,5.5,0,0,0,4.8-.7l6.35-3.67a4.3,4.3,0,0,0,2.14-3.72l0-14.12c0-.25-.05-.5-.07-.75-.16-2.38-1.17-6.09-3.84-7.56-4.16-2.3-8.17,1.37-8.27,1.47A8.5,8.5,0,0,0,312.08,240.53Z"/><path class="cls-16" d="M318.69,228.65a2.56,2.56,0,0,1,2.26,0,.71.71,0,0,1,0,1.34,2.44,2.44,0,0,1-2.26,0C318.06,229.59,318.07,229,318.69,228.65Z"/><path class="cls-18" d="M318.69,230a2.44,2.44,0,0,0,2.26,0,.79.79,0,0,0,.47-.69h0v3.06h0a.85.85,0,0,1-.47.66,2.5,2.5,0,0,1-2.26,0,.81.81,0,0,1-.47-.66h0v-3A.79.79,0,0,0,318.69,230Z"/><path class="cls-18" d="M318.22,229.26v0Z"/><path class="cls-18" d="M293.39,248.06h-.16a12.06,12.06,0,0,1-4.92-1.35,1.32,1.32,0,0,1,1.49-2.17c.19.13,1,.58,3.75.92a1.31,1.31,0,0,1-.16,2.61Z"/><path class="cls-19" d="M294.39,248.9a1.68,1.68,0,0,1,0-3.35c9.85-.25,13.68-3.51,17.72-7,.56-.48,1.12-1,1.7-1.43a1.68,1.68,0,0,1,2.12,2.6c-.56.45-1.1.92-1.64,1.38-4.32,3.67-8.78,7.47-19.82,7.75Z"/><path class="cls-18" d="M314.22,222.08v3.86a5.58,5.58,0,1,0,11.15,0v-3.86a5.57,5.57,0,0,0-.15-1.3l-.09-.33a5.58,5.58,0,0,0-10.91,1.63Z"/><path class="cls-20" d="M314.69,219.48s.94,3.14,2,4,.44,3,.44,3,.58.92,1.27.61,1.11-.1.9,1.28-1.28.77-1.28.77a5.76,5.76,0,0,0,1.11,2.24c.76.8,2.37.45,3.89.18s2.39-.06,2.55-1.5,1-4.74.56-7.54a6.4,6.4,0,0,0-2.08-4.29s.28-2-3-2.15S313.88,217.58,314.69,219.48Z"/><path class="cls-21" d="M250.26,0H145.5V255.54c0,10.86,23.45,19.66,52.38,19.66s52.38-8.8,52.38-19.66Z"/><path class="cls-22" d="M162.93,142.37v28.86a3.79,3.79,0,0,1-2.43,3.53c-9.28,3.55-15,8.41-15,13.78V151.48c0-4.77,4.52-9.14,12.05-12.54A3.79,3.79,0,0,1,162.93,142.37Z"/><path class="cls-23" d="M177.47,174.17v26a5.38,5.38,0,0,1-6.53,5.28c-15.24-3.44-25.44-9.7-25.44-16.86V151.53c0,7.5,11.17,14,27.6,17.34A5.42,5.42,0,0,1,177.47,174.17Z"/><path class="cls-24" d="M232.83,169.08v14a4.63,4.63,0,0,0,6.71,4.11c6.73-3.32,10.72-7.44,10.72-11.93V151.2c0,5.27-5.5,10-14.47,13.58A4.62,4.62,0,0,0,232.83,169.08Z"/><path class="cls-25" d="M225,222.22a3.43,3.43,0,0,0-4.09-3.37A127.66,127.66,0,0,1,197,221a130.17,130.17,0,0,1-21-1.65,3.42,3.42,0,0,0-4,3.38V240.4a3.44,3.44,0,0,0,2.87,3.39A129.15,129.15,0,0,0,197,245.63a125.72,125.72,0,0,0,25.22-2.43,3.46,3.46,0,0,0,2.77-3.38Z"/><path class="cls-26" d="M191.13,104.13c-2.76,0-5.47.08-8.11.24a3.7,3.7,0,0,0-3.48,3.68v17.24a3.67,3.67,0,0,0,3.88,3.67c2.51-.14,5.08-.22,7.71-.22,3.37,0,6.66.12,9.85.36a3.67,3.67,0,0,0,3.91-3.67V108.2a3.7,3.7,0,0,0-3.44-3.68C198.11,104.27,194.66,104.13,191.13,104.13Z"/><path class="cls-27" d="M228.19,177.81c-2.28-.63-4.69-1.2-7.22-1.69a3,3,0,0,0-3.57,2.94v18a3,3,0,0,0,2.43,2.93c2.37.43,4.65.93,6.81,1.49a3,3,0,0,0,3.76-2.88V180.7A3,3,0,0,0,228.19,177.81Z"/><path class="cls-6" d="M225.87,145.17a22.07,22.07,0,0,0-4.93-7.62,27,27,0,0,0-8.29-5.45,87.65,87.65,0,0,0-10.89-3.2V97.51a14.83,14.83,0,0,1,8.38,4.5q3.06,3.42,4,9.83l11.25-1.69Q224,99.8,216.82,93.88q-5.55-4.65-15.06-5.56V83.11h-6.41v5.21Q184.52,89.4,179,94.24q-8.22,7.2-8.22,18.81a23.88,23.88,0,0,0,2.81,11.68,20.18,20.18,0,0,0,8,8,45.67,45.67,0,0,0,13.73,5.2v34.66q-6.4-.66-11-6.47c-2.13-2.75-3.63-7-4.47-12.89l-11,2.06a30.37,30.37,0,0,0,4.33,14.33,23,23,0,0,0,8.83,8.5,40.17,40.17,0,0,0,13.27,3.66v10.89h6.41v-11q11.44-.54,18.63-8.1t7.2-18.87A26.23,26.23,0,0,0,225.87,145.17Zm-30.52-17.66q-7.44-2.24-10.55-6a15.14,15.14,0,0,1,.54-19,16.13,16.13,0,0,1,10-5.08Zm16.91,39.61a16.15,16.15,0,0,1-10.5,5.51V139.48q8.78,2.85,11.71,6.45t2.93,9.52A17,17,0,0,1,212.26,167.12Z"/><path class="cls-6" d="M177.62,226.24a7.59,7.59,0,0,0-1.69-2.61,9.05,9.05,0,0,0-2.84-1.87,30,30,0,0,0-3.73-1.1V209.9a5.13,5.13,0,0,1,2.87,1.55,6.34,6.34,0,0,1,1.38,3.37l3.85-.58a8.48,8.48,0,0,0-2.94-5.58,9.25,9.25,0,0,0-5.16-1.91V205h-2.2v1.78a9.88,9.88,0,0,0-5.6,2,8.81,8.81,0,0,0-1.85,10.45,6.83,6.83,0,0,0,2.75,2.76,15.51,15.51,0,0,0,4.7,1.78v11.88a5.43,5.43,0,0,1-3.77-2.22,9.48,9.48,0,0,1-1.54-4.41l-3.75.7a10.41,10.41,0,0,0,1.48,4.91,7.94,7.94,0,0,0,3,2.92,14,14,0,0,0,4.55,1.25v3.73h2.2v-3.77a9.27,9.27,0,0,0,8.26-12.52Zm-10.46-6.05a7.4,7.4,0,0,1-3.62-2.06,5.2,5.2,0,0,1,.19-6.53,5.53,5.53,0,0,1,3.43-1.74Zm5.8,13.57a5.55,5.55,0,0,1-3.6,1.89V224.29a8.72,8.72,0,0,1,4,2.21,5,5,0,0,1,1,3.26A5.85,5.85,0,0,1,173,233.76Z"/><path class="cls-6" d="M244.12,61.15a7.24,7.24,0,0,0-1.62-2.51,8.8,8.8,0,0,0-2.73-1.79,28.47,28.47,0,0,0-3.57-1.05V45.48A5,5,0,0,1,239,47a6.12,6.12,0,0,1,1.32,3.23l3.7-.55a8.15,8.15,0,0,0-2.82-5.35,8.85,8.85,0,0,0-5-1.83V40.75h-2.11v1.71a9.44,9.44,0,0,0-5.37,1.95,7.83,7.83,0,0,0-2.7,6.18,8,8,0,0,0,.92,3.84,6.7,6.7,0,0,0,2.64,2.64,15,15,0,0,0,4.51,1.71V70.17A5.21,5.21,0,0,1,230.47,68,9.11,9.11,0,0,1,229,63.81l-3.6.67a10.17,10.17,0,0,0,1.42,4.72A7.71,7.71,0,0,0,229.73,72a13.22,13.22,0,0,0,4.36,1.2v3.58h2.11V73.15a8.57,8.57,0,0,0,8.48-8.86A8.47,8.47,0,0,0,244.12,61.15Zm-10-5.81a7,7,0,0,1-3.47-2,5,5,0,0,1,.18-6.26,5.35,5.35,0,0,1,3.29-1.67Zm5.56,13a5.32,5.32,0,0,1-3.45,1.81V59.28A8.34,8.34,0,0,1,240,61.39a4.78,4.78,0,0,1,1,3.13A5.63,5.63,0,0,1,239.65,68.36Z"/><rect class="cls-28" x="212.67" y="36.77" width="3.74" height="114.86" rx="0.81"/><rect class="cls-29" x="185.75" y="25.6" width="3.51" height="41.77" rx="0.76"/><rect class="cls-30" x="157.16" y="42.45" width="4.33" height="164.31" rx="0.91"/><rect class="cls-31" x="179.54" y="133.88" width="4.4" height="73.5" rx="0.95"/><rect class="cls-32" x="159.28" y="211.02" width="4.4" height="49.69" rx="0.95"/><rect class="cls-33" x="238.99" y="199.3" width="4.4" height="49.69" rx="0.95"/><rect class="cls-34" x="224.99" y="88.15" width="3.72" height="139.66" rx="0.8"/><path class="cls-35" d="M173,106.7a2.57,2.57,0,1,1-2.57-2.57A2.57,2.57,0,0,1,173,106.7Zm20.38,17.91a1.18,1.18,0,1,0,1.17,1.18A1.18,1.18,0,0,0,193.4,124.61Zm27-33.29a2.14,2.14,0,1,0,2.14,2.14A2.14,2.14,0,0,0,220.41,91.32Zm3.36,48.5A1.22,1.22,0,1,0,225,141,1.22,1.22,0,0,0,223.77,139.82Zm-46.28,23A1.46,1.46,0,1,0,179,164.3,1.45,1.45,0,0,0,177.49,162.84Zm17.66,45a2.93,2.93,0,1,0,2.93,2.93A2.93,2.93,0,0,0,195.15,207.86Zm12-17.82a1.09,1.09,0,1,0,1.09,1.09A1.09,1.09,0,0,0,207.15,190Zm-44.33,36.82a1.34,1.34,0,1,0,1.33,1.34A1.33,1.33,0,0,0,162.82,226.86Zm69-8.07a1.38,1.38,0,1,0,1.37,1.37A1.37,1.37,0,0,0,231.77,218.79ZM193.19,80.13a1,1,0,1,0,1,1A1,1,0,0,0,193.19,80.13ZM207.92,52.6a1,1,0,0,0,0,1.95,1,1,0,1,0,0-1.95ZM166,72.85a.76.76,0,1,0,.75.75A.76.76,0,0,0,166,72.85ZM156,142.26a.41.41,0,0,0-.41.42.41.41,0,0,0,.41.41.41.41,0,0,0,.42-.41A.42.42,0,0,0,156,142.26ZM235.84,234a1,1,0,1,0,.94.95A.95.95,0,0,0,235.84,234Zm-71.46-47.26a.69.69,0,1,0,.69.69A.69.69,0,0,0,164.38,186.71Z"/><path class="cls-10" d="M291.83,235l-.18-.35,0,5.79c0,12.62-7.47,25.23-22.34,35.33-1.56,1.06-3.21,2.09-4.93,3.09l-15.25-8.81-14.62-8.44c-20.38,11.6-53.17,11.53-73.52-.22-6.92-4-11.51-8.83-13.77-13.94a18.47,18.47,0,0,1-1-2.78c-.24.37-.47.74-.68,1.11v-1.56l-41.27,3.25a35.06,35.06,0,0,0,1.5,4.7c.21.52.43,1,.66,1.55q.48,1.05,1,2.1a51.8,51.8,0,0,0,13.5,15.85,78.93,78.93,0,0,0,10.28,7,103.52,103.52,0,0,0,14.86,7c15.75,6,33.9,9,52,9,3,0,6-.09,9-.25a156.38,156.38,0,0,0,21.37-2.67l1.59-.32c3.13-.65,6.21-1.41,9.24-2.26,2.26-.63,4.49-1.33,6.68-2.08s4.34-1.55,6.44-2.41q4.2-1.72,8.13-3.75c1.31-.67,2.59-1.37,3.85-2.09l.37-.2c1.43-.84,2.8-1.7,4.13-2.57l.8-.53q1.13-.76,2.19-1.56c.2-.13.38-.28.57-.42l.75-.56.65-.5,0,0c.71-.56,1.4-1.13,2.07-1.7l.66-.57c.44-.39.89-.78,1.31-1.18l.73-.69c.38-.36.75-.73,1.12-1.1s.48-.49.71-.74.68-.72,1-1.08l.68-.76q.48-.56.93-1.11l.61-.75c.31-.39.6-.79.9-1.18s.35-.47.51-.7c.33-.46.64-.92.94-1.39.11-.17.23-.34.34-.52.41-.63.79-1.27,1.16-1.92l.21-.4c.28-.51.55-1,.81-1.54.11-.23.21-.47.32-.7.2-.42.39-.84.57-1.27.11-.26.21-.52.31-.78s.32-.8.46-1.2.19-.54.28-.82.25-.79.36-1.18.16-.55.23-.82.2-.82.29-1.22.12-.53.17-.79c.09-.44.16-.88.23-1.31,0-.24.07-.47.11-.7.07-.56.12-1.12.17-1.69l0-.33c.05-.67.07-1.34.07-2A32.36,32.36,0,0,0,291.83,235Z"/><polygon class="cls-11" points="252.45 256.78 250.04 255.39 250.04 255.4 250.04 255.39 245.37 252.69 234.46 246.39 234.42 261.61 234.49 261.65 249.1 270.09 264.36 278.9 264.4 263.68 252.45 256.78"/><path class="cls-12" d="M286.68,207.48a2.12,2.12,0,0,0-.12-.2v.27l-10.39,2-6.52,1.28-22.78,4.46a19.45,19.45,0,0,1,.91,1.75c.06.11.11.23.16.34a17.41,17.41,0,0,1,.7,1.76c0,.11.07.22.11.34.19.59.35,1.18.48,1.78a.19.19,0,0,1,0,.07,16.34,16.34,0,0,1,.28,1.84c0,.12,0,.24,0,.36,0,.41.05.83.06,1.24a18.34,18.34,0,0,1-1.42,7.29h0c-.08.21-.18.41-.27.62a24.69,24.69,0,0,1-4.3,6.45c-.26.28-.53.55-.8.83a39.66,39.66,0,0,1-8.38,6.39l10.91,6.3,4.67,2.7h0l2.41,1.39,11.95,6.9q2.6-1.5,4.93-3.09c.84-.57,1.64-1.15,2.43-1.73l.68-.51c.58-.44,1.15-.89,1.71-1.34l.61-.5c.73-.6,1.43-1.2,2.1-1.81l.25-.23c.6-.55,1.17-1.09,1.72-1.64l.56-.57c.48-.48.94-1,1.39-1.46.14-.16.3-.32.44-.49.57-.63,1.11-1.28,1.63-1.92.11-.13.2-.26.3-.39.42-.53.82-1.07,1.21-1.61l.43-.6c.37-.53.72-1.06,1.06-1.59l.28-.44c.41-.67.8-1.34,1.17-2,.09-.16.17-.32.25-.48.28-.54.54-1.07.79-1.6.1-.21.2-.42.29-.63.26-.58.5-1.16.73-1.74,0-.11.09-.23.13-.35.26-.69.5-1.38.71-2.08.06-.18.1-.37.16-.55.13-.45.24-.89.35-1.34,0-.09.05-.18.07-.26s.1-.42.14-.63.08-.41.12-.61c.08-.45.18-.89.25-1.34l0-.16c.1-.71.18-1.41.24-2.12,0-.2,0-.4,0-.6,0-.54,0-1.07.06-1.61A34.82,34.82,0,0,0,286.68,207.48Zm-37.07,28.66v0l.06.21Z"/></g></g></g></svg>