<svg xmlns="http://www.w3.org/2000/svg" xmlns:xlink="http://www.w3.org/1999/xlink" viewBox="0 0 1708.74 1742.25"><defs><style>.cls-1,.cls-12{fill:none;}.cls-2{fill:#e5f3f9;}.cls-3{fill:#bee1f4;}.cls-4{fill:#76391d;}.cls-5{fill:#5b84e6;}.cls-6{fill:#ffa784;}.cls-7{fill:#ebdb15;}.cls-8{fill:#3d99df;}.cls-9{fill:#a6dfff;}.cls-10{fill:#ea8865;}.cls-11{fill:#19191b;}.cls-12{stroke:#233560;stroke-linecap:round;stroke-linejoin:round;stroke-width:0.25px;}.cls-13{fill:#fff;}.cls-14{fill:#25283d;}.cls-15{fill:#ffd0c0;}.cls-16{fill:#def5ff;}.cls-17,.cls-45{fill:#501074;}.cls-18{fill:#131623;}.cls-19{fill:#99285e;}.cls-20{fill:#e62a7d;}.cls-21{fill:#284e99;}.cls-22,.cls-23{fill:#938718;}.cls-23,.cls-42,.cls-43,.cls-44,.cls-45,.cls-46,.cls-47,.cls-48,.cls-49{fill-rule:evenodd;}.cls-24{fill:#a5b7c6;}.cls-25{fill:#b6c7d3;}.cls-26,.cls-46{fill:#606bf1;}.cls-27{fill:#ec827d;}.cls-28,.cls-48{fill:#56548c;}.cls-29,.cls-43{fill:#112b46;}.cls-30{fill:#ccd9e2;}.cls-31{fill:#fbd15b;}.cls-32{fill:#eee;}.cls-33{fill:#879faf;}.cls-34{fill:#878cf0;}.cls-35{fill:#495dea;}.cls-36{fill:#d34c4c;}.cls-37{fill:#00c3b6;}.cls-38{fill:#ceccff;}.cls-39{fill:#eaeeef;}.cls-40,.cls-42{fill:#ffc8af;}.cls-41{fill:#3c6;}.cls-44{fill:#303072;}.cls-47{fill:#f2ad91;}.cls-49{fill:#6ff;}.cls-50{isolation:isolate;}.cls-51{clip-path:url(#clip-path);}.cls-52{fill:#00ab8e;}.cls-53{fill:#02e1c1;}.cls-54{clip-path:url(#clip-path-2);}.cls-55{fill:#5513bc;}.cls-56{fill:#6a33d3;}.cls-57{fill:#233560;}</style><clipPath id="clip-path" transform="translate(0 -17.94)"><polygon class="cls-1" points="941.77 283.19 941.25 100.95 1116.11 0 1116.62 182.24 941.77 283.19"/></clipPath><clipPath id="clip-path-2" transform="translate(0 -17.94)"><polygon class="cls-1" points="130.47 506.19 129.88 297.06 330.52 181.22 331.12 390.35 130.47 506.19"/></clipPath></defs><title>Ativo 1</title><g id="Camada_2" data-name="Camada 2"><g id="Camada_1-2" data-name="Camada 1"><ellipse class="cls-2" cx="1093.1" cy="1072.47" rx="267.05" ry="462.57" transform="translate(14.72 2141.8) rotate(-89.69)"/><path class="cls-2" d="M223.35,1130.71c11.59-12.29,17.39-29.84,16.59-46.83-.92-19.74-10-38.58-23.07-53.4-.38-.44-.76-.88-1.17-1.3-.13,3.65-.35,7.29-.57,10.94-1.06,16.61-2.73,34.2-10.17,48.76a160.5,160.5,0,0,0-7.78-76.63,138.46,138.46,0,0,0-38.24-20.42,86.19,86.19,0,0,1,5.27,9.52c10.46,21.83,11.11,46.81,7.81,71a322.09,322.09,0,0,0-36.86-86.59A134.51,134.51,0,0,0,101,984.7a89.27,89.27,0,0,0,10,8.25c6.84,4.78,14.7,8.43,20,14.87,7.22,8.69,8.39,20.8,8.9,32.1q.36,8.64.42,17.36c-2.57-6.79-5.27-13.54-8.16-20.21a123.46,123.46,0,0,0-8.68-17.37c-8.63-13.74-21.46-24-35-33.18a124.77,124.77,0,0,0-20.76,6,166.56,166.56,0,0,1,34.05,50.52,262.68,262.68,0,0,0-44.95-45.69,120.46,120.46,0,0,0-16.8,10.1,123.9,123.9,0,0,1,36.39,46.92,163.45,163.45,0,0,0-47.75-37.76,147.54,147.54,0,0,0-10.83,10.53,74.81,74.81,0,0,1,10.34,9.95,79.34,79.34,0,0,1,7.13,10.11A119.3,119.3,0,0,0,11.57,1034,169.14,169.14,0,0,0,0,1049.31Z" transform="translate(0 -17.94)"/><path class="cls-2" d="M223.35,1130.71c2.56,8.72.6,24.64-3,33A73.5,73.5,0,0,1,203,1188.55c-14.65,13.49-34.87,19.37-54.76,21.37a103.14,103.14,0,0,0,16.2-23.86c4.39-9,7.43-18.49,10.43-28-9.28,9.56-19.68,18.32-27.78,28.92-2.86,3.73-5.44,7.68-8.47,11.29a58.12,58.12,0,0,1-14.47,12.36,130.6,130.6,0,0,1-45.72-10.12A148.26,148.26,0,0,0,99,1191.24c7.43-3.9,14.9-8.08,20.72-14.16A56.25,56.25,0,0,0,130,1161.16a85.17,85.17,0,0,1-11.06,9.15c-17.5,12.09-39.22,15.83-60.36,18.94A116.3,116.3,0,0,1,41,1173.52a113.22,113.22,0,0,0,39.21-12.17,114.19,114.19,0,0,0,30-22.84c-3.26,1.79-6.66,3.37-10,4.94-10.68,5-21.4,10-32.74,13.2A168.23,168.23,0,0,1,46.15,1161,73.2,73.2,0,0,1,35.53,1162a37,37,0,0,1-4.07-.2,145.54,145.54,0,0,1-12.36-20.15c9.33,1.33,18.76,1.52,27.93-.57a87.56,87.56,0,0,0,16.33-5.76,135.08,135.08,0,0,0,30.33-18.2c-25.2,12.62-55.06,16.34-81.88,8.36a120,120,0,0,1-4.82-16,86.66,86.66,0,0,0,33.31-.84A86.86,86.86,0,0,1,5,1099.2c-1-6.15-1.6-12.33-2.14-18.59a71.14,71.14,0,0,0,21.11.24,69.53,69.53,0,0,1-21.7-7.61c-.61-7.73-1.23-15.67-2.3-23.93Z" transform="translate(0 -17.94)"/><path class="cls-3" d="M188.57,1104.06c.21-4.42.58-8.82.66-13.25.34-8.83.29-17.68,0-26.51s-1-17.65-2.08-26.41a196,196,0,0,0-4.75-26,195,195,0,0,1,4.05,26.1c.84,8.77,1.24,17.57,1.37,26.37s-.14,17.6-.71,26.38c-.2,4.4-.69,8.77-1,13.15l-1.1,9.94-26.16-9.06a151.37,151.37,0,0,0,.19-17.43,192.39,192.39,0,0,0-1.9-19.34,233.31,233.31,0,0,0-8.75-37.7,233.39,233.39,0,0,1,7.35,37.88c.75,6.39,1.08,12.81,1.19,19.22a147.71,147.71,0,0,1-.75,16.44l-25-8.63a120.5,120.5,0,0,0-2.89-23.21,143.23,143.23,0,0,0-7.58-23.74A180.49,180.49,0,0,0,109.68,1026a170.62,170.62,0,0,0-14.05-20.48,168.28,168.28,0,0,1,13.59,20.75,180.79,180.79,0,0,1,10.56,22.4,141.1,141.1,0,0,1,7,23.68,117.06,117.06,0,0,1,2.34,22.15l-26.3-9.11A116.57,116.57,0,0,0,97,1066.11a133,133,0,0,0-9.26-18.87A163.33,163.33,0,0,0,76,1029.86a148.8,148.8,0,0,0-13.92-15.64,147.92,147.92,0,0,1,13.5,16,161.08,161.08,0,0,1,11.24,17.58,131.94,131.94,0,0,1,8.7,18.92,109.91,109.91,0,0,1,5,17.86l-27.4-9.48a144.47,144.47,0,0,0-15.3-22.39,139,139,0,0,0-19.49-19.47,138.84,138.84,0,0,1,19,19.91,144.36,144.36,0,0,1,13.88,21.27l-47.9-16.59,63.05,24.15a90.07,90.07,0,0,1-14,6.46c-2.71,1.1-5.56,1.81-8.36,2.68-2.85.65-5.69,1.43-8.59,1.87a108.09,108.09,0,0,1-17.51,1.72,97.5,97.5,0,0,1-17.57-1.18A97.5,97.5,0,0,0,37.81,1095a107.37,107.37,0,0,0,17.63-1.38c2.93-.38,5.8-1.1,8.69-1.7,2.84-.83,5.73-1.48,8.49-2.54a94.78,94.78,0,0,0,15.4-6.81l25,9.57a123.73,123.73,0,0,1-18.62,12.27A119,119,0,0,1,71.47,1114a123.44,123.44,0,0,1-24.4,4.9,110.55,110.55,0,0,1-24.93-.09,110.41,110.41,0,0,0,25,.62A123.78,123.78,0,0,0,71.77,1115a120.05,120.05,0,0,0,23.37-9.14,129.58,129.58,0,0,0,20.17-12.8l22.8,8.73-2.93,3-2.44,2.5-2.62,2.32-5.25,4.63-5.56,4.26a162.16,162.16,0,0,1-23.82,14.8,198,198,0,0,1-25.87,11,182.6,182.6,0,0,1-27.23,7.21A183,183,0,0,0,69.85,1145a199.85,199.85,0,0,0,26.27-10.46,164,164,0,0,0,24.43-14.35l5.76-4.18,5.45-4.56,2.72-2.3,2.55-2.49,3.91-3.82,13.82,5.29a136.92,136.92,0,0,1-13.17,18.67,165.18,165.18,0,0,1-17.78,18.3,204.89,204.89,0,0,1-20.14,15.79,188.14,188.14,0,0,1-22,13.12,188.57,188.57,0,0,0,22.42-12.53,206.68,206.68,0,0,0,20.67-15.31,168.67,168.67,0,0,0,18.47-18,140.67,140.67,0,0,0,14.18-19l15.84,6.06c-1.25,3-2.49,6-3.84,8.91-1.78,3.72-3.42,7.51-5.38,11.14-3.68,7.4-7.92,14.49-12.3,21.5a241.44,241.44,0,0,1-14.43,20.15,163.93,163.93,0,0,1-16.77,18.28,163.8,163.8,0,0,0,17.31-17.83,240,240,0,0,0,15.07-19.83c4.59-6.91,9.08-13.93,13-21.28,2.08-3.6,3.84-7.37,5.75-11.07,1.46-3,2.8-6,4.17-9l32.4,12.4a75.44,75.44,0,0,1-4,18.39,110.16,110.16,0,0,1-9.84,19.59A151.06,151.06,0,0,1,181,1184.1a149.89,149.89,0,0,1-15.82,15.45,153.7,153.7,0,0,0,30.38-32.19,112.27,112.27,0,0,0,10.64-19.62,78.19,78.19,0,0,0,4.66-18.13l56.71,21.71,2.9-8-57.81-20a106.79,106.79,0,0,0,5.54-13.71,114.73,114.73,0,0,0,4.4-17.65,121.71,121.71,0,0,0,1.81-18,106.82,106.82,0,0,0-.91-18.06,105.41,105.41,0,0,1,.2,18,121.15,121.15,0,0,1-2.48,17.81,113.48,113.48,0,0,1-5,17.21,106.88,106.88,0,0,1-6.12,13.53l-22.36-7.74Z" transform="translate(0 -17.94)"/><ellipse class="cls-2" cx="623.98" cy="1258.01" rx="267.05" ry="462.57" transform="translate(-637.4 1857.22) rotate(-89.69)"/><path class="cls-2" d="M662.59,423.14h0a103.51,103.51,0,0,0-16.17-6.37l-.88-.26c-1.49-.43-3-.83-4.51-1.2l-1.5-.35c-1.33-.3-2.67-.58-4-.83l-1.82-.32c-1.28-.22-2.57-.4-3.86-.57-.64-.08-1.28-.17-1.93-.24-1.34-.15-2.69-.26-4-.36-.59,0-1.18-.1-1.77-.13q-2.9-.17-5.84-.17h0a104.28,104.28,0,0,0-58.55,17.88,105.32,105.32,0,0,0-22.26,20.23c-1.06,1.29-2.1,2.61-3.1,3.95q-3,4-5.65,8.36-1.31,2.16-2.52,4.38c-1.06,1.95-2,3.95-3,6q-1.51,3.25-2.79,6.61a103.27,103.27,0,0,0-3.59,11.18,105,105,0,0,0-3.3,26.17c0,1.65.05,3.3.13,4.93,0,.52.06,1,.09,1.56.07,1.12.15,2.24.26,3.35q.07.89.18,1.77c.11,1.07.25,2.13.4,3.18.08.56.15,1.13.24,1.68.21,1.3.44,2.58.69,3.86.08.42.16.84.25,1.26.29,1.36.6,2.71.94,4.05.16.64.34,1.28.51,1.91.24.87.48,1.73.73,2.59l.66,2.11c.25.77.52,1.54.78,2.3s.51,1.45.77,2.16.57,1.46.87,2.19c.55,1.37,1.12,2.73,1.73,4.07.27.6.53,1.2.81,1.79.38.81.79,1.61,1.2,2.42.27.53.54,1.07.82,1.6q.64,1.23,1.32,2.43l.84,1.45c.48.83,1,1.66,1.47,2.47l.66,1c1.26,2,2.58,3.93,4,5.82l0,0h0A104.72,104.72,0,1,0,662.59,423.14Z" transform="translate(0 -17.94)"/><path class="cls-2" d="M353,389.13h0a141.07,141.07,0,0,0-22-8.68c-.4-.13-.81-.23-1.22-.35q-3-.89-6.12-1.64l-2.06-.47q-2.71-.62-5.46-1.13l-2.47-.44c-1.74-.29-3.5-.55-5.26-.77-.87-.12-1.75-.24-2.63-.34-1.82-.2-3.67-.35-5.51-.48-.8-.06-1.59-.14-2.39-.18-2.64-.15-5.29-.24-8-.24A142.65,142.65,0,0,0,147.25,517.06c0,2.25.07,4.49.17,6.72,0,.71.09,1.41.13,2.12.09,1.53.21,3.05.35,4.56.07.81.16,1.61.24,2.42.16,1.45.35,2.89.55,4.32.11.77.21,1.54.33,2.31.28,1.75.6,3.5.94,5.24.11.57.22,1.14.34,1.71.39,1.86.81,3.7,1.28,5.53.21.87.46,1.73.7,2.6.32,1.18.64,2.35,1,3.52.28,1,.59,1.92.89,2.88s.7,2.09,1.06,3.13.69,2,1.06,3,.77,2,1.16,3q1.16,2.85,2.41,5.66c.35.77.69,1.56,1,2.32.54,1.13,1.1,2.23,1.66,3.34.36.72.72,1.44,1.1,2.15.59,1.12,1.2,2.23,1.82,3.33.36.65.74,1.29,1.11,1.94.67,1.14,1.33,2.27,2,3.39.28.46.58.91.87,1.36A142.64,142.64,0,1,0,353,389.13Z" transform="translate(0 -17.94)"/><path class="cls-2" d="M524.49,148.9l-1.54-.43q-3.88-1.14-7.83-2.1l-2.63-.61q-3.47-.78-7-1.44l-3.16-.56c-2.22-.37-4.46-.69-6.72-1-1.11-.14-2.22-.3-3.34-.42-2.34-.26-4.69-.45-7.06-.62-1-.07-2-.18-3-.23-3.37-.19-6.75-.3-10.16-.3h0a181.33,181.33,0,0,0-94.45,26.37q-3.75,2.28-7.39,4.74a183.44,183.44,0,0,0-38.71,35.17A181.43,181.43,0,0,0,289.9,323.34c0,2.87.08,5.73.22,8.57,0,.91.11,1.82.16,2.73.12,1.94.26,3.88.44,5.81.1,1,.21,2.06.32,3.08.2,1.86.44,3.7.7,5.53.14,1,.27,2,.42,2.93q.54,3.38,1.2,6.69c.14.74.28,1.48.43,2.21q.75,3.56,1.63,7.05c.28,1.11.59,2.21.89,3.32.41,1.5.83,3,1.28,4.49.37,1.24.75,2.46,1.15,3.68s.89,2.67,1.35,4,.88,2.53,1.35,3.78,1,2.5,1.48,3.75q1.47,3.68,3.09,7.27c.45,1,.87,2,1.33,2.95.68,1.43,1.4,2.84,2.12,4.26.46.91.92,1.83,1.4,2.74q1.14,2.15,2.33,4.26c.46.83.94,1.64,1.41,2.46.85,1.46,1.71,2.91,2.6,4.35.36.57.73,1.14,1.1,1.71a182.13,182.13,0,1,0,206.19-272Z" transform="translate(0 -17.94)"/><polygon class="cls-3" points="616.25 509.22 479.88 582.96 472.04 357.94 462.64 627.58 297.21 499.12 461.82 651.14 454.91 849.62 489.17 849.62 480.62 604.23 616.25 509.22"/><path class="cls-4" d="M272.92,1107.51s-.84,20.53-.84,22.13,29.93,16.45,37.7,20.11,27.41-6.17,24-11.89-23.46-28.24-26.81-35.93S272.92,1107.51,272.92,1107.51Z" transform="translate(0 -17.94)"/><path class="cls-4" d="M198.81,1155v18.48c0,1.68,31.44,17.28,39.6,21.12s28.79-6.48,25.19-12.48-24.64-29.66-28.16-37.75S198.81,1155,198.81,1155Z" transform="translate(0 -17.94)"/><path class="cls-5" d="M198.81,1155s19.44,9.36,37.44-11.52l25.19-248.39,7.93-4.32,3.59,219.6s19.44,5,35.28-5c0,0,17.28-181.43,13.68-275.75L198.81,854.63S195.21,1107.46,198.81,1155Z" transform="translate(0 -17.94)"/><path class="cls-6" d="M314,684.1S355,795,358.64,806.5s-33.69,23.36-36.72,4.32S285.2,697.27,285.2,697.27Z" transform="translate(0 -17.94)"/><path class="cls-7" d="M262,615c13.07-2.55,44.78,21.6,59.9,77.73,0,0-20.16,12.93-39.6,9.33Z" transform="translate(0 -17.94)"/><path class="cls-7" d="M212.49,611.39c-18,2.12-48.4,19.15-56,27.05-13.52,14.13,25,137.82,29.67,172.38s-2.52,42.48,29.16,49,106.55,0,106.55-30.24S304.74,701.74,296,659.92C285.2,608.2,254.82,606.4,212.49,611.39Z" transform="translate(0 -17.94)"/><polygon class="cls-8" points="269.37 805.88 338.48 766.96 330.56 826 269.37 805.88"/><polygon class="cls-9" points="327.68 747.52 411.92 699.29 411.92 774.88 330.56 826 327.68 747.52"/><path class="cls-6" d="M381.68,784.9c-12.7,5.52-12.38,12-11.88,23s-4.46,20.88,5.87,18.72S396,813.93,395.7,803,398.24,777.7,381.68,784.9Z" transform="translate(0 -17.94)"/><path class="cls-6" d="M186.21,784.18l44.15-78.48s-.59-29.52,5.17-30.24,12,22.31,12,22.31,38.09-12,41.26,6.49-1.44,25.59-36.71,25.55c0,0-36.72,84-59,91.87s-48.13-3-44.23-83.6l29.56,4.35Z" transform="translate(0 -17.94)"/><path class="cls-7" d="M145.53,736.3c2.16,1.8,16.56,8.28,37.44,5.4,0,0,8.13-82.38-2.67-96.06s-29.35-13-34.56,10.44C141.2,676.47,145.53,736.3,145.53,736.3Z" transform="translate(0 -17.94)"/><path class="cls-6" d="M198.61,572.8s-21.16,6.19-20.2-13S199.53,554,199.53,554s-2.88-36.24,2.88-38.4,41.76-.72,49,15.12,14.22,60.62,7.55,65.93c-7.09,5.64-21.11,7.56-30.53,2.14l1,11s26.36,21,11.24,28.21-37.59-7-44.79-21.41Z" transform="translate(0 -17.94)"/><path class="cls-10" d="M199.53,554s-1.72-21.77.2-32.56c-9.25-2.45-27.32-8.18-32.6-16.64,0,0,3.75,27.54,13.05,48.2C185.26,544.57,199.53,554,199.53,554Z" transform="translate(0 -17.94)"/><path class="cls-11" d="M221.33,482.51s14.92-3.91,18.52-16.72c0,0-23.76,3.6-43.92,8.36s-47.34,24.92-17.55,45.08,98.18,27.94,101.78-4.39c0,0-22.32-.65-32.4-10,0,0,25.92,2.16,37.44-10.8C285.2,494,262.56,476.75,221.33,482.51Z" transform="translate(0 -17.94)"/><path class="cls-12" d="M241.27,557.9c0,4.88-4.89,8.83-10.91,8.83s-10.92-4-10.92-8.83,4.89-8.83,10.92-8.83S241.27,553,241.27,557.9Z" transform="translate(0 -17.94)"/><path class="cls-12" d="M269.37,555.8c0,4.87-4.89,8.83-10.92,8.83s-10.91-4-10.91-8.83,4.88-8.83,10.91-8.83S269.37,550.92,269.37,555.8Z" transform="translate(0 -17.94)"/><line class="cls-12" x1="198.61" y1="535.62" x2="219.44" y2="539.96"/><line class="cls-12" x1="241.27" y1="539.96" x2="247.54" y2="539.96"/><path class="cls-13" d="M244.4,591.06c-12.75,0-19.66-8.58-14-13.66s14.74,5.24,20.26,5.24S257.1,591.06,244.4,591.06Z" transform="translate(0 -17.94)"/><path class="cls-14" d="M1072.75,849.62s-3.19,32.72,2.26,40.69,19.32-8.24,20.55-40.69a14.39,14.39,0,0,1,5.88,5.25l2.64-5s-6.37-19.11-14.57-25.6S1072.75,849.62,1072.75,849.62Z" transform="translate(0 -17.94)"/><path class="cls-15" d="M1031.81,611s-.42,77.6,8,127.09,33.24,91.51,33.13,99.41-1.25,31.78,4.2,30.15,14.26-32.67,13.42-37.7S1072.08,732.5,1075,692.75s5.41-67.14,5.49-84.16S1036.42,577.4,1031.81,611Z" transform="translate(0 -17.94)"/><path class="cls-14" d="M1075,692.75c2.93-39.74,5.41-67.14,5.49-84.16s-44.08-31.19-48.69,2.37c0,0-.42,77.6,8,127.09,7.7,45.44,29.22,84.49,32.63,96.71,4.91-2.6,11.85-7.13,16.54-13.61C1084.52,796.29,1072.56,726.06,1075,692.75Z" transform="translate(0 -17.94)"/><path class="cls-14" d="M969.94,867.61c7.64,3.82,50.33-21.81,50.33-21.81v16.36l6.71-4.32s6.07-27.82-1.5-34-18.63-.67-32.05,9.4S962.29,863.79,969.94,867.61Z" transform="translate(0 -17.94)"/><path class="cls-15" d="M1022.63,832.38c-1.23,10.68-39.69,25.17-42.62,22.23s18.45-22.23,18.45-22.23S980.85,652.7,982.94,616.31s45.57-18.08,42.37,12.75S1023.41,825.63,1022.63,832.38Z" transform="translate(0 -17.94)"/><path class="cls-14" d="M985.91,604.5c-.76,1.93-1.49,3.92-2.17,6a38.2,38.2,0,0,0-.8,5.78c-1.73,30.13,10,158.44,14.14,201.69,5.75.43,14.28-.84,25.83-7.22.16-47.3-.16-157.19,2.4-181.72C1028.08,602.41,996,585.2,985.91,604.5Z" transform="translate(0 -17.94)"/><path class="cls-7" d="M1003.14,340.15S972.35,303.51,983.45,289s38.78-36.5,53.88-25.8a45.69,45.69,0,0,1,48.57,10.7c22.53,22,7.43,157.12,7.43,157.12H999.41Z" transform="translate(0 -17.94)"/><path class="cls-16" d="M1096.6,612.7s-34.68,30.62-77.95,16.36c0,0-34.61,3.37-53.32-12.75-6.7-5.77,2.08-66.94,29.34-103.43,0,0-7.13-60.82-10.06-76.13s4.61-59.95,50.75-57.13,62.5,20,63.75,33-23.69,100.67-23.69,100.67S1095.76,538,1096.6,612.7Z" transform="translate(0 -17.94)"/><path class="cls-9" d="M1027.39,418.5c-.9,8.74-1.64,17.5-2.34,26.25s-1.36,17.52-1.93,26.29c-1.15,17.53-2.11,35.07-2.77,52.63s-1.28,35.11-1.52,52.68-.27,35.14-.18,52.71c-.09-8.78-.28-17.57-.28-26.35s0-17.58.15-26.36c.18-17.57.69-35.14,1.36-52.7s1.73-35.1,2.93-52.64q.9-13.14,2-26.28C1025.6,436,1026.42,427.23,1027.39,418.5Z" transform="translate(0 -17.94)"/><path class="cls-15" d="M1059.27,356.42s-.84,24.36-2.94,28.75-28.94,33.33-28.94,33.33.84-32.3,0-36.49,3.77-19.71,3.77-19.71Z" transform="translate(0 -17.94)"/><path class="cls-9" d="M1027.39,418.5s12.78,23.91,13.31,22,32.1-34.94,34.51-49.7-16.47-23.92-16.47-23.92Z" transform="translate(0 -17.94)"/><path class="cls-9" d="M1008.3,440.63l19.09-22.13,1.6-48s-14.81,2.77-17.33,14.71S1008.3,440.63,1008.3,440.63Z" transform="translate(0 -17.94)"/><path class="cls-15" d="M1059.27,356.42s14.68-1.88,18.87-9.22c6-10.51-5.45-12.8-10.48-9.65,0,0,4.4-26-22-34.82s-33.34,5.67-35.86,20.14-4.14,43.49,15.73,46.87C1045.84,373.2,1051.09,363.34,1059.27,356.42Z" transform="translate(0 -17.94)"/><path class="cls-7" d="M1085.9,339.85s-34.6,5.67-55.37-32.71c0,0-17.61,13.21-25.79,11.32s16.67-31.46,38.54-24.53S1085.9,339.85,1085.9,339.85Z" transform="translate(0 -17.94)"/><path class="cls-13" d="M1025.71,349.92c4.66,0,10.91-6.08,14.26,0s-5.45,12-14.26,11.54S1011.45,349.92,1025.71,349.92Z" transform="translate(0 -17.94)"/><path class="cls-15" d="M901.75,399.46s7.51-15.93,3.07-18.51-10.75,9.76-10.75,9.76-15.52-22-25.75-14.18-5.44,21.21,14.94,36c0,0,27.33,51,34.13,62.14s16.84,16.36,25.15,9.61l-.14-25.14S927.93,449.48,901.75,399.46Z" transform="translate(0 -17.94)"/><path class="cls-16" d="M950.58,488.08l-6.75-32s51.93-61.85,54.66-63.27,14,28.43,8.14,42.46C1000.63,449.6,950.58,488.08,950.58,488.08Z" transform="translate(0 -17.94)"/><path class="cls-9" d="M943.45,451c4.09-1.41,8.89,19.26,10.21,26.43s.89,17.13-6.13,17-4.18-16.84-5.81-22.72S936.92,453.28,943.45,451Z" transform="translate(0 -17.94)"/><path class="cls-16" d="M1139.58,490.07l-32.26-5.3s-37.77-44.83-31.9-79.23c4.42-25.92,19.16-10.59,35.26,13.16C1119.39,431.56,1139.58,490.07,1139.58,490.07Z" transform="translate(0 -17.94)"/><path class="cls-15" d="M1112.83,488.08s-43.41,57.66-47.19,67.09-6.29,39.85,5.67,35.34,8.53-27.79,8.53-27.79,58.82-60.56,59.74-68.2S1112.83,488.08,1112.83,488.08Z" transform="translate(0 -17.94)"/><path class="cls-9" d="M1102.47,483.3c.17-4.32,21.17-1.31,28.33.06s16.29,5.38,13.67,11.89-17.2-2.2-23.27-2.82S1102.19,490.2,1102.47,483.3Z" transform="translate(0 -17.94)"/><path class="cls-2" d="M1210.51,810.58c12.1,11.8,29.56,17.89,46.56,17.36,19.75-.58,38.73-9.35,53.77-22.17.45-.37.89-.75,1.32-1.16-3.64-.19-7.28-.46-10.93-.74-16.58-1.34-34.15-3.3-48.58-11a160.44,160.44,0,0,0,76.74-6.51,138.27,138.27,0,0,0,21.06-37.89,89,89,0,0,1-9.61,5.11c-22,10.09-47,10.33-71.16,6.62a321.58,321.58,0,0,0,87.19-35.41,134.9,134.9,0,0,0,1.68-34.17,88.52,88.52,0,0,0-8.43,9.83c-4.89,6.77-8.66,14.57-15.19,19.77-8.82,7.07-20.94,8-32.25,8.37q-8.64.21-17.37.14c6.84-2.46,13.63-5,20.35-7.83a123.94,123.94,0,0,0,17.51-8.39c13.89-8.4,24.36-21.06,33.76-34.47a124.49,124.49,0,0,0-5.69-20.86,166.51,166.51,0,0,1-51.08,33.21,262.25,262.25,0,0,0,46.43-44.18,119.7,119.7,0,0,0-9.81-17,123.86,123.86,0,0,1-47.52,35.6,163.24,163.24,0,0,0,38.55-47.1,145.87,145.87,0,0,0-10.35-11,74.81,74.81,0,0,1-10.12,10.17,79.08,79.08,0,0,1-10.23,7,119.12,119.12,0,0,0,13.58-23.44,166.43,166.43,0,0,0-15.07-11.83Z" transform="translate(0 -17.94)"/><path class="cls-2" d="M1210.51,810.58c-8.75,2.41-24.64.19-32.89-3.58a73.59,73.59,0,0,1-24.6-17.74c-13.24-14.87-18.78-35.18-20.45-55.1a103.06,103.06,0,0,0,23.58,16.59c8.9,4.53,18.37,7.74,27.86,10.89-9.41-9.43-18-20-28.45-28.25-3.69-2.92-7.6-5.57-11.16-8.66a57.8,57.8,0,0,1-12.11-14.67,130.68,130.68,0,0,1,10.87-45.55,147.52,147.52,0,0,0,8.9,20.7c3.77,7.49,7.83,15,13.81,20.95a55.93,55.93,0,0,0,15.76,10.54,84.18,84.18,0,0,1-9-11.2c-11.8-17.7-15.18-39.48-17.93-60.67a115.88,115.88,0,0,1,16-17.34,112.84,112.84,0,0,0,33.86,69.73c-1.73-3.29-3.26-6.71-4.77-10.1-4.82-10.77-9.65-21.56-12.66-33a168.78,168.78,0,0,1-4-21.25,73.28,73.28,0,0,1-.87-10.64,34.75,34.75,0,0,1,.26-4.07,145.44,145.44,0,0,1,20.35-12c-1.49,9.31-1.83,18.72.11,27.93a87.36,87.36,0,0,0,5.49,16.43,134.83,134.83,0,0,0,17.69,30.62c-12.2-25.41-15.42-55.32-7-82a121.48,121.48,0,0,1,16.1-4.55,86.88,86.88,0,0,0,.28,33.32,86.9,86.9,0,0,1,10-35.1c6.17-.87,12.35-1.4,18.63-1.84a71.17,71.17,0,0,0-.6,21.11,69.71,69.71,0,0,1,8-21.58c7.74-.47,15.69-1,24-1.9Z" transform="translate(0 -17.94)"/><path class="cls-3" d="M1237.74,776.24c4.41.29,8.81.74,13.24.89,8.83.48,17.67.58,26.51.45s17.66-.71,26.44-1.64a196.5,196.5,0,0,0,26.1-4.32,195.38,195.38,0,0,1-26.17,3.62c-8.78.69-17.58.94-26.38.92s-17.6-.43-26.37-1.14c-4.39-.27-8.75-.83-13.13-1.23l-9.91-1.26,9.49-26A151.33,151.33,0,0,0,1255,747a192.33,192.33,0,0,0,19.36-1.58,233.14,233.14,0,0,0,37.85-8.12,232.87,232.87,0,0,1-38,6.72,190.21,190.21,0,0,1-19.23.87,147.43,147.43,0,0,1-16.43-1l9-24.81a120,120,0,0,0,23.25-2.5,143.17,143.17,0,0,0,23.86-7.18,182.67,182.67,0,0,0,22.46-10.71A169.19,169.19,0,0,0,1337.86,685a167.47,167.47,0,0,1-21,13.25,178.54,178.54,0,0,1-22.57,10.19,141.93,141.93,0,0,1-23.8,6.61,116.32,116.32,0,0,1-22.18,2l9.54-26.14a117.24,117.24,0,0,0,19.33-5.52,132.94,132.94,0,0,0,19-8.94,160.44,160.44,0,0,0,17.57-11.46,146.49,146.49,0,0,0,15.87-13.66,146.63,146.63,0,0,1-16.18,13.24,162.1,162.1,0,0,1-17.77,11,132.34,132.34,0,0,1-19.06,8.38,111.48,111.48,0,0,1-17.94,4.72l9.94-27.24a144.76,144.76,0,0,0,22.64-14.93,138.45,138.45,0,0,0,19.78-19.17,138.25,138.25,0,0,1-20.22,18.62,143.14,143.14,0,0,1-21.49,13.52l17.38-47.61-25.19,62.64a90,90,0,0,1-6.23-14.14c-1.06-2.74-1.71-5.6-2.54-8.41-.6-2.86-1.33-5.71-1.72-8.62a107.22,107.22,0,0,1-1.43-17.53,96.59,96.59,0,0,1,1.47-17.56,96.58,96.58,0,0,0-1.82,17.55,107.5,107.5,0,0,0,1.08,17.65c.33,2.93,1,5.81,1.56,8.71.78,2.85,1.38,5.76,2.4,8.54a94.61,94.61,0,0,0,6.55,15.51l-10,24.83a122.63,122.63,0,0,1-12-18.82,119.09,119.09,0,0,1-9.16-23.08,123,123,0,0,1-4.49-24.48,109.9,109.9,0,0,1,.5-24.92,110.85,110.85,0,0,0-1,25,124.11,124.11,0,0,0,4,24.72,120.17,120.17,0,0,0,8.76,23.52A129.25,129.25,0,0,0,1250,703.18l-9.11,22.66-3-3-2.46-2.48-2.28-2.65-4.54-5.33-4.17-5.63a162.06,162.06,0,0,1-14.39-24.07,198.54,198.54,0,0,1-10.63-26,182.36,182.36,0,0,1-6.75-27.35,182.53,182.53,0,0,0,6.08,27.56,198.94,198.94,0,0,0,10,26.44A164.14,164.14,0,0,0,1222.73,708l4.08,5.82,4.48,5.53,2.25,2.76,2.45,2.59,3.75,4-5.52,13.73a137.16,137.16,0,0,1-18.45-13.47,166.2,166.2,0,0,1-18-18.09,204.57,204.57,0,0,1-15.45-20.4,186.13,186.13,0,0,1-12.75-22.24,187.77,187.77,0,0,0,12.15,22.62,207.94,207.94,0,0,0,15,20.93,167.6,167.6,0,0,0,17.68,18.76,140.2,140.2,0,0,0,18.8,14.5l-6.32,15.73c-3-1.3-5.93-2.58-8.85-4-3.68-1.84-7.45-3.55-11-5.57-7.33-3.79-14.35-8.16-21.28-12.65a240.58,240.58,0,0,1-19.91-14.77,162.24,162.24,0,0,1-18-17.07,163.83,163.83,0,0,0,17.54,17.61,244.38,244.38,0,0,0,19.57,15.4c6.84,4.7,13.78,9.3,21.06,13.33,3.57,2.14,7.31,4,11,5.94,2.94,1.51,5.93,2.9,8.91,4.31l-12.94,32.2a75.64,75.64,0,0,1-18.32-4.33A110.17,110.17,0,0,1,1175.14,781a150.56,150.56,0,0,1-17.3-13.67,148.81,148.81,0,0,1-15.18-16.07,148,148,0,0,0,14.7,16.58,151.2,151.2,0,0,0,17,14.33,112.39,112.39,0,0,0,19.43,11,78,78,0,0,0,18.06,5l-22.65,56.34,7.9,3,21-57.48a105.72,105.72,0,0,0,13.62,5.77,114.15,114.15,0,0,0,17.57,4.7,122.85,122.85,0,0,0,18,2.1,104.94,104.94,0,0,0,18.08-.61,106.42,106.42,0,0,1-18-.09,120.77,120.77,0,0,1-17.77-2.78,113.18,113.18,0,0,1-17.13-5.3,104.73,104.73,0,0,1-13.42-6.34l8.11-22.23Z" transform="translate(0 -17.94)"/><ellipse class="cls-2" cx="1021.88" cy="1380.71" rx="267.05" ry="462.57" transform="translate(-364.34 2377.15) rotate(-89.69)"/><ellipse class="cls-2" cx="1348.98" cy="1445.21" rx="152.44" ry="264.04" transform="translate(-103.52 2768.4) rotate(-89.69)"/><path class="cls-2" d="M1567.93,1277.56c-4.57,7.45-9.17,15-14.09,22.2-1.31,1.93-3.41,3.55-3.28,5.57.2,2.68,4.43,6.52,6,8.64,2.11,2.76,5.83,9.19,8.86,10.83-3.82-2.07-11.88-7.69-17.27-7.57.56,3.6,2.8,7.23,3.83,10.82a23.49,23.49,0,0,0-10.09-4.94c.67,3.45-1.36,7.86-2.08,11.26-3.61,17-6,37.4,1.65,53.61,8.28,17.58,31.73,14.86,47.56,11,7.84-1.94,16.07-5.16,22.7-9.88,2.41-1.71,10.52-10.35,14.1-7.71-.95-3.41-2.27-6.78-2.72-10.13,2.26,1.59,5.59,1.1,7.25,3.19,3.74-2.84,6.08-7.53,10.46-9.69-3.44-3.63-4.45-9.94-7.6-13.9a46,46,0,0,1,13.15,3.43c1.14-2.8,3.21-5.31,5-7.7,7.65-10.26,14.14-21.94,19.82-33.38a210.12,210.12,0,0,1,11.91-20.14c-3.52-2.81-6.23-7.46-9.34-10.8-4-4.29-8.18-8.45-12.15-12.7,2.39-.15,4.32,1.16,6.53,1.79,7.26,2.08,15,4,22.4,5.54.31-2.9,14.25-29.18,12.83-30-4.5-2.48-10.22-5.75-13.94-8.86,4.71,1.11,9.72.06,14.61.09-2.34-5.17-12.51-10.07-16.5-14.28,3.64-1,7.68.76,11.35,1.07,2.61.22,5.33-.54,7.47.95,1.27-7.8,1.13-15.72,1.42-23.59.19-5.07,2-13.87,0-18.54-1.38-3.24-6.84-5.07-8.17-8,2.21-1,4.44-.66,6.7-.52-.06-1.84-1.43-27.71-3.08-27.48-15.79,2.24-30.56,5-44.57,12.87-2.61,1.48-5.77,2.46-6.52,5.06-1.53,5.29,2.5,12.89,3,18.06-4.44-4.88-11.11-8.32-16.29-12.57-5.83,5.17-10.91,9.56-15.49,16.19-3.85,5.57-8.52,11-11.87,16.82-1.21,2.13-4.28,5.67-4.77,8.07-1.22,6,10.81,18.68,14.87,23.3-6.37-.52-12.62-6.53-19.5-7.49-7.25-1-7.38,6.66-11.61,9.25,2.81.3,6.18,5.11,7.8,7.32-3.2-.19-6.48-2.4-9.52-1.31a75.12,75.12,0,0,0,10,16.94c-4-.13-7.81-3-11.82-3.88-2-.43-4-.38-5.78-.94-3.14,7.49-8.29,14.15-12.5,21Z" transform="translate(0 -17.94)"/><path class="cls-3" d="M1691.87,1166.7c-8.87,8.3-13.64,23.47-18.62,34.32-5.42,11.81-10.54,23.75-16,35.55-10.12,22-21,43.45-34.76,63.38-28,40.58-53.63,84.46-87.73,120.3-2.34,2.45-6.84-1.13-4.66-3.84,31.78-39.56,62.62-79.34,91.48-121.11,14.76-21.36,25.9-44.76,36.86-68.21,9.77-20.91,18.93-43.1,31.24-62.65,1.11-1.77,4,.56,2.17,2.26Z" transform="translate(0 -17.94)"/><path class="cls-2" d="M837.16,1715.88c-102.79,59.34-270,59-373.41-.68S359.8,1559,462.59,1499.62s270-59,373.4.68S940,1656.53,837.16,1715.88Z" transform="translate(0 -17.94)"/><path class="cls-2" d="M1375.19,1680.93c-22.7,13.1-59.62,13-82.46-.15s-23-34.5-.26-47.61,59.62-13,82.47.15S1397.89,1667.82,1375.19,1680.93Z" transform="translate(0 -17.94)"/><path class="cls-2" d="M133.4,1309.58c-16,9.23-42,9.18-58.05-.1s-16.16-24.29-.18-33.52,42-9.17,58.05.11S149.38,1300.36,133.4,1309.58Z" transform="translate(0 -17.94)"/><path class="cls-17" d="M1341.15,1088c-10.05,15.63-7.71,26.73-4.87,28,59.6,26.56,96.68,18.46,105.76,15.39-9.85-13.74-19.2-27-30.34-42C1382.51,1094.69,1341.15,1088,1341.15,1088Z" transform="translate(0 -17.94)"/><polygon class="cls-18" points="1168.21 645.86 1168.03 711.58 1048.7 780.93 1048.88 715.2 1168.21 645.86"/><polygon class="cls-18" points="631.36 715.22 631.17 780.95 511.06 711.61 511.25 645.88 631.36 715.22"/><path class="cls-18" d="M941.36,824.5l.19-65.73c0-9.28,6.12-18.55,18.31-25.63,24.48-14.23,64.38-14.23,89,0l-.18,65.73c-24.65-14.23-64.54-14.23-89,0C947.49,806,941.39,815.22,941.36,824.5Z" transform="translate(0 -17.94)"/><path class="cls-18" d="M739,759.12l-.18,65.73c0-9.4-6.18-18.81-18.6-26-24.68-14.25-64.54-14.23-89.06,0l.19-65.73c24.52-14.25,64.38-14.27,89.06,0C732.84,740.31,739,749.73,739,759.12Z" transform="translate(0 -17.94)"/><polygon class="cls-18" points="840.79 836.14 840.6 901.86 720.52 832.54 720.71 766.81 840.79 836.14"/><polygon class="cls-18" points="960.12 766.79 959.93 832.52 840.6 901.86 840.79 836.14 960.12 766.79"/><path class="cls-14" d="M1168.21,663.79l-119.33,69.35c-24.64-14.23-64.54-14.23-89,0s-24.39,37.36.25,51.59L840.79,854.07,720.71,784.75c24.52-14.25,24.39-37.36-.29-51.61s-64.54-14.23-89.06,0L511.25,663.82,838.68,473.54Z" transform="translate(0 -17.94)"/><path class="cls-19" d="M639.69,816.84l-.18,65.73c0,9.28-6.13,18.54-18.31,25.62l.19-65.73C633.57,835.39,639.67,826.12,639.69,816.84Z" transform="translate(0 -17.94)"/><polygon class="cls-19" points="741.47 893.85 741.28 959.58 621.99 1028.91 622.17 963.18 741.47 893.85"/><path class="cls-19" d="M514.63,1072.47l.19-65.73c0-9.27,6.12-18.53,18.29-25.6,24.52-14.25,64.41-14.25,89.06,0l-.19,65.73c-24.64-14.23-64.54-14.23-89.05,0C520.75,1053.94,514.66,1063.2,514.63,1072.47Z" transform="translate(0 -17.94)"/><polygon class="cls-19" points="533.4 1014.77 533.22 1080.5 413.89 1149.84 414.07 1084.12 533.4 1014.77"/><polygon class="cls-19" points="414.07 1084.12 413.89 1149.84 84.35 959.58 84.54 893.86 414.07 1084.12"/><path class="cls-20" d="M621.1,790.86c24.68,14.25,24.81,37.36.29,51.6l120.08,69.33-119.3,69.33c-24.65-14.23-64.54-14.23-89.06,0s-24.35,37.34.29,51.57l-119.33,69.34L84.54,911.79,411.93,721.53,532,790.88C556.56,776.63,596.42,776.61,621.1,790.86Z" transform="translate(0 -17.94)"/><path class="cls-21" d="M1041.32,882.22l.19-65.73c0,9.39,6.16,18.79,18.57,26l-.18,65.73C1047.49,901,1041.29,891.6,1041.32,882.22Z" transform="translate(0 -17.94)"/><polygon class="cls-21" points="1060.86 963.2 1060.68 1028.92 940.57 959.58 940.75 893.85 1060.86 963.2"/><path class="cls-21" d="M1168.52,1007.09l-.19,65.73c0-9.39-6.16-18.8-18.56-26-24.68-14.25-64.57-14.25-89.09,0l.18-65.72c24.52-14.25,64.42-14.25,89.1,0C1162.35,988.29,1168.55,997.7,1168.52,1007.09Z" transform="translate(0 -17.94)"/><polygon class="cls-21" points="1270.32 1084.13 1270.14 1149.86 1150.03 1080.51 1150.21 1014.78 1270.32 1084.13"/><polygon class="cls-21" points="1597.75 893.85 1597.56 959.58 1270.14 1149.86 1270.32 1084.13 1597.75 893.85"/><path class="cls-5" d="M1597.75,911.79l-327.43,190.28-120.11-69.35c24.52-14.25,24.39-37.36-.25-51.59s-64.58-14.24-89.1,0L940.75,911.79l119.33-69.35c-24.68-14.24-24.77-37.34-.26-51.58s64.35-14.25,89,0l119.33-69.35Z" transform="translate(0 -17.94)"/><path class="cls-22" d="M1069.2,1064.81l-.18,65.73c0,9.28-6.13,18.55-18.31,25.63l.19-65.73C1063.08,1083.36,1069.18,1074.09,1069.2,1064.81Z" transform="translate(0 -17.94)"/><path class="cls-22" d="M614.59,1130.19l.19-65.73c0,9.39,6.17,18.79,18.59,26l-.19,65.73C620.76,1149,614.56,1139.58,614.59,1130.19Z" transform="translate(0 -17.94)"/><path class="cls-23" d="M726.09,1373.05s3.22,1.11,10.8,4.28,23.91,4.25,34.08,2.63,24.21-3.9,21.51-7.62-54-16.54-56.13-15.53S726.09,1373.05,726.09,1373.05Z" transform="translate(0 -17.94)"/><polygon class="cls-22" points="843.61 1332.11 843.42 1397.84 513.85 1207.56 514.04 1141.83 843.61 1332.11"/><polygon class="cls-22" points="1171.01 1141.85 1170.82 1207.57 843.42 1397.84 843.61 1332.11 1171.01 1141.85"/><path class="cls-7" d="M1050.64,1038.85c24.64,14.23,24.77,37.34.26,51.59l120.1,69.34L843.61,1350.05,514,1159.77l119.33-69.35c-24.68-14.25-24.81-37.32-.29-51.57s64.38-14.26,89.06,0l119.3-69.33,120.11,69.34C986.06,1024.6,1026,1024.6,1050.64,1038.85Z" transform="translate(0 -17.94)"/><path class="cls-24" d="M844.31,1145.79l0,6.84c0,5.39-3.56,10.78-10.64,14.9-14.26,8.28-37.48,8.28-51.86,0-7.22-4.17-10.83-9.65-10.81-15.11l0-6.84c0,5.47,3.59,10.94,10.81,15.11,14.38,8.31,37.6,8.3,51.86,0C840.75,1156.57,844.3,1151.19,844.31,1145.79Z" transform="translate(0 -17.94)"/><path class="cls-25" d="M833.47,1130.65c14.38,8.3,14.46,21.75.2,30s-37.48,8.29-51.86,0-14.43-21.73-.17-30S819.12,1122.36,833.47,1130.65Z" transform="translate(0 -17.94)"/><path class="cls-25" d="M894.11,923.46c-2.17-1.25-5.16-1.08-8.45.83L702.8,1029.86c-6.59,3.8-11.9,13-11.88,20.57l.29,136.69c0,3.74,1.33,6.38,3.47,7.62l11.82,6.87c-2.13-1.24-3.46-3.88-3.47-7.62l-.28-136.69c0-7.57,5.29-16.77,11.87-20.57L897.48,931.16c3.3-1.91,6.29-2.08,8.45-.83Z" transform="translate(0 -17.94)"/><path class="cls-24" d="M897.48,931.16c6.56-3.79,11.91-.74,11.93,6.83l.29,136.68c0,7.54-5.29,16.74-11.85,20.53L715,1200.77c-6.59,3.8-11.93.76-12-6.78l-.28-136.69c0-7.57,5.29-16.77,11.87-20.57Z" transform="translate(0 -17.94)"/><line class="cls-1" x1="711.14" y1="1039.34" x2="711.14" y2="1039.31"/><polygon class="cls-5" points="898.08 948.14 898.03 921.87 892.95 924.8 881.88 931.18 734.68 1016.17 708.14 1031.49 708.14 1040.32 708.14 1040.34 708.27 1105.26 708.38 1159.43 824.9 1092.15 843.05 1081.68 898.29 1049.79 898.08 948.14"/><polygon class="cls-26" points="737.67 1015.17 711.36 1030.36 711.38 1038.66 901.04 929.16 901.02 920.86 737.67 1015.17"/><path class="cls-17" d="M733.49,1067.07a13.23,13.23,0,0,1-6,10.38c-3.31,1.91-6,.36-6-3.46a13.23,13.23,0,0,1,6-10.37C730.81,1061.71,733.49,1063.25,733.49,1067.07Z" transform="translate(0 -17.94)"/><path class="cls-20" d="M733.49,1088.15a13.24,13.24,0,0,1-6,10.38c-3.31,1.91-6,.36-6-3.46a13.24,13.24,0,0,1,6-10.38C730.81,1082.78,733.49,1084.33,733.49,1088.15Z" transform="translate(0 -17.94)"/><path class="cls-7" d="M733.49,1109a13.23,13.23,0,0,1-6,10.37c-3.31,1.91-6,.37-6-3.45a13.23,13.23,0,0,1,6-10.38C730.81,1103.63,733.49,1105.18,733.49,1109Z" transform="translate(0 -17.94)"/><path class="cls-27" d="M732.7,1178.48a9.52,9.52,0,0,1-4.3,7.45c-2.38,1.37-4.3.26-4.3-2.48a9.48,9.48,0,0,1,4.3-7.45C730.77,1174.63,732.7,1175.74,732.7,1178.48Z" transform="translate(0 -17.94)"/><polygon class="cls-28" points="975.77 1165.84 917.22 1132.04 995.17 1087.04 1053.72 1120.84 975.77 1165.84"/><polygon class="cls-29" points="975.77 1168.43 975.77 1165.84 1053.72 1120.84 1053.72 1123.42 975.77 1168.43"/><polygon class="cls-29" points="975.77 1165.84 975.77 1168.43 917.22 1134.62 917.22 1132.04 975.77 1165.84"/><polygon class="cls-30" points="766.92 1206.85 766.93 1211.88 824.11 1245.11 824.09 1240.08 766.92 1206.85"/><polygon class="cls-24" points="824.09 1240.08 824.11 1245.11 950.65 1172.05 950.63 1167.02 824.09 1240.08"/><polygon class="cls-25" points="766.92 1206.85 824.09 1240.08 950.63 1167.02 893.46 1133.79 766.92 1206.85"/><polygon class="cls-30" points="885.73 1142.15 885.74 1144.67 893.65 1149.27 893.64 1146.75 885.73 1142.15"/><polygon class="cls-24" points="893.64 1146.75 893.65 1149.27 901.45 1144.76 901.45 1142.24 893.64 1146.75"/><polygon class="cls-25" points="885.73 1142.15 893.64 1146.75 901.45 1142.24 893.54 1137.65 885.73 1142.15"/><polygon class="cls-30" points="875.72 1147.93 875.73 1150.45 883.64 1155.05 883.63 1152.53 875.72 1147.93"/><polygon class="cls-24" points="883.63 1152.53 883.64 1155.05 891.44 1150.54 891.43 1148.02 883.63 1152.53"/><polygon class="cls-25" points="875.72 1147.93 883.63 1152.53 891.43 1148.02 883.52 1143.43 875.72 1147.93"/><polygon class="cls-30" points="865.73 1153.7 865.74 1156.22 873.65 1160.81 873.64 1158.3 865.73 1153.7"/><polygon class="cls-24" points="873.64 1158.3 873.65 1160.81 881.45 1156.31 881.44 1153.79 873.64 1158.3"/><polygon class="cls-25" points="865.73 1153.7 873.64 1158.3 881.44 1153.79 873.53 1149.19 865.73 1153.7"/><polygon class="cls-30" points="855.74 1159.47 855.75 1161.99 863.65 1166.58 863.65 1164.07 855.74 1159.47"/><polygon class="cls-24" points="863.65 1164.07 863.65 1166.58 871.46 1162.08 871.45 1159.56 863.65 1164.07"/><polygon class="cls-25" points="855.74 1159.47 863.65 1164.07 871.45 1159.56 863.54 1154.96 855.74 1159.47"/><polygon class="cls-30" points="845.73 1165.25 845.73 1167.77 853.64 1172.36 853.64 1169.85 845.73 1165.25"/><polygon class="cls-24" points="853.64 1169.85 853.64 1172.36 861.45 1167.86 861.44 1165.34 853.64 1169.85"/><polygon class="cls-25" points="845.73 1165.25 853.64 1169.85 861.44 1165.34 853.53 1160.74 845.73 1165.25"/><polygon class="cls-30" points="835.73 1171.02 835.74 1173.54 843.65 1178.13 843.64 1175.62 835.73 1171.02"/><polygon class="cls-24" points="843.64 1175.62 843.65 1178.13 851.46 1173.63 851.45 1171.11 843.64 1175.62"/><polygon class="cls-25" points="835.73 1171.02 843.64 1175.62 851.45 1171.11 843.54 1166.51 835.73 1171.02"/><polygon class="cls-30" points="825.74 1176.79 825.75 1179.3 833.66 1183.9 833.65 1181.38 825.74 1176.79"/><polygon class="cls-24" points="833.65 1181.38 833.66 1183.9 841.46 1179.39 841.46 1176.88 833.65 1181.38"/><polygon class="cls-25" points="825.74 1176.79 833.65 1181.38 841.46 1176.88 833.55 1172.28 825.74 1176.79"/><polygon class="cls-30" points="815.73 1182.57 815.74 1185.08 823.65 1189.68 823.64 1187.16 815.73 1182.57"/><polygon class="cls-24" points="823.64 1187.16 823.65 1189.68 831.47 1185.16 831.46 1182.65 823.64 1187.16"/><polygon class="cls-25" points="815.73 1182.57 823.64 1187.16 831.46 1182.65 823.55 1178.05 815.73 1182.57"/><polygon class="cls-30" points="805.74 1188.34 805.75 1190.85 813.66 1195.45 813.65 1192.93 805.74 1188.34"/><polygon class="cls-24" points="813.65 1192.93 813.66 1195.45 821.46 1190.94 821.45 1188.43 813.65 1192.93"/><polygon class="cls-25" points="805.74 1188.34 813.65 1192.93 821.45 1188.43 813.54 1183.83 805.74 1188.34"/><polygon class="cls-30" points="795.75 1194.11 795.75 1196.62 803.66 1201.22 803.66 1198.7 795.75 1194.11"/><polygon class="cls-24" points="803.66 1198.7 803.66 1201.22 811.47 1196.71 811.46 1194.2 803.66 1198.7"/><polygon class="cls-25" points="795.75 1194.11 803.66 1198.7 811.46 1194.2 803.55 1189.6 795.75 1194.11"/><polygon class="cls-30" points="775.74 1205.65 775.75 1208.17 783.66 1212.77 783.65 1210.25 775.74 1205.65"/><polygon class="cls-24" points="783.65 1210.25 783.66 1212.77 801.48 1202.48 801.47 1199.96 783.65 1210.25"/><polygon class="cls-25" points="775.74 1205.65 783.65 1210.25 801.47 1199.96 793.56 1195.37 775.74 1205.65"/><polygon class="cls-30" points="885.8 1153.79 885.81 1156.31 893.72 1160.91 893.71 1158.39 885.8 1153.79"/><polygon class="cls-24" points="893.71 1158.39 893.72 1160.91 911.54 1150.62 911.53 1148.1 893.71 1158.39"/><polygon class="cls-25" points="885.8 1153.79 893.71 1158.39 911.53 1148.1 903.62 1143.51 885.8 1153.79"/><polygon class="cls-30" points="875.81 1159.56 875.82 1162.08 883.73 1166.67 883.72 1164.16 875.81 1159.56"/><polygon class="cls-24" points="883.72 1164.16 883.73 1166.67 891.53 1162.17 891.53 1159.65 883.72 1164.16"/><polygon class="cls-25" points="875.81 1159.56 883.72 1164.16 891.53 1159.65 883.62 1155.06 875.81 1159.56"/><polygon class="cls-30" points="865.82 1165.33 865.83 1167.85 873.74 1172.44 873.73 1169.93 865.82 1165.33"/><polygon class="cls-24" points="873.73 1169.93 873.74 1172.44 881.54 1167.94 881.53 1165.42 873.73 1169.93"/><polygon class="cls-25" points="865.82 1165.33 873.73 1169.93 881.53 1165.42 873.63 1160.83 865.82 1165.33"/><polygon class="cls-30" points="855.81 1171.11 855.82 1173.63 863.73 1178.22 863.72 1175.71 855.81 1171.11"/><polygon class="cls-24" points="863.72 1175.71 863.73 1178.22 871.53 1173.72 871.52 1171.2 863.72 1175.71"/><polygon class="cls-25" points="855.81 1171.11 863.72 1175.71 871.52 1171.2 863.61 1166.6 855.81 1171.11"/><polygon class="cls-30" points="845.82 1176.88 845.82 1179.39 853.73 1183.99 853.73 1181.47 845.82 1176.88"/><polygon class="cls-24" points="853.73 1181.47 853.73 1183.99 861.54 1179.49 861.53 1176.97 853.73 1181.47"/><polygon class="cls-25" points="845.82 1176.88 853.73 1181.47 861.53 1176.97 853.62 1172.37 845.82 1176.88"/><polygon class="cls-30" points="835.83 1182.65 835.83 1185.16 843.74 1189.76 843.74 1187.24 835.83 1182.65"/><polygon class="cls-24" points="843.74 1187.24 843.74 1189.76 851.55 1185.26 851.54 1182.74 843.74 1187.24"/><polygon class="cls-25" points="835.83 1182.65 843.74 1187.24 851.54 1182.74 843.63 1178.14 835.83 1182.65"/><polygon class="cls-30" points="825.81 1188.43 825.82 1190.94 833.73 1195.54 833.72 1193.03 825.81 1188.43"/><polygon class="cls-24" points="833.72 1193.03 833.73 1195.54 841.55 1191.02 841.55 1188.51 833.72 1193.03"/><polygon class="cls-25" points="825.81 1188.43 833.72 1193.03 841.55 1188.51 833.64 1183.91 825.81 1188.43"/><polygon class="cls-30" points="815.82 1194.2 815.83 1196.71 823.74 1201.31 823.73 1198.79 815.82 1194.2"/><polygon class="cls-24" points="823.73 1198.79 823.74 1201.31 831.54 1196.8 831.54 1194.29 823.73 1198.79"/><polygon class="cls-25" points="815.82 1194.2 823.73 1198.79 831.54 1194.29 823.63 1189.69 815.82 1194.2"/><polygon class="cls-30" points="805.83 1199.96 805.84 1202.48 813.75 1207.08 813.74 1204.56 805.83 1199.96"/><polygon class="cls-24" points="813.74 1204.56 813.75 1207.08 821.55 1202.57 821.54 1200.06 813.74 1204.56"/><polygon class="cls-25" points="805.83 1199.96 813.74 1204.56 821.54 1200.06 813.63 1195.46 805.83 1199.96"/><polygon class="cls-30" points="795.82 1205.75 795.83 1208.26 803.74 1212.86 803.73 1210.34 795.82 1205.75"/><polygon class="cls-24" points="803.73 1210.34 803.74 1212.86 811.56 1208.34 811.55 1205.83 803.73 1210.34"/><polygon class="cls-25" points="795.82 1205.75 803.73 1210.34 811.55 1205.83 803.64 1201.23 795.82 1205.75"/><polygon class="cls-30" points="785.83 1211.52 785.84 1214.03 793.74 1218.63 793.74 1216.11 785.83 1211.52"/><polygon class="cls-24" points="793.74 1216.11 793.74 1218.63 801.55 1214.12 801.54 1211.61 793.74 1216.11"/><polygon class="cls-25" points="785.83 1211.52 793.74 1216.11 801.54 1211.61 793.63 1207.01 785.83 1211.52"/><polygon class="cls-30" points="895.89 1159.65 895.89 1162.17 903.8 1166.77 903.8 1164.25 895.89 1159.65"/><polygon class="cls-24" points="903.8 1164.25 903.8 1166.77 921.62 1156.48 921.61 1153.96 903.8 1164.25"/><polygon class="cls-25" points="895.89 1159.65 903.8 1164.25 921.61 1153.96 913.7 1149.37 895.89 1159.65"/><polygon class="cls-30" points="885.9 1165.42 885.9 1167.94 893.81 1172.53 893.81 1170.02 885.9 1165.42"/><polygon class="cls-24" points="893.81 1170.02 893.81 1172.53 901.62 1168.03 901.61 1165.51 893.81 1170.02"/><polygon class="cls-25" points="885.9 1165.42 893.81 1170.02 901.61 1165.51 893.7 1160.91 885.9 1165.42"/><polygon class="cls-30" points="875.9 1171.19 875.91 1173.71 883.82 1178.3 883.82 1175.79 875.9 1171.19"/><polygon class="cls-24" points="883.82 1175.79 883.82 1178.3 891.63 1173.8 891.62 1171.28 883.82 1175.79"/><polygon class="cls-25" points="875.9 1171.19 883.82 1175.79 891.62 1171.28 883.71 1166.68 875.9 1171.19"/><polygon class="cls-30" points="865.89 1176.97 865.9 1179.49 873.81 1184.08 873.8 1181.57 865.89 1176.97"/><polygon class="cls-24" points="873.8 1181.57 873.81 1184.08 881.61 1179.58 881.61 1177.06 873.8 1181.57"/><polygon class="cls-25" points="865.89 1176.97 873.8 1181.57 881.61 1177.06 873.7 1172.46 865.89 1176.97"/><polygon class="cls-30" points="855.9 1182.74 855.91 1185.26 863.82 1189.85 863.81 1187.34 855.9 1182.74"/><polygon class="cls-24" points="863.81 1187.34 863.82 1189.85 871.62 1185.35 871.62 1182.83 863.81 1187.34"/><polygon class="cls-25" points="855.9 1182.74 863.81 1187.34 871.62 1182.83 863.71 1178.23 855.9 1182.74"/><polygon class="cls-30" points="845.91 1188.51 845.92 1191.02 853.83 1195.62 853.82 1193.11 845.91 1188.51"/><polygon class="cls-24" points="853.82 1193.11 853.83 1195.62 861.63 1191.12 861.62 1188.6 853.82 1193.11"/><polygon class="cls-25" points="845.91 1188.51 853.82 1193.11 861.62 1188.6 853.71 1184 845.91 1188.51"/><polygon class="cls-30" points="835.9 1194.29 835.9 1196.8 843.82 1201.4 843.81 1198.88 835.9 1194.29"/><polygon class="cls-24" points="843.81 1198.88 843.82 1201.4 851.64 1196.88 851.63 1194.37 843.81 1198.88"/><polygon class="cls-25" points="835.9 1194.29 843.81 1198.88 851.63 1194.37 843.72 1189.77 835.9 1194.29"/><polygon class="cls-30" points="825.91 1200.06 825.91 1202.57 833.82 1207.17 833.82 1204.65 825.91 1200.06"/><polygon class="cls-24" points="833.82 1204.65 833.82 1207.17 841.63 1202.66 841.62 1200.15 833.82 1204.65"/><polygon class="cls-25" points="825.91 1200.06 833.82 1204.65 841.62 1200.15 833.71 1195.55 825.91 1200.06"/><polygon class="cls-30" points="815.91 1205.83 815.92 1208.34 823.83 1212.94 823.82 1210.42 815.91 1205.83"/><polygon class="cls-24" points="823.82 1210.42 823.83 1212.94 831.63 1208.43 831.63 1205.92 823.82 1210.42"/><polygon class="cls-25" points="815.91 1205.83 823.82 1210.42 831.63 1205.92 823.72 1201.32 815.91 1205.83"/><polygon class="cls-30" points="795.91 1217.37 795.92 1219.89 803.83 1224.49 803.82 1221.97 795.91 1217.37"/><polygon class="cls-24" points="803.82 1221.97 803.83 1224.49 821.64 1214.2 821.64 1211.69 803.82 1221.97"/><polygon class="cls-25" points="795.91 1217.37 803.82 1221.97 821.64 1211.69 813.73 1207.09 795.91 1217.37"/><polygon class="cls-30" points="896 1171.29 896.01 1173.81 903.92 1178.41 903.91 1175.89 896 1171.29"/><polygon class="cls-24" points="903.91 1175.89 903.92 1178.41 931.72 1162.35 931.72 1159.83 903.91 1175.89"/><polygon class="cls-25" points="896 1171.29 903.91 1175.89 931.72 1159.83 923.81 1155.24 896 1171.29"/><polygon class="cls-30" points="886.01 1177.06 886.01 1179.58 893.92 1184.17 893.92 1181.66 886.01 1177.06"/><polygon class="cls-24" points="893.92 1181.66 893.92 1184.17 901.73 1179.67 901.72 1177.15 893.92 1181.66"/><polygon class="cls-25" points="886.01 1177.06 893.92 1181.66 901.72 1177.15 893.81 1172.56 886.01 1177.06"/><polygon class="cls-30" points="876 1182.84 876 1185.36 883.91 1189.95 883.91 1187.44 876 1182.84"/><polygon class="cls-24" points="883.91 1187.44 883.91 1189.95 891.72 1185.45 891.71 1182.93 883.91 1187.44"/><polygon class="cls-25" points="876 1182.84 883.91 1187.44 891.71 1182.93 883.8 1178.34 876 1182.84"/><polygon class="cls-30" points="866 1188.61 866.01 1191.13 873.92 1195.72 873.91 1193.21 866 1188.61"/><polygon class="cls-24" points="873.91 1193.21 873.92 1195.72 881.73 1191.22 881.72 1188.7 873.91 1193.21"/><polygon class="cls-25" points="866 1188.61 873.91 1193.21 881.72 1188.7 873.81 1184.1 866 1188.61"/><polygon class="cls-30" points="856.01 1194.38 856.02 1196.89 863.93 1201.49 863.92 1198.97 856.01 1194.38"/><polygon class="cls-24" points="863.92 1198.97 863.93 1201.49 871.73 1196.99 871.73 1194.47 863.92 1198.97"/><polygon class="cls-25" points="856.01 1194.38 863.92 1198.97 871.73 1194.47 863.82 1189.87 856.01 1194.38"/><polygon class="cls-30" points="846 1200.16 846.01 1202.67 853.92 1207.27 853.91 1204.76 846 1200.16"/><polygon class="cls-24" points="853.91 1204.76 853.92 1207.27 861.74 1202.76 861.74 1200.24 853.91 1204.76"/><polygon class="cls-25" points="846 1200.16 853.91 1204.76 861.74 1200.24 853.83 1195.64 846 1200.16"/><polygon class="cls-30" points="836.01 1205.93 836.02 1208.44 843.93 1213.04 843.92 1210.53 836.01 1205.93"/><polygon class="cls-24" points="843.92 1210.53 843.93 1213.04 851.73 1208.54 851.72 1206.02 843.92 1210.53"/><polygon class="cls-25" points="836.01 1205.93 843.92 1210.53 851.72 1206.02 843.81 1201.42 836.01 1205.93"/><polygon class="cls-30" points="826.02 1211.7 826.02 1214.21 833.93 1218.81 833.93 1216.29 826.02 1211.7"/><polygon class="cls-24" points="833.93 1216.29 833.93 1218.81 841.74 1214.3 841.73 1211.79 833.93 1216.29"/><polygon class="cls-25" points="826.02 1211.7 833.93 1216.29 841.73 1211.79 833.82 1207.19 826.02 1211.7"/><polygon class="cls-30" points="806.01 1223.24 806.02 1225.76 813.93 1230.36 813.92 1227.84 806.01 1223.24"/><polygon class="cls-24" points="813.92 1227.84 813.93 1230.36 831.75 1220.07 831.74 1217.56 813.92 1227.84"/><polygon class="cls-25" points="806.01 1223.24 813.92 1227.84 831.74 1217.56 823.83 1212.96 806.01 1223.24"/><polygon class="cls-30" points="926.09 1165.6 926.09 1168.12 934 1172.72 934 1170.2 926.09 1165.6"/><polygon class="cls-24" points="934 1170.2 934 1172.72 941.81 1168.21 941.8 1165.69 934 1170.2"/><polygon class="cls-25" points="926.09 1165.6 934 1170.2 941.8 1165.69 933.89 1161.1 926.09 1165.6"/><polygon class="cls-30" points="916.07 1171.38 916.08 1173.9 923.99 1178.5 923.98 1175.98 916.07 1171.38"/><polygon class="cls-24" points="923.98 1175.98 923.99 1178.5 931.8 1173.99 931.79 1171.47 923.98 1175.98"/><polygon class="cls-25" points="916.07 1171.38 923.98 1175.98 931.79 1171.47 923.88 1166.88 916.07 1171.38"/><polygon class="cls-30" points="906.08 1177.15 906.09 1179.67 914 1184.27 913.99 1181.75 906.08 1177.15"/><polygon class="cls-24" points="913.99 1181.75 914 1184.27 921.8 1179.76 921.8 1177.24 913.99 1181.75"/><polygon class="cls-25" points="906.08 1177.15 913.99 1181.75 921.8 1177.24 913.89 1172.65 906.08 1177.15"/><polygon class="cls-30" points="856.08 1206.02 856.09 1208.54 864 1213.13 863.99 1210.62 856.08 1206.02"/><polygon class="cls-24" points="863.99 1210.62 864 1213.13 911.81 1185.53 911.8 1183.01 863.99 1210.62"/><polygon class="cls-25" points="856.08 1206.02 863.99 1210.62 911.8 1183.01 903.89 1178.41 856.08 1206.02"/><polygon class="cls-30" points="846.09 1211.79 846.1 1214.3 854.01 1218.9 854 1216.38 846.09 1211.79"/><polygon class="cls-24" points="854 1216.38 854.01 1218.9 861.81 1214.39 861.81 1211.88 854 1216.38"/><polygon class="cls-25" points="846.09 1211.79 854 1216.38 861.81 1211.88 853.9 1207.28 846.09 1211.79"/><polygon class="cls-30" points="836.1 1217.56 836.11 1220.07 844.02 1224.67 844.01 1222.15 836.1 1217.56"/><polygon class="cls-24" points="844.01 1222.15 844.02 1224.67 851.82 1220.16 851.82 1217.65 844.01 1222.15"/><polygon class="cls-25" points="836.1 1217.56 844.01 1222.15 851.82 1217.65 843.9 1213.05 836.1 1217.56"/><polygon class="cls-30" points="816.1 1229.11 816.11 1231.62 824.01 1236.22 824.01 1233.7 816.1 1229.11"/><polygon class="cls-24" points="824.01 1233.7 824.01 1236.22 841.83 1225.93 841.82 1223.42 824.01 1233.7"/><polygon class="cls-25" points="816.1 1229.11 824.01 1233.7 841.82 1223.42 833.91 1218.82 816.1 1229.11"/><polygon class="cls-26" points="846.64 1003.43 846.75 1043.14 881.31 1023.19 881.2 983.48 846.64 1003.43"/><polygon class="cls-25" points="813.63 1037.42 813.64 1039 838.7 1024.53 838.7 1022.95 813.63 1037.42"/><polygon class="cls-25" points="813.62 1032.45 813.62 1034.03 838.69 1019.56 838.68 1017.98 813.62 1032.45"/><polygon class="cls-25" points="813.61 1027.48 813.61 1029.06 838.67 1014.59 838.67 1013 813.61 1027.48"/><polygon class="cls-25" points="813.59 1022.51 813.6 1024.08 838.66 1009.61 838.66 1008.04 813.59 1022.51"/><polygon class="cls-25" points="813.66 1047.36 813.67 1048.94 838.73 1034.47 838.73 1032.89 813.66 1047.36"/><polygon class="cls-25" points="813.65 1042.39 813.65 1043.97 838.72 1029.5 838.71 1027.92 813.65 1042.39"/><polygon class="cls-25" points="820.03 1048.66 820.03 1050.24 838.74 1039.44 838.74 1037.86 820.03 1048.66"/><path class="cls-31" d="M876.32,988.12a2.65,2.65,0,0,0-1.19,2.06c0,.76.54,1.06,1.2.68a2.62,2.62,0,0,0,1.2-2.06C877.53,988,877,987.73,876.32,988.12Z" transform="translate(0 -17.94)"/><path class="cls-25" d="M887.22,979.64c1.26-.73,2.29-.14,2.3,1.31l0,10.81c0-1.33-.95-1.87-2.1-1.2l-79.58,45.94a4.62,4.62,0,0,0-2.09,3.63l0-10.81a5.05,5.05,0,0,1,2.28-4Zm-6.06,8.44a2.65,2.65,0,0,0,1.2-2.07c0-.77-.54-1.06-1.21-.68a2.62,2.62,0,0,0-1.19,2.06c0,.76.54,1.07,1.2.69m-4.83,2.78a2.62,2.62,0,0,0,1.2-2.06c0-.77-.54-1.07-1.21-.68a2.65,2.65,0,0,0-1.19,2.06c0,.76.54,1.06,1.2.68m9.66-5.57a2.64,2.64,0,0,0,1.19-2.06c0-.77-.53-1.07-1.2-.69a2.62,2.62,0,0,0-1.19,2.07c0,.75.54,1.06,1.2.68" transform="translate(0 -17.94)"/><path class="cls-3" d="M887.45,990.56c1.15-.67,2.09-.13,2.1,1.2l.15,52a4.66,4.66,0,0,1-2.09,3.63L808,1093.32c-1.16.67-2.1.12-2.1-1.2l-.15-52a4.62,4.62,0,0,1,2.09-3.63Zm-40.7,70.52,34.56-19.95-.11-39.72-34.56,20,.11,39.71m-33.1.83,25.07-14.47v-1.59l-25.06,14.47v1.59m0-14.91,25.06-14.47v-1.59l-25.06,14.47V1047m0,5,25.07-14.47v-1.58l-25.06,14.47V1052m0-10,25.06-14.47V1026l-25.07,14.48V1042m.07,24.86,25.06-14.47v-1.58l-25.07,14.47v1.58m0-10,25.06-14.47v-1.57l-25.07,14.47v1.57m6.39,11.25,18.71-10.81v-1.57L820,1066.6v1.58" transform="translate(0 -17.94)"/><path class="cls-27" d="M886,982.54a2.62,2.62,0,0,0-1.19,2.07c0,.75.54,1.06,1.2.68a2.64,2.64,0,0,0,1.19-2.06C887.18,982.46,886.65,982.16,886,982.54Z" transform="translate(0 -17.94)"/><path class="cls-26" d="M881.15,985.33a2.62,2.62,0,0,0-1.19,2.06c0,.76.54,1.07,1.2.69a2.64,2.64,0,0,0,1.2-2.07C882.36,985.24,881.82,985,881.15,985.33Z" transform="translate(0 -17.94)"/><path class="cls-24" d="M1014.72,1149.61c.07.34-.21.62-.42.83s-16.16,9.2-16.16,9.2l-2.72-1.74c4.46-2.51,13.72-7.6,19.09-10.59A12.7,12.7,0,0,1,1014.72,1149.61Z" transform="translate(0 -17.94)"/><path class="cls-32" d="M1014.51,1147.31c-5.37,3-14.63,8.08-19.09,10.59l-33-21.05,8.57-4.8c5.44-3,11.29-7,17.49-7.74,4.6-.55,9.43,1.3,13.61,3.67C1005.69,1130,1013.33,1134.9,1014.51,1147.31Z" transform="translate(0 -17.94)"/><path class="cls-30" d="M997.09,1159.64a1.15,1.15,0,0,0,1.68-1.05c-.63-13.85-9.45-18.52-13.3-20.7s-15.42-6.83-23.84-.52a1.12,1.12,0,0,0,.1,1.85C974.47,1146.76,991.66,1156.55,997.09,1159.64Z" transform="translate(0 -17.94)"/><path class="cls-24" d="M537.21,912.54l-5.61,3.26a3.94,3.94,0,0,0,1.64-3.62l5.61-3.26A3.94,3.94,0,0,1,537.21,912.54Z" transform="translate(0 -17.94)"/><path class="cls-24" d="M372.06,687.19l5.61-3.26c1-.59,2.44-.5,4,.4l-5.61,3.26C374.5,686.69,373.08,686.6,372.06,687.19Z" transform="translate(0 -17.94)"/><polygon class="cls-24" points="533.56 767.07 539.17 763.81 538.85 890.98 533.24 894.24 533.56 767.07"/><polygon class="cls-24" points="376.07 669.66 381.68 666.4 533.54 754.07 527.93 757.33 376.07 669.66"/><path class="cls-24" d="M527.94,775.27l5.6-3.26a12.41,12.41,0,0,1,5.63,9.74L533.56,785A12.4,12.4,0,0,0,527.94,775.27Z" transform="translate(0 -17.94)"/><path class="cls-29" d="M527.94,775.27a12.4,12.4,0,0,1,5.62,9.74l-.32,127.17c0,3.59-2.56,5-5.66,3.23L375.72,827.73A12.38,12.38,0,0,1,370.1,818l.32-127.17c0-3.59,2.53-5,5.65-3.23Z" transform="translate(0 -17.94)"/><polygon class="cls-5" points="376.04 682.44 375.76 797 527.62 884.68 527.9 770.12 376.04 682.44"/><path class="cls-33" d="M529.92,918.68l0,6.49a3.93,3.93,0,0,1-2.3,3.24l0-6.49A3.93,3.93,0,0,0,529.92,918.68Z" transform="translate(0 -17.94)"/><path class="cls-33" d="M418.77,985l0,6.49a12.46,12.46,0,0,1-11.25,0l0-6.49A12.46,12.46,0,0,0,418.77,985Z" transform="translate(0 -17.94)"/><path class="cls-33" d="M253.3,900.55v-6.48a4,4,0,0,0,2.35,3.27l0,6.49C254.07,902.93,253.29,901.74,253.3,900.55Z" transform="translate(0 -17.94)"/><polygon class="cls-33" points="527.62 903.98 527.6 910.47 418.75 973.57 418.76 967.08 527.62 903.98"/><polygon class="cls-33" points="407.52 967.08 407.5 973.57 255.64 885.89 255.66 879.41 407.52 967.08"/><path class="cls-24" d="M527.58,915.41c3.1,1.78,3.12,4.72,0,6.51L418.77,985a12.46,12.46,0,0,1-11.25,0L255.66,897.34c-3.13-1.8-3.12-4.72,0-6.51l108.86-63.1a12.37,12.37,0,0,1,11.24,0Z" transform="translate(0 -17.94)"/><path class="cls-25" d="M404.38,931.84l-56-32.31a6.16,6.16,0,0,0-5.62,0l-28.91,16.64c-1.54.89-1.53,2.36,0,3.26l56,32.31a6.16,6.16,0,0,0,5.62,0L404.4,935.1c1.57-.91,1.56-2.35,0-3.26" transform="translate(0 -17.94)"/><polygon class="cls-29" points="377.39 819.7 377.39 821.32 367.16 827.26 367.17 825.64 377.39 819.7"/><polygon class="cls-29" points="367.17 825.64 367.16 827.26 357.1 821.45 357.11 819.83 367.17 825.64"/><polygon class="cls-28" points="377.39 819.7 367.17 825.64 357.11 819.83 367.33 813.89 377.39 819.7"/><polygon class="cls-29" points="390.3 827.15 390.29 828.77 380.07 834.72 380.08 833.09 390.3 827.15"/><polygon class="cls-29" points="380.08 833.09 380.07 834.72 369.99 828.89 369.99 827.27 380.08 833.09"/><polygon class="cls-28" points="390.3 827.15 380.08 833.09 369.99 827.27 380.21 821.33 390.3 827.15"/><polygon class="cls-29" points="403.18 834.59 403.18 836.21 392.95 842.15 392.96 840.53 403.18 834.59"/><polygon class="cls-29" points="392.96 840.53 392.95 842.15 382.89 836.34 382.9 834.72 392.96 840.53"/><polygon class="cls-28" points="403.18 834.59 392.96 840.53 382.9 834.72 393.12 828.78 403.18 834.59"/><polygon class="cls-29" points="416.06 842.03 416.06 843.65 405.83 849.59 405.84 847.97 416.06 842.03"/><polygon class="cls-29" points="405.84 847.97 405.83 849.59 395.77 843.78 395.78 842.16 405.84 847.97"/><polygon class="cls-28" points="416.06 842.03 405.84 847.97 395.78 842.16 406 836.22 416.06 842.03"/><polygon class="cls-29" points="428.94 849.46 428.94 851.09 418.72 857.03 418.72 855.4 428.94 849.46"/><polygon class="cls-29" points="418.72 855.4 418.72 857.03 408.65 851.22 408.66 849.6 418.72 855.4"/><polygon class="cls-28" points="428.94 849.46 418.72 855.4 408.66 849.6 418.88 843.65 428.94 849.46"/><polygon class="cls-29" points="441.85 856.92 441.85 858.54 431.62 864.48 431.63 862.86 441.85 856.92"/><polygon class="cls-29" points="431.63 862.86 431.62 864.48 421.56 858.67 421.57 857.05 431.63 862.86"/><polygon class="cls-28" points="441.85 856.92 431.63 862.86 421.57 857.05 431.79 851.11 441.85 856.92"/><polygon class="cls-29" points="454.73 864.35 454.73 865.98 444.5 871.92 444.51 870.29 454.73 864.35"/><polygon class="cls-29" points="444.51 870.29 444.5 871.92 434.44 866.11 434.45 864.48 444.51 870.29"/><polygon class="cls-28" points="454.73 864.35 444.51 870.29 434.45 864.48 444.67 858.54 454.73 864.35"/><polygon class="cls-29" points="467.62 871.79 467.61 873.41 457.39 879.35 457.39 877.73 467.62 871.79"/><polygon class="cls-29" points="457.39 877.73 457.39 879.35 447.32 873.54 447.33 871.92 457.39 877.73"/><polygon class="cls-28" points="467.62 871.79 457.39 877.73 447.33 871.92 457.55 865.98 467.62 871.79"/><polygon class="cls-29" points="480.52 879.24 480.52 880.86 470.29 886.8 470.3 885.18 480.52 879.24"/><polygon class="cls-29" points="470.3 885.18 470.29 886.8 460.21 880.98 460.21 879.36 470.3 885.18"/><polygon class="cls-28" points="480.52 879.24 470.3 885.18 460.21 879.36 470.44 873.42 480.52 879.24"/><polygon class="cls-29" points="493.4 886.68 493.4 888.3 483.18 894.24 483.18 892.62 493.4 886.68"/><polygon class="cls-29" points="483.18 892.62 483.18 894.24 473.11 888.43 473.12 886.81 483.18 892.62"/><polygon class="cls-28" points="493.4 886.68 483.18 892.62 473.12 886.81 483.34 880.87 493.4 886.68"/><polygon class="cls-29" points="519.19 901.57 519.19 903.19 508.96 909.13 508.97 907.51 519.19 901.57"/><polygon class="cls-29" points="508.97 907.51 508.96 909.13 486 895.87 486 894.25 508.97 907.51"/><polygon class="cls-28" points="519.19 901.57 508.97 907.51 486 894.25 496.22 888.31 519.19 901.57"/><polygon class="cls-29" points="377.27 834.72 377.27 836.34 367.07 842.27 367.08 840.65 377.27 834.72"/><polygon class="cls-29" points="367.08 840.65 367.07 842.27 344.1 829.01 344.11 827.39 367.08 840.65"/><polygon class="cls-28" points="377.27 834.72 367.08 840.65 344.11 827.39 354.31 821.46 377.27 834.72"/><polygon class="cls-29" points="390.15 842.16 390.15 843.78 379.95 849.71 379.96 848.09 390.15 842.16"/><polygon class="cls-29" points="379.96 848.09 379.95 849.71 369.89 843.9 369.9 842.28 379.96 848.09"/><polygon class="cls-28" points="390.15 842.16 379.96 848.09 369.9 842.28 380.1 836.35 390.15 842.16"/><polygon class="cls-29" points="403.04 849.6 403.03 851.22 392.83 857.14 392.84 855.52 403.04 849.6"/><polygon class="cls-29" points="392.84 855.52 392.83 857.14 382.77 851.34 382.78 849.71 392.84 855.52"/><polygon class="cls-28" points="403.04 849.6 392.84 855.52 382.78 849.71 392.98 843.79 403.04 849.6"/><polygon class="cls-29" points="415.92 857.03 415.92 858.65 405.72 864.58 405.72 862.96 415.92 857.03"/><polygon class="cls-29" points="405.72 862.96 405.72 864.58 395.65 858.77 395.66 857.15 405.72 862.96"/><polygon class="cls-28" points="415.92 857.03 405.72 862.96 395.66 857.15 405.86 851.22 415.92 857.03"/><polygon class="cls-29" points="428.83 864.49 428.82 866.11 418.62 872.03 418.63 870.41 428.83 864.49"/><polygon class="cls-29" points="418.63 870.41 418.62 872.03 408.56 866.22 408.57 864.6 418.63 870.41"/><polygon class="cls-28" points="428.83 864.49 418.63 870.41 408.57 864.6 418.76 858.68 428.83 864.49"/><polygon class="cls-29" points="441.71 871.92 441.7 873.54 431.5 879.47 431.51 877.85 441.71 871.92"/><polygon class="cls-29" points="431.51 877.85 431.5 879.47 421.44 873.66 421.45 872.04 431.51 877.85"/><polygon class="cls-28" points="441.71 871.92 431.51 877.85 421.45 872.04 431.65 866.11 441.71 871.92"/><polygon class="cls-29" points="454.59 879.36 454.58 880.98 444.39 886.91 444.39 885.29 454.59 879.36"/><polygon class="cls-29" points="444.39 885.29 444.39 886.91 434.33 881.1 434.33 879.48 444.39 885.29"/><polygon class="cls-28" points="454.59 879.36 444.39 885.29 434.33 879.48 444.53 873.55 454.59 879.36"/><polygon class="cls-29" points="467.5 886.81 467.49 888.43 457.29 894.36 457.3 892.74 467.5 886.81"/><polygon class="cls-29" points="457.3 892.74 457.29 894.36 447.21 888.53 447.21 886.91 457.3 892.74"/><polygon class="cls-28" points="467.5 886.81 457.3 892.74 447.21 886.91 457.41 880.99 467.5 886.81"/><polygon class="cls-29" points="480.38 894.25 480.37 895.87 470.18 901.8 470.18 900.17 480.38 894.25"/><polygon class="cls-29" points="470.18 900.17 470.18 901.8 460.11 895.99 460.12 894.37 470.18 900.17"/><polygon class="cls-28" points="480.38 894.25 470.18 900.17 460.12 894.37 470.32 888.44 480.38 894.25"/><polygon class="cls-29" points="493.26 901.69 493.25 903.31 483.06 909.23 483.06 907.61 493.26 901.69"/><polygon class="cls-29" points="483.06 907.61 483.06 909.23 473 903.42 473 901.8 483.06 907.61"/><polygon class="cls-28" points="493.26 901.69 483.06 907.61 473 901.8 483.2 895.88 493.26 901.69"/><polygon class="cls-29" points="506.17 909.14 506.16 910.76 495.96 916.69 495.97 915.06 506.17 909.14"/><polygon class="cls-29" points="495.97 915.06 495.96 916.69 485.88 910.86 485.88 909.24 495.97 915.06"/><polygon class="cls-28" points="506.17 909.14 495.97 915.06 485.88 909.24 496.08 903.31 506.17 909.14"/><polygon class="cls-29" points="364.27 842.28 364.27 843.9 354.07 849.83 354.08 848.2 364.27 842.28"/><polygon class="cls-29" points="354.08 848.2 354.07 849.83 331.1 836.56 331.11 834.94 354.08 848.2"/><polygon class="cls-28" points="364.27 842.28 354.08 848.2 331.11 834.94 341.31 829.02 364.27 842.28"/><polygon class="cls-29" points="377.16 849.71 377.15 851.34 366.95 857.26 366.96 855.64 377.16 849.71"/><polygon class="cls-29" points="366.96 855.64 366.95 857.26 356.89 851.45 356.9 849.83 366.96 855.64"/><polygon class="cls-28" points="377.16 849.71 366.96 855.64 356.9 849.83 367.09 843.9 377.16 849.71"/><polygon class="cls-29" points="390.04 857.15 390.03 858.77 379.83 864.7 379.84 863.08 390.04 857.15"/><polygon class="cls-29" points="379.84 863.08 379.83 864.7 369.77 858.89 369.78 857.27 379.84 863.08"/><polygon class="cls-28" points="390.04 857.15 379.84 863.08 369.78 857.27 379.98 851.34 390.04 857.15"/><polygon class="cls-29" points="402.92 864.59 402.92 866.21 392.72 872.14 392.72 870.51 402.92 864.59"/><polygon class="cls-29" points="392.72 870.51 392.72 872.14 382.65 866.33 382.66 864.71 392.72 870.51"/><polygon class="cls-28" points="402.92 864.59 392.72 870.51 382.66 864.71 392.86 858.78 402.92 864.59"/><polygon class="cls-29" points="415.83 872.04 415.82 873.66 405.62 879.59 405.63 877.97 415.83 872.04"/><polygon class="cls-29" points="405.63 877.97 405.62 879.59 395.56 873.78 395.57 872.16 405.63 877.97"/><polygon class="cls-28" points="415.83 872.04 405.63 877.97 395.57 872.16 405.76 866.23 415.83 872.04"/><polygon class="cls-29" points="428.71 879.48 428.7 881.1 418.5 887.02 418.51 885.4 428.71 879.48"/><polygon class="cls-29" points="418.51 885.4 418.5 887.02 408.44 881.22 408.45 879.59 418.51 885.4"/><polygon class="cls-28" points="428.71 879.48 418.51 885.4 408.45 879.59 418.65 873.67 428.71 879.48"/><polygon class="cls-29" points="441.59 886.91 441.58 888.53 431.39 894.46 431.39 892.84 441.59 886.91"/><polygon class="cls-29" points="431.39 892.84 431.39 894.46 421.33 888.65 421.33 887.03 431.39 892.84"/><polygon class="cls-28" points="441.59 886.91 431.39 892.84 421.33 887.03 431.53 881.11 441.59 886.91"/><polygon class="cls-29" points="454.5 894.37 454.49 895.99 444.29 901.91 444.3 900.29 454.5 894.37"/><polygon class="cls-29" points="444.3 900.29 444.29 901.91 434.21 896.09 434.21 894.47 444.3 900.29"/><polygon class="cls-28" points="454.5 894.37 444.3 900.29 434.21 894.47 444.41 888.54 454.5 894.37"/><polygon class="cls-29" points="467.38 901.8 467.37 903.42 457.18 909.35 457.18 907.73 467.38 901.8"/><polygon class="cls-29" points="457.18 907.73 457.18 909.35 447.11 903.54 447.12 901.92 457.18 907.73"/><polygon class="cls-28" points="467.38 901.8 457.18 907.73 447.12 901.92 457.32 895.99 467.38 901.8"/><polygon class="cls-29" points="493.17 916.69 493.16 918.31 482.96 924.24 482.97 922.62 493.17 916.69"/><polygon class="cls-29" points="482.97 922.62 482.96 924.24 460 910.98 460 909.36 482.97 922.62"/><polygon class="cls-28" points="493.17 916.69 482.97 922.62 460 909.36 470.2 903.43 493.17 916.69"/><polygon class="cls-29" points="364.16 857.27 364.15 858.89 353.95 864.82 353.96 863.19 364.16 857.27"/><polygon class="cls-29" points="353.96 863.19 353.95 864.82 318.1 844.12 318.11 842.5 353.96 863.19"/><polygon class="cls-28" points="364.16 857.27 353.96 863.19 318.11 842.5 328.31 836.57 364.16 857.27"/><polygon class="cls-29" points="377.04 864.71 377.03 866.33 366.83 872.25 366.84 870.63 377.04 864.71"/><polygon class="cls-29" points="366.84 870.63 366.83 872.25 356.77 866.45 356.78 864.82 366.84 870.63"/><polygon class="cls-28" points="377.04 864.71 366.84 870.63 356.78 864.82 366.98 858.9 377.04 864.71"/><polygon class="cls-29" points="389.92 872.14 389.92 873.76 379.72 879.69 379.72 878.07 389.92 872.14"/><polygon class="cls-29" points="379.72 878.07 379.72 879.69 369.65 873.88 369.66 872.26 379.72 878.07"/><polygon class="cls-28" points="389.92 872.14 379.72 878.07 369.66 872.26 379.86 866.33 389.92 872.14"/><polygon class="cls-29" points="402.83 879.59 402.82 881.22 392.62 887.14 392.63 885.52 402.83 879.59"/><polygon class="cls-29" points="392.63 885.52 392.62 887.14 382.56 881.33 382.57 879.71 392.63 885.52"/><polygon class="cls-28" points="402.83 879.59 392.63 885.52 382.57 879.71 392.76 873.78 402.83 879.59"/><polygon class="cls-29" points="415.71 887.03 415.7 888.65 405.51 894.58 405.51 892.96 415.71 887.03"/><polygon class="cls-29" points="405.51 892.96 405.51 894.58 395.44 888.77 395.45 887.15 405.51 892.96"/><polygon class="cls-28" points="415.71 887.03 405.51 892.96 395.45 887.15 405.65 881.22 415.71 887.03"/><polygon class="cls-29" points="428.59 894.47 428.58 896.09 418.39 902.02 418.39 900.39 428.59 894.47"/><polygon class="cls-29" points="418.39 900.39 418.39 902.02 408.33 896.21 408.33 894.59 418.39 900.39"/><polygon class="cls-28" points="428.59 894.47 418.39 900.39 408.33 894.59 418.53 888.66 428.59 894.47"/><polygon class="cls-29" points="441.5 901.92 441.49 903.54 431.29 909.47 431.3 907.85 441.5 901.92"/><polygon class="cls-29" points="431.3 907.85 431.29 909.47 421.21 903.65 421.21 902.02 431.3 907.85"/><polygon class="cls-28" points="441.5 901.92 431.3 907.85 421.21 902.02 431.41 896.1 441.5 901.92"/><polygon class="cls-29" points="454.38 909.36 454.37 910.98 444.18 916.91 444.18 915.28 454.38 909.36"/><polygon class="cls-29" points="444.18 915.28 444.18 916.91 434.11 911.1 434.12 909.48 444.18 915.28"/><polygon class="cls-28" points="454.38 909.36 444.18 915.28 434.12 909.48 444.32 903.55 454.38 909.36"/><polygon class="cls-29" points="480.17 924.25 480.16 925.87 469.96 931.79 469.97 930.17 480.17 924.25"/><polygon class="cls-29" points="469.97 930.17 469.96 931.79 447 918.53 447 916.91 469.97 930.17"/><polygon class="cls-28" points="480.17 924.25 469.97 930.17 447 916.91 457.2 910.99 480.17 924.25"/><polygon class="cls-29" points="325.37 849.93 325.36 851.55 315.14 857.5 315.14 855.87 325.37 849.93"/><polygon class="cls-29" points="315.14 855.87 315.14 857.5 305.08 851.69 305.08 850.07 315.14 855.87"/><polygon class="cls-28" points="325.37 849.93 315.14 855.87 305.08 850.07 315.31 844.13 325.37 849.93"/><polygon class="cls-29" points="338.27 857.39 338.27 859.01 328.05 864.95 328.05 863.33 338.27 857.39"/><polygon class="cls-29" points="328.05 863.33 328.05 864.95 317.96 859.13 317.96 857.5 328.05 863.33"/><polygon class="cls-28" points="338.27 857.39 328.05 863.33 317.96 857.5 328.19 851.56 338.27 857.39"/><polygon class="cls-29" points="351.16 864.82 351.15 866.45 340.93 872.39 340.93 870.76 351.16 864.82"/><polygon class="cls-29" points="340.93 870.76 340.93 872.39 330.87 866.58 330.87 864.95 340.93 870.76"/><polygon class="cls-28" points="351.16 864.82 340.93 870.76 330.87 864.95 341.1 859.01 351.16 864.82"/><polygon class="cls-29" points="415.59 902.02 415.58 903.65 405.36 909.59 405.37 907.96 415.59 902.02"/><polygon class="cls-29" points="405.37 907.96 405.36 909.59 343.75 874.01 343.75 872.39 405.37 907.96"/><polygon class="cls-28" points="415.59 902.02 405.37 907.96 343.75 872.39 353.98 866.45 415.59 902.02"/><polygon class="cls-29" points="428.5 909.48 428.49 911.1 418.27 917.04 418.27 915.42 428.5 909.48"/><polygon class="cls-29" points="418.27 915.42 418.27 917.04 408.18 911.22 408.19 909.59 418.27 915.42"/><polygon class="cls-28" points="428.5 909.48 418.27 915.42 408.19 909.59 418.41 903.65 428.5 909.48"/><polygon class="cls-29" points="441.38 916.91 441.37 918.53 431.15 924.48 431.15 922.85 441.38 916.91"/><polygon class="cls-29" points="431.15 922.85 431.15 924.48 421.09 918.67 421.09 917.04 431.15 922.85"/><polygon class="cls-28" points="441.38 916.91 431.15 922.85 421.09 917.04 431.32 911.1 441.38 916.91"/><polygon class="cls-29" points="467.17 931.8 467.16 933.42 456.94 939.37 456.94 937.74 467.17 931.8"/><polygon class="cls-29" points="456.94 937.74 456.94 939.37 433.97 926.1 433.98 924.48 456.94 937.74"/><polygon class="cls-28" points="467.17 931.8 456.94 937.74 433.98 924.48 444.2 918.54 467.17 931.8"/><polygon class="cls-3" points="393.59 791.95 511.12 859.8 511.12 775.17 511.12 775.17 393.59 707.32 393.59 791.95"/><polygon class="cls-34" points="503.22 783.23 461.2 758.97 461.2 817.95 503.22 842.21 503.22 783.23"/><polygon class="cls-28" points="405.27 730.14 452.36 757.33 452.36 753.87 405.27 726.68 405.27 730.14"/><polygon class="cls-28" points="405.27 738.13 452.36 765.32 452.36 761.85 405.27 734.67 405.27 738.13"/><polygon class="cls-28" points="405.27 746.12 452.36 773.3 452.36 769.84 405.27 742.66 405.27 746.12"/><polygon class="cls-28" points="405.27 754.11 452.36 781.29 452.36 777.83 405.27 750.65 405.27 754.11"/><polygon class="cls-28" points="405.27 762.1 452.36 789.28 452.36 785.82 405.27 758.64 405.27 762.1"/><polygon class="cls-28" points="405.27 770.09 452.36 797.27 452.36 793.81 405.27 766.63 405.27 770.09"/><polygon class="cls-28" points="405.27 786.07 438.06 805 438.06 801.54 405.27 782.61 405.27 786.07"/><polygon class="cls-28" points="405.27 778.08 452.36 805.26 452.36 801.8 405.27 774.62 405.27 778.08"/><polygon class="cls-7" points="478.67 774.36 466.26 792.01 491.09 806.35 478.67 774.36"/><polygon class="cls-14" points="488.61 785.28 476.2 802.94 501.02 817.27 488.61 785.28"/><path class="cls-20" d="M498.12,839.72c-.18,6.17-4.59,8.55-9.84,5.3s-9.36-10.87-9.18-17,4.59-8.54,9.84-5.3S498.3,833.55,498.12,839.72Z" transform="translate(0 -17.94)"/><polygon class="cls-13" points="931.88 587.17 944.57 601.73 950.83 590.89 931.88 587.17"/><polygon class="cls-26" points="931.88 587.17 935.36 591.17 937.08 588.19 931.88 587.17"/><path class="cls-26" d="M950.83,608.83a3.15,3.15,0,0,0-3.17.3,9.77,9.77,0,0,0-4.42,7.67,3.13,3.13,0,0,0,1.3,2.85l92.74,53.89a3.09,3.09,0,0,1-1.29-2.84,9.74,9.74,0,0,1,4.42-7.67,3.14,3.14,0,0,1,3.16-.31Z" transform="translate(0 -17.94)"/><path class="cls-35" d="M1040.41,663c2.45-1.41,4.45-.28,4.46,2.54a9.76,9.76,0,0,1-4.43,7.66c-2.45,1.42-4.44.28-4.45-2.53A9.74,9.74,0,0,1,1040.41,663Z" transform="translate(0 -17.94)"/><polygon class="cls-13" points="976.07 594.78 988.76 609.34 995.02 598.5 976.07 594.78"/><polygon class="cls-27" points="976.07 594.78 979.55 598.78 981.27 595.8 976.07 594.78"/><path class="cls-27" d="M995,616.44a3.13,3.13,0,0,0-3.16.3,9.74,9.74,0,0,0-4.42,7.67,3.1,3.1,0,0,0,1.29,2.85l59.85,34.82a3.1,3.1,0,0,1-1.3-2.84,9.77,9.77,0,0,1,4.42-7.67,3.16,3.16,0,0,1,3.17-.31Z" transform="translate(0 -17.94)"/><path class="cls-36" d="M1051.7,651.57c2.45-1.41,4.45-.28,4.46,2.54a9.74,9.74,0,0,1-4.43,7.66c-2.45,1.42-4.44.28-4.45-2.53A9.77,9.77,0,0,1,1051.7,651.57Z" transform="translate(0 -17.94)"/><path class="cls-35" d="M916.77,633.11a1.62,1.62,0,0,1-.95-1.32l0,11.63a1.6,1.6,0,0,0,.94,1.32l13.07,7.54,0-11.63Z" transform="translate(0 -17.94)"/><polygon class="cls-37" points="947.25 612.59 947.22 624.22 929.8 634.35 929.83 622.71 947.25 612.59"/><path class="cls-26" d="M947.25,630.53l-17.42,10.12-13.06-7.54c-1.25-.72-1.27-1.89,0-2.6l13-7.53a4.94,4.94,0,0,1,4.49,0Z" transform="translate(0 -17.94)"/><polygon class="cls-32" points="956.36 617.85 956.33 629.48 938.91 639.61 938.95 627.97 956.36 617.85"/><polygon class="cls-38" points="938.95 627.97 938.91 639.61 929.8 634.35 929.83 622.71 938.95 627.97"/><polygon class="cls-13" points="956.36 617.85 938.95 627.97 929.83 622.71 947.25 612.59 956.36 617.85"/><path class="cls-36" d="M969.46,645.93l-13,7.53a5,5,0,0,1-4.49,0l-13.07-7.55,0,11.63L952,665.09a4.94,4.94,0,0,0,4.49,0l12.95-7.52a1.58,1.58,0,0,0,.92-1.29l0-11.63A1.55,1.55,0,0,1,969.46,645.93Z" transform="translate(0 -17.94)"/><path class="cls-27" d="M969.43,643.33c1.25.72,1.26,1.88,0,2.6l-13,7.53a5,5,0,0,1-4.49,0l-13.07-7.55,17.42-10.12Z" transform="translate(0 -17.94)"/><path class="cls-13" d="M794.16,534.45l-186,107.39c-4.3,2.48-3.76,6.82,1.21,9.69l107.72,62.19c5,2.87,12.48,3.18,16.78.69L919.86,607c4.3-2.49,3.76-6.82-1.2-9.69L810.94,535.15C806,532.28,798.46,532,794.16,534.45Z" transform="translate(0 -17.94)"/><polygon class="cls-39" points="810.49 551.28 822.71 544.23 893.91 585.34 881.7 592.39 810.49 551.28"/><polygon class="cls-39" points="784.33 566.39 796.54 559.33 867.75 600.44 855.53 607.5 784.33 566.39"/><polygon class="cls-39" points="758.16 581.49 770.38 574.44 841.58 615.55 829.37 622.6 758.16 581.49"/><polygon class="cls-39" points="732 596.6 744.21 589.55 815.41 630.66 803.2 637.71 732 596.6"/><polygon class="cls-39" points="705.83 611.71 718.05 604.65 789.25 645.76 777.03 652.82 705.83 611.71"/><polygon class="cls-40" points="810.49 551.28 822.71 544.23 840.49 554.49 828.28 561.55 810.49 551.28"/><polygon class="cls-31" points="784.33 566.39 796.54 559.33 838.04 583.29 825.83 590.34 784.33 566.39"/><polygon class="cls-26" points="758.16 581.49 770.38 574.44 800.65 591.92 788.44 598.97 758.16 581.49"/><polygon class="cls-28" points="732 596.6 744.21 589.55 795.58 619.21 783.37 626.26 732 596.6"/><polygon class="cls-27" points="705.83 611.71 718.05 604.65 778.6 639.62 766.39 646.67 705.83 611.71"/><polygon class="cls-39" points="760.06 656.68 720.48 679.53 725.62 682.5 765.2 659.65 760.06 656.68"/><polygon class="cls-39" points="748.19 649.83 708.61 672.68 713.75 675.65 753.33 652.8 748.19 649.83"/><polygon class="cls-39" points="736.32 642.98 696.74 665.83 701.88 668.8 741.46 645.95 736.32 642.98"/><polygon class="cls-39" points="724.45 636.13 684.87 658.98 690.02 661.95 729.6 639.1 724.45 636.13"/><polygon class="cls-39" points="712.59 629.27 673.01 652.13 678.15 655.1 717.73 632.24 712.59 629.27"/><polygon class="cls-39" points="700.72 622.42 661.14 645.28 666.28 648.24 705.86 625.39 700.72 622.42"/><polygon class="cls-39" points="676.99 608.72 649.42 624.63 654.57 627.6 682.13 611.69 676.99 608.72"/><polygon class="cls-39" points="688.85 615.57 649.27 638.42 654.41 641.39 693.99 618.54 688.85 615.57"/><polygon class="cls-39" points="810.26 537.04 693.38 604.52 698.52 607.49 815.4 540.01 810.26 537.04"/><polygon class="cls-7" points="804.39 682.87 887.62 634.81 934.99 662.16 851.75 710.21 804.39 682.87"/><polygon class="cls-7" points="851.75 710.21 860.97 667.48 934.99 662.16 851.75 710.21"/><polygon class="cls-22" points="887.62 634.81 878.2 677.43 804.39 682.87 887.62 634.81"/><polygon class="cls-13" points="1264.63 746.38 1408.43 829.4 1226.88 934.22 1083.09 851.2 1264.63 746.38"/><path class="cls-20" d="M1225.71,869.81l-19.85-31.61a72.22,72.22,0,0,0-21.42,7.79Z" transform="translate(0 -17.94)"/><path class="cls-17" d="M1225.71,869.81,1267,846c-16.41-9.48-40.48-12-61.12-7.79Z" transform="translate(0 -17.94)"/><path class="cls-41" d="M1184.44,893.64l41.27-23.83-57.89-4.28C1165.53,875.88,1171.67,886.27,1184.44,893.64Z" transform="translate(0 -17.94)"/><path class="cls-5" d="M1245.57,901.42a71.87,71.87,0,0,0,21.41-7.78c22.64-13.07,22.64-34.58,0-47.65l-41.27,23.82Z" transform="translate(0 -17.94)"/><path class="cls-7" d="M1245.57,901.42l-19.86-31.61-41.27,23.83C1200.86,903.12,1224.93,905.69,1245.57,901.42Z" transform="translate(0 -17.94)"/><path class="cls-38" d="M1343,866.25a1.66,1.66,0,0,1-.83-.22l-108.23-62.49a1.63,1.63,0,0,1-.6-2.24,1.65,1.65,0,0,1,2.24-.61l108.24,62.5a1.64,1.64,0,0,1-.82,3.06Z" transform="translate(0 -17.94)"/><path class="cls-38" d="M1355.68,858.91a1.63,1.63,0,0,1-.82-.22L1246.62,796.2a1.65,1.65,0,0,1,1.65-2.85l108.23,62.49a1.65,1.65,0,0,1-.82,3.07Z" transform="translate(0 -17.94)"/><path class="cls-38" d="M1368.4,851.57a1.63,1.63,0,0,1-.82-.22l-108.24-62.49A1.64,1.64,0,0,1,1261,786l108.24,62.49a1.65,1.65,0,0,1-.82,3.07Z" transform="translate(0 -17.94)"/><path class="cls-22" d="M1379.35,959l-.06,20.14c0,2.68-1.77,5.36-5.3,7.41l.06-20.14C1377.57,964.38,1379.34,961.7,1379.35,959Z" transform="translate(0 -17.94)"/><path class="cls-22" d="M1176.22,979.07l.06-20.14c0,2.71,1.78,5.42,5.38,7.5l-.06,20.14C1178,984.49,1176.21,981.78,1176.22,979.07Z" transform="translate(0 -17.94)"/><polygon class="cls-22" points="1374.05 948.49 1373.99 968.63 1290.92 1016.9 1290.98 996.76 1374.05 948.49"/><polygon class="cls-22" points="1265.31 996.78 1265.25 1016.93 1181.6 968.63 1181.66 948.49 1265.31 996.78"/><path class="cls-22" d="M1291,1014.71l-.07,20.14a28.3,28.3,0,0,1-25.64,0v-20.14a28.45,28.45,0,0,0,25.71,0Z" transform="translate(0 -17.94)"/><path class="cls-7" d="M1374,951.56c7.1,4.1,7.14,10.74,0,14.87L1291,1014.7c-7.1,4.12-18.57,4.12-25.67,0l-83.65-48.29c-7.14-4.12-7.18-10.77-.09-14.9l83.07-48.27c7.09-4.12,18.57-4.12,25.71,0Z" transform="translate(0 -17.94)"/><path class="cls-19" d="M1546.67,901.76l-.05,20.14c0,2.68-1.78,5.35-5.3,7.4l0-20.14C1544.9,907.11,1546.67,904.43,1546.67,901.76Z" transform="translate(0 -17.94)"/><path class="cls-19" d="M1343.55,921.81l.06-20.15c0,2.71,1.78,5.43,5.37,7.5l0,20.14C1345.33,927.23,1343.54,924.51,1343.55,921.81Z" transform="translate(0 -17.94)"/><polygon class="cls-19" points="1541.37 891.22 1541.32 911.36 1458.25 959.64 1458.31 939.5 1541.37 891.22"/><polygon class="cls-19" points="1432.63 939.52 1432.58 959.66 1348.93 911.37 1348.98 891.22 1432.63 939.52"/><path class="cls-19" d="M1458.28,957.44v20.14a28.55,28.55,0,0,1-25.72,0l.07-20.14a26.67,26.67,0,0,0,12.82,3.07A26.29,26.29,0,0,0,1458.28,957.44Z" transform="translate(0 -17.94)"/><path class="cls-20" d="M1541.33,894.29c7.1,4.1,7.14,10.75,0,14.87l-83.06,48.27c-7.1,4.13-18.58,4.13-25.68,0L1349,909.16c-7.13-4.12-7.17-10.77-.08-14.89L1432,846c7.09-4.12,18.57-4.12,25.71,0Z" transform="translate(0 -17.94)"/><path class="cls-19" d="M1445.45,960.51v20.13a26,26,0,0,1-12.89-3.06l.07-20.14A26.67,26.67,0,0,0,1445.45,960.51Z" transform="translate(0 -17.94)"/><path class="cls-22" d="M1291,1014.71l-.07,20.14a25.84,25.84,0,0,1-12.82,3.07v-20.14A26.69,26.69,0,0,0,1291,1014.71Z" transform="translate(0 -17.94)"/><path class="cls-42" d="M1474.56,868c-16,7.14-30.84,60.7-22,79.57s22.79,20.29,40.43,15.57,37.6-27.81,44.11-49.28C1545.92,884.64,1520.28,847.69,1474.56,868Z" transform="translate(0 -17.94)"/><path class="cls-43" d="M1455.73,1514.13v4.23c-8.44,5-27.37,2.33-32.32,0-3.26-4.93-12.09-3.62-17-1.67-18.93,1.67-25.85-1.13-32.18-5.76-3.2-2.34-8.94-8.45-8.25-14.92C1388.46,1501.18,1455.73,1514.13,1455.73,1514.13Z" transform="translate(0 -17.94)"/><path class="cls-43" d="M1423.41,1481.37s-20.68,5.83-32.91,7.58-21-.3-23.88,4.07,3.5,15.73,14.27,19.51,32.91-.58,41.06,1.17,28.83,5.52,33.78.43,0-29.84,0-29.84Z" transform="translate(0 -17.94)"/><path class="cls-43" d="M1538,1454.13l-37-41.42c-14.75-4.22-30.27-5.1-28.29,8.52,1.75,12.09,21,17.37,34.21,29.11l12.19,10.83c8.77,7.79,20,1,18.88-7" transform="translate(0 -17.94)"/><path class="cls-42" d="M1503,935.27a35.79,35.79,0,0,1-4.57,4.17,83.21,83.21,0,0,1-30.54,14.92c-1.87.5-3.9.94-6,1.3l.94,10.7c12.48,3.43,24.61-1.84,33.24-4.24,6.42-1.78,16.39-3.42,16.39-10.18l-9.44-16.69Z" transform="translate(0 -17.94)"/><path class="cls-43" d="M1519.14,1461.17,1507,1450.34c-13.23-11.74-32.46-17-34.21-29.11h0v-.06h0a13,13,0,0,0,0,4.09c1.75,12.08,21,17.36,34.21,29.11l12.19,10.82c10.34,9.18,21.25,2.64,18.88-11,1.09,8-10.11,14.83-18.88,7" transform="translate(0 -17.94)"/><path class="cls-44" d="M1537.8,1166.29c12.77,18.08-19.17,68.14-10.43,130.46,5.92,42.26,17.47,113.21,14.71,153.25-.5,7.3-29,12.51-36.75-22.79-13.14-60-29.61-97.49-35.4-144.06l3.07-135.08Z" transform="translate(0 -17.94)"/><path class="cls-44" d="M1497,1159.71c3.53,56.13-36.69,124.81-34,170.12,2.75,46.73-2.34,103.55-2.47,154.13,0,0-41.31,19.56-43.16-10.67-6.07-99.08-25-130,.56-311.23Z" transform="translate(0 -17.94)"/><path class="cls-45" d="M1422.1,1105.4c-1.43-54.08,8.65-107.37,8.65-107.37a73.67,73.67,0,0,1,17.64-18l13.22-16q14.09-3.46,27.84-7.73a77.79,77.79,0,0,1,45.55-.05h0c19.5,8.26,23.23,21.4,14.56,46.58.21,1.13-17.14,70.37-19.39,91.53-.21,2.08,14.78,58.17,18.06,81.06,0,0-14.25,13-18.18,16.31-29,36-123.71-7.65-127.27-26.8C1401.44,1157.8,1413.08,1135.54,1422.1,1105.4Z" transform="translate(0 -17.94)"/><path class="cls-43" d="M1468.6,871.36s-4.73,4.36-7.67,13.71-2.14,15.64-2.41,20.45-2.23,7.48-1.25,9.88,6.86-10.68,12.47-12,4.8,15.55-7.48,20.31c-5.26,8-1.07,27.69,1.87,32s21.12,9.77,36.47,4.37,25.51-20.89,38.2-41.19,0-35,0-35c6.28-13.89-41.28-31.79-61-32.32C1465.47,851.83,1468.6,871.36,1468.6,871.36Z" transform="translate(0 -17.94)"/><path class="cls-17" d="M1491,1011.55c6.17-21.27-17.43-47.41-38.45-40.45-7.48,2.48-13.84,5-17.76,11.56-9.73,16.34-11.36,72.17-19.36,105.94-1.21.27-2.49.48-3.74.71,12.87,17.36,19,26.12,30.34,42a19.17,19.17,0,0,0,2.43-.94C1447.83,1128.57,1491,1011.78,1491,1011.55Z" transform="translate(0 -17.94)"/><path class="cls-43" d="M504.15,1660.18l34.73-3.13s22.22,6.26,35.36,8.13,22.53-.31,25.66,4.38a5.34,5.34,0,0,1,.74,3.21h0s0,0,0,0,0,.09,0,.13c.64,6.9-5.45,13.39-8.87,15.89-6.79,5-14.23,8-34.57,6.19-5.32-2.11-14.81-3.51-18.31,1.79-5.32,2.5-25.65,5.32-34.73,0v-4.54C498.83,1686.77,504.15,1660.18,504.15,1660.18Z" transform="translate(0 -17.94)"/><path class="cls-46" d="M488.91,1340.42c-11.46,59.15,29.54,123.83,26.21,171.58-4.55,65.44-7.07,94-13.83,147.32,0,0,26.59,15.76,46.16-2.27,20-104.41,28.9-123.12,26.12-314.16Z" transform="translate(0 -17.94)"/><path class="cls-47" d="M650.57,1068.43c11.75,13.69,1.88,70-14.61,83.6s-30.11,8.8-44.4-3.36-22.66-42.4-19.24-65.21C577,1052.4,617.08,1029.39,650.57,1068.43Z" transform="translate(0 -17.94)"/><path class="cls-48" d="M654.64,1074.15s2.46,6.13,1.07,16.11-4.9,15.47-6.78,20.06-1.22,7.93-3.19,9.73-1.66-13-6.28-16.66-11.31,12.32-2,22.15c1.36,9.76-11.21,26.19-15.84,28.9s-23.92-.23-35.8-12-14.47-30.65-17.31-55.09,15.43-32.5,15.43-32.5c.29-15.67,52.34-11.33,70.93-3.11C666.15,1057.39,654.64,1074.15,654.64,1074.15Z" transform="translate(0 -17.94)"/><path class="cls-43" d="M570.64,1691.67l34.73-3.13s22.22,6.26,35.36,8.14,22.53-.32,25.66,4.38a5.29,5.29,0,0,1,.73,3.2h0v.15c.64,6.91-5.45,13.39-8.87,15.89-6.8,5-14.24,8-34.58,6.19-5.31-2.1-14.8-3.5-18.3,1.79-5.32,2.5-25.66,5.32-34.73,0v-4.54C565.32,1718.27,570.64,1691.67,570.64,1691.67Z" transform="translate(0 -17.94)"/><path class="cls-46" d="M515.24,1355.35c-3.79,60.31,45.58,126.26,48.44,174.94,3.92,66.73,4,113.92,4.18,168.26,0,0,44.38,21,46.37-11.47,6.53-106.45,13.51-134.42-14-329.21Z" transform="translate(0 -17.94)"/><path class="cls-49" d="M631.44,1162c-24.79-12.35-64.94-46.23-97.76-1.94-30.77,41.53-43.42,166.32-46.93,191.19-4.76,33.66,89.06,51.69,110,50.78,4.73-.2,7.62-2.38,8.95-7,1.75-6.14-3.25-10.54-1.89-16.21.78-3.25,2.9-5.94,4.92-8.56s4-5.44,4.53-8.74c.81-5.36-2.55-10.38-3.15-15.75-.45-3.91.58-7.83,1.6-11.63,8.49-31.69,23.28-61,31.52-92.94,5.57-21.58,13.53-55.89-4.22-73.75C637.05,1165.43,634.11,1162.63,631.44,1162Z" transform="translate(0 -17.94)"/><path class="cls-49" d="M646.64,1178.67c19.87,62.92,21.71,94.12,41.14,119,1.44,1.85,55.09,59.35,55.09,59.35s-7.22,13-26,16.41c-30-12.82-63.86-60-73-70.08-5.25-5.83-34.85-60.1-39.3-87.68S638.34,1153.79,646.64,1178.67Z" transform="translate(0 -17.94)"/><path class="cls-44" d="M1411.7,1134.85c21.39-1.39,32.77-4.48,32.77-4.48s26.16-56.08,33.29-83.23c0,0-9.44,57.7-15.84,76.47s-15.28,26.07-29.05,24.46a192.57,192.57,0,0,1-24.27-4.41Z" transform="translate(0 -17.94)"/><path class="cls-2" d="M325.1,1451.23c8.74.44,17.54.89,26.28.92,2.34,0,4.86-.82,6.45.44,2.1,1.67,2.88,7.33,3.72,9.86,1.09,3.3,4.29,10,3.93,13.43.46-4.32.36-14.15,3.51-18.53,2.66,2.49,4.39,6.4,6.76,9.28a23.75,23.75,0,0,1,1.63-11.12c2.47,2.5,7.25,3.31,10.47,4.64,16,6.61,34.24,16.19,43.3,31.65,9.83,16.76-5.66,34.57-17.83,45.42-6,5.38-13.34,10.35-21,13.16-2.78,1-14.48,2.84-14.33,7.28-2.28-2.71-4.31-5.71-6.82-8,0,2.76-2.26,5.23-1.46,7.78-4.47,1.49-9.65.78-13.91,3.16-1.05-4.88-5.69-9.29-7.18-14.12a46.42,46.42,0,0,0-4.6,12.79c-2.95-.64-6.19-.35-9.18-.23-12.78.52-26.08-.72-38.73-2.5a212.89,212.89,0,0,0-23.35-1.55c-.33-4.49-2.64-9.35-3.64-13.8-1.28-5.72-2.34-11.53-3.62-17.2-1.47,1.88-1.48,4.21-2.21,6.4-2.38,7.16-5.2,14.62-8.07,21.61-2.57-1.39-32.13-4.73-32-6.33.48-5.12,1-11.69.56-16.52-1.74,4.52-5.44,8.06-8.18,12.11-2.94-4.85-1.25-16-2.47-21.68-2.92,2.41-3.7,6.77-5.52,10-1.3,2.28-3.46,4.1-3.44,6.7-7.15-3.35-13.61-8-20.27-12.15-4.29-2.71-12.57-6.19-15.3-10.48-1.89-3-.32-8.5-2-11.28-2.11,1.23-3.06,3.28-4.21,5.23-1.49-1.09-22.06-16.83-20.94-18.06,10.77-11.77,21.35-22.42,35.8-29.51,2.69-1.32,5.29-3.37,7.85-2.52,5.23,1.72,9.23,9.34,13.24,12.64-1.53-6.42-.6-13.87-1.17-20.54,7.55-1.89,14-3.6,22.1-3.64,6.78,0,13.86-.84,20.59-.29,2.44.2,7.09-.33,9.35.62,5.6,2.36,9.31,19.47,10.83,25.44,3.16-5.56,1.74-14.11,4.84-20.33,3.26-6.55,9.66-2.33,14.18-4.36-1.33,2.49.73,8,1.64,10.57,1.65-2.75,1.68-6.69,4.3-8.59a75,75,0,0,1,8.31,17.83c2.16-3.38,1.95-8.14,3.48-11.95.75-1.85,1.94-3.5,2.5-5.3,7.94,1.65,16.36,1.16,24.39,1.55Z" transform="translate(0 -17.94)"/><path class="cls-3" d="M163.62,1490.88c11.86-2.63,27.07,2,38.84,4,12.8,2.2,25.55,4.72,38.36,6.9,23.83,4,47.73,7.19,71.93,7.11,49.29-.15,100,3.46,148.83-4.43,3.34-.54,2.93-6.28-.54-6-50.59,3.88-100.84,6.85-151.61,7.07-26,.11-51.56-3.91-77.11-8.11-22.77-3.75-46.26-8.73-69.34-9.62-2.09-.08-1.79,3.61.64,3.07Z" transform="translate(0 -17.94)"/><g class="cls-50"><g class="cls-51"><path class="cls-52" d="M1011.47,200.49l-15,8.65.38,13.45,8.3-18.46,6.3-3.64m80.62-181.62,2.51,2.23a7.61,7.61,0,0,0-2.51-2.23M1081.44,20l-125,72.13c-8.4,4.85-15.21,16.66-15.19,26.31l.22,76.09c0,4.43,1.46,7.64,3.84,9.36l-.69-.61L961,199.06,960.82,136c0-9.65,6.79-21.46,15.19-26.3L1079.36,50l-4.62,1.64,17.32-32.78c-2.75-1.49-6.5-1.22-10.62,1.16" transform="translate(0 -17.94)"/><path class="cls-52" d="M965.72,222l0,0h0l0,0M944.67,203.3l.69.61,17.76,15.74a12.92,12.92,0,0,1-2.09-7.58l0-13-16.33,4.24" transform="translate(0 -17.94)"/><path class="cls-52" d="M1092.07,18.85h0l-17.32,32.78,4.62-1.64L1101,37.54c4.52-2.61,8.56-2.7,11.35-.75L1094.6,21.1l-2.51-2.23,0,0" transform="translate(0 -17.94)"/><polyline class="cls-52" points="1015.19 180.41 1011.47 182.55 1005.17 186.19 996.87 204.65 1016.45 222.14 1015.19 180.41"/><path class="cls-53" d="M1032.17,146.84l25.38-53.38a8.81,8.81,0,0,1,3.23-3.82,4.52,4.52,0,0,1,2.77-.61l2.52.54c1.69,1,2.11,3.61.44,6.58l-29.27,61.5a10,10,0,0,1-3.21,3.69,2.77,2.77,0,0,1-1.4.42,3.07,3.07,0,0,1-1.74.52l-19.18-3.15c-2.16-.2-2.59-2.92-1.33-6.06l1.73-4a10.09,10.09,0,0,1,3.61-4.23,2.53,2.53,0,0,1,1.9-.4l14.55,2.37M1101,37.54,1079.36,50,976,109.68c-8.4,4.84-15.22,16.65-15.19,26.3l.18,63.08,0,13a12.92,12.92,0,0,0,2.09,7.58,7.52,7.52,0,0,0,2.6,2.31l0,0c2.75,1.44,6.48,1.17,10.57-1.2l20.17-11.64,15-8.65,3.72-2.15,1.26,41.73,45.35-68.64,39.47-22.78c8.45-4.89,15.21-16.66,15.18-26.31l-.21-76.09c0-4.5-1.5-7.76-3.94-9.46-2.79-1.95-6.83-1.86-11.35.75" transform="translate(0 -17.94)"/><path class="cls-13" d="M1060.78,89.64a8.81,8.81,0,0,0-3.23,3.82l-25.38,53.38-14.55-2.37a2.53,2.53,0,0,0-1.9.4,10.09,10.09,0,0,0-3.61,4.23l-1.73,4c-1.26,3.14-.83,5.86,1.33,6.06l19.18,3.15a3.07,3.07,0,0,0,1.74-.52,2.77,2.77,0,0,0,1.4-.42,10,10,0,0,0,3.21-3.69l29.27-61.5c1.67-3,1.25-5.62-.44-6.58l-2.52-.54a4.52,4.52,0,0,0-2.77.61" transform="translate(0 -17.94)"/></g></g><g class="cls-50"><g class="cls-54"><path class="cls-55" d="M210.48,411.27l-17.22,9.94.44,15.44,9.52-21.19,7.26-4.19M303,202.87l2.89,2.56a8.69,8.69,0,0,0-2.89-2.56m-12.22,1.32L147.36,287c-9.64,5.56-17.46,19.11-17.43,30.18l.25,87.32c0,4.58,1.37,8,3.63,10.11l18.72-4.9-.2-72.42c0-11.07,7.79-24.62,17.42-30.19L288.36,238.6l-5.31,1.87,19.89-37.62c-3.16-1.7-7.47-1.4-12.2,1.34" transform="translate(0 -17.94)"/><path class="cls-55" d="M158,435.92l0,0h0l0,0m-24.16-21.33L155,433.31a14.88,14.88,0,0,1-2.42-8.73l0-14.9-18.72,4.9h0" transform="translate(0 -17.94)"/><path class="cls-55" d="M302.94,202.85h0l-19.89,37.62,5.31-1.87,24.78-14.31c5.18-3,9.82-3.09,13-.85l-20.31-18L303,202.87l0,0" transform="translate(0 -17.94)"/><polyline class="cls-55" points="214.72 390.89 210.48 393.34 203.22 397.52 193.7 418.71 216.16 438.77 214.72 390.89"/><path class="cls-56" d="M241.79,373.79c-20.1,11.6-36.47,2.28-36.54-20.82s16.2-51.26,36.3-62.87,36.47-2.27,36.53,20.82-16.19,51.26-36.29,62.87m71.35-149.5L288.36,238.6,169.75,307.07c-9.63,5.57-17.45,19.12-17.42,30.19l.2,72.42,0,14.9a14.88,14.88,0,0,0,2.42,8.73,8.66,8.66,0,0,0,3,2.61l0,0c3.16,1.67,7.43,1.35,12.13-1.36l23.14-13.37,17.22-9.94,4.24-2.45,1.45,47.89,52-78.76,45.3-26.15c9.7-5.61,17.46-19.12,17.42-30.19l-.24-87.32c0-5.16-1.72-8.9-4.52-10.85-3.2-2.24-7.84-2.14-13,.85" transform="translate(0 -17.94)"/><path class="cls-7" d="M243.22,344.44c5.16-3,10.32-8.34,14.09-14.55a3.56,3.56,0,0,1,1.2-1.21,1.1,1.1,0,0,1,1.28-.07c.69.4.63,1.78-.06,2.89-4.39,7.29-10.44,13.48-16.5,17s-11.71,4.31-16.2,2.38c-.69-.31-.76-1.62-.14-2.77a3.94,3.94,0,0,1,1.38-1.51,1.38,1.38,0,0,1,1.17-.19c3.72,1.65,8.75,1,13.78-1.94m-21-8.33-.9,0a10.5,10.5,0,0,1,4.8-8.32c2.69-1.55,4.83-.33,4.84,2.75l-.9,1.07a6.4,6.4,0,0,0-3.92,1,14.06,14.06,0,0,0-3.92,3.53m34.34-19.83-.89,0a10.5,10.5,0,0,1,4.8-8.32c2.69-1.55,4.83-.33,4.84,2.75l-.9,1.07a6.57,6.57,0,0,0-3.92,1,14.1,14.1,0,0,0-3.93,3.53m-15-26.18c-20.1,11.61-36.36,39.77-36.3,62.87s16.44,32.42,36.54,20.82,36.36-39.77,36.29-62.87-16.43-32.42-36.53-20.82" transform="translate(0 -17.94)"/><path class="cls-57" d="M226.14,327.76a10.5,10.5,0,0,0-4.8,8.32l.9,0a14.06,14.06,0,0,1,3.92-3.53,6.4,6.4,0,0,1,3.92-1l.9-1.07c0-3.08-2.15-4.3-4.84-2.75" transform="translate(0 -17.94)"/><path class="cls-57" d="M260.49,307.93a10.5,10.5,0,0,0-4.8,8.32l.89,0a14.1,14.1,0,0,1,3.93-3.53,6.57,6.57,0,0,1,3.92-1l.9-1.07c0-3.08-2.15-4.3-4.84-2.75" transform="translate(0 -17.94)"/><path class="cls-57" d="M258.51,328.68a3.56,3.56,0,0,0-1.2,1.21c-3.77,6.21-8.93,11.57-14.09,14.55s-10.06,3.59-13.78,1.94a1.38,1.38,0,0,0-1.17.19,3.94,3.94,0,0,0-1.38,1.51c-.62,1.15-.55,2.46.14,2.77,4.49,1.93,10.21,1.08,16.2-2.38s12.11-9.68,16.5-17c.69-1.11.75-2.49.06-2.89a1.1,1.1,0,0,0-1.28.07" transform="translate(0 -17.94)"/></g></g></g></g></svg>