<svg xmlns="http://www.w3.org/2000/svg" xmlns:xlink="http://www.w3.org/1999/xlink" viewBox="0 0 403.04 488.69"><defs><style>.cls-1{fill:#5a5e72;opacity:0.43;}.cls-2{fill:#627cbf;}.cls-3{fill:#acbdea;}.cls-4{fill:#fa9b0e;}.cls-5{fill:#fecb0e;}.cls-6{fill:#ffab01;}.cls-7{fill:#d37c09;}.cls-8{fill:#966645;}.cls-9{fill:#353460;}.cls-10{fill:#b7825e;}.cls-11{fill:#3c6;}.cls-12{fill:#25283d;}.cls-13{fill:#19191b;}.cls-14{fill:url(#Gradiente_sem_nome_8);}.cls-15{fill:#acaab5;}</style><linearGradient id="Gradiente_sem_nome_8" x1="-5668.39" y1="385.53" x2="-5601.18" y2="355.55" gradientTransform="matrix(-1, -0.02, -0.02, 1, -5324.04, -343.26)" gradientUnits="userSpaceOnUse"><stop offset="0" stop-color="#8fffff"/><stop offset="0.1" stop-color="#91ffff" stop-opacity="0.98"/><stop offset="0.22" stop-color="#98ffff" stop-opacity="0.92"/><stop offset="0.36" stop-color="#a4ffff" stop-opacity="0.81"/><stop offset="0.51" stop-color="#b4ffff" stop-opacity="0.67"/><stop offset="0.67" stop-color="#c8ffff" stop-opacity="0.49"/><stop offset="0.83" stop-color="#e1ffff" stop-opacity="0.26"/><stop offset="1" stop-color="#feffff" stop-opacity="0"/><stop offset="1" stop-color="#fff" stop-opacity="0"/></linearGradient></defs><title>venda-online</title><g id="Camada_2" data-name="Camada 2"><g id="Camada_1-2" data-name="Camada 1"><ellipse class="cls-1" cx="174.7" cy="452.69" rx="151.45" ry="36"/><path class="cls-2" d="M130.77,150.38c7.38-17.19,28.68-26.9,26.85-48a2.89,2.89,0,0,0-5.33-1.44,327.46,327.46,0,0,0-20.19,32.76,124.66,124.66,0,0,0-.56-17c-.56-5.32-1.35-10.6-2.26-15.86,5.35-18.79,25.5-30.65,24.56-51.58-.08-1.75-2.16-3.37-3.82-2.19-7.13,5.09-8.11,13.82-12.18,21.17-3.76,6.79-8.09,13-11,20-1.64-7.89-3.47-15.74-5.26-23.6,0,0,0,0,0,0,.42-2.12.85-4.22,1.33-6.28a2.06,2.06,0,0,0,.5-1.06c.09-.69.2-1.37.31-2.05,1.68-6.09,4.1-11.79,8.61-16.83,4-4.47,8.83-8,12.33-12.93,2.59-3.64,8.54-14.6,2.29-17.9-6.66-3.53-14.21,8.23-16.85,12.22a69.38,69.38,0,0,0-11.4,31.86c-3.41-16.08-6.1-32.26-6.06-48.9,0-3.62-5.51-3.61-5.62,0a185.64,185.64,0,0,0,3.12,37.38c-4.28-5.22-8.67-10.36-13-15.53S88.86,12.36,81.36,12.7a2.86,2.86,0,0,0-2.82,2.82c0,8.13,3.3,15.58,10.1,20.31A87.33,87.33,0,0,0,97,40.62a15.45,15.45,0,0,0,3.56,2.14,26.55,26.55,0,0,1,3.41,2.7c4.41,4.2,6.92,9.26,10.06,14.34a2,2,0,0,0,.19.21c2,8.74,4,17.47,5.93,26.23A75.93,75.93,0,0,1,97.23,65.6C92.77,59.33,90,53.18,81.51,52.82A2.54,2.54,0,0,0,79,55.3c-.82,10.1,7.23,19.41,14.27,25.84a44.19,44.19,0,0,0,12.56,8.17c6.14,2.61,12.66,3.68,16.79,9.31,1.23,6.62,2.27,13.27,2.95,20a137.29,137.29,0,0,1,.11,25.23,148.93,148.93,0,0,0-23.95-41.37c-1.28-1.58-3.43-.41-4,1.06-3.37,8.15,1.8,17.65,6.15,24.59,3.12,5,7.32,9.17,11.12,13.52,2.6,4.14,5.24,8.26,7.9,12.43a2.89,2.89,0,0,0,.32.42,23,23,0,0,1,.85,3.14c-1.13,7.4-2.6,14.81-4.2,22.31-3.69,17.37-7.62,35.92-3.29,53.51.51,2,3.81,1.65,3.71-.5C119,204.74,127.34,177.86,130.77,150.38Zm18.29-33.77a1,1,0,0,1,.08-.14l-.08.16Z"/><path class="cls-3" d="M121.65,323.7S-32.73,213.45,6.34,44.59C6.34,44.59,137.36,114.76,121.65,323.7Z"/><path class="cls-2" d="M92.45,173.35a2.24,2.24,0,1,0-4-2.07L73.2,200.56,55.06,156.67c0-.06.07-.1.08-.16a2.07,2.07,0,0,0,.67-2.44l11.34-42.61a2.24,2.24,0,1,0-4.33-1.15L52.28,149.93l-39-94.36a2.24,2.24,0,1,0-4.13,1.71l38.28,92.66-28.15-11.1A2.24,2.24,0,0,0,17.65,143l32.16,12.68,19.11,46.25L35.3,186.64a2.24,2.24,0,1,0-1.86,4.08L70,207.36a2.18,2.18,0,0,0,1.16,1.88,2.34,2.34,0,0,0,.84.23l14.5,35.09-29.78-9.67a2.24,2.24,0,0,0-1.38,4.26L87.26,249.5a2.25,2.25,0,0,0,1.18,1.23,2.18,2.18,0,0,0,.7.14l30.44,73.68a2.24,2.24,0,0,0,4.14-1.71L92.45,247.15l13.58-31a2.24,2.24,0,1,0-4.1-1.79L90.07,241.41,75.43,206Z"/><path class="cls-4" d="M309.09,404v25.06c0,9.46-9.87,18.2-26.53,25.22a155.84,155.84,0,0,1-18.31,6.29q-8.81,2.49-18.93,4.46c-7.11,1.36-14.67,2.54-22.59,3.47-4.94.59-10,1.1-15.26,1.51-10.21.79-20.86,1.2-31.84,1.2-2,0-4,0-6,0-40-.55-75.48-6.68-98.77-16-11.51-4.59-20.06-10-24.71-15.84h0a16.52,16.52,0,0,1-4-10.27V404c0-23.26,59.74-42.12,133.46-42.12S309.09,380.77,309.09,404Z"/><path class="cls-5" d="M174.55,360.08c-73.7,0-133.45,18.59-133.45,41.52s59.75,41.53,133.45,41.53S308,424.54,308,401.6,248.26,360.08,174.55,360.08Zm0,78.16c-66.05,0-119.61-16.94-119.61-37.86s53.56-37.86,119.61-37.86,119.61,16.94,119.61,37.86S240.61,438.24,174.55,438.24Z"/><ellipse class="cls-6" cx="174.55" cy="400.38" rx="119.61" ry="37.86"/><ellipse class="cls-6" cx="174.55" cy="400.38" rx="119.61" ry="37.86"/><path class="cls-5" d="M207.47,439.43V470c-10.21.79-20.86,1.2-31.84,1.2-2,0-4,0-6,0V441.88Z"/><path class="cls-5" d="M245.32,433.32v31.74c-7.11,1.36-14.67,2.54-22.59,3.47V435.77Z"/><path class="cls-5" d="M282.56,424.78v29.53a155.84,155.84,0,0,1-18.31,6.29V427.23Z"/><path class="cls-7" d="M249.23,393l22.38,0v6.8l-22.18,0c-1.21,8.13-7.61,16-16.61,20.29l-20.18-3.75c8-4.05,13.8-10.26,15.21-16.56l-40-.05c-5.41,9.2-12.62,19.05-40.4,19-20.38,0-38.16-6.18-41.14-19.11l-22.59,0v-6.8l22.18,0c.81-6.13,5.22-12.34,12.21-16.81l20.19,3.42c-6.2,4.39-9.61,9-10.81,13.41l40.37.05c5.4-9.19,12.41-19.21,40.19-19.18C228.47,373.77,246,380,249.23,393Zm-85.55,6.69-35.57,0c2.19,5.89,9.38,8.38,18.18,8.39C155.88,408.09,160.28,404.53,163.68,399.72Zm46.19-15.36c-9.8,0-14.4,3.63-17.8,8.6l35.37,0C225.25,387,218.46,384.37,209.87,384.36Z"/><path class="cls-4" d="M297.39,361.15v25.06c0,9.46-9.87,18.2-26.53,25.22a155.65,155.65,0,0,1-18.3,6.29q-8.82,2.49-18.93,4.46c-7.11,1.36-14.67,2.54-22.59,3.47-4.94.59-10,1.09-15.26,1.51-10.21.78-20.87,1.2-31.85,1.2-2,0-4,0-6,0-40-.55-75.48-6.68-98.76-16-11.52-4.59-20.06-10-24.72-15.84l0,0a16.51,16.51,0,0,1-4-10.26V361.15c0-23.26,59.73-42.12,133.45-42.12S297.39,337.89,297.39,361.15Z"/><path class="cls-5" d="M162.86,317.2c-73.71,0-133.46,18.59-133.46,41.52s59.75,41.53,133.46,41.53,133.46-18.59,133.46-41.53S236.56,317.2,162.86,317.2Zm0,78.16c-66.06,0-119.61-16.94-119.61-37.86s53.55-37.87,119.61-37.87,119.61,16.95,119.61,37.87S228.92,395.36,162.86,395.36Z"/><ellipse class="cls-6" cx="162.86" cy="357.5" rx="119.61" ry="37.86"/><ellipse class="cls-6" cx="162.86" cy="357.5" rx="119.61" ry="37.86"/><path class="cls-5" d="M195.78,396.55v30.61c-10.21.78-20.87,1.2-31.85,1.2-2,0-4,0-6,0V399Z"/><path class="cls-5" d="M233.63,390.44v31.74c-7.11,1.36-14.67,2.54-22.59,3.47V392.89Z"/><path class="cls-5" d="M270.86,381.89v29.54a155.65,155.65,0,0,1-18.3,6.29V384.35Z"/><path class="cls-7" d="M237.53,350.15l22.38,0V357l-22.18,0c-1.21,8.12-7.62,16-16.62,20.29l-20.18-3.75c8-4.06,13.8-10.26,15.21-16.56l-40-.05c-5.41,9.19-12.61,19.05-40.39,19-20.39,0-38.17-6.18-41.15-19.12l-22.58,0V350l22.18,0c.81-6.13,5.21-12.35,12.21-16.81l20.18,3.42c-6.2,4.38-9.6,9-10.81,13.41l40.37.05c5.41-9.19,12.42-19.21,40.2-19.18C216.77,330.89,234.35,337.13,237.53,350.15ZM152,356.84l-35.57,0c2.19,5.89,9.38,8.38,18.17,8.39C144.19,365.2,148.58,361.65,152,356.84Zm46.18-15.36c-9.79,0-14.39,3.63-17.79,8.6l35.37,0C213.56,344.07,206.77,341.49,198.17,341.48Z"/><path class="cls-4" d="M323.38,318.27v25.06c0,9.46-9.87,18.2-26.53,25.22a155.65,155.65,0,0,1-18.3,6.29q-8.82,2.49-18.94,4.46c-7.11,1.36-14.66,2.54-22.58,3.47-4.95.59-10.05,1.09-15.26,1.51-10.21.78-20.87,1.2-31.85,1.2-2,0-4,0-6,0-40-.56-75.48-6.68-98.76-16-11.52-4.58-20.06-10-24.72-15.83l0,0a16.47,16.47,0,0,1-4-10.26V318.27c0-23.26,59.74-42.13,133.46-42.13S323.38,295,323.38,318.27Z"/><path class="cls-5" d="M188.85,274.32c-73.71,0-133.46,18.59-133.46,41.52s59.75,41.53,133.46,41.53S322.3,338.78,322.3,315.84,262.55,274.32,188.85,274.32Zm0,78.16c-66.06,0-119.61-16.94-119.61-37.86s53.55-37.87,119.61-37.87,119.61,16.95,119.61,37.87S254.9,352.48,188.85,352.48Z"/><ellipse class="cls-6" cx="188.85" cy="314.62" rx="119.61" ry="37.86"/><ellipse class="cls-6" cx="188.85" cy="314.62" rx="119.61" ry="37.86"/><path class="cls-5" d="M221.77,353.66v30.62c-10.21.78-20.87,1.2-31.85,1.2-2,0-4,0-6,0V356.12Z"/><path class="cls-5" d="M259.61,347.56V379.3c-7.11,1.36-14.66,2.54-22.58,3.47V350Z"/><path class="cls-5" d="M296.85,339v29.54a155.65,155.65,0,0,1-18.3,6.29V341.47Z"/><path class="cls-7" d="M263.52,307.27l22.38,0v6.8l-22.19,0c-1.21,8.12-7.61,16-16.61,20.29l-20.18-3.75c8-4.06,13.8-10.27,15.21-16.56l-40-.05c-5.41,9.19-12.61,19.05-40.39,19-20.39,0-38.17-6.18-41.15-19.12l-22.58,0v-6.8l22.19,0c.8-6.14,5.21-12.35,12.21-16.81l20.18,3.42c-6.2,4.38-9.6,9-10.81,13.41l40.37.05C187.59,298,194.6,288,222.37,288,242.76,288,260.34,294.25,263.52,307.27ZM178,314l-35.58,0c2.2,5.89,9.39,8.38,18.18,8.39C170.17,322.32,174.57,318.76,178,314Zm46.18-15.36c-9.79,0-14.39,3.63-17.8,8.6l35.38,0C239.55,301.19,232.75,298.61,224.16,298.6Z"/><path class="cls-4" d="M307.79,274.09v25.06c0,9.46-9.87,18.2-26.53,25.22A155.84,155.84,0,0,1,263,330.66q-8.81,2.49-18.93,4.46c-7.11,1.36-14.67,2.54-22.58,3.47-4.95.59-10.05,1.09-15.27,1.5-10.2.79-20.86,1.2-31.84,1.2q-3,0-6,0c-40-.56-75.48-6.68-98.77-16-11.51-4.58-20.06-10-24.71-15.83l0,0a16.47,16.47,0,0,1-4-10.26V274.09c0-23.27,59.74-42.13,133.46-42.13S307.79,250.82,307.79,274.09Z"/><path class="cls-5" d="M173.25,230.14c-73.7,0-133.45,18.59-133.45,41.52s59.75,41.53,133.45,41.53,133.46-18.59,133.46-41.53S247,230.14,173.25,230.14Zm0,78.16c-66,0-119.61-16.94-119.61-37.86s53.56-37.87,119.61-37.87,119.62,17,119.62,37.87S239.31,308.3,173.25,308.3Z"/><ellipse class="cls-6" cx="173.25" cy="270.44" rx="119.61" ry="37.86"/><ellipse class="cls-6" cx="173.25" cy="270.44" rx="119.61" ry="37.86"/><path class="cls-5" d="M206.17,309.48v30.61c-10.2.79-20.86,1.2-31.84,1.2q-3,0-6,0V311.94Z"/><path class="cls-5" d="M244,303.38v31.74c-7.11,1.36-14.67,2.54-22.58,3.47V305.83Z"/><path class="cls-5" d="M281.26,294.83v29.54A155.84,155.84,0,0,1,263,330.66V297.29Z"/><path class="cls-7" d="M247.93,263.09l22.38,0v6.8l-22.18,0c-1.21,8.12-7.61,16-16.61,20.29l-20.18-3.75c8-4.06,13.8-10.27,15.21-16.56l-40-.05c-5.41,9.19-12.62,19.05-40.4,19-20.38,0-38.16-6.17-41.14-19.11l-22.59,0v-6.8l22.18,0c.81-6.14,5.22-12.35,12.22-16.81L137,249.53c-6.2,4.38-9.61,9-10.81,13.41l40.37.05c5.4-9.19,12.41-19.21,40.19-19.18C227.17,243.83,244.74,250.07,247.93,263.09Zm-85.55,6.69-35.57,0c2.19,5.89,9.38,8.38,18.18,8.39C154.58,278.14,159,274.58,162.38,269.78Zm46.19-15.36c-9.8,0-14.4,3.63-17.8,8.6l35.38,0C224,257,217.16,254.43,208.57,254.42Z"/><path class="cls-8" d="M239.53,152.4s-1.34,18.82,9.08,23.19S292.31,181,300.05,189s6.38,13.11,5.37,13.11-1-2.69-13.78-8.07-39.33,2.36-50.09-4a40,40,0,0,1-15.13-16.14l.34-14.45Z"/><path class="cls-9" d="M349.51,335.94s-.61,14.23,6.5,14.85,9.28-3.72,12.07-5.26,10.21-2.79,13.3-4.33a55.92,55.92,0,0,0,7.11-4.64s.62-6.19-7.73-4.95S365,332.22,361,331Z"/><path class="cls-9" d="M361.65,344.65s-6.15,15.85,1,18.44,6.14,1.62,13.26.33,21.36,2.26,25.25-1,1.94-8.73-6.48-9.7-14.23,0-16.18-3.24a70.81,70.81,0,0,0-5.5-7.44Z"/><path class="cls-10" d="M198.22,89.5c-1.15,7-5.95,17.86-2.84,24.28s9-.15,15.86-2.21c-.75-3,5.76-12.94,8.81-13.84a8.65,8.65,0,0,1,2.88-.12c.31,0,.63,0,.94,0,5-.06,8.62-4.55,10.84-8.9a52.63,52.63,0,0,0,5.7-23.11l-.58-.88L236,59c-4.6-3-10.5-3.37-16-3-5.78.39-11.89,1.62-16,5.61C200.34,65.26,199.07,84.4,198.22,89.5Z"/><path class="cls-11" d="M237.89,192.53c.18,1,1.86,6.31,1.61,7.94a.55.55,0,0,1-.11.36c-6.31,8.57-16.11,11.57-25.8,12a81.32,81.32,0,0,1-24.42-3.14c-.13-.38-.27-.78-.38-1.16,0,0,0,0,0,0-3-9-4-18.46-5.29-27.8-1.18-8.52-2.17-17.07-2.73-25.62-.09-1.21-.15-2.44-.22-3.65s-.11-2.48-.16-3.76a232.38,232.38,0,0,0,1.41-26.88A54.83,54.83,0,0,1,190.2,99c.89-1,1.83-1.9,2.86-2.86l3.11,1.66.12.06,6.93,3.67,9.4,5,0,0c-.18,11.54,24.51,26.81,28.85,37.28,2.08,5.06-1.1,11.19-3,15.82a47.72,47.72,0,0,0-2.82,8.35C234.13,176.05,236.59,184.63,237.89,192.53Z"/><path class="cls-12" d="M375.58,346.26l-7.14,2.88-8.11,3.29-10.67-14.61a147.53,147.53,0,0,1-21.82-43.46c-3.65-11.86-3.43-25.29-10.19-36.1-9.48-15.15-29.16-6.72-42.7-3.72-15.55,3.43-32.69,6.31-48.7,6.27-13.85,0-25-5.62-31.49-18.24-1-1.84-7.29-32.18-6-34,0,0,0,0,0,0a.11.11,0,0,1,.11-.09,197.23,197.23,0,0,0,23.21-1.59c18.44-2.39,27.06-6.69,27.06-6.69l.33.29c1.82,1.43,11.19,8.62,22.23,10.86,12.31,2.5,48.56,1.41,66.26,6.78,4.86,1.47,8.67,4.67,11.78,8.86,3.71,7.65,6,16,7.94,24.28,2.93,12.56,5.17,25.25,7.88,37.85a290.79,290.79,0,0,0,10.79,37.53c2.35,6.49,4.61,13.16,8.95,18.37C375.49,345.79,375.58,346.26,375.58,346.26Z"/><path class="cls-13" d="M240.38,66.46c-2.53,4.07-10.52,5.55-14.8,6-3.94.36-6.78-1.7-10.09-2.28-.45-.07-.92-.11-1.39-.14-2.95-.09-5.46,3.54-4.65,5.93a2.72,2.72,0,0,0,1.76,1.71c1.06,4.34-5.08,5.93-7.85,7.85a7.87,7.87,0,0,0-2.31,2.37c-2.19,3.88,1.91,8.26,2.17,13.72a10.52,10.52,0,0,1-.26,3c-.7,3-4.32,5.57-6.41,7.58a16.12,16.12,0,0,0-1.27,1.35,21.48,21.48,0,0,0-4.1,6.82,29.17,29.17,0,0,0-1.27,4.64,44.68,44.68,0,0,0-.72,7.58c-.15,7.41.79,16.14-5.95,21.15a12.86,12.86,0,0,1-2.49,1.48c-7.16,3.27-15.86-.49-20.5-6.6-10.22-13.48-5.73-29.88,1.1-43.76,3.63-7.34,8-14.3,12-21.44s6.74-14.93,12-21.12a47.55,47.55,0,0,1,25.38-15.76c8-1.81,18.53,1.59,25.06,7.9a20.7,20.7,0,0,1,4.55,6.13,4.31,4.31,0,0,1,.22.49A5.69,5.69,0,0,1,240.38,66.46Z"/><polygon class="cls-14" points="255.04 206.02 316.64 211.23 352.45 149.19 295.44 90.49 255.04 206.02"/><path class="cls-15" d="M318.34,217.07a3,3,0,0,0,2.79-1.51l36.65-63.92a3,3,0,0,0-5.24-3l-35.71,62.29-58.27-4h0a3,3,0,0,0-.38,6l60.15,4.14Z"/><path class="cls-10" d="M281.35,185.72c-9,.34-18.08.57-27.12.75-8.58.18-17.65,1.24-26.19.52-1.85-.15-3.62-.66-4.71-2.27-2.77-4.13-1.76-10.06-1.66-14.77s.18-9.72.18-14.58c0-8.53.32-17.47-1.21-25.9a11.64,11.64,0,0,0-.85-3.08c-2.77-5.66-15.62-11.31-22.3-3.81-1.7,1.92-5.38,8.28-4.86,12.46,1.76,14.14,1.49,32.08,6.36,49.38,1.43,5.06,3.4,10.34,6.88,14.47,3.19,3.78,7.82,7.07,12.82,7.7,5.84.72,11.75-1.3,17.47-2.21q7.86-1.26,15.68-2.72,8.29-1.53,16.54-3.29,3.84-.81,7.66-1.7c1.06-.25,6.19-2.22,7-1.71,0,0,3,1.92,6.15,4.36s7.19,13.48,11,4.53S281.35,185.72,281.35,185.72Z"/><path class="cls-11" d="M196.6,121.48c6.56-7.85,19.91-2.47,23,3.21,1.75,3.29,3.82,16.57,4.31,29.19-3.79.38-10.85,1.36-16.1.74a143.42,143.42,0,0,1-14.39-2.16c-.65-5.83-.47-13.07-1.28-18.13C191.4,130.09,194.93,123.48,196.6,121.48Z"/><circle class="cls-2" cx="44.77" cy="18.02" r="11.43"/><path class="cls-2" d="M43.13,52.31a5.72,5.72,0,1,1-5.71-5.72A5.71,5.71,0,0,1,43.13,52.31Z"/><path class="cls-2" d="M166.4,22.1A4.09,4.09,0,1,1,162.32,18,4.09,4.09,0,0,1,166.4,22.1Z"/><path class="cls-2" d="M20.28,242.51a7.35,7.35,0,1,1-7.35-7.35A7.35,7.35,0,0,1,20.28,242.51Z"/></g></g></svg>