<?xml version="1.0" encoding="utf-8"?>
<!-- Generator: Adobe Illustrator 23.0.6, SVG Export Plug-In . SVG Version: 6.00 Build 0)  -->
<svg version="1.1" id="Camada_1" xmlns="http://www.w3.org/2000/svg" xmlns:xlink="http://www.w3.org/1999/xlink" x="0px" y="0px"
	 viewBox="0 0 1080 1080" style="enable-background:new 0 0 1080 1080;" xml:space="preserve">
<style type="text/css">
	.st0{fill:#EBDB15;}
</style>
<path id="Caminho_1432" class="st0" d="M539.6,0.8C241.6,0.8,0,242.4,0,540.4S241.6,1080,539.6,1080s539.6-241.6,539.6-539.6
	C1078.8,242.6,837.4,1.2,539.6,0.8z M677.9,875.6h-270c-112.9,0-204.4-91.5-204.4-204.4V401c0-112.9,91.5-204.4,204.4-204.4h270
	c112.9,0,204.4,91.5,204.4,204.4v270C882.3,784,790.9,875.5,678,875.6C677.9,875.6,677.9,875.6,677.9,875.6z"/>
<path id="Caminho_1433" class="st0" d="M677.9,260.5h-270c-77.6,0-140.5,62.9-140.5,140.5v270c0,77.6,62.9,140.5,140.5,140.5
	c0,0,0,0,0.1,0h270c77.6,0,140.5-62.9,140.5-140.5V401C818.4,323.4,755.5,260.5,677.9,260.5z M544.1,708.1
	c-92.6,0-167.7-75.1-167.7-167.7c0-92.6,75.1-167.7,167.7-167.7s167.7,75.1,167.7,167.7l0,0C711.7,633,636.6,708,544.1,708.1z
	 M721.6,401.5c-22,0-39.9-17.9-39.9-39.9c0-22,17.9-39.9,39.9-39.9c22,0,39.9,17.9,39.9,39.9c-0.1,22-17.9,39.8-39.9,39.8V401.5z"/>
<path id="Caminho_1434" class="st0" d="M544,433c-59.3,0-107.4,48.1-107.4,107.4c0,59.3,48.1,107.4,107.4,107.4
	c59.3,0,107.4-48.1,107.4-107.4C651.4,481.1,603.3,433,544,433z"/>
</svg>
