<?xml version="1.0" encoding="utf-8"?>
<!-- Generator: Adobe Illustrator 23.0.6, SVG Export Plug-In . SVG Version: 6.00 Build 0)  -->
<svg version="1.1" id="Camada_1" xmlns="http://www.w3.org/2000/svg" xmlns:xlink="http://www.w3.org/1999/xlink" x="0px" y="0px"
	 viewBox="0 0 1080 1080" style="enable-background:new 0 0 1080 1080;" xml:space="preserve">
<style type="text/css">
	.st0{fill:#EBDB15;}
</style>
<path id="Caminho_1436" class="st0" d="M540,0C241.8,0,0,241.8,0,540s241.8,540,540,540s540-241.8,540-540
	C1079.7,241.9,838.1,0.3,540,0z M404.9,782.8c0,5-4,9-9,9c0,0,0,0,0,0H291.8c-5,0-9-4-9-9V433.5c0-5,4-9,9-9h104.1c5,0,9,4,9.1,9
	c0,0,0,0,0,0L404.9,782.8L404.9,782.8z M340.3,377.7c-36.1,0-65.4-29.3-65.4-65.4c0-36.1,29.3-65.4,65.4-65.4s65.4,29.3,65.4,65.4
	l0,0C405.6,348.4,376.4,377.7,340.3,377.7z M845.3,782.8c0,5-4,9-9,9H732.2c-5,0-9-4-9-9V595.2c0-49.5-17.6-83.1-61.9-83.1
	c-28.2,0.2-53.3,18.1-62.7,44.7c-3.1,9.6-4.5,19.7-4,29.8v196.1c0,5-4,9-9,9H481.5c-5,0-9-4-9-9c0,0,0-0.1,0-0.1
	c0.2-49.9,1.3-292.2,0.2-349c-0.1-4.9,3.8-9,8.8-9.1c0.1,0,0.2,0,0.2,0h103.8c5,0,9,4,9,9v42.9c22.5-39.1,64.9-62.5,110.1-60.7
	c80.3,0,140.6,52.5,140.6,165.3L845.3,782.8z"/>
</svg>
