<?xml version="1.0" encoding="utf-8"?>
<!-- Generator: Adobe Illustrator 23.0.6, SVG Export Plug-In . SVG Version: 6.00 Build 0)  -->
<svg version="1.1" id="Camada_1" xmlns="http://www.w3.org/2000/svg" xmlns:xlink="http://www.w3.org/1999/xlink" x="0px" y="0px"
	 viewBox="0 0 1080 1080" style="enable-background:new 0 0 1080 1080;" xml:space="preserve">
<style type="text/css">
	.st0{fill:#EBDB15;}
</style>
<path id="Caminho_1431" class="st0" d="M540,0C241.8,0,0,241.8,0,540s241.8,540,540,540s540-241.8,540-540l0,0
	C1079.7,241.9,838.1,0.3,540,0z M689.8,320.3c0,4.5-3.7,8.2-8.2,8.2l0,0h-65c-15.9,0-28.8,12.9-28.8,28.8v68h92.4
	c4.5,0,8.2,3.7,8.1,8.2c0,0.2,0,0.4,0,0.5l-8.1,95.8c-0.4,4.2-3.9,7.5-8.1,7.5h-84.2v318.2c0,4.5-3.6,8.1-8.1,8.2c0,0,0,0-0.1,0
	H463.7c-4.5,0-8.1-3.6-8.2-8.1c0,0,0,0,0-0.1v-318h-58.1c-4.5,0-8.1-3.6-8.2-8.1c0,0,0,0,0-0.1v-95.8c0-4.5,3.7-8.2,8.2-8.2l0,0
	h58.1v-92.4c0-64.3,52.1-116.5,116.4-116.6h109.9c4.5,0,8.2,3.7,8.2,8.2l0,0L689.8,320.3z"/>
</svg>
