<?xml version="1.0" encoding="utf-8"?>
<!-- Generator: Adobe Illustrator 22.0.0, SVG Export Plug-In . SVG Version: 6.00 Build 0)  -->
<svg version="1.1" id="Design" xmlns="http://www.w3.org/2000/svg" xmlns:xlink="http://www.w3.org/1999/xlink" x="0px" y="0px"
	 viewBox="0 0 100 100" style="enable-background:new 0 0 100 100;" xml:space="preserve">
<style type="text/css">
	.st0{fill:#3C5A99;}
	.st1{fill-rule:evenodd;clip-rule:evenodd;fill:#FFFFFF;}
	.st2{fill:#60FC7C;}
	.st3{fill:#FF0000;}
	.st4{fill:#FFFFFF;}
	.st5{fill:url(#SVGID_1_);}
	.st6{fill:#007AB9;}
</style>
<g>
	<g>
		<path class="st0" d="M50,100C22.43,100,0,77.57,0,50.001C0,22.43,22.43,0,50,0c27.57,0,50,22.43,50,50C100,77.57,77.57,100,50,100
			z"/>
	</g>
	<g>
		<path class="st1" d="M42.159,50.236v28.979c0,0.417,0.338,0.755,0.755,0.755h10.762c0.417,0,0.755-0.338,0.755-0.755V49.764h7.802
			c0.392,0,0.719-0.3,0.752-0.691l0.75-8.874c0.037-0.44-0.31-0.819-0.752-0.819H54.43v-6.296c0-1.475,1.196-2.672,2.672-2.672
			h6.013c0.417,0,0.755-0.338,0.755-0.755v-8.874c0-0.417-0.338-0.755-0.755-0.755h-10.16c-5.962,0-10.795,4.833-10.795,10.796
			v8.555h-5.381c-0.417,0-0.755,0.338-0.755,0.755v8.874c0,0.417,0.338,0.755,0.755,0.755h5.381V50.236z"/>
	</g>
</g>
</svg>
