<?xml version="1.0" encoding="utf-8"?>
<!-- Generator: Adobe Illustrator 22.0.0, SVG Export Plug-In . SVG Version: 6.00 Build 0)  -->
<svg version="1.1" id="Design" xmlns="http://www.w3.org/2000/svg" xmlns:xlink="http://www.w3.org/1999/xlink" x="0px" y="0px"
	 viewBox="0 0 100 100" style="enable-background:new 0 0 100 100;" xml:space="preserve">
<style type="text/css">
	.st0{fill:#3C5A99;}
	.st1{fill-rule:evenodd;clip-rule:evenodd;fill:#FFFFFF;}
	.st2{fill:#60FC7C;}
	.st3{fill:#FF0000;}
	.st4{fill:#FFFFFF;}
	.st5{fill:url(#SVGID_1_);}
	.st6{fill:#007AB9;}
</style>
<g>
	<g>
		<g>
			<path class="st6" d="M50,100C22.43,100,0,77.57,0,50C0,22.43,22.43,0,50,0c27.57,0,50,22.43,50,50C100,77.57,77.57,100,50,100z"
				/>
		</g>
		<g>
			<g>
				<path class="st4" d="M78.267,53.807v18.67c0,0.461-0.374,0.835-0.835,0.835h-9.638c-0.461,0-0.835-0.374-0.835-0.835V55.115
					c0-4.569-1.633-7.69-5.727-7.69c-3.124,0-4.981,2.101-5.8,4.135c-0.298,0.727-0.374,1.737-0.374,2.756v18.16
					c0,0.461-0.374,0.835-0.835,0.835h-9.635c-0.463,0-0.837-0.373-0.835-0.835c0.021-4.623,0.119-27.058,0.02-32.331
					c-0.009-0.467,0.368-0.845,0.835-0.845h9.616c0.461,0,0.835,0.374,0.835,0.835v3.985c-0.023,0.038-0.055,0.075-0.075,0.111
					h0.075V44.12c1.503-2.312,4.183-5.618,10.192-5.618C72.689,38.501,78.267,43.362,78.267,53.807L78.267,53.807z M27.025,73.312
					h9.635c0.461,0,0.835-0.374,0.835-0.835V40.135c0-0.461-0.374-0.835-0.835-0.835h-9.635c-0.461,0-0.835,0.374-0.835,0.835
					v32.342C26.19,72.938,26.564,73.312,27.025,73.312z"/>
			</g>
		</g>
	</g>
	<g>
		<circle class="st4" cx="31.504" cy="28.921" r="6.053"/>
	</g>
</g>
</svg>
