<?xml version="1.0" encoding="utf-8"?>
<!-- Generator: Adobe Illustrator 22.0.0, SVG Export Plug-In . SVG Version: 6.00 Build 0)  -->
<svg version="1.1" id="Design" xmlns="http://www.w3.org/2000/svg" xmlns:xlink="http://www.w3.org/1999/xlink" x="0px" y="0px"
	 viewBox="0 0 100 100" style="enable-background:new 0 0 100 100;" xml:space="preserve">
<style type="text/css">
	.st0{fill:#3C5A99;}
	.st1{fill-rule:evenodd;clip-rule:evenodd;fill:#FFFFFF;}
	.st2{fill:#60FC7C;}
	.st3{fill:#FF0000;}
	.st4{fill:#FFFFFF;}
	.st5{fill:url(#SVGID_1_);}
	.st6{fill:#007AB9;}
</style>
<g>
	<g>
		<path class="st2" d="M50,100C22.43,100,0,77.57,0,50S22.43,0,50,0c27.57,0,50,22.43,50,50S77.57,100,50,100z"/>
	</g>
	<g>
		<g>
			<path class="st1" d="M52.36,17.453c-16.646,0-30.187,13.542-30.187,30.187c0,5.855,1.662,11.479,4.821,16.36l-4.586,10.101
				c-0.423,0.931-0.269,2.022,0.395,2.8c0.508,0.596,1.245,0.926,2.006,0.926c0.232,0,0.467-0.031,0.697-0.094l12.635-3.467
				c4.362,2.333,9.254,3.561,14.219,3.561c16.646,0,30.188-13.542,30.188-30.188C82.547,30.995,69.005,17.453,52.36,17.453z
				 M52.36,72.556c-4.409,0-8.747-1.173-12.545-3.392c-0.407-0.238-0.867-0.36-1.33-0.36c-0.234,0-0.468,0.031-0.697,0.094
				l-8.254,2.265l2.875-6.333c0.391-0.861,0.291-1.865-0.263-2.632c-3.075-4.263-4.701-9.296-4.701-14.557
				c0-13.738,11.177-24.915,24.915-24.915S77.275,33.902,77.275,47.64C77.275,61.379,66.098,72.556,52.36,72.556z"/>
		</g>
		<g>
			<path class="st1" d="M63.966,52.161c-1.264-0.756-2.909-1.6-4.399-0.991c-1.142,0.468-1.872,2.256-2.612,3.17
				c-0.38,0.469-0.834,0.542-1.417,0.307c-4.289-1.709-7.576-4.572-9.943-8.517c-0.401-0.613-0.329-1.097,0.154-1.665
				c0.715-0.841,1.613-1.797,1.806-2.932c0.193-1.134-0.339-2.461-0.808-3.471c-0.599-1.291-1.269-3.132-2.562-3.862
				c-1.189-0.671-2.755-0.296-3.814,0.567c-1.828,1.488-2.71,3.82-2.683,6.132c0.008,0.657,0.088,1.312,0.242,1.946
				c0.369,1.525,1.074,2.949,1.867,4.302c0.598,1.021,1.248,2.011,1.949,2.964c2.294,3.116,5.148,5.825,8.453,7.849
				c1.651,1.011,3.43,1.898,5.271,2.507c2.066,0.682,3.906,1.393,6.136,0.969c2.335-0.444,4.637-1.889,5.564-4.139
				c0.274-0.666,0.412-1.408,0.258-2.112C67.112,53.73,65.142,52.865,63.966,52.161z"/>
		</g>
	</g>
</g>
</svg>
