<?xml version="1.0" encoding="utf-8"?>
<!-- Generator: Adobe Illustrator 22.0.0, SVG Export Plug-In . SVG Version: 6.00 Build 0)  -->
<svg version="1.1" id="Design" xmlns="http://www.w3.org/2000/svg" xmlns:xlink="http://www.w3.org/1999/xlink" x="0px" y="0px"
	 viewBox="0 0 100 100" style="enable-background:new 0 0 100 100;" xml:space="preserve">
<style type="text/css">
	.st0{fill:#3C5A99;}
	.st1{fill-rule:evenodd;clip-rule:evenodd;fill:#FFFFFF;}
	.st2{fill:#60FC7C;}
	.st3{fill:#FF0000;}
	.st4{fill:#FFFFFF;}
	.st5{fill:url(#SVGID_1_);}
	.st6{fill:#007AB9;}
</style>
<g>
	<g>
		<path class="st3" d="M50,100c-27.57,0-50-22.43-50-50C0,22.43,22.43,0,50,0c27.57,0,50,22.43,50,50C100,77.571,77.57,100,50,100z"
			/>
	</g>
	<g>
		<g>
			<path class="st4" d="M79.938,42.418c0-7.091-5.749-12.84-12.84-12.84H33.794c-7.091,0-12.84,5.749-12.84,12.84v15.608
				c0,7.092,5.749,12.84,12.84,12.84h33.303c7.092,0,12.84-5.749,12.84-12.84V42.418z M58.926,51.008l-13.282,7.285
				c-0.577,0.312-1.097-0.106-1.097-0.762V42.578c0-0.665,0.535-1.082,1.113-0.753l13.373,7.668
				C59.625,49.83,59.524,50.685,58.926,51.008z"/>
		</g>
	</g>
</g>
</svg>
